<?xml version="1.0" encoding="utf-8" standalone="no"?>
<!DOCTYPE svg PUBLIC "-//W3C//DTD SVG 1.1//EN"
  "http://www.w3.org/Graphics/SVG/1.1/DTD/svg11.dtd">
<svg xmlns:xlink="http://www.w3.org/1999/xlink" width="576pt" height="432pt" viewBox="0 0 576 432" xmlns="http://www.w3.org/2000/svg" version="1.1">
 <metadata>
  <rdf:RDF xmlns:dc="http://purl.org/dc/elements/1.1/" xmlns:cc="http://creativecommons.org/ns#" xmlns:rdf="http://www.w3.org/1999/02/22-rdf-syntax-ns#">
   <cc:Work>
    <dc:type rdf:resource="http://purl.org/dc/dcmitype/StillImage"/>
    <dc:date>2022-06-10T02:10:41.455226</dc:date>
    <dc:format>image/svg+xml</dc:format>
    <dc:creator>
     <cc:Agent>
      <dc:title>Matplotlib v3.5.2, https://matplotlib.org/</dc:title>
     </cc:Agent>
    </dc:creator>
   </cc:Work>
  </rdf:RDF>
 </metadata>
 <defs>
  <style type="text/css">*{stroke-linejoin: round; stroke-linecap: butt}</style>
 </defs>
 <g id="figure_1">
  <g id="patch_1">
   <path d="M 0 432 
L 576 432 
L 576 0 
L 0 0 
z
" style="fill: #ffffff"/>
  </g>
  <g id="axes_1">
   <g id="patch_2">
    <path d="M 72 384.48 
L 518.4 384.48 
L 518.4 51.84 
L 72 51.84 
z
" style="fill: #ffffff"/>
   </g>
   <g id="matplotlib.axis_1">
    <g id="xtick_1">
     <g id="line2d_1">
      <defs>
       <path id="m854d9b029c" d="M 0 0 
L 0 3.5 
" style="stroke: #000000; stroke-width: 0.8"/>
      </defs>
      <g>
       <use xlink:href="#m854d9b029c" x="92.290909" y="384.48" style="stroke: #000000; stroke-width: 0.8"/>
      </g>
     </g>
     <g id="text_1">
      <!-- 0 -->
      <g transform="translate(89.109659 399.078438)scale(0.1 -0.1)">
       <defs>
        <path id="DejaVuSans-30" d="M 2034 4250 
Q 1547 4250 1301 3770 
Q 1056 3291 1056 2328 
Q 1056 1369 1301 889 
Q 1547 409 2034 409 
Q 2525 409 2770 889 
Q 3016 1369 3016 2328 
Q 3016 3291 2770 3770 
Q 2525 4250 2034 4250 
z
M 2034 4750 
Q 2819 4750 3233 4129 
Q 3647 3509 3647 2328 
Q 3647 1150 3233 529 
Q 2819 -91 2034 -91 
Q 1250 -91 836 529 
Q 422 1150 422 2328 
Q 422 3509 836 4129 
Q 1250 4750 2034 4750 
z
" transform="scale(0.015625)"/>
       </defs>
       <use xlink:href="#DejaVuSans-30"/>
      </g>
     </g>
    </g>
    <g id="xtick_2">
     <g id="line2d_2">
      <g>
       <use xlink:href="#m854d9b029c" x="173.454545" y="384.48" style="stroke: #000000; stroke-width: 0.8"/>
      </g>
     </g>
     <g id="text_2">
      <!-- 20 -->
      <g transform="translate(167.092045 399.078438)scale(0.1 -0.1)">
       <defs>
        <path id="DejaVuSans-32" d="M 1228 531 
L 3431 531 
L 3431 0 
L 469 0 
L 469 531 
Q 828 903 1448 1529 
Q 2069 2156 2228 2338 
Q 2531 2678 2651 2914 
Q 2772 3150 2772 3378 
Q 2772 3750 2511 3984 
Q 2250 4219 1831 4219 
Q 1534 4219 1204 4116 
Q 875 4013 500 3803 
L 500 4441 
Q 881 4594 1212 4672 
Q 1544 4750 1819 4750 
Q 2544 4750 2975 4387 
Q 3406 4025 3406 3419 
Q 3406 3131 3298 2873 
Q 3191 2616 2906 2266 
Q 2828 2175 2409 1742 
Q 1991 1309 1228 531 
z
" transform="scale(0.015625)"/>
       </defs>
       <use xlink:href="#DejaVuSans-32"/>
       <use xlink:href="#DejaVuSans-30" x="63.623047"/>
      </g>
     </g>
    </g>
    <g id="xtick_3">
     <g id="line2d_3">
      <g>
       <use xlink:href="#m854d9b029c" x="254.618182" y="384.48" style="stroke: #000000; stroke-width: 0.8"/>
      </g>
     </g>
     <g id="text_3">
      <!-- 40 -->
      <g transform="translate(248.255682 399.078438)scale(0.1 -0.1)">
       <defs>
        <path id="DejaVuSans-34" d="M 2419 4116 
L 825 1625 
L 2419 1625 
L 2419 4116 
z
M 2253 4666 
L 3047 4666 
L 3047 1625 
L 3713 1625 
L 3713 1100 
L 3047 1100 
L 3047 0 
L 2419 0 
L 2419 1100 
L 313 1100 
L 313 1709 
L 2253 4666 
z
" transform="scale(0.015625)"/>
       </defs>
       <use xlink:href="#DejaVuSans-34"/>
       <use xlink:href="#DejaVuSans-30" x="63.623047"/>
      </g>
     </g>
    </g>
    <g id="xtick_4">
     <g id="line2d_4">
      <g>
       <use xlink:href="#m854d9b029c" x="335.781818" y="384.48" style="stroke: #000000; stroke-width: 0.8"/>
      </g>
     </g>
     <g id="text_4">
      <!-- 60 -->
      <g transform="translate(329.419318 399.078438)scale(0.1 -0.1)">
       <defs>
        <path id="DejaVuSans-36" d="M 2113 2584 
Q 1688 2584 1439 2293 
Q 1191 2003 1191 1497 
Q 1191 994 1439 701 
Q 1688 409 2113 409 
Q 2538 409 2786 701 
Q 3034 994 3034 1497 
Q 3034 2003 2786 2293 
Q 2538 2584 2113 2584 
z
M 3366 4563 
L 3366 3988 
Q 3128 4100 2886 4159 
Q 2644 4219 2406 4219 
Q 1781 4219 1451 3797 
Q 1122 3375 1075 2522 
Q 1259 2794 1537 2939 
Q 1816 3084 2150 3084 
Q 2853 3084 3261 2657 
Q 3669 2231 3669 1497 
Q 3669 778 3244 343 
Q 2819 -91 2113 -91 
Q 1303 -91 875 529 
Q 447 1150 447 2328 
Q 447 3434 972 4092 
Q 1497 4750 2381 4750 
Q 2619 4750 2861 4703 
Q 3103 4656 3366 4563 
z
" transform="scale(0.015625)"/>
       </defs>
       <use xlink:href="#DejaVuSans-36"/>
       <use xlink:href="#DejaVuSans-30" x="63.623047"/>
      </g>
     </g>
    </g>
    <g id="xtick_5">
     <g id="line2d_5">
      <g>
       <use xlink:href="#m854d9b029c" x="416.945455" y="384.48" style="stroke: #000000; stroke-width: 0.8"/>
      </g>
     </g>
     <g id="text_5">
      <!-- 80 -->
      <g transform="translate(410.582955 399.078438)scale(0.1 -0.1)">
       <defs>
        <path id="DejaVuSans-38" d="M 2034 2216 
Q 1584 2216 1326 1975 
Q 1069 1734 1069 1313 
Q 1069 891 1326 650 
Q 1584 409 2034 409 
Q 2484 409 2743 651 
Q 3003 894 3003 1313 
Q 3003 1734 2745 1975 
Q 2488 2216 2034 2216 
z
M 1403 2484 
Q 997 2584 770 2862 
Q 544 3141 544 3541 
Q 544 4100 942 4425 
Q 1341 4750 2034 4750 
Q 2731 4750 3128 4425 
Q 3525 4100 3525 3541 
Q 3525 3141 3298 2862 
Q 3072 2584 2669 2484 
Q 3125 2378 3379 2068 
Q 3634 1759 3634 1313 
Q 3634 634 3220 271 
Q 2806 -91 2034 -91 
Q 1263 -91 848 271 
Q 434 634 434 1313 
Q 434 1759 690 2068 
Q 947 2378 1403 2484 
z
M 1172 3481 
Q 1172 3119 1398 2916 
Q 1625 2713 2034 2713 
Q 2441 2713 2670 2916 
Q 2900 3119 2900 3481 
Q 2900 3844 2670 4047 
Q 2441 4250 2034 4250 
Q 1625 4250 1398 4047 
Q 1172 3844 1172 3481 
z
" transform="scale(0.015625)"/>
       </defs>
       <use xlink:href="#DejaVuSans-38"/>
       <use xlink:href="#DejaVuSans-30" x="63.623047"/>
      </g>
     </g>
    </g>
    <g id="xtick_6">
     <g id="line2d_6">
      <g>
       <use xlink:href="#m854d9b029c" x="498.109091" y="384.48" style="stroke: #000000; stroke-width: 0.8"/>
      </g>
     </g>
     <g id="text_6">
      <!-- 100 -->
      <g transform="translate(488.565341 399.078438)scale(0.1 -0.1)">
       <defs>
        <path id="DejaVuSans-31" d="M 794 531 
L 1825 531 
L 1825 4091 
L 703 3866 
L 703 4441 
L 1819 4666 
L 2450 4666 
L 2450 531 
L 3481 531 
L 3481 0 
L 794 0 
L 794 531 
z
" transform="scale(0.015625)"/>
       </defs>
       <use xlink:href="#DejaVuSans-31"/>
       <use xlink:href="#DejaVuSans-30" x="63.623047"/>
       <use xlink:href="#DejaVuSans-30" x="127.246094"/>
      </g>
     </g>
    </g>
    <g id="text_7">
     <!-- Number of iterations -->
     <g transform="translate(243.389062 412.756563)scale(0.1 -0.1)">
      <defs>
       <path id="DejaVuSans-4e" d="M 628 4666 
L 1478 4666 
L 3547 763 
L 3547 4666 
L 4159 4666 
L 4159 0 
L 3309 0 
L 1241 3903 
L 1241 0 
L 628 0 
L 628 4666 
z
" transform="scale(0.015625)"/>
       <path id="DejaVuSans-75" d="M 544 1381 
L 544 3500 
L 1119 3500 
L 1119 1403 
Q 1119 906 1312 657 
Q 1506 409 1894 409 
Q 2359 409 2629 706 
Q 2900 1003 2900 1516 
L 2900 3500 
L 3475 3500 
L 3475 0 
L 2900 0 
L 2900 538 
Q 2691 219 2414 64 
Q 2138 -91 1772 -91 
Q 1169 -91 856 284 
Q 544 659 544 1381 
z
M 1991 3584 
L 1991 3584 
z
" transform="scale(0.015625)"/>
       <path id="DejaVuSans-6d" d="M 3328 2828 
Q 3544 3216 3844 3400 
Q 4144 3584 4550 3584 
Q 5097 3584 5394 3201 
Q 5691 2819 5691 2113 
L 5691 0 
L 5113 0 
L 5113 2094 
Q 5113 2597 4934 2840 
Q 4756 3084 4391 3084 
Q 3944 3084 3684 2787 
Q 3425 2491 3425 1978 
L 3425 0 
L 2847 0 
L 2847 2094 
Q 2847 2600 2669 2842 
Q 2491 3084 2119 3084 
Q 1678 3084 1418 2786 
Q 1159 2488 1159 1978 
L 1159 0 
L 581 0 
L 581 3500 
L 1159 3500 
L 1159 2956 
Q 1356 3278 1631 3431 
Q 1906 3584 2284 3584 
Q 2666 3584 2933 3390 
Q 3200 3197 3328 2828 
z
" transform="scale(0.015625)"/>
       <path id="DejaVuSans-62" d="M 3116 1747 
Q 3116 2381 2855 2742 
Q 2594 3103 2138 3103 
Q 1681 3103 1420 2742 
Q 1159 2381 1159 1747 
Q 1159 1113 1420 752 
Q 1681 391 2138 391 
Q 2594 391 2855 752 
Q 3116 1113 3116 1747 
z
M 1159 2969 
Q 1341 3281 1617 3432 
Q 1894 3584 2278 3584 
Q 2916 3584 3314 3078 
Q 3713 2572 3713 1747 
Q 3713 922 3314 415 
Q 2916 -91 2278 -91 
Q 1894 -91 1617 61 
Q 1341 213 1159 525 
L 1159 0 
L 581 0 
L 581 4863 
L 1159 4863 
L 1159 2969 
z
" transform="scale(0.015625)"/>
       <path id="DejaVuSans-65" d="M 3597 1894 
L 3597 1613 
L 953 1613 
Q 991 1019 1311 708 
Q 1631 397 2203 397 
Q 2534 397 2845 478 
Q 3156 559 3463 722 
L 3463 178 
Q 3153 47 2828 -22 
Q 2503 -91 2169 -91 
Q 1331 -91 842 396 
Q 353 884 353 1716 
Q 353 2575 817 3079 
Q 1281 3584 2069 3584 
Q 2775 3584 3186 3129 
Q 3597 2675 3597 1894 
z
M 3022 2063 
Q 3016 2534 2758 2815 
Q 2500 3097 2075 3097 
Q 1594 3097 1305 2825 
Q 1016 2553 972 2059 
L 3022 2063 
z
" transform="scale(0.015625)"/>
       <path id="DejaVuSans-72" d="M 2631 2963 
Q 2534 3019 2420 3045 
Q 2306 3072 2169 3072 
Q 1681 3072 1420 2755 
Q 1159 2438 1159 1844 
L 1159 0 
L 581 0 
L 581 3500 
L 1159 3500 
L 1159 2956 
Q 1341 3275 1631 3429 
Q 1922 3584 2338 3584 
Q 2397 3584 2469 3576 
Q 2541 3569 2628 3553 
L 2631 2963 
z
" transform="scale(0.015625)"/>
       <path id="DejaVuSans-20" transform="scale(0.015625)"/>
       <path id="DejaVuSans-6f" d="M 1959 3097 
Q 1497 3097 1228 2736 
Q 959 2375 959 1747 
Q 959 1119 1226 758 
Q 1494 397 1959 397 
Q 2419 397 2687 759 
Q 2956 1122 2956 1747 
Q 2956 2369 2687 2733 
Q 2419 3097 1959 3097 
z
M 1959 3584 
Q 2709 3584 3137 3096 
Q 3566 2609 3566 1747 
Q 3566 888 3137 398 
Q 2709 -91 1959 -91 
Q 1206 -91 779 398 
Q 353 888 353 1747 
Q 353 2609 779 3096 
Q 1206 3584 1959 3584 
z
" transform="scale(0.015625)"/>
       <path id="DejaVuSans-66" d="M 2375 4863 
L 2375 4384 
L 1825 4384 
Q 1516 4384 1395 4259 
Q 1275 4134 1275 3809 
L 1275 3500 
L 2222 3500 
L 2222 3053 
L 1275 3053 
L 1275 0 
L 697 0 
L 697 3053 
L 147 3053 
L 147 3500 
L 697 3500 
L 697 3744 
Q 697 4328 969 4595 
Q 1241 4863 1831 4863 
L 2375 4863 
z
" transform="scale(0.015625)"/>
       <path id="DejaVuSans-69" d="M 603 3500 
L 1178 3500 
L 1178 0 
L 603 0 
L 603 3500 
z
M 603 4863 
L 1178 4863 
L 1178 4134 
L 603 4134 
L 603 4863 
z
" transform="scale(0.015625)"/>
       <path id="DejaVuSans-74" d="M 1172 4494 
L 1172 3500 
L 2356 3500 
L 2356 3053 
L 1172 3053 
L 1172 1153 
Q 1172 725 1289 603 
Q 1406 481 1766 481 
L 2356 481 
L 2356 0 
L 1766 0 
Q 1100 0 847 248 
Q 594 497 594 1153 
L 594 3053 
L 172 3053 
L 172 3500 
L 594 3500 
L 594 4494 
L 1172 4494 
z
" transform="scale(0.015625)"/>
       <path id="DejaVuSans-61" d="M 2194 1759 
Q 1497 1759 1228 1600 
Q 959 1441 959 1056 
Q 959 750 1161 570 
Q 1363 391 1709 391 
Q 2188 391 2477 730 
Q 2766 1069 2766 1631 
L 2766 1759 
L 2194 1759 
z
M 3341 1997 
L 3341 0 
L 2766 0 
L 2766 531 
Q 2569 213 2275 61 
Q 1981 -91 1556 -91 
Q 1019 -91 701 211 
Q 384 513 384 1019 
Q 384 1609 779 1909 
Q 1175 2209 1959 2209 
L 2766 2209 
L 2766 2266 
Q 2766 2663 2505 2880 
Q 2244 3097 1772 3097 
Q 1472 3097 1187 3025 
Q 903 2953 641 2809 
L 641 3341 
Q 956 3463 1253 3523 
Q 1550 3584 1831 3584 
Q 2591 3584 2966 3190 
Q 3341 2797 3341 1997 
z
" transform="scale(0.015625)"/>
       <path id="DejaVuSans-6e" d="M 3513 2113 
L 3513 0 
L 2938 0 
L 2938 2094 
Q 2938 2591 2744 2837 
Q 2550 3084 2163 3084 
Q 1697 3084 1428 2787 
Q 1159 2491 1159 1978 
L 1159 0 
L 581 0 
L 581 3500 
L 1159 3500 
L 1159 2956 
Q 1366 3272 1645 3428 
Q 1925 3584 2291 3584 
Q 2894 3584 3203 3211 
Q 3513 2838 3513 2113 
z
" transform="scale(0.015625)"/>
       <path id="DejaVuSans-73" d="M 2834 3397 
L 2834 2853 
Q 2591 2978 2328 3040 
Q 2066 3103 1784 3103 
Q 1356 3103 1142 2972 
Q 928 2841 928 2578 
Q 928 2378 1081 2264 
Q 1234 2150 1697 2047 
L 1894 2003 
Q 2506 1872 2764 1633 
Q 3022 1394 3022 966 
Q 3022 478 2636 193 
Q 2250 -91 1575 -91 
Q 1294 -91 989 -36 
Q 684 19 347 128 
L 347 722 
Q 666 556 975 473 
Q 1284 391 1588 391 
Q 1994 391 2212 530 
Q 2431 669 2431 922 
Q 2431 1156 2273 1281 
Q 2116 1406 1581 1522 
L 1381 1569 
Q 847 1681 609 1914 
Q 372 2147 372 2553 
Q 372 3047 722 3315 
Q 1072 3584 1716 3584 
Q 2034 3584 2315 3537 
Q 2597 3491 2834 3397 
z
" transform="scale(0.015625)"/>
      </defs>
      <use xlink:href="#DejaVuSans-4e"/>
      <use xlink:href="#DejaVuSans-75" x="74.804688"/>
      <use xlink:href="#DejaVuSans-6d" x="138.183594"/>
      <use xlink:href="#DejaVuSans-62" x="235.595703"/>
      <use xlink:href="#DejaVuSans-65" x="299.072266"/>
      <use xlink:href="#DejaVuSans-72" x="360.595703"/>
      <use xlink:href="#DejaVuSans-20" x="401.708984"/>
      <use xlink:href="#DejaVuSans-6f" x="433.496094"/>
      <use xlink:href="#DejaVuSans-66" x="494.677734"/>
      <use xlink:href="#DejaVuSans-20" x="529.882812"/>
      <use xlink:href="#DejaVuSans-69" x="561.669922"/>
      <use xlink:href="#DejaVuSans-74" x="589.453125"/>
      <use xlink:href="#DejaVuSans-65" x="628.662109"/>
      <use xlink:href="#DejaVuSans-72" x="690.185547"/>
      <use xlink:href="#DejaVuSans-61" x="731.298828"/>
      <use xlink:href="#DejaVuSans-74" x="792.578125"/>
      <use xlink:href="#DejaVuSans-69" x="831.787109"/>
      <use xlink:href="#DejaVuSans-6f" x="859.570312"/>
      <use xlink:href="#DejaVuSans-6e" x="920.751953"/>
      <use xlink:href="#DejaVuSans-73" x="984.130859"/>
     </g>
    </g>
   </g>
   <g id="matplotlib.axis_2">
    <g id="ytick_1">
     <g id="line2d_7">
      <defs>
       <path id="mc15f510ff1" d="M 0 0 
L -3.5 0 
" style="stroke: #000000; stroke-width: 0.8"/>
      </defs>
      <g>
       <use xlink:href="#mc15f510ff1" x="72" y="362.039" style="stroke: #000000; stroke-width: 0.8"/>
      </g>
     </g>
     <g id="text_8">
      <!-- $\mathdefault{10^{-4}}$ -->
      <g transform="translate(41.5 365.838219)scale(0.1 -0.1)">
       <defs>
        <path id="DejaVuSans-2212" d="M 678 2272 
L 4684 2272 
L 4684 1741 
L 678 1741 
L 678 2272 
z
" transform="scale(0.015625)"/>
       </defs>
       <use xlink:href="#DejaVuSans-31" transform="translate(0 0.684375)"/>
       <use xlink:href="#DejaVuSans-30" transform="translate(63.623047 0.684375)"/>
       <use xlink:href="#DejaVuSans-2212" transform="translate(128.203125 38.965625)scale(0.7)"/>
       <use xlink:href="#DejaVuSans-34" transform="translate(186.855469 38.965625)scale(0.7)"/>
      </g>
     </g>
    </g>
    <g id="ytick_2">
     <g id="line2d_8">
      <g>
       <use xlink:href="#mc15f510ff1" x="72" y="321.732097" style="stroke: #000000; stroke-width: 0.8"/>
      </g>
     </g>
     <g id="text_9">
      <!-- $\mathdefault{10^{-2}}$ -->
      <g transform="translate(41.5 325.531316)scale(0.1 -0.1)">
       <use xlink:href="#DejaVuSans-31" transform="translate(0 0.765625)"/>
       <use xlink:href="#DejaVuSans-30" transform="translate(63.623047 0.765625)"/>
       <use xlink:href="#DejaVuSans-2212" transform="translate(128.203125 39.046875)scale(0.7)"/>
       <use xlink:href="#DejaVuSans-32" transform="translate(186.855469 39.046875)scale(0.7)"/>
      </g>
     </g>
    </g>
    <g id="ytick_3">
     <g id="line2d_9">
      <g>
       <use xlink:href="#mc15f510ff1" x="72" y="281.425195" style="stroke: #000000; stroke-width: 0.8"/>
      </g>
     </g>
     <g id="text_10">
      <!-- $\mathdefault{10^{0}}$ -->
      <g transform="translate(47.4 285.224413)scale(0.1 -0.1)">
       <use xlink:href="#DejaVuSans-31" transform="translate(0 0.765625)"/>
       <use xlink:href="#DejaVuSans-30" transform="translate(63.623047 0.765625)"/>
       <use xlink:href="#DejaVuSans-30" transform="translate(128.203125 39.046875)scale(0.7)"/>
      </g>
     </g>
    </g>
    <g id="ytick_4">
     <g id="line2d_10">
      <g>
       <use xlink:href="#mc15f510ff1" x="72" y="241.118292" style="stroke: #000000; stroke-width: 0.8"/>
      </g>
     </g>
     <g id="text_11">
      <!-- $\mathdefault{10^{2}}$ -->
      <g transform="translate(47.4 244.917511)scale(0.1 -0.1)">
       <use xlink:href="#DejaVuSans-31" transform="translate(0 0.765625)"/>
       <use xlink:href="#DejaVuSans-30" transform="translate(63.623047 0.765625)"/>
       <use xlink:href="#DejaVuSans-32" transform="translate(128.203125 39.046875)scale(0.7)"/>
      </g>
     </g>
    </g>
    <g id="ytick_5">
     <g id="line2d_11">
      <g>
       <use xlink:href="#mc15f510ff1" x="72" y="200.811389" style="stroke: #000000; stroke-width: 0.8"/>
      </g>
     </g>
     <g id="text_12">
      <!-- $\mathdefault{10^{4}}$ -->
      <g transform="translate(47.4 204.610608)scale(0.1 -0.1)">
       <use xlink:href="#DejaVuSans-31" transform="translate(0 0.684375)"/>
       <use xlink:href="#DejaVuSans-30" transform="translate(63.623047 0.684375)"/>
       <use xlink:href="#DejaVuSans-34" transform="translate(128.203125 38.965625)scale(0.7)"/>
      </g>
     </g>
    </g>
    <g id="ytick_6">
     <g id="line2d_12">
      <g>
       <use xlink:href="#mc15f510ff1" x="72" y="160.504487" style="stroke: #000000; stroke-width: 0.8"/>
      </g>
     </g>
     <g id="text_13">
      <!-- $\mathdefault{10^{6}}$ -->
      <g transform="translate(47.4 164.303706)scale(0.1 -0.1)">
       <use xlink:href="#DejaVuSans-31" transform="translate(0 0.765625)"/>
       <use xlink:href="#DejaVuSans-30" transform="translate(63.623047 0.765625)"/>
       <use xlink:href="#DejaVuSans-36" transform="translate(128.203125 39.046875)scale(0.7)"/>
      </g>
     </g>
    </g>
    <g id="ytick_7">
     <g id="line2d_13">
      <g>
       <use xlink:href="#mc15f510ff1" x="72" y="120.197584" style="stroke: #000000; stroke-width: 0.8"/>
      </g>
     </g>
     <g id="text_14">
      <!-- $\mathdefault{10^{8}}$ -->
      <g transform="translate(47.4 123.996803)scale(0.1 -0.1)">
       <use xlink:href="#DejaVuSans-31" transform="translate(0 0.765625)"/>
       <use xlink:href="#DejaVuSans-30" transform="translate(63.623047 0.765625)"/>
       <use xlink:href="#DejaVuSans-38" transform="translate(128.203125 39.046875)scale(0.7)"/>
      </g>
     </g>
    </g>
    <g id="ytick_8">
     <g id="line2d_14">
      <g>
       <use xlink:href="#mc15f510ff1" x="72" y="79.890682" style="stroke: #000000; stroke-width: 0.8"/>
      </g>
     </g>
     <g id="text_15">
      <!-- $\mathdefault{10^{10}}$ -->
      <g transform="translate(42.9 83.6899)scale(0.1 -0.1)">
       <use xlink:href="#DejaVuSans-31" transform="translate(0 0.765625)"/>
       <use xlink:href="#DejaVuSans-30" transform="translate(63.623047 0.765625)"/>
       <use xlink:href="#DejaVuSans-31" transform="translate(128.203125 39.046875)scale(0.7)"/>
       <use xlink:href="#DejaVuSans-30" transform="translate(172.739258 39.046875)scale(0.7)"/>
      </g>
     </g>
    </g>
    <g id="text_16">
     <!-- Norm of the residuals -->
     <g transform="translate(35.420312 272.004531)rotate(-90)scale(0.1 -0.1)">
      <defs>
       <path id="DejaVuSans-68" d="M 3513 2113 
L 3513 0 
L 2938 0 
L 2938 2094 
Q 2938 2591 2744 2837 
Q 2550 3084 2163 3084 
Q 1697 3084 1428 2787 
Q 1159 2491 1159 1978 
L 1159 0 
L 581 0 
L 581 4863 
L 1159 4863 
L 1159 2956 
Q 1366 3272 1645 3428 
Q 1925 3584 2291 3584 
Q 2894 3584 3203 3211 
Q 3513 2838 3513 2113 
z
" transform="scale(0.015625)"/>
       <path id="DejaVuSans-64" d="M 2906 2969 
L 2906 4863 
L 3481 4863 
L 3481 0 
L 2906 0 
L 2906 525 
Q 2725 213 2448 61 
Q 2172 -91 1784 -91 
Q 1150 -91 751 415 
Q 353 922 353 1747 
Q 353 2572 751 3078 
Q 1150 3584 1784 3584 
Q 2172 3584 2448 3432 
Q 2725 3281 2906 2969 
z
M 947 1747 
Q 947 1113 1208 752 
Q 1469 391 1925 391 
Q 2381 391 2643 752 
Q 2906 1113 2906 1747 
Q 2906 2381 2643 2742 
Q 2381 3103 1925 3103 
Q 1469 3103 1208 2742 
Q 947 2381 947 1747 
z
" transform="scale(0.015625)"/>
       <path id="DejaVuSans-6c" d="M 603 4863 
L 1178 4863 
L 1178 0 
L 603 0 
L 603 4863 
z
" transform="scale(0.015625)"/>
      </defs>
      <use xlink:href="#DejaVuSans-4e"/>
      <use xlink:href="#DejaVuSans-6f" x="74.804688"/>
      <use xlink:href="#DejaVuSans-72" x="135.986328"/>
      <use xlink:href="#DejaVuSans-6d" x="175.349609"/>
      <use xlink:href="#DejaVuSans-20" x="272.761719"/>
      <use xlink:href="#DejaVuSans-6f" x="304.548828"/>
      <use xlink:href="#DejaVuSans-66" x="365.730469"/>
      <use xlink:href="#DejaVuSans-20" x="400.935547"/>
      <use xlink:href="#DejaVuSans-74" x="432.722656"/>
      <use xlink:href="#DejaVuSans-68" x="471.931641"/>
      <use xlink:href="#DejaVuSans-65" x="535.310547"/>
      <use xlink:href="#DejaVuSans-20" x="596.833984"/>
      <use xlink:href="#DejaVuSans-72" x="628.621094"/>
      <use xlink:href="#DejaVuSans-65" x="667.484375"/>
      <use xlink:href="#DejaVuSans-73" x="729.007812"/>
      <use xlink:href="#DejaVuSans-69" x="781.107422"/>
      <use xlink:href="#DejaVuSans-64" x="808.890625"/>
      <use xlink:href="#DejaVuSans-75" x="872.367188"/>
      <use xlink:href="#DejaVuSans-61" x="935.746094"/>
      <use xlink:href="#DejaVuSans-6c" x="997.025391"/>
      <use xlink:href="#DejaVuSans-73" x="1024.808594"/>
     </g>
    </g>
   </g>
   <g id="line2d_15">
    <path d="M 92.290909 66.96 
L 96.349091 78.330705 
L 100.407273 82.535826 
L 104.465455 87.087067 
L 108.523636 90.990549 
L 112.581818 90.758362 
L 116.64 93.462929 
L 120.698182 95.853974 
L 124.756364 97.121764 
L 128.814545 100.35391 
L 132.872727 99.632977 
L 136.930909 103.348544 
L 140.989091 106.035367 
L 145.047273 106.253781 
L 149.105455 106.265031 
L 153.163636 108.486426 
L 157.221818 110.317317 
L 161.28 113.045035 
L 165.338182 114.264897 
L 169.396364 113.795014 
L 173.454545 117.504285 
L 177.512727 117.288768 
L 181.570909 118.139494 
L 185.629091 115.437379 
L 189.687273 120.712458 
L 193.745455 119.022876 
L 197.803636 115.028291 
L 201.861818 120.952609 
L 205.92 121.362279 
L 209.978182 118.319204 
L 214.036364 125.500741 
L 218.094545 123.237907 
L 222.152727 124.692768 
L 226.210909 125.591167 
L 230.269091 120.677425 
L 234.327273 122.903109 
L 238.385455 128.821609 
L 242.443636 130.570992 
L 246.501818 124.82281 
L 250.56 120.423239 
L 254.618182 130.107036 
L 258.676364 125.640847 
L 262.734545 128.786615 
L 266.792727 116.104013 
L 270.850909 132.696359 
L 274.909091 131.910953 
L 278.967273 122.491929 
L 283.025455 132.653551 
L 287.083636 130.745527 
L 291.141818 126.883573 
L 295.2 128.815527 
L 299.258182 117.098178 
L 303.316364 127.594778 
L 307.374545 134.94138 
L 311.432727 132.923205 
L 315.490909 125.107033 
L 319.549091 138.682726 
L 323.607273 124.969421 
L 327.665455 125.708694 
L 331.723636 129.851172 
L 335.781818 136.056439 
L 339.84 131.256484 
L 343.898182 125.611913 
L 347.956364 138.9167 
L 352.014545 132.615893 
L 356.072727 128.653106 
L 360.130909 135.728958 
L 364.189091 138.932331 
L 368.247273 144.415346 
L 372.305455 128.400479 
L 376.363636 131.943686 
L 380.421818 131.003547 
L 384.48 144.78975 
L 388.538182 140.090196 
L 392.596364 126.79087 
L 396.654545 134.153213 
L 400.712727 141.898211 
L 404.770909 145.112049 
L 408.829091 138.311286 
L 412.887273 139.854365 
L 416.945455 139.471287 
L 421.003636 145.970098 
L 425.061818 138.300021 
L 429.12 138.206991 
L 433.178182 137.18826 
L 437.236364 132.082178 
L 441.294545 139.631866 
L 445.352727 143.44121 
L 449.410909 147.793325 
L 453.469091 147.054273 
L 457.527273 136.287335 
L 461.585455 140.206815 
L 465.643636 139.563491 
L 469.701818 148.771043 
L 473.76 134.443601 
L 477.818182 133.023034 
L 481.876364 144.587806 
L 485.934545 146.592071 
L 489.992727 143.52499 
L 494.050909 149.564426 
L 498.109091 140.866181 
" clip-path="url(#p6f3e53a228)" style="fill: none; stroke: #1f77b4; stroke-width: 1.5; stroke-linecap: square"/>
    <defs>
     <path id="m9172333362" d="M -0 3 
L 3 -3 
L -3 -3 
z
" style="stroke: #1f77b4; stroke-linejoin: miter"/>
    </defs>
    <g clip-path="url(#p6f3e53a228)">
     <use xlink:href="#m9172333362" x="92.290909" y="66.96" style="fill: #1f77b4; stroke: #1f77b4; stroke-linejoin: miter"/>
     <use xlink:href="#m9172333362" x="96.349091" y="78.330705" style="fill: #1f77b4; stroke: #1f77b4; stroke-linejoin: miter"/>
     <use xlink:href="#m9172333362" x="100.407273" y="82.535826" style="fill: #1f77b4; stroke: #1f77b4; stroke-linejoin: miter"/>
     <use xlink:href="#m9172333362" x="104.465455" y="87.087067" style="fill: #1f77b4; stroke: #1f77b4; stroke-linejoin: miter"/>
     <use xlink:href="#m9172333362" x="108.523636" y="90.990549" style="fill: #1f77b4; stroke: #1f77b4; stroke-linejoin: miter"/>
     <use xlink:href="#m9172333362" x="112.581818" y="90.758362" style="fill: #1f77b4; stroke: #1f77b4; stroke-linejoin: miter"/>
     <use xlink:href="#m9172333362" x="116.64" y="93.462929" style="fill: #1f77b4; stroke: #1f77b4; stroke-linejoin: miter"/>
     <use xlink:href="#m9172333362" x="120.698182" y="95.853974" style="fill: #1f77b4; stroke: #1f77b4; stroke-linejoin: miter"/>
     <use xlink:href="#m9172333362" x="124.756364" y="97.121764" style="fill: #1f77b4; stroke: #1f77b4; stroke-linejoin: miter"/>
     <use xlink:href="#m9172333362" x="128.814545" y="100.35391" style="fill: #1f77b4; stroke: #1f77b4; stroke-linejoin: miter"/>
     <use xlink:href="#m9172333362" x="132.872727" y="99.632977" style="fill: #1f77b4; stroke: #1f77b4; stroke-linejoin: miter"/>
     <use xlink:href="#m9172333362" x="136.930909" y="103.348544" style="fill: #1f77b4; stroke: #1f77b4; stroke-linejoin: miter"/>
     <use xlink:href="#m9172333362" x="140.989091" y="106.035367" style="fill: #1f77b4; stroke: #1f77b4; stroke-linejoin: miter"/>
     <use xlink:href="#m9172333362" x="145.047273" y="106.253781" style="fill: #1f77b4; stroke: #1f77b4; stroke-linejoin: miter"/>
     <use xlink:href="#m9172333362" x="149.105455" y="106.265031" style="fill: #1f77b4; stroke: #1f77b4; stroke-linejoin: miter"/>
     <use xlink:href="#m9172333362" x="153.163636" y="108.486426" style="fill: #1f77b4; stroke: #1f77b4; stroke-linejoin: miter"/>
     <use xlink:href="#m9172333362" x="157.221818" y="110.317317" style="fill: #1f77b4; stroke: #1f77b4; stroke-linejoin: miter"/>
     <use xlink:href="#m9172333362" x="161.28" y="113.045035" style="fill: #1f77b4; stroke: #1f77b4; stroke-linejoin: miter"/>
     <use xlink:href="#m9172333362" x="165.338182" y="114.264897" style="fill: #1f77b4; stroke: #1f77b4; stroke-linejoin: miter"/>
     <use xlink:href="#m9172333362" x="169.396364" y="113.795014" style="fill: #1f77b4; stroke: #1f77b4; stroke-linejoin: miter"/>
     <use xlink:href="#m9172333362" x="173.454545" y="117.504285" style="fill: #1f77b4; stroke: #1f77b4; stroke-linejoin: miter"/>
     <use xlink:href="#m9172333362" x="177.512727" y="117.288768" style="fill: #1f77b4; stroke: #1f77b4; stroke-linejoin: miter"/>
     <use xlink:href="#m9172333362" x="181.570909" y="118.139494" style="fill: #1f77b4; stroke: #1f77b4; stroke-linejoin: miter"/>
     <use xlink:href="#m9172333362" x="185.629091" y="115.437379" style="fill: #1f77b4; stroke: #1f77b4; stroke-linejoin: miter"/>
     <use xlink:href="#m9172333362" x="189.687273" y="120.712458" style="fill: #1f77b4; stroke: #1f77b4; stroke-linejoin: miter"/>
     <use xlink:href="#m9172333362" x="193.745455" y="119.022876" style="fill: #1f77b4; stroke: #1f77b4; stroke-linejoin: miter"/>
     <use xlink:href="#m9172333362" x="197.803636" y="115.028291" style="fill: #1f77b4; stroke: #1f77b4; stroke-linejoin: miter"/>
     <use xlink:href="#m9172333362" x="201.861818" y="120.952609" style="fill: #1f77b4; stroke: #1f77b4; stroke-linejoin: miter"/>
     <use xlink:href="#m9172333362" x="205.92" y="121.362279" style="fill: #1f77b4; stroke: #1f77b4; stroke-linejoin: miter"/>
     <use xlink:href="#m9172333362" x="209.978182" y="118.319204" style="fill: #1f77b4; stroke: #1f77b4; stroke-linejoin: miter"/>
     <use xlink:href="#m9172333362" x="214.036364" y="125.500741" style="fill: #1f77b4; stroke: #1f77b4; stroke-linejoin: miter"/>
     <use xlink:href="#m9172333362" x="218.094545" y="123.237907" style="fill: #1f77b4; stroke: #1f77b4; stroke-linejoin: miter"/>
     <use xlink:href="#m9172333362" x="222.152727" y="124.692768" style="fill: #1f77b4; stroke: #1f77b4; stroke-linejoin: miter"/>
     <use xlink:href="#m9172333362" x="226.210909" y="125.591167" style="fill: #1f77b4; stroke: #1f77b4; stroke-linejoin: miter"/>
     <use xlink:href="#m9172333362" x="230.269091" y="120.677425" style="fill: #1f77b4; stroke: #1f77b4; stroke-linejoin: miter"/>
     <use xlink:href="#m9172333362" x="234.327273" y="122.903109" style="fill: #1f77b4; stroke: #1f77b4; stroke-linejoin: miter"/>
     <use xlink:href="#m9172333362" x="238.385455" y="128.821609" style="fill: #1f77b4; stroke: #1f77b4; stroke-linejoin: miter"/>
     <use xlink:href="#m9172333362" x="242.443636" y="130.570992" style="fill: #1f77b4; stroke: #1f77b4; stroke-linejoin: miter"/>
     <use xlink:href="#m9172333362" x="246.501818" y="124.82281" style="fill: #1f77b4; stroke: #1f77b4; stroke-linejoin: miter"/>
     <use xlink:href="#m9172333362" x="250.56" y="120.423239" style="fill: #1f77b4; stroke: #1f77b4; stroke-linejoin: miter"/>
     <use xlink:href="#m9172333362" x="254.618182" y="130.107036" style="fill: #1f77b4; stroke: #1f77b4; stroke-linejoin: miter"/>
     <use xlink:href="#m9172333362" x="258.676364" y="125.640847" style="fill: #1f77b4; stroke: #1f77b4; stroke-linejoin: miter"/>
     <use xlink:href="#m9172333362" x="262.734545" y="128.786615" style="fill: #1f77b4; stroke: #1f77b4; stroke-linejoin: miter"/>
     <use xlink:href="#m9172333362" x="266.792727" y="116.104013" style="fill: #1f77b4; stroke: #1f77b4; stroke-linejoin: miter"/>
     <use xlink:href="#m9172333362" x="270.850909" y="132.696359" style="fill: #1f77b4; stroke: #1f77b4; stroke-linejoin: miter"/>
     <use xlink:href="#m9172333362" x="274.909091" y="131.910953" style="fill: #1f77b4; stroke: #1f77b4; stroke-linejoin: miter"/>
     <use xlink:href="#m9172333362" x="278.967273" y="122.491929" style="fill: #1f77b4; stroke: #1f77b4; stroke-linejoin: miter"/>
     <use xlink:href="#m9172333362" x="283.025455" y="132.653551" style="fill: #1f77b4; stroke: #1f77b4; stroke-linejoin: miter"/>
     <use xlink:href="#m9172333362" x="287.083636" y="130.745527" style="fill: #1f77b4; stroke: #1f77b4; stroke-linejoin: miter"/>
     <use xlink:href="#m9172333362" x="291.141818" y="126.883573" style="fill: #1f77b4; stroke: #1f77b4; stroke-linejoin: miter"/>
     <use xlink:href="#m9172333362" x="295.2" y="128.815527" style="fill: #1f77b4; stroke: #1f77b4; stroke-linejoin: miter"/>
     <use xlink:href="#m9172333362" x="299.258182" y="117.098178" style="fill: #1f77b4; stroke: #1f77b4; stroke-linejoin: miter"/>
     <use xlink:href="#m9172333362" x="303.316364" y="127.594778" style="fill: #1f77b4; stroke: #1f77b4; stroke-linejoin: miter"/>
     <use xlink:href="#m9172333362" x="307.374545" y="134.94138" style="fill: #1f77b4; stroke: #1f77b4; stroke-linejoin: miter"/>
     <use xlink:href="#m9172333362" x="311.432727" y="132.923205" style="fill: #1f77b4; stroke: #1f77b4; stroke-linejoin: miter"/>
     <use xlink:href="#m9172333362" x="315.490909" y="125.107033" style="fill: #1f77b4; stroke: #1f77b4; stroke-linejoin: miter"/>
     <use xlink:href="#m9172333362" x="319.549091" y="138.682726" style="fill: #1f77b4; stroke: #1f77b4; stroke-linejoin: miter"/>
     <use xlink:href="#m9172333362" x="323.607273" y="124.969421" style="fill: #1f77b4; stroke: #1f77b4; stroke-linejoin: miter"/>
     <use xlink:href="#m9172333362" x="327.665455" y="125.708694" style="fill: #1f77b4; stroke: #1f77b4; stroke-linejoin: miter"/>
     <use xlink:href="#m9172333362" x="331.723636" y="129.851172" style="fill: #1f77b4; stroke: #1f77b4; stroke-linejoin: miter"/>
     <use xlink:href="#m9172333362" x="335.781818" y="136.056439" style="fill: #1f77b4; stroke: #1f77b4; stroke-linejoin: miter"/>
     <use xlink:href="#m9172333362" x="339.84" y="131.256484" style="fill: #1f77b4; stroke: #1f77b4; stroke-linejoin: miter"/>
     <use xlink:href="#m9172333362" x="343.898182" y="125.611913" style="fill: #1f77b4; stroke: #1f77b4; stroke-linejoin: miter"/>
     <use xlink:href="#m9172333362" x="347.956364" y="138.9167" style="fill: #1f77b4; stroke: #1f77b4; stroke-linejoin: miter"/>
     <use xlink:href="#m9172333362" x="352.014545" y="132.615893" style="fill: #1f77b4; stroke: #1f77b4; stroke-linejoin: miter"/>
     <use xlink:href="#m9172333362" x="356.072727" y="128.653106" style="fill: #1f77b4; stroke: #1f77b4; stroke-linejoin: miter"/>
     <use xlink:href="#m9172333362" x="360.130909" y="135.728958" style="fill: #1f77b4; stroke: #1f77b4; stroke-linejoin: miter"/>
     <use xlink:href="#m9172333362" x="364.189091" y="138.932331" style="fill: #1f77b4; stroke: #1f77b4; stroke-linejoin: miter"/>
     <use xlink:href="#m9172333362" x="368.247273" y="144.415346" style="fill: #1f77b4; stroke: #1f77b4; stroke-linejoin: miter"/>
     <use xlink:href="#m9172333362" x="372.305455" y="128.400479" style="fill: #1f77b4; stroke: #1f77b4; stroke-linejoin: miter"/>
     <use xlink:href="#m9172333362" x="376.363636" y="131.943686" style="fill: #1f77b4; stroke: #1f77b4; stroke-linejoin: miter"/>
     <use xlink:href="#m9172333362" x="380.421818" y="131.003547" style="fill: #1f77b4; stroke: #1f77b4; stroke-linejoin: miter"/>
     <use xlink:href="#m9172333362" x="384.48" y="144.78975" style="fill: #1f77b4; stroke: #1f77b4; stroke-linejoin: miter"/>
     <use xlink:href="#m9172333362" x="388.538182" y="140.090196" style="fill: #1f77b4; stroke: #1f77b4; stroke-linejoin: miter"/>
     <use xlink:href="#m9172333362" x="392.596364" y="126.79087" style="fill: #1f77b4; stroke: #1f77b4; stroke-linejoin: miter"/>
     <use xlink:href="#m9172333362" x="396.654545" y="134.153213" style="fill: #1f77b4; stroke: #1f77b4; stroke-linejoin: miter"/>
     <use xlink:href="#m9172333362" x="400.712727" y="141.898211" style="fill: #1f77b4; stroke: #1f77b4; stroke-linejoin: miter"/>
     <use xlink:href="#m9172333362" x="404.770909" y="145.112049" style="fill: #1f77b4; stroke: #1f77b4; stroke-linejoin: miter"/>
     <use xlink:href="#m9172333362" x="408.829091" y="138.311286" style="fill: #1f77b4; stroke: #1f77b4; stroke-linejoin: miter"/>
     <use xlink:href="#m9172333362" x="412.887273" y="139.854365" style="fill: #1f77b4; stroke: #1f77b4; stroke-linejoin: miter"/>
     <use xlink:href="#m9172333362" x="416.945455" y="139.471287" style="fill: #1f77b4; stroke: #1f77b4; stroke-linejoin: miter"/>
     <use xlink:href="#m9172333362" x="421.003636" y="145.970098" style="fill: #1f77b4; stroke: #1f77b4; stroke-linejoin: miter"/>
     <use xlink:href="#m9172333362" x="425.061818" y="138.300021" style="fill: #1f77b4; stroke: #1f77b4; stroke-linejoin: miter"/>
     <use xlink:href="#m9172333362" x="429.12" y="138.206991" style="fill: #1f77b4; stroke: #1f77b4; stroke-linejoin: miter"/>
     <use xlink:href="#m9172333362" x="433.178182" y="137.18826" style="fill: #1f77b4; stroke: #1f77b4; stroke-linejoin: miter"/>
     <use xlink:href="#m9172333362" x="437.236364" y="132.082178" style="fill: #1f77b4; stroke: #1f77b4; stroke-linejoin: miter"/>
     <use xlink:href="#m9172333362" x="441.294545" y="139.631866" style="fill: #1f77b4; stroke: #1f77b4; stroke-linejoin: miter"/>
     <use xlink:href="#m9172333362" x="445.352727" y="143.44121" style="fill: #1f77b4; stroke: #1f77b4; stroke-linejoin: miter"/>
     <use xlink:href="#m9172333362" x="449.410909" y="147.793325" style="fill: #1f77b4; stroke: #1f77b4; stroke-linejoin: miter"/>
     <use xlink:href="#m9172333362" x="453.469091" y="147.054273" style="fill: #1f77b4; stroke: #1f77b4; stroke-linejoin: miter"/>
     <use xlink:href="#m9172333362" x="457.527273" y="136.287335" style="fill: #1f77b4; stroke: #1f77b4; stroke-linejoin: miter"/>
     <use xlink:href="#m9172333362" x="461.585455" y="140.206815" style="fill: #1f77b4; stroke: #1f77b4; stroke-linejoin: miter"/>
     <use xlink:href="#m9172333362" x="465.643636" y="139.563491" style="fill: #1f77b4; stroke: #1f77b4; stroke-linejoin: miter"/>
     <use xlink:href="#m9172333362" x="469.701818" y="148.771043" style="fill: #1f77b4; stroke: #1f77b4; stroke-linejoin: miter"/>
     <use xlink:href="#m9172333362" x="473.76" y="134.443601" style="fill: #1f77b4; stroke: #1f77b4; stroke-linejoin: miter"/>
     <use xlink:href="#m9172333362" x="477.818182" y="133.023034" style="fill: #1f77b4; stroke: #1f77b4; stroke-linejoin: miter"/>
     <use xlink:href="#m9172333362" x="481.876364" y="144.587806" style="fill: #1f77b4; stroke: #1f77b4; stroke-linejoin: miter"/>
     <use xlink:href="#m9172333362" x="485.934545" y="146.592071" style="fill: #1f77b4; stroke: #1f77b4; stroke-linejoin: miter"/>
     <use xlink:href="#m9172333362" x="489.992727" y="143.52499" style="fill: #1f77b4; stroke: #1f77b4; stroke-linejoin: miter"/>
     <use xlink:href="#m9172333362" x="494.050909" y="149.564426" style="fill: #1f77b4; stroke: #1f77b4; stroke-linejoin: miter"/>
     <use xlink:href="#m9172333362" x="498.109091" y="140.866181" style="fill: #1f77b4; stroke: #1f77b4; stroke-linejoin: miter"/>
    </g>
   </g>
   <g id="line2d_16">
    <path d="M 92.290909 66.96 
L 96.349091 78.644766 
L 100.407273 84.042612 
L 104.465455 88.857808 
L 108.523636 93.086231 
L 112.581818 95.108685 
L 116.64 97.396116 
L 120.698182 99.726022 
L 124.756364 101.648217 
L 128.814545 104.082136 
L 132.872727 105.433568 
L 136.930909 107.547469 
L 140.989091 109.889801 
L 145.047273 111.472424 
L 149.105455 112.634872 
L 153.163636 114.068234 
L 157.221818 115.616308 
L 161.28 117.550257 
L 165.338182 119.242294 
L 169.396364 120.349947 
L 173.454545 122.187848 
L 177.512727 123.424208 
L 181.570909 124.576622 
L 185.629091 126.349242 
L 189.687273 127.262988 
L 193.745455 128.174357 
L 197.803636 129.404358 
L 201.861818 130.774929 
L 205.92 132.164393 
L 209.978182 133.032512 
L 214.036364 133.718618 
L 218.094545 134.866376 
L 222.152727 136.424659 
L 226.210909 137.410021 
L 230.269091 138.338041 
L 234.327273 139.156959 
L 238.385455 140.087156 
L 242.443636 141.165916 
L 246.501818 141.642623 
L 250.56 143.02452 
L 254.618182 144.436032 
L 258.676364 145.227347 
L 262.734545 146.404706 
L 266.792727 149.130691 
L 270.850909 150.571517 
L 274.909091 151.849867 
L 278.967273 153.516167 
L 283.025455 155.436046 
L 287.083636 156.76581 
L 291.141818 158.227447 
L 295.2 159.380403 
L 299.258182 161.021611 
L 303.316364 161.697815 
L 307.374545 163.421311 
L 311.432727 164.358843 
L 315.490909 165.451544 
L 319.549091 167.084886 
L 323.607273 169.207173 
L 327.665455 170.055907 
L 331.723636 171.134495 
L 335.781818 172.543893 
L 339.84 173.814133 
L 343.898182 175.776702 
L 347.956364 178.548169 
L 352.014545 179.66172 
L 356.072727 180.831813 
L 360.130909 181.686702 
L 364.189091 182.947619 
L 368.247273 184.106427 
L 372.305455 185.679613 
L 376.363636 187.1187 
L 380.421818 188.813205 
L 384.48 190.188213 
L 388.538182 190.867918 
L 392.596364 191.839579 
L 396.654545 193.176068 
L 400.712727 193.881552 
L 404.770909 195.295121 
L 408.829091 198.191423 
L 412.887273 202.667663 
L 416.945455 208.441459 
L 421.003636 210.792782 
L 425.061818 212.237387 
L 429.12 216.926082 
L 433.178182 219.702819 
L 437.236364 222.337044 
L 441.294545 229.237645 
L 445.352727 231.865807 
L 449.410909 237.239596 
L 453.469091 249.258739 
L 457.527273 251.812537 
L 461.585455 254.893311 
L 465.643636 257.670156 
L 469.701818 259.663109 
L 473.76 266.685814 
L 477.818182 273.665686 
L 481.876364 284.996991 
L 485.934545 298.126632 
L 489.992727 319.957783 
L 494.050909 334.659601 
L 498.109091 350.847626 
" clip-path="url(#p6f3e53a228)" style="fill: none; stroke: #ff7f0e; stroke-width: 1.5; stroke-linecap: square"/>
   </g>
   <g id="line2d_17">
    <path d="M 92.290909 66.96 
L 96.349091 74.756116 
L 100.407273 77.582702 
L 104.465455 81.107822 
L 108.523636 82.285656 
L 112.581818 83.191322 
L 116.64 86.09285 
L 120.698182 88.091654 
L 124.756364 89.053103 
L 128.814545 91.176661 
L 132.872727 92.825912 
L 136.930909 93.995389 
L 140.989091 95.497998 
L 145.047273 97.342562 
L 149.105455 98.314283 
L 153.163636 98.805001 
L 157.221818 99.912777 
L 161.28 101.156609 
L 165.338182 101.64141 
L 169.396364 102.732869 
L 173.454545 103.659006 
L 177.512727 104.733737 
L 181.570909 105.686024 
L 185.629091 107.165064 
L 189.687273 107.358691 
L 193.745455 108.039894 
L 197.803636 109.24642 
L 201.861818 110.590257 
L 205.92 111.679176 
L 209.978182 113.048652 
L 214.036364 113.940511 
L 218.094545 114.561696 
L 222.152727 116.668071 
L 226.210909 118.042994 
L 230.269091 119.801031 
L 234.327273 121.820644 
L 238.385455 124.550378 
L 242.443636 125.105458 
L 246.501818 126.174285 
L 250.56 128.308129 
L 254.618182 129.291554 
L 258.676364 130.151968 
L 262.734545 131.499475 
L 266.792727 133.215236 
L 270.850909 133.90361 
L 274.909091 135.270887 
L 278.967273 135.81605 
L 283.025455 136.996423 
L 287.083636 137.529955 
L 291.141818 138.497526 
L 295.2 139.722424 
L 299.258182 140.342141 
L 303.316364 141.097667 
L 307.374545 141.92817 
L 311.432727 142.840571 
L 315.490909 144.228517 
L 319.549091 147.259123 
L 323.607273 148.625802 
L 327.665455 151.01084 
L 331.723636 153.589967 
L 335.781818 155.289266 
L 339.84 157.263672 
L 343.898182 158.218059 
L 347.956364 158.971943 
L 352.014545 163.585008 
L 356.072727 165.225315 
L 360.130909 166.117529 
L 364.189091 168.044458 
L 368.247273 171.043089 
L 372.305455 172.612212 
L 376.363636 174.529483 
L 380.421818 176.7926 
L 384.48 177.862437 
L 388.538182 179.186361 
L 392.596364 180.26376 
L 396.654545 182.49135 
L 400.712727 183.453063 
L 404.770909 185.151133 
L 408.829091 188.921763 
L 412.887273 189.59533 
L 416.945455 190.548367 
L 421.003636 191.558587 
L 425.061818 201.980481 
L 429.12 204.386353 
L 433.178182 207.117873 
L 437.236364 210.255178 
L 441.294545 213.976143 
L 445.352727 220.614152 
L 449.410909 231.010994 
L 453.469091 231.605757 
L 457.527273 237.490839 
L 461.585455 246.171139 
L 465.643636 249.982071 
L 469.701818 254.278724 
L 473.76 255.306543 
L 477.818182 261.214101 
L 481.876364 265.595467 
L 485.934545 275.069359 
L 489.992727 295.588308 
L 494.050909 303.530041 
L 498.109091 368.568121 
" clip-path="url(#p6f3e53a228)" style="fill: none; stroke: #2ca02c; stroke-width: 1.5; stroke-linecap: square"/>
   </g>
   <g id="line2d_18">
    <path d="M 92.290909 66.96 
L 96.349091 78.330705 
L 100.407273 82.535826 
L 104.465455 87.087067 
L 108.523636 90.990549 
L 112.581818 90.758362 
L 116.64 93.462929 
L 120.698182 95.853974 
L 124.756364 97.121764 
L 128.814545 100.35391 
L 132.872727 99.632977 
L 136.930909 103.348544 
L 140.989091 106.035367 
L 145.047273 106.253781 
L 149.105455 106.265031 
L 153.163636 108.486426 
L 157.221818 110.317317 
L 161.28 113.045035 
L 165.338182 114.264897 
L 169.396364 113.795014 
L 173.454545 117.504285 
L 177.512727 117.288867 
L 181.570909 118.173639 
L 185.629091 121.537812 
L 189.687273 119.959087 
L 193.745455 120.860197 
L 197.803636 123.249478 
L 201.861818 125.026809 
L 205.92 126.467234 
L 209.978182 125.526477 
L 214.036364 125.27118 
L 218.094545 128.447902 
L 222.152727 131.149631 
L 226.210909 130.401818 
L 230.269091 131.095086 
L 234.327273 131.419404 
L 238.385455 132.853405 
L 242.443636 134.509159 
L 246.501818 131.704029 
L 250.56 137.307046 
L 254.618182 138.797332 
L 258.676364 137.353122 
L 262.734545 140.083517 
L 266.792727 145.766647 
L 270.850909 145.008909 
L 274.909091 145.840694 
L 278.967273 148.483739 
L 283.025455 150.905391 
L 287.083636 150.904767 
L 291.141818 152.717767 
L 295.2 152.979215 
L 299.258182 155.934541 
L 303.316364 153.191577 
L 307.374545 158.509824 
L 311.432727 157.155925 
L 315.490909 158.844298 
L 319.549091 161.980479 
L 323.607273 165.021719 
L 327.665455 162.460416 
L 331.723636 164.477123 
L 335.781818 166.899636 
L 339.84 167.780964 
L 343.898182 171.322519 
L 347.956364 175.236162 
L 352.014545 173.127203 
L 356.072727 174.487006 
L 360.130909 174.119859 
L 364.189091 176.886651 
L 368.247273 177.7246 
L 372.305455 180.439232 
L 376.363636 181.551629 
L 380.421818 183.841034 
L 384.48 184.452133 
L 388.538182 182.382574 
L 392.596364 184.776695 
L 396.654545 187.33391 
L 400.712727 185.546568 
L 404.770909 189.66182 
L 408.829091 195.016498 
L 412.887273 200.717526 
L 416.945455 207.080293 
L 421.003636 206.951019 
L 425.061818 206.684457 
L 429.12 215.090858 
L 433.178182 216.396767 
L 437.236364 218.864377 
L 441.294545 228.224688 
L 445.352727 228.385787 
L 449.410909 235.722883 
L 453.469091 248.968563 
L 457.527273 248.240439 
L 461.585455 251.906782 
L 465.643636 254.364223 
L 469.701818 255.262108 
L 473.76 265.704104 
L 477.818182 272.673149 
L 481.876364 284.655538 
L 485.934545 297.903234 
L 489.992727 319.931653 
L 494.050909 334.603249 
L 498.109091 368.644776 
" clip-path="url(#p6f3e53a228)" style="fill: none; stroke-dasharray: 5.55,2.4; stroke-dashoffset: 0; stroke: #d62728; stroke-width: 1.5"/>
   </g>
   <g id="line2d_19">
    <path d="M 92.290909 66.96 
L 96.349091 74.63901 
L 100.407273 77.173773 
L 104.465455 80.728118 
L 108.523636 81.191617 
L 112.581818 81.908812 
L 116.64 85.604277 
L 120.698182 87.736187 
L 124.756364 87.904341 
L 128.814545 90.558232 
L 132.872727 91.967103 
L 136.930909 92.627739 
L 140.989091 94.694395 
L 145.047273 96.734005 
L 149.105455 97.662185 
L 153.163636 97.453409 
L 157.221818 98.979076 
L 161.28 100.136021 
L 165.338182 100.24625 
L 169.396364 101.340806 
L 173.454545 102.679283 
L 177.512727 103.899404 
L 181.570909 104.821162 
L 185.629091 106.569984 
L 189.687273 105.654301 
L 193.745455 106.135031 
L 197.803636 108.089771 
L 201.861818 109.413698 
L 205.92 110.376113 
L 209.978182 112.365474 
L 214.036364 112.928584 
L 218.094545 112.234694 
L 222.152727 115.717774 
L 226.210909 116.924 
L 230.269091 119.408506 
L 234.327273 121.011612 
L 238.385455 124.216259 
L 242.443636 123.820762 
L 246.501818 125.013748 
L 250.56 127.700411 
L 254.618182 127.865753 
L 258.676364 129.265443 
L 262.734545 130.306137 
L 266.792727 132.674085 
L 270.850909 133.171875 
L 274.909091 134.441244 
L 278.967273 134.404877 
L 283.025455 136.254113 
L 287.083636 136.732622 
L 291.141818 137.69424 
L 295.2 138.853135 
L 299.258182 139.530648 
L 303.316364 139.416425 
L 307.374545 140.148418 
L 311.432727 140.840536 
L 315.490909 143.11743 
L 319.549091 146.705706 
L 323.607273 147.858111 
L 327.665455 149.850193 
L 331.723636 153.19004 
L 335.781818 154.75268 
L 339.84 156.675912 
L 343.898182 157.347535 
L 347.956364 158.016595 
L 352.014545 163.268401 
L 356.072727 164.966584 
L 360.130909 164.768131 
L 364.189091 166.883171 
L 368.247273 170.624197 
L 372.305455 171.238982 
L 376.363636 174.132826 
L 380.421818 176.362509 
L 384.48 177.32426 
L 388.538182 178.237461 
L 392.596364 179.539631 
L 396.654545 182.020733 
L 400.712727 182.601754 
L 404.770909 184.58941 
L 408.829091 188.780293 
L 412.887273 188.883498 
L 416.945455 189.6184 
L 421.003636 189.687145 
L 425.061818 201.891273 
L 429.12 204.112369 
L 433.178182 206.706428 
L 437.236364 209.537941 
L 441.294545 213.828772 
L 445.352727 220.428884 
L 449.410909 230.985108 
L 453.469091 230.352856 
L 457.527273 237.103119 
L 461.585455 246.103938 
L 465.643636 249.71672 
L 469.701818 254.205886 
L 473.76 254.742919 
L 477.818182 260.860162 
L 481.876364 265.14098 
L 485.934545 274.930536 
L 489.992727 295.578362 
L 494.050909 303.384451 
L 498.109091 369.36 
" clip-path="url(#p6f3e53a228)" style="fill: none; stroke-dasharray: 5.55,2.4; stroke-dashoffset: 0; stroke: #9467bd; stroke-width: 1.5"/>
   </g>
   <g id="line2d_20">
    <path d="M 92.290909 66.96 
L 96.349091 78.330705 
L 100.407273 82.535826 
L 104.465455 87.087067 
L 108.523636 90.990549 
L 112.581818 90.758362 
L 116.64 93.462929 
L 120.698182 95.853974 
L 124.756364 97.121764 
L 128.814545 100.35391 
L 132.872727 99.632977 
L 136.930909 103.348544 
L 140.989091 106.035367 
L 145.047273 106.253781 
L 149.105455 106.265031 
L 153.163636 108.486426 
L 157.221818 110.317317 
L 161.28 113.045035 
L 165.338182 114.264897 
L 169.396364 113.795013 
L 173.454545 117.504087 
L 177.512727 117.012946 
L 181.570909 110.597396 
L 185.629091 118.190114 
L 189.687273 121.591882 
L 193.745455 119.719485 
L 197.803636 114.062512 
L 201.861818 120.690361 
L 205.92 122.891048 
L 209.978182 112.648162 
L 214.036364 125.400839 
L 218.094545 123.060228 
L 222.152727 124.816055 
L 226.210909 125.658592 
L 230.269091 123.917443 
L 234.327273 118.255633 
L 238.385455 128.692021 
L 242.443636 116.200343 
L 246.501818 130.904597 
L 250.56 124.639439 
L 254.618182 130.161816 
L 258.676364 129.564226 
L 262.734545 123.436059 
L 266.792727 128.492305 
L 270.850909 130.698682 
L 274.909091 128.269778 
L 278.967273 130.15253 
L 283.025455 134.288328 
L 287.083636 125.850314 
L 291.141818 130.330028 
L 295.2 119.463216 
L 299.258182 122.348282 
L 303.316364 137.003988 
L 307.374545 127.40279 
L 311.432727 121.570432 
L 315.490909 136.702771 
L 319.549091 135.025713 
L 323.607273 136.341232 
L 327.665455 132.417346 
L 331.723636 128.86164 
L 335.781818 138.685356 
L 339.84 132.667427 
L 343.898182 129.420827 
L 347.956364 139.379639 
L 352.014545 139.286373 
L 356.072727 142.003949 
L 360.130909 138.002566 
L 364.189091 132.622723 
L 368.247273 133.919003 
L 372.305455 144.749392 
L 376.363636 138.258474 
L 380.421818 131.211946 
L 384.48 146.649373 
L 388.538182 139.462633 
L 392.596364 132.829947 
L 396.654545 146.570303 
L 400.712727 141.695447 
L 404.770909 137.251784 
L 408.829091 131.332736 
L 412.887273 147.406912 
L 416.945455 147.486722 
L 421.003636 145.054094 
L 425.061818 147.762881 
L 429.12 144.925968 
L 433.178182 137.935971 
L 437.236364 137.425679 
L 441.294545 140.039186 
L 445.352727 138.599882 
L 449.410909 152.638997 
L 453.469091 135.567959 
L 457.527273 141.969816 
L 461.585455 137.16446 
L 465.643636 140.021309 
L 469.701818 153.949759 
L 473.76 144.177734 
L 477.818182 141.471097 
L 481.876364 145.795732 
L 485.934545 147.023492 
L 489.992727 153.686098 
L 494.050909 135.433305 
L 498.109091 151.435962 
" clip-path="url(#p6f3e53a228)" style="fill: none; stroke: #8c564b; stroke-width: 1.5; stroke-linecap: square"/>
    <defs>
     <path id="mf20f4baed8" d="M -3 3 
L 3 -3 
M -3 -3 
L 3 3 
" style="stroke: #8c564b"/>
    </defs>
    <g clip-path="url(#p6f3e53a228)">
     <use xlink:href="#mf20f4baed8" x="92.290909" y="66.96" style="fill: #8c564b; stroke: #8c564b"/>
     <use xlink:href="#mf20f4baed8" x="96.349091" y="78.330705" style="fill: #8c564b; stroke: #8c564b"/>
     <use xlink:href="#mf20f4baed8" x="100.407273" y="82.535826" style="fill: #8c564b; stroke: #8c564b"/>
     <use xlink:href="#mf20f4baed8" x="104.465455" y="87.087067" style="fill: #8c564b; stroke: #8c564b"/>
     <use xlink:href="#mf20f4baed8" x="108.523636" y="90.990549" style="fill: #8c564b; stroke: #8c564b"/>
     <use xlink:href="#mf20f4baed8" x="112.581818" y="90.758362" style="fill: #8c564b; stroke: #8c564b"/>
     <use xlink:href="#mf20f4baed8" x="116.64" y="93.462929" style="fill: #8c564b; stroke: #8c564b"/>
     <use xlink:href="#mf20f4baed8" x="120.698182" y="95.853974" style="fill: #8c564b; stroke: #8c564b"/>
     <use xlink:href="#mf20f4baed8" x="124.756364" y="97.121764" style="fill: #8c564b; stroke: #8c564b"/>
     <use xlink:href="#mf20f4baed8" x="128.814545" y="100.35391" style="fill: #8c564b; stroke: #8c564b"/>
     <use xlink:href="#mf20f4baed8" x="132.872727" y="99.632977" style="fill: #8c564b; stroke: #8c564b"/>
     <use xlink:href="#mf20f4baed8" x="136.930909" y="103.348544" style="fill: #8c564b; stroke: #8c564b"/>
     <use xlink:href="#mf20f4baed8" x="140.989091" y="106.035367" style="fill: #8c564b; stroke: #8c564b"/>
     <use xlink:href="#mf20f4baed8" x="145.047273" y="106.253781" style="fill: #8c564b; stroke: #8c564b"/>
     <use xlink:href="#mf20f4baed8" x="149.105455" y="106.265031" style="fill: #8c564b; stroke: #8c564b"/>
     <use xlink:href="#mf20f4baed8" x="153.163636" y="108.486426" style="fill: #8c564b; stroke: #8c564b"/>
     <use xlink:href="#mf20f4baed8" x="157.221818" y="110.317317" style="fill: #8c564b; stroke: #8c564b"/>
     <use xlink:href="#mf20f4baed8" x="161.28" y="113.045035" style="fill: #8c564b; stroke: #8c564b"/>
     <use xlink:href="#mf20f4baed8" x="165.338182" y="114.264897" style="fill: #8c564b; stroke: #8c564b"/>
     <use xlink:href="#mf20f4baed8" x="169.396364" y="113.795013" style="fill: #8c564b; stroke: #8c564b"/>
     <use xlink:href="#mf20f4baed8" x="173.454545" y="117.504087" style="fill: #8c564b; stroke: #8c564b"/>
     <use xlink:href="#mf20f4baed8" x="177.512727" y="117.012946" style="fill: #8c564b; stroke: #8c564b"/>
     <use xlink:href="#mf20f4baed8" x="181.570909" y="110.597396" style="fill: #8c564b; stroke: #8c564b"/>
     <use xlink:href="#mf20f4baed8" x="185.629091" y="118.190114" style="fill: #8c564b; stroke: #8c564b"/>
     <use xlink:href="#mf20f4baed8" x="189.687273" y="121.591882" style="fill: #8c564b; stroke: #8c564b"/>
     <use xlink:href="#mf20f4baed8" x="193.745455" y="119.719485" style="fill: #8c564b; stroke: #8c564b"/>
     <use xlink:href="#mf20f4baed8" x="197.803636" y="114.062512" style="fill: #8c564b; stroke: #8c564b"/>
     <use xlink:href="#mf20f4baed8" x="201.861818" y="120.690361" style="fill: #8c564b; stroke: #8c564b"/>
     <use xlink:href="#mf20f4baed8" x="205.92" y="122.891048" style="fill: #8c564b; stroke: #8c564b"/>
     <use xlink:href="#mf20f4baed8" x="209.978182" y="112.648162" style="fill: #8c564b; stroke: #8c564b"/>
     <use xlink:href="#mf20f4baed8" x="214.036364" y="125.400839" style="fill: #8c564b; stroke: #8c564b"/>
     <use xlink:href="#mf20f4baed8" x="218.094545" y="123.060228" style="fill: #8c564b; stroke: #8c564b"/>
     <use xlink:href="#mf20f4baed8" x="222.152727" y="124.816055" style="fill: #8c564b; stroke: #8c564b"/>
     <use xlink:href="#mf20f4baed8" x="226.210909" y="125.658592" style="fill: #8c564b; stroke: #8c564b"/>
     <use xlink:href="#mf20f4baed8" x="230.269091" y="123.917443" style="fill: #8c564b; stroke: #8c564b"/>
     <use xlink:href="#mf20f4baed8" x="234.327273" y="118.255633" style="fill: #8c564b; stroke: #8c564b"/>
     <use xlink:href="#mf20f4baed8" x="238.385455" y="128.692021" style="fill: #8c564b; stroke: #8c564b"/>
     <use xlink:href="#mf20f4baed8" x="242.443636" y="116.200343" style="fill: #8c564b; stroke: #8c564b"/>
     <use xlink:href="#mf20f4baed8" x="246.501818" y="130.904597" style="fill: #8c564b; stroke: #8c564b"/>
     <use xlink:href="#mf20f4baed8" x="250.56" y="124.639439" style="fill: #8c564b; stroke: #8c564b"/>
     <use xlink:href="#mf20f4baed8" x="254.618182" y="130.161816" style="fill: #8c564b; stroke: #8c564b"/>
     <use xlink:href="#mf20f4baed8" x="258.676364" y="129.564226" style="fill: #8c564b; stroke: #8c564b"/>
     <use xlink:href="#mf20f4baed8" x="262.734545" y="123.436059" style="fill: #8c564b; stroke: #8c564b"/>
     <use xlink:href="#mf20f4baed8" x="266.792727" y="128.492305" style="fill: #8c564b; stroke: #8c564b"/>
     <use xlink:href="#mf20f4baed8" x="270.850909" y="130.698682" style="fill: #8c564b; stroke: #8c564b"/>
     <use xlink:href="#mf20f4baed8" x="274.909091" y="128.269778" style="fill: #8c564b; stroke: #8c564b"/>
     <use xlink:href="#mf20f4baed8" x="278.967273" y="130.15253" style="fill: #8c564b; stroke: #8c564b"/>
     <use xlink:href="#mf20f4baed8" x="283.025455" y="134.288328" style="fill: #8c564b; stroke: #8c564b"/>
     <use xlink:href="#mf20f4baed8" x="287.083636" y="125.850314" style="fill: #8c564b; stroke: #8c564b"/>
     <use xlink:href="#mf20f4baed8" x="291.141818" y="130.330028" style="fill: #8c564b; stroke: #8c564b"/>
     <use xlink:href="#mf20f4baed8" x="295.2" y="119.463216" style="fill: #8c564b; stroke: #8c564b"/>
     <use xlink:href="#mf20f4baed8" x="299.258182" y="122.348282" style="fill: #8c564b; stroke: #8c564b"/>
     <use xlink:href="#mf20f4baed8" x="303.316364" y="137.003988" style="fill: #8c564b; stroke: #8c564b"/>
     <use xlink:href="#mf20f4baed8" x="307.374545" y="127.40279" style="fill: #8c564b; stroke: #8c564b"/>
     <use xlink:href="#mf20f4baed8" x="311.432727" y="121.570432" style="fill: #8c564b; stroke: #8c564b"/>
     <use xlink:href="#mf20f4baed8" x="315.490909" y="136.702771" style="fill: #8c564b; stroke: #8c564b"/>
     <use xlink:href="#mf20f4baed8" x="319.549091" y="135.025713" style="fill: #8c564b; stroke: #8c564b"/>
     <use xlink:href="#mf20f4baed8" x="323.607273" y="136.341232" style="fill: #8c564b; stroke: #8c564b"/>
     <use xlink:href="#mf20f4baed8" x="327.665455" y="132.417346" style="fill: #8c564b; stroke: #8c564b"/>
     <use xlink:href="#mf20f4baed8" x="331.723636" y="128.86164" style="fill: #8c564b; stroke: #8c564b"/>
     <use xlink:href="#mf20f4baed8" x="335.781818" y="138.685356" style="fill: #8c564b; stroke: #8c564b"/>
     <use xlink:href="#mf20f4baed8" x="339.84" y="132.667427" style="fill: #8c564b; stroke: #8c564b"/>
     <use xlink:href="#mf20f4baed8" x="343.898182" y="129.420827" style="fill: #8c564b; stroke: #8c564b"/>
     <use xlink:href="#mf20f4baed8" x="347.956364" y="139.379639" style="fill: #8c564b; stroke: #8c564b"/>
     <use xlink:href="#mf20f4baed8" x="352.014545" y="139.286373" style="fill: #8c564b; stroke: #8c564b"/>
     <use xlink:href="#mf20f4baed8" x="356.072727" y="142.003949" style="fill: #8c564b; stroke: #8c564b"/>
     <use xlink:href="#mf20f4baed8" x="360.130909" y="138.002566" style="fill: #8c564b; stroke: #8c564b"/>
     <use xlink:href="#mf20f4baed8" x="364.189091" y="132.622723" style="fill: #8c564b; stroke: #8c564b"/>
     <use xlink:href="#mf20f4baed8" x="368.247273" y="133.919003" style="fill: #8c564b; stroke: #8c564b"/>
     <use xlink:href="#mf20f4baed8" x="372.305455" y="144.749392" style="fill: #8c564b; stroke: #8c564b"/>
     <use xlink:href="#mf20f4baed8" x="376.363636" y="138.258474" style="fill: #8c564b; stroke: #8c564b"/>
     <use xlink:href="#mf20f4baed8" x="380.421818" y="131.211946" style="fill: #8c564b; stroke: #8c564b"/>
     <use xlink:href="#mf20f4baed8" x="384.48" y="146.649373" style="fill: #8c564b; stroke: #8c564b"/>
     <use xlink:href="#mf20f4baed8" x="388.538182" y="139.462633" style="fill: #8c564b; stroke: #8c564b"/>
     <use xlink:href="#mf20f4baed8" x="392.596364" y="132.829947" style="fill: #8c564b; stroke: #8c564b"/>
     <use xlink:href="#mf20f4baed8" x="396.654545" y="146.570303" style="fill: #8c564b; stroke: #8c564b"/>
     <use xlink:href="#mf20f4baed8" x="400.712727" y="141.695447" style="fill: #8c564b; stroke: #8c564b"/>
     <use xlink:href="#mf20f4baed8" x="404.770909" y="137.251784" style="fill: #8c564b; stroke: #8c564b"/>
     <use xlink:href="#mf20f4baed8" x="408.829091" y="131.332736" style="fill: #8c564b; stroke: #8c564b"/>
     <use xlink:href="#mf20f4baed8" x="412.887273" y="147.406912" style="fill: #8c564b; stroke: #8c564b"/>
     <use xlink:href="#mf20f4baed8" x="416.945455" y="147.486722" style="fill: #8c564b; stroke: #8c564b"/>
     <use xlink:href="#mf20f4baed8" x="421.003636" y="145.054094" style="fill: #8c564b; stroke: #8c564b"/>
     <use xlink:href="#mf20f4baed8" x="425.061818" y="147.762881" style="fill: #8c564b; stroke: #8c564b"/>
     <use xlink:href="#mf20f4baed8" x="429.12" y="144.925968" style="fill: #8c564b; stroke: #8c564b"/>
     <use xlink:href="#mf20f4baed8" x="433.178182" y="137.935971" style="fill: #8c564b; stroke: #8c564b"/>
     <use xlink:href="#mf20f4baed8" x="437.236364" y="137.425679" style="fill: #8c564b; stroke: #8c564b"/>
     <use xlink:href="#mf20f4baed8" x="441.294545" y="140.039186" style="fill: #8c564b; stroke: #8c564b"/>
     <use xlink:href="#mf20f4baed8" x="445.352727" y="138.599882" style="fill: #8c564b; stroke: #8c564b"/>
     <use xlink:href="#mf20f4baed8" x="449.410909" y="152.638997" style="fill: #8c564b; stroke: #8c564b"/>
     <use xlink:href="#mf20f4baed8" x="453.469091" y="135.567959" style="fill: #8c564b; stroke: #8c564b"/>
     <use xlink:href="#mf20f4baed8" x="457.527273" y="141.969816" style="fill: #8c564b; stroke: #8c564b"/>
     <use xlink:href="#mf20f4baed8" x="461.585455" y="137.16446" style="fill: #8c564b; stroke: #8c564b"/>
     <use xlink:href="#mf20f4baed8" x="465.643636" y="140.021309" style="fill: #8c564b; stroke: #8c564b"/>
     <use xlink:href="#mf20f4baed8" x="469.701818" y="153.949759" style="fill: #8c564b; stroke: #8c564b"/>
     <use xlink:href="#mf20f4baed8" x="473.76" y="144.177734" style="fill: #8c564b; stroke: #8c564b"/>
     <use xlink:href="#mf20f4baed8" x="477.818182" y="141.471097" style="fill: #8c564b; stroke: #8c564b"/>
     <use xlink:href="#mf20f4baed8" x="481.876364" y="145.795732" style="fill: #8c564b; stroke: #8c564b"/>
     <use xlink:href="#mf20f4baed8" x="485.934545" y="147.023492" style="fill: #8c564b; stroke: #8c564b"/>
     <use xlink:href="#mf20f4baed8" x="489.992727" y="153.686098" style="fill: #8c564b; stroke: #8c564b"/>
     <use xlink:href="#mf20f4baed8" x="494.050909" y="135.433305" style="fill: #8c564b; stroke: #8c564b"/>
     <use xlink:href="#mf20f4baed8" x="498.109091" y="151.435962" style="fill: #8c564b; stroke: #8c564b"/>
    </g>
   </g>
   <g id="patch_3">
    <path d="M 72 384.48 
L 72 51.84 
" style="fill: none; stroke: #000000; stroke-width: 0.8; stroke-linejoin: miter; stroke-linecap: square"/>
   </g>
   <g id="patch_4">
    <path d="M 518.4 384.48 
L 518.4 51.84 
" style="fill: none; stroke: #000000; stroke-width: 0.8; stroke-linejoin: miter; stroke-linecap: square"/>
   </g>
   <g id="patch_5">
    <path d="M 72 384.48 
L 518.4 384.48 
" style="fill: none; stroke: #000000; stroke-width: 0.8; stroke-linejoin: miter; stroke-linecap: square"/>
   </g>
   <g id="patch_6">
    <path d="M 72 51.84 
L 518.4 51.84 
" style="fill: none; stroke: #000000; stroke-width: 0.8; stroke-linejoin: miter; stroke-linecap: square"/>
   </g>
   <g id="legend_1">
    <g id="patch_7">
     <path d="M 79 379.48 
L 215.382812 379.48 
Q 217.382812 379.48 217.382812 377.48 
L 217.382812 290.41125 
Q 217.382812 288.41125 215.382812 288.41125 
L 79 288.41125 
Q 77 288.41125 77 290.41125 
L 77 377.48 
Q 77 379.48 79 379.48 
z
" style="fill: #ffffff; opacity: 0.8; stroke: #cccccc; stroke-linejoin: miter"/>
    </g>
    <g id="line2d_21">
     <path d="M 81 296.509688 
L 91 296.509688 
L 101 296.509688 
" style="fill: none; stroke: #1f77b4; stroke-width: 1.5; stroke-linecap: square"/>
     <g>
      <use xlink:href="#m9172333362" x="91" y="296.509688" style="fill: #1f77b4; stroke: #1f77b4; stroke-linejoin: miter"/>
     </g>
    </g>
    <g id="text_17">
     <!-- CG -->
     <g transform="translate(109 300.009688)scale(0.1 -0.1)">
      <defs>
       <path id="DejaVuSans-43" d="M 4122 4306 
L 4122 3641 
Q 3803 3938 3442 4084 
Q 3081 4231 2675 4231 
Q 1875 4231 1450 3742 
Q 1025 3253 1025 2328 
Q 1025 1406 1450 917 
Q 1875 428 2675 428 
Q 3081 428 3442 575 
Q 3803 722 4122 1019 
L 4122 359 
Q 3791 134 3420 21 
Q 3050 -91 2638 -91 
Q 1578 -91 968 557 
Q 359 1206 359 2328 
Q 359 3453 968 4101 
Q 1578 4750 2638 4750 
Q 3056 4750 3426 4639 
Q 3797 4528 4122 4306 
z
" transform="scale(0.015625)"/>
       <path id="DejaVuSans-47" d="M 3809 666 
L 3809 1919 
L 2778 1919 
L 2778 2438 
L 4434 2438 
L 4434 434 
Q 4069 175 3628 42 
Q 3188 -91 2688 -91 
Q 1594 -91 976 548 
Q 359 1188 359 2328 
Q 359 3472 976 4111 
Q 1594 4750 2688 4750 
Q 3144 4750 3555 4637 
Q 3966 4525 4313 4306 
L 4313 3634 
Q 3963 3931 3569 4081 
Q 3175 4231 2741 4231 
Q 1884 4231 1454 3753 
Q 1025 3275 1025 2328 
Q 1025 1384 1454 906 
Q 1884 428 2741 428 
Q 3075 428 3337 486 
Q 3600 544 3809 666 
z
" transform="scale(0.015625)"/>
      </defs>
      <use xlink:href="#DejaVuSans-43"/>
      <use xlink:href="#DejaVuSans-47" x="69.824219"/>
     </g>
    </g>
    <g id="line2d_22">
     <path d="M 81 311.187813 
L 91 311.187813 
L 101 311.187813 
" style="fill: none; stroke: #ff7f0e; stroke-width: 1.5; stroke-linecap: square"/>
    </g>
    <g id="text_18">
     <!-- GMRES (krylov) -->
     <g transform="translate(109 314.687813)scale(0.1 -0.1)">
      <defs>
       <path id="DejaVuSans-4d" d="M 628 4666 
L 1569 4666 
L 2759 1491 
L 3956 4666 
L 4897 4666 
L 4897 0 
L 4281 0 
L 4281 4097 
L 3078 897 
L 2444 897 
L 1241 4097 
L 1241 0 
L 628 0 
L 628 4666 
z
" transform="scale(0.015625)"/>
       <path id="DejaVuSans-52" d="M 2841 2188 
Q 3044 2119 3236 1894 
Q 3428 1669 3622 1275 
L 4263 0 
L 3584 0 
L 2988 1197 
Q 2756 1666 2539 1819 
Q 2322 1972 1947 1972 
L 1259 1972 
L 1259 0 
L 628 0 
L 628 4666 
L 2053 4666 
Q 2853 4666 3247 4331 
Q 3641 3997 3641 3322 
Q 3641 2881 3436 2590 
Q 3231 2300 2841 2188 
z
M 1259 4147 
L 1259 2491 
L 2053 2491 
Q 2509 2491 2742 2702 
Q 2975 2913 2975 3322 
Q 2975 3731 2742 3939 
Q 2509 4147 2053 4147 
L 1259 4147 
z
" transform="scale(0.015625)"/>
       <path id="DejaVuSans-45" d="M 628 4666 
L 3578 4666 
L 3578 4134 
L 1259 4134 
L 1259 2753 
L 3481 2753 
L 3481 2222 
L 1259 2222 
L 1259 531 
L 3634 531 
L 3634 0 
L 628 0 
L 628 4666 
z
" transform="scale(0.015625)"/>
       <path id="DejaVuSans-53" d="M 3425 4513 
L 3425 3897 
Q 3066 4069 2747 4153 
Q 2428 4238 2131 4238 
Q 1616 4238 1336 4038 
Q 1056 3838 1056 3469 
Q 1056 3159 1242 3001 
Q 1428 2844 1947 2747 
L 2328 2669 
Q 3034 2534 3370 2195 
Q 3706 1856 3706 1288 
Q 3706 609 3251 259 
Q 2797 -91 1919 -91 
Q 1588 -91 1214 -16 
Q 841 59 441 206 
L 441 856 
Q 825 641 1194 531 
Q 1563 422 1919 422 
Q 2459 422 2753 634 
Q 3047 847 3047 1241 
Q 3047 1584 2836 1778 
Q 2625 1972 2144 2069 
L 1759 2144 
Q 1053 2284 737 2584 
Q 422 2884 422 3419 
Q 422 4038 858 4394 
Q 1294 4750 2059 4750 
Q 2388 4750 2728 4690 
Q 3069 4631 3425 4513 
z
" transform="scale(0.015625)"/>
       <path id="DejaVuSans-28" d="M 1984 4856 
Q 1566 4138 1362 3434 
Q 1159 2731 1159 2009 
Q 1159 1288 1364 580 
Q 1569 -128 1984 -844 
L 1484 -844 
Q 1016 -109 783 600 
Q 550 1309 550 2009 
Q 550 2706 781 3412 
Q 1013 4119 1484 4856 
L 1984 4856 
z
" transform="scale(0.015625)"/>
       <path id="DejaVuSans-6b" d="M 581 4863 
L 1159 4863 
L 1159 1991 
L 2875 3500 
L 3609 3500 
L 1753 1863 
L 3688 0 
L 2938 0 
L 1159 1709 
L 1159 0 
L 581 0 
L 581 4863 
z
" transform="scale(0.015625)"/>
       <path id="DejaVuSans-79" d="M 2059 -325 
Q 1816 -950 1584 -1140 
Q 1353 -1331 966 -1331 
L 506 -1331 
L 506 -850 
L 844 -850 
Q 1081 -850 1212 -737 
Q 1344 -625 1503 -206 
L 1606 56 
L 191 3500 
L 800 3500 
L 1894 763 
L 2988 3500 
L 3597 3500 
L 2059 -325 
z
" transform="scale(0.015625)"/>
       <path id="DejaVuSans-76" d="M 191 3500 
L 800 3500 
L 1894 563 
L 2988 3500 
L 3597 3500 
L 2284 0 
L 1503 0 
L 191 3500 
z
" transform="scale(0.015625)"/>
       <path id="DejaVuSans-29" d="M 513 4856 
L 1013 4856 
Q 1481 4119 1714 3412 
Q 1947 2706 1947 2009 
Q 1947 1309 1714 600 
Q 1481 -109 1013 -844 
L 513 -844 
Q 928 -128 1133 580 
Q 1338 1288 1338 2009 
Q 1338 2731 1133 3434 
Q 928 4138 513 4856 
z
" transform="scale(0.015625)"/>
      </defs>
      <use xlink:href="#DejaVuSans-47"/>
      <use xlink:href="#DejaVuSans-4d" x="77.490234"/>
      <use xlink:href="#DejaVuSans-52" x="163.769531"/>
      <use xlink:href="#DejaVuSans-45" x="233.251953"/>
      <use xlink:href="#DejaVuSans-53" x="296.435547"/>
      <use xlink:href="#DejaVuSans-20" x="359.912109"/>
      <use xlink:href="#DejaVuSans-28" x="391.699219"/>
      <use xlink:href="#DejaVuSans-6b" x="430.712891"/>
      <use xlink:href="#DejaVuSans-72" x="488.623047"/>
      <use xlink:href="#DejaVuSans-79" x="529.736328"/>
      <use xlink:href="#DejaVuSans-6c" x="588.916016"/>
      <use xlink:href="#DejaVuSans-6f" x="616.699219"/>
      <use xlink:href="#DejaVuSans-76" x="677.880859"/>
      <use xlink:href="#DejaVuSans-29" x="737.060547"/>
     </g>
    </g>
    <g id="line2d_23">
     <path d="M 81 325.865938 
L 91 325.865938 
L 101 325.865938 
" style="fill: none; stroke: #2ca02c; stroke-width: 1.5; stroke-linecap: square"/>
    </g>
    <g id="text_19">
     <!-- GMRES (grad) -->
     <g transform="translate(109 329.365938)scale(0.1 -0.1)">
      <defs>
       <path id="DejaVuSans-67" d="M 2906 1791 
Q 2906 2416 2648 2759 
Q 2391 3103 1925 3103 
Q 1463 3103 1205 2759 
Q 947 2416 947 1791 
Q 947 1169 1205 825 
Q 1463 481 1925 481 
Q 2391 481 2648 825 
Q 2906 1169 2906 1791 
z
M 3481 434 
Q 3481 -459 3084 -895 
Q 2688 -1331 1869 -1331 
Q 1566 -1331 1297 -1286 
Q 1028 -1241 775 -1147 
L 775 -588 
Q 1028 -725 1275 -790 
Q 1522 -856 1778 -856 
Q 2344 -856 2625 -561 
Q 2906 -266 2906 331 
L 2906 616 
Q 2728 306 2450 153 
Q 2172 0 1784 0 
Q 1141 0 747 490 
Q 353 981 353 1791 
Q 353 2603 747 3093 
Q 1141 3584 1784 3584 
Q 2172 3584 2450 3431 
Q 2728 3278 2906 2969 
L 2906 3500 
L 3481 3500 
L 3481 434 
z
" transform="scale(0.015625)"/>
      </defs>
      <use xlink:href="#DejaVuSans-47"/>
      <use xlink:href="#DejaVuSans-4d" x="77.490234"/>
      <use xlink:href="#DejaVuSans-52" x="163.769531"/>
      <use xlink:href="#DejaVuSans-45" x="233.251953"/>
      <use xlink:href="#DejaVuSans-53" x="296.435547"/>
      <use xlink:href="#DejaVuSans-20" x="359.912109"/>
      <use xlink:href="#DejaVuSans-28" x="391.699219"/>
      <use xlink:href="#DejaVuSans-67" x="430.712891"/>
      <use xlink:href="#DejaVuSans-72" x="494.189453"/>
      <use xlink:href="#DejaVuSans-61" x="535.302734"/>
      <use xlink:href="#DejaVuSans-64" x="596.582031"/>
      <use xlink:href="#DejaVuSans-29" x="660.058594"/>
     </g>
    </g>
    <g id="line2d_24">
     <path d="M 81 340.544062 
L 91 340.544062 
L 101 340.544062 
" style="fill: none; stroke-dasharray: 5.55,2.4; stroke-dashoffset: 0; stroke: #d62728; stroke-width: 1.5"/>
    </g>
    <g id="text_20">
     <!-- FOM (krylov) -->
     <g transform="translate(109 344.044062)scale(0.1 -0.1)">
      <defs>
       <path id="DejaVuSans-46" d="M 628 4666 
L 3309 4666 
L 3309 4134 
L 1259 4134 
L 1259 2759 
L 3109 2759 
L 3109 2228 
L 1259 2228 
L 1259 0 
L 628 0 
L 628 4666 
z
" transform="scale(0.015625)"/>
       <path id="DejaVuSans-4f" d="M 2522 4238 
Q 1834 4238 1429 3725 
Q 1025 3213 1025 2328 
Q 1025 1447 1429 934 
Q 1834 422 2522 422 
Q 3209 422 3611 934 
Q 4013 1447 4013 2328 
Q 4013 3213 3611 3725 
Q 3209 4238 2522 4238 
z
M 2522 4750 
Q 3503 4750 4090 4092 
Q 4678 3434 4678 2328 
Q 4678 1225 4090 567 
Q 3503 -91 2522 -91 
Q 1538 -91 948 565 
Q 359 1222 359 2328 
Q 359 3434 948 4092 
Q 1538 4750 2522 4750 
z
" transform="scale(0.015625)"/>
      </defs>
      <use xlink:href="#DejaVuSans-46"/>
      <use xlink:href="#DejaVuSans-4f" x="57.519531"/>
      <use xlink:href="#DejaVuSans-4d" x="136.230469"/>
      <use xlink:href="#DejaVuSans-20" x="222.509766"/>
      <use xlink:href="#DejaVuSans-28" x="254.296875"/>
      <use xlink:href="#DejaVuSans-6b" x="293.310547"/>
      <use xlink:href="#DejaVuSans-72" x="351.220703"/>
      <use xlink:href="#DejaVuSans-79" x="392.333984"/>
      <use xlink:href="#DejaVuSans-6c" x="451.513672"/>
      <use xlink:href="#DejaVuSans-6f" x="479.296875"/>
      <use xlink:href="#DejaVuSans-76" x="540.478516"/>
      <use xlink:href="#DejaVuSans-29" x="599.658203"/>
     </g>
    </g>
    <g id="line2d_25">
     <path d="M 81 355.222188 
L 91 355.222188 
L 101 355.222188 
" style="fill: none; stroke-dasharray: 5.55,2.4; stroke-dashoffset: 0; stroke: #9467bd; stroke-width: 1.5"/>
    </g>
    <g id="text_21">
     <!-- FOM (grad) -->
     <g transform="translate(109 358.722188)scale(0.1 -0.1)">
      <use xlink:href="#DejaVuSans-46"/>
      <use xlink:href="#DejaVuSans-4f" x="57.519531"/>
      <use xlink:href="#DejaVuSans-4d" x="136.230469"/>
      <use xlink:href="#DejaVuSans-20" x="222.509766"/>
      <use xlink:href="#DejaVuSans-28" x="254.296875"/>
      <use xlink:href="#DejaVuSans-67" x="293.310547"/>
      <use xlink:href="#DejaVuSans-72" x="356.787109"/>
      <use xlink:href="#DejaVuSans-61" x="397.900391"/>
      <use xlink:href="#DejaVuSans-64" x="459.179688"/>
      <use xlink:href="#DejaVuSans-29" x="522.65625"/>
     </g>
    </g>
    <g id="line2d_26">
     <path d="M 81 369.900313 
L 91 369.900313 
L 101 369.900313 
" style="fill: none; stroke: #8c564b; stroke-width: 1.5; stroke-linecap: square"/>
     <g>
      <use xlink:href="#mf20f4baed8" x="91" y="369.900313" style="fill: #8c564b; stroke: #8c564b"/>
     </g>
    </g>
    <g id="text_22">
     <!-- CG (IterativeSolvers) -->
     <g transform="translate(109 373.400313)scale(0.1 -0.1)">
      <defs>
       <path id="DejaVuSans-49" d="M 628 4666 
L 1259 4666 
L 1259 0 
L 628 0 
L 628 4666 
z
" transform="scale(0.015625)"/>
      </defs>
      <use xlink:href="#DejaVuSans-43"/>
      <use xlink:href="#DejaVuSans-47" x="69.824219"/>
      <use xlink:href="#DejaVuSans-20" x="147.314453"/>
      <use xlink:href="#DejaVuSans-28" x="179.101562"/>
      <use xlink:href="#DejaVuSans-49" x="218.115234"/>
      <use xlink:href="#DejaVuSans-74" x="247.607422"/>
      <use xlink:href="#DejaVuSans-65" x="286.816406"/>
      <use xlink:href="#DejaVuSans-72" x="348.339844"/>
      <use xlink:href="#DejaVuSans-61" x="389.453125"/>
      <use xlink:href="#DejaVuSans-74" x="450.732422"/>
      <use xlink:href="#DejaVuSans-69" x="489.941406"/>
      <use xlink:href="#DejaVuSans-76" x="517.724609"/>
      <use xlink:href="#DejaVuSans-65" x="576.904297"/>
      <use xlink:href="#DejaVuSans-53" x="638.427734"/>
      <use xlink:href="#DejaVuSans-6f" x="701.904297"/>
      <use xlink:href="#DejaVuSans-6c" x="763.085938"/>
      <use xlink:href="#DejaVuSans-76" x="790.869141"/>
      <use xlink:href="#DejaVuSans-65" x="850.048828"/>
      <use xlink:href="#DejaVuSans-72" x="911.572266"/>
      <use xlink:href="#DejaVuSans-73" x="952.685547"/>
      <use xlink:href="#DejaVuSans-29" x="1004.785156"/>
     </g>
    </g>
   </g>
  </g>
 </g>
 <defs>
  <clipPath id="p6f3e53a228">
   <rect x="72" y="51.84" width="446.4" height="332.64"/>
  </clipPath>
 </defs>
</svg>
