<?xml version="1.0" encoding="utf-8" standalone="no"?>
<!DOCTYPE svg PUBLIC "-//W3C//DTD SVG 1.1//EN"
  "http://www.w3.org/Graphics/SVG/1.1/DTD/svg11.dtd">
<svg xmlns:xlink="http://www.w3.org/1999/xlink" width="576pt" height="432pt" viewBox="0 0 576 432" xmlns="http://www.w3.org/2000/svg" version="1.1">
 <metadata>
  <rdf:RDF xmlns:dc="http://purl.org/dc/elements/1.1/" xmlns:cc="http://creativecommons.org/ns#" xmlns:rdf="http://www.w3.org/1999/02/22-rdf-syntax-ns#">
   <cc:Work>
    <dc:type rdf:resource="http://purl.org/dc/dcmitype/StillImage"/>
    <dc:date>2022-06-10T01:52:18.372486</dc:date>
    <dc:format>image/svg+xml</dc:format>
    <dc:creator>
     <cc:Agent>
      <dc:title>Matplotlib v3.5.2, https://matplotlib.org/</dc:title>
     </cc:Agent>
    </dc:creator>
   </cc:Work>
  </rdf:RDF>
 </metadata>
 <defs>
  <style type="text/css">*{stroke-linejoin: round; stroke-linecap: butt}</style>
 </defs>
 <g id="figure_1">
  <g id="patch_1">
   <path d="M 0 432 
L 576 432 
L 576 0 
L 0 0 
z
" style="fill: #ffffff"/>
  </g>
  <g id="axes_1">
   <g id="patch_2">
    <path d="M 72 384.48 
L 518.4 384.48 
L 518.4 51.84 
L 72 51.84 
z
" style="fill: #ffffff"/>
   </g>
   <g id="matplotlib.axis_1">
    <g id="xtick_1">
     <g id="line2d_1">
      <defs>
       <path id="mcec50c97e3" d="M 0 0 
L 0 3.5 
" style="stroke: #000000; stroke-width: 0.8"/>
      </defs>
      <g>
       <use xlink:href="#mcec50c97e3" x="92.290909" y="384.48" style="stroke: #000000; stroke-width: 0.8"/>
      </g>
     </g>
     <g id="text_1">
      <!-- 0 -->
      <g transform="translate(89.109659 399.078438)scale(0.1 -0.1)">
       <defs>
        <path id="DejaVuSans-30" d="M 2034 4250 
Q 1547 4250 1301 3770 
Q 1056 3291 1056 2328 
Q 1056 1369 1301 889 
Q 1547 409 2034 409 
Q 2525 409 2770 889 
Q 3016 1369 3016 2328 
Q 3016 3291 2770 3770 
Q 2525 4250 2034 4250 
z
M 2034 4750 
Q 2819 4750 3233 4129 
Q 3647 3509 3647 2328 
Q 3647 1150 3233 529 
Q 2819 -91 2034 -91 
Q 1250 -91 836 529 
Q 422 1150 422 2328 
Q 422 3509 836 4129 
Q 1250 4750 2034 4750 
z
" transform="scale(0.015625)"/>
       </defs>
       <use xlink:href="#DejaVuSans-30"/>
      </g>
     </g>
    </g>
    <g id="xtick_2">
     <g id="line2d_2">
      <g>
       <use xlink:href="#mcec50c97e3" x="173.454545" y="384.48" style="stroke: #000000; stroke-width: 0.8"/>
      </g>
     </g>
     <g id="text_2">
      <!-- 20 -->
      <g transform="translate(167.092045 399.078438)scale(0.1 -0.1)">
       <defs>
        <path id="DejaVuSans-32" d="M 1228 531 
L 3431 531 
L 3431 0 
L 469 0 
L 469 531 
Q 828 903 1448 1529 
Q 2069 2156 2228 2338 
Q 2531 2678 2651 2914 
Q 2772 3150 2772 3378 
Q 2772 3750 2511 3984 
Q 2250 4219 1831 4219 
Q 1534 4219 1204 4116 
Q 875 4013 500 3803 
L 500 4441 
Q 881 4594 1212 4672 
Q 1544 4750 1819 4750 
Q 2544 4750 2975 4387 
Q 3406 4025 3406 3419 
Q 3406 3131 3298 2873 
Q 3191 2616 2906 2266 
Q 2828 2175 2409 1742 
Q 1991 1309 1228 531 
z
" transform="scale(0.015625)"/>
       </defs>
       <use xlink:href="#DejaVuSans-32"/>
       <use xlink:href="#DejaVuSans-30" x="63.623047"/>
      </g>
     </g>
    </g>
    <g id="xtick_3">
     <g id="line2d_3">
      <g>
       <use xlink:href="#mcec50c97e3" x="254.618182" y="384.48" style="stroke: #000000; stroke-width: 0.8"/>
      </g>
     </g>
     <g id="text_3">
      <!-- 40 -->
      <g transform="translate(248.255682 399.078438)scale(0.1 -0.1)">
       <defs>
        <path id="DejaVuSans-34" d="M 2419 4116 
L 825 1625 
L 2419 1625 
L 2419 4116 
z
M 2253 4666 
L 3047 4666 
L 3047 1625 
L 3713 1625 
L 3713 1100 
L 3047 1100 
L 3047 0 
L 2419 0 
L 2419 1100 
L 313 1100 
L 313 1709 
L 2253 4666 
z
" transform="scale(0.015625)"/>
       </defs>
       <use xlink:href="#DejaVuSans-34"/>
       <use xlink:href="#DejaVuSans-30" x="63.623047"/>
      </g>
     </g>
    </g>
    <g id="xtick_4">
     <g id="line2d_4">
      <g>
       <use xlink:href="#mcec50c97e3" x="335.781818" y="384.48" style="stroke: #000000; stroke-width: 0.8"/>
      </g>
     </g>
     <g id="text_4">
      <!-- 60 -->
      <g transform="translate(329.419318 399.078438)scale(0.1 -0.1)">
       <defs>
        <path id="DejaVuSans-36" d="M 2113 2584 
Q 1688 2584 1439 2293 
Q 1191 2003 1191 1497 
Q 1191 994 1439 701 
Q 1688 409 2113 409 
Q 2538 409 2786 701 
Q 3034 994 3034 1497 
Q 3034 2003 2786 2293 
Q 2538 2584 2113 2584 
z
M 3366 4563 
L 3366 3988 
Q 3128 4100 2886 4159 
Q 2644 4219 2406 4219 
Q 1781 4219 1451 3797 
Q 1122 3375 1075 2522 
Q 1259 2794 1537 2939 
Q 1816 3084 2150 3084 
Q 2853 3084 3261 2657 
Q 3669 2231 3669 1497 
Q 3669 778 3244 343 
Q 2819 -91 2113 -91 
Q 1303 -91 875 529 
Q 447 1150 447 2328 
Q 447 3434 972 4092 
Q 1497 4750 2381 4750 
Q 2619 4750 2861 4703 
Q 3103 4656 3366 4563 
z
" transform="scale(0.015625)"/>
       </defs>
       <use xlink:href="#DejaVuSans-36"/>
       <use xlink:href="#DejaVuSans-30" x="63.623047"/>
      </g>
     </g>
    </g>
    <g id="xtick_5">
     <g id="line2d_5">
      <g>
       <use xlink:href="#mcec50c97e3" x="416.945455" y="384.48" style="stroke: #000000; stroke-width: 0.8"/>
      </g>
     </g>
     <g id="text_5">
      <!-- 80 -->
      <g transform="translate(410.582955 399.078438)scale(0.1 -0.1)">
       <defs>
        <path id="DejaVuSans-38" d="M 2034 2216 
Q 1584 2216 1326 1975 
Q 1069 1734 1069 1313 
Q 1069 891 1326 650 
Q 1584 409 2034 409 
Q 2484 409 2743 651 
Q 3003 894 3003 1313 
Q 3003 1734 2745 1975 
Q 2488 2216 2034 2216 
z
M 1403 2484 
Q 997 2584 770 2862 
Q 544 3141 544 3541 
Q 544 4100 942 4425 
Q 1341 4750 2034 4750 
Q 2731 4750 3128 4425 
Q 3525 4100 3525 3541 
Q 3525 3141 3298 2862 
Q 3072 2584 2669 2484 
Q 3125 2378 3379 2068 
Q 3634 1759 3634 1313 
Q 3634 634 3220 271 
Q 2806 -91 2034 -91 
Q 1263 -91 848 271 
Q 434 634 434 1313 
Q 434 1759 690 2068 
Q 947 2378 1403 2484 
z
M 1172 3481 
Q 1172 3119 1398 2916 
Q 1625 2713 2034 2713 
Q 2441 2713 2670 2916 
Q 2900 3119 2900 3481 
Q 2900 3844 2670 4047 
Q 2441 4250 2034 4250 
Q 1625 4250 1398 4047 
Q 1172 3844 1172 3481 
z
" transform="scale(0.015625)"/>
       </defs>
       <use xlink:href="#DejaVuSans-38"/>
       <use xlink:href="#DejaVuSans-30" x="63.623047"/>
      </g>
     </g>
    </g>
    <g id="xtick_6">
     <g id="line2d_6">
      <g>
       <use xlink:href="#mcec50c97e3" x="498.109091" y="384.48" style="stroke: #000000; stroke-width: 0.8"/>
      </g>
     </g>
     <g id="text_6">
      <!-- 100 -->
      <g transform="translate(488.565341 399.078438)scale(0.1 -0.1)">
       <defs>
        <path id="DejaVuSans-31" d="M 794 531 
L 1825 531 
L 1825 4091 
L 703 3866 
L 703 4441 
L 1819 4666 
L 2450 4666 
L 2450 531 
L 3481 531 
L 3481 0 
L 794 0 
L 794 531 
z
" transform="scale(0.015625)"/>
       </defs>
       <use xlink:href="#DejaVuSans-31"/>
       <use xlink:href="#DejaVuSans-30" x="63.623047"/>
       <use xlink:href="#DejaVuSans-30" x="127.246094"/>
      </g>
     </g>
    </g>
    <g id="text_7">
     <!-- Number of iterations -->
     <g transform="translate(243.389062 412.756563)scale(0.1 -0.1)">
      <defs>
       <path id="DejaVuSans-4e" d="M 628 4666 
L 1478 4666 
L 3547 763 
L 3547 4666 
L 4159 4666 
L 4159 0 
L 3309 0 
L 1241 3903 
L 1241 0 
L 628 0 
L 628 4666 
z
" transform="scale(0.015625)"/>
       <path id="DejaVuSans-75" d="M 544 1381 
L 544 3500 
L 1119 3500 
L 1119 1403 
Q 1119 906 1312 657 
Q 1506 409 1894 409 
Q 2359 409 2629 706 
Q 2900 1003 2900 1516 
L 2900 3500 
L 3475 3500 
L 3475 0 
L 2900 0 
L 2900 538 
Q 2691 219 2414 64 
Q 2138 -91 1772 -91 
Q 1169 -91 856 284 
Q 544 659 544 1381 
z
M 1991 3584 
L 1991 3584 
z
" transform="scale(0.015625)"/>
       <path id="DejaVuSans-6d" d="M 3328 2828 
Q 3544 3216 3844 3400 
Q 4144 3584 4550 3584 
Q 5097 3584 5394 3201 
Q 5691 2819 5691 2113 
L 5691 0 
L 5113 0 
L 5113 2094 
Q 5113 2597 4934 2840 
Q 4756 3084 4391 3084 
Q 3944 3084 3684 2787 
Q 3425 2491 3425 1978 
L 3425 0 
L 2847 0 
L 2847 2094 
Q 2847 2600 2669 2842 
Q 2491 3084 2119 3084 
Q 1678 3084 1418 2786 
Q 1159 2488 1159 1978 
L 1159 0 
L 581 0 
L 581 3500 
L 1159 3500 
L 1159 2956 
Q 1356 3278 1631 3431 
Q 1906 3584 2284 3584 
Q 2666 3584 2933 3390 
Q 3200 3197 3328 2828 
z
" transform="scale(0.015625)"/>
       <path id="DejaVuSans-62" d="M 3116 1747 
Q 3116 2381 2855 2742 
Q 2594 3103 2138 3103 
Q 1681 3103 1420 2742 
Q 1159 2381 1159 1747 
Q 1159 1113 1420 752 
Q 1681 391 2138 391 
Q 2594 391 2855 752 
Q 3116 1113 3116 1747 
z
M 1159 2969 
Q 1341 3281 1617 3432 
Q 1894 3584 2278 3584 
Q 2916 3584 3314 3078 
Q 3713 2572 3713 1747 
Q 3713 922 3314 415 
Q 2916 -91 2278 -91 
Q 1894 -91 1617 61 
Q 1341 213 1159 525 
L 1159 0 
L 581 0 
L 581 4863 
L 1159 4863 
L 1159 2969 
z
" transform="scale(0.015625)"/>
       <path id="DejaVuSans-65" d="M 3597 1894 
L 3597 1613 
L 953 1613 
Q 991 1019 1311 708 
Q 1631 397 2203 397 
Q 2534 397 2845 478 
Q 3156 559 3463 722 
L 3463 178 
Q 3153 47 2828 -22 
Q 2503 -91 2169 -91 
Q 1331 -91 842 396 
Q 353 884 353 1716 
Q 353 2575 817 3079 
Q 1281 3584 2069 3584 
Q 2775 3584 3186 3129 
Q 3597 2675 3597 1894 
z
M 3022 2063 
Q 3016 2534 2758 2815 
Q 2500 3097 2075 3097 
Q 1594 3097 1305 2825 
Q 1016 2553 972 2059 
L 3022 2063 
z
" transform="scale(0.015625)"/>
       <path id="DejaVuSans-72" d="M 2631 2963 
Q 2534 3019 2420 3045 
Q 2306 3072 2169 3072 
Q 1681 3072 1420 2755 
Q 1159 2438 1159 1844 
L 1159 0 
L 581 0 
L 581 3500 
L 1159 3500 
L 1159 2956 
Q 1341 3275 1631 3429 
Q 1922 3584 2338 3584 
Q 2397 3584 2469 3576 
Q 2541 3569 2628 3553 
L 2631 2963 
z
" transform="scale(0.015625)"/>
       <path id="DejaVuSans-20" transform="scale(0.015625)"/>
       <path id="DejaVuSans-6f" d="M 1959 3097 
Q 1497 3097 1228 2736 
Q 959 2375 959 1747 
Q 959 1119 1226 758 
Q 1494 397 1959 397 
Q 2419 397 2687 759 
Q 2956 1122 2956 1747 
Q 2956 2369 2687 2733 
Q 2419 3097 1959 3097 
z
M 1959 3584 
Q 2709 3584 3137 3096 
Q 3566 2609 3566 1747 
Q 3566 888 3137 398 
Q 2709 -91 1959 -91 
Q 1206 -91 779 398 
Q 353 888 353 1747 
Q 353 2609 779 3096 
Q 1206 3584 1959 3584 
z
" transform="scale(0.015625)"/>
       <path id="DejaVuSans-66" d="M 2375 4863 
L 2375 4384 
L 1825 4384 
Q 1516 4384 1395 4259 
Q 1275 4134 1275 3809 
L 1275 3500 
L 2222 3500 
L 2222 3053 
L 1275 3053 
L 1275 0 
L 697 0 
L 697 3053 
L 147 3053 
L 147 3500 
L 697 3500 
L 697 3744 
Q 697 4328 969 4595 
Q 1241 4863 1831 4863 
L 2375 4863 
z
" transform="scale(0.015625)"/>
       <path id="DejaVuSans-69" d="M 603 3500 
L 1178 3500 
L 1178 0 
L 603 0 
L 603 3500 
z
M 603 4863 
L 1178 4863 
L 1178 4134 
L 603 4134 
L 603 4863 
z
" transform="scale(0.015625)"/>
       <path id="DejaVuSans-74" d="M 1172 4494 
L 1172 3500 
L 2356 3500 
L 2356 3053 
L 1172 3053 
L 1172 1153 
Q 1172 725 1289 603 
Q 1406 481 1766 481 
L 2356 481 
L 2356 0 
L 1766 0 
Q 1100 0 847 248 
Q 594 497 594 1153 
L 594 3053 
L 172 3053 
L 172 3500 
L 594 3500 
L 594 4494 
L 1172 4494 
z
" transform="scale(0.015625)"/>
       <path id="DejaVuSans-61" d="M 2194 1759 
Q 1497 1759 1228 1600 
Q 959 1441 959 1056 
Q 959 750 1161 570 
Q 1363 391 1709 391 
Q 2188 391 2477 730 
Q 2766 1069 2766 1631 
L 2766 1759 
L 2194 1759 
z
M 3341 1997 
L 3341 0 
L 2766 0 
L 2766 531 
Q 2569 213 2275 61 
Q 1981 -91 1556 -91 
Q 1019 -91 701 211 
Q 384 513 384 1019 
Q 384 1609 779 1909 
Q 1175 2209 1959 2209 
L 2766 2209 
L 2766 2266 
Q 2766 2663 2505 2880 
Q 2244 3097 1772 3097 
Q 1472 3097 1187 3025 
Q 903 2953 641 2809 
L 641 3341 
Q 956 3463 1253 3523 
Q 1550 3584 1831 3584 
Q 2591 3584 2966 3190 
Q 3341 2797 3341 1997 
z
" transform="scale(0.015625)"/>
       <path id="DejaVuSans-6e" d="M 3513 2113 
L 3513 0 
L 2938 0 
L 2938 2094 
Q 2938 2591 2744 2837 
Q 2550 3084 2163 3084 
Q 1697 3084 1428 2787 
Q 1159 2491 1159 1978 
L 1159 0 
L 581 0 
L 581 3500 
L 1159 3500 
L 1159 2956 
Q 1366 3272 1645 3428 
Q 1925 3584 2291 3584 
Q 2894 3584 3203 3211 
Q 3513 2838 3513 2113 
z
" transform="scale(0.015625)"/>
       <path id="DejaVuSans-73" d="M 2834 3397 
L 2834 2853 
Q 2591 2978 2328 3040 
Q 2066 3103 1784 3103 
Q 1356 3103 1142 2972 
Q 928 2841 928 2578 
Q 928 2378 1081 2264 
Q 1234 2150 1697 2047 
L 1894 2003 
Q 2506 1872 2764 1633 
Q 3022 1394 3022 966 
Q 3022 478 2636 193 
Q 2250 -91 1575 -91 
Q 1294 -91 989 -36 
Q 684 19 347 128 
L 347 722 
Q 666 556 975 473 
Q 1284 391 1588 391 
Q 1994 391 2212 530 
Q 2431 669 2431 922 
Q 2431 1156 2273 1281 
Q 2116 1406 1581 1522 
L 1381 1569 
Q 847 1681 609 1914 
Q 372 2147 372 2553 
Q 372 3047 722 3315 
Q 1072 3584 1716 3584 
Q 2034 3584 2315 3537 
Q 2597 3491 2834 3397 
z
" transform="scale(0.015625)"/>
      </defs>
      <use xlink:href="#DejaVuSans-4e"/>
      <use xlink:href="#DejaVuSans-75" x="74.804688"/>
      <use xlink:href="#DejaVuSans-6d" x="138.183594"/>
      <use xlink:href="#DejaVuSans-62" x="235.595703"/>
      <use xlink:href="#DejaVuSans-65" x="299.072266"/>
      <use xlink:href="#DejaVuSans-72" x="360.595703"/>
      <use xlink:href="#DejaVuSans-20" x="401.708984"/>
      <use xlink:href="#DejaVuSans-6f" x="433.496094"/>
      <use xlink:href="#DejaVuSans-66" x="494.677734"/>
      <use xlink:href="#DejaVuSans-20" x="529.882812"/>
      <use xlink:href="#DejaVuSans-69" x="561.669922"/>
      <use xlink:href="#DejaVuSans-74" x="589.453125"/>
      <use xlink:href="#DejaVuSans-65" x="628.662109"/>
      <use xlink:href="#DejaVuSans-72" x="690.185547"/>
      <use xlink:href="#DejaVuSans-61" x="731.298828"/>
      <use xlink:href="#DejaVuSans-74" x="792.578125"/>
      <use xlink:href="#DejaVuSans-69" x="831.787109"/>
      <use xlink:href="#DejaVuSans-6f" x="859.570312"/>
      <use xlink:href="#DejaVuSans-6e" x="920.751953"/>
      <use xlink:href="#DejaVuSans-73" x="984.130859"/>
     </g>
    </g>
   </g>
   <g id="matplotlib.axis_2">
    <g id="ytick_1">
     <g id="line2d_7">
      <defs>
       <path id="md171a0a844" d="M 0 0 
L -3.5 0 
" style="stroke: #000000; stroke-width: 0.8"/>
      </defs>
      <g>
       <use xlink:href="#md171a0a844" x="72" y="334.586679" style="stroke: #000000; stroke-width: 0.8"/>
      </g>
     </g>
     <g id="text_8">
      <!-- $\mathdefault{10^{-10}}$ -->
      <g transform="translate(37.1 338.385898)scale(0.1 -0.1)">
       <defs>
        <path id="DejaVuSans-2212" d="M 678 2272 
L 4684 2272 
L 4684 1741 
L 678 1741 
L 678 2272 
z
" transform="scale(0.015625)"/>
       </defs>
       <use xlink:href="#DejaVuSans-31" transform="translate(0 0.765625)"/>
       <use xlink:href="#DejaVuSans-30" transform="translate(63.623047 0.765625)"/>
       <use xlink:href="#DejaVuSans-2212" transform="translate(128.203125 39.046875)scale(0.7)"/>
       <use xlink:href="#DejaVuSans-31" transform="translate(186.855469 39.046875)scale(0.7)"/>
       <use xlink:href="#DejaVuSans-30" transform="translate(231.391602 39.046875)scale(0.7)"/>
      </g>
     </g>
    </g>
    <g id="ytick_2">
     <g id="line2d_8">
      <g>
       <use xlink:href="#md171a0a844" x="72" y="283.979901" style="stroke: #000000; stroke-width: 0.8"/>
      </g>
     </g>
     <g id="text_9">
      <!-- $\mathdefault{10^{-7}}$ -->
      <g transform="translate(41.5 287.77912)scale(0.1 -0.1)">
       <defs>
        <path id="DejaVuSans-37" d="M 525 4666 
L 3525 4666 
L 3525 4397 
L 1831 0 
L 1172 0 
L 2766 4134 
L 525 4134 
L 525 4666 
z
" transform="scale(0.015625)"/>
       </defs>
       <use xlink:href="#DejaVuSans-31" transform="translate(0 0.684375)"/>
       <use xlink:href="#DejaVuSans-30" transform="translate(63.623047 0.684375)"/>
       <use xlink:href="#DejaVuSans-2212" transform="translate(128.203125 38.965625)scale(0.7)"/>
       <use xlink:href="#DejaVuSans-37" transform="translate(186.855469 38.965625)scale(0.7)"/>
      </g>
     </g>
    </g>
    <g id="ytick_3">
     <g id="line2d_9">
      <g>
       <use xlink:href="#md171a0a844" x="72" y="233.373123" style="stroke: #000000; stroke-width: 0.8"/>
      </g>
     </g>
     <g id="text_10">
      <!-- $\mathdefault{10^{-4}}$ -->
      <g transform="translate(41.5 237.172342)scale(0.1 -0.1)">
       <use xlink:href="#DejaVuSans-31" transform="translate(0 0.684375)"/>
       <use xlink:href="#DejaVuSans-30" transform="translate(63.623047 0.684375)"/>
       <use xlink:href="#DejaVuSans-2212" transform="translate(128.203125 38.965625)scale(0.7)"/>
       <use xlink:href="#DejaVuSans-34" transform="translate(186.855469 38.965625)scale(0.7)"/>
      </g>
     </g>
    </g>
    <g id="ytick_4">
     <g id="line2d_10">
      <g>
       <use xlink:href="#md171a0a844" x="72" y="182.766346" style="stroke: #000000; stroke-width: 0.8"/>
      </g>
     </g>
     <g id="text_11">
      <!-- $\mathdefault{10^{-1}}$ -->
      <g transform="translate(41.5 186.565564)scale(0.1 -0.1)">
       <use xlink:href="#DejaVuSans-31" transform="translate(0 0.684375)"/>
       <use xlink:href="#DejaVuSans-30" transform="translate(63.623047 0.684375)"/>
       <use xlink:href="#DejaVuSans-2212" transform="translate(128.203125 38.965625)scale(0.7)"/>
       <use xlink:href="#DejaVuSans-31" transform="translate(186.855469 38.965625)scale(0.7)"/>
      </g>
     </g>
    </g>
    <g id="ytick_5">
     <g id="line2d_11">
      <g>
       <use xlink:href="#md171a0a844" x="72" y="132.159568" style="stroke: #000000; stroke-width: 0.8"/>
      </g>
     </g>
     <g id="text_12">
      <!-- $\mathdefault{10^{2}}$ -->
      <g transform="translate(47.4 135.958787)scale(0.1 -0.1)">
       <use xlink:href="#DejaVuSans-31" transform="translate(0 0.765625)"/>
       <use xlink:href="#DejaVuSans-30" transform="translate(63.623047 0.765625)"/>
       <use xlink:href="#DejaVuSans-32" transform="translate(128.203125 39.046875)scale(0.7)"/>
      </g>
     </g>
    </g>
    <g id="ytick_6">
     <g id="line2d_12">
      <g>
       <use xlink:href="#md171a0a844" x="72" y="81.55279" style="stroke: #000000; stroke-width: 0.8"/>
      </g>
     </g>
     <g id="text_13">
      <!-- $\mathdefault{10^{5}}$ -->
      <g transform="translate(47.4 85.352009)scale(0.1 -0.1)">
       <defs>
        <path id="DejaVuSans-35" d="M 691 4666 
L 3169 4666 
L 3169 4134 
L 1269 4134 
L 1269 2991 
Q 1406 3038 1543 3061 
Q 1681 3084 1819 3084 
Q 2600 3084 3056 2656 
Q 3513 2228 3513 1497 
Q 3513 744 3044 326 
Q 2575 -91 1722 -91 
Q 1428 -91 1123 -41 
Q 819 9 494 109 
L 494 744 
Q 775 591 1075 516 
Q 1375 441 1709 441 
Q 2250 441 2565 725 
Q 2881 1009 2881 1497 
Q 2881 1984 2565 2268 
Q 2250 2553 1709 2553 
Q 1456 2553 1204 2497 
Q 953 2441 691 2322 
L 691 4666 
z
" transform="scale(0.015625)"/>
       </defs>
       <use xlink:href="#DejaVuSans-31" transform="translate(0 0.684375)"/>
       <use xlink:href="#DejaVuSans-30" transform="translate(63.623047 0.684375)"/>
       <use xlink:href="#DejaVuSans-35" transform="translate(128.203125 38.965625)scale(0.7)"/>
      </g>
     </g>
    </g>
    <g id="text_14">
     <!-- Norm of the residuals -->
     <g transform="translate(31.020312 272.004531)rotate(-90)scale(0.1 -0.1)">
      <defs>
       <path id="DejaVuSans-68" d="M 3513 2113 
L 3513 0 
L 2938 0 
L 2938 2094 
Q 2938 2591 2744 2837 
Q 2550 3084 2163 3084 
Q 1697 3084 1428 2787 
Q 1159 2491 1159 1978 
L 1159 0 
L 581 0 
L 581 4863 
L 1159 4863 
L 1159 2956 
Q 1366 3272 1645 3428 
Q 1925 3584 2291 3584 
Q 2894 3584 3203 3211 
Q 3513 2838 3513 2113 
z
" transform="scale(0.015625)"/>
       <path id="DejaVuSans-64" d="M 2906 2969 
L 2906 4863 
L 3481 4863 
L 3481 0 
L 2906 0 
L 2906 525 
Q 2725 213 2448 61 
Q 2172 -91 1784 -91 
Q 1150 -91 751 415 
Q 353 922 353 1747 
Q 353 2572 751 3078 
Q 1150 3584 1784 3584 
Q 2172 3584 2448 3432 
Q 2725 3281 2906 2969 
z
M 947 1747 
Q 947 1113 1208 752 
Q 1469 391 1925 391 
Q 2381 391 2643 752 
Q 2906 1113 2906 1747 
Q 2906 2381 2643 2742 
Q 2381 3103 1925 3103 
Q 1469 3103 1208 2742 
Q 947 2381 947 1747 
z
" transform="scale(0.015625)"/>
       <path id="DejaVuSans-6c" d="M 603 4863 
L 1178 4863 
L 1178 0 
L 603 0 
L 603 4863 
z
" transform="scale(0.015625)"/>
      </defs>
      <use xlink:href="#DejaVuSans-4e"/>
      <use xlink:href="#DejaVuSans-6f" x="74.804688"/>
      <use xlink:href="#DejaVuSans-72" x="135.986328"/>
      <use xlink:href="#DejaVuSans-6d" x="175.349609"/>
      <use xlink:href="#DejaVuSans-20" x="272.761719"/>
      <use xlink:href="#DejaVuSans-6f" x="304.548828"/>
      <use xlink:href="#DejaVuSans-66" x="365.730469"/>
      <use xlink:href="#DejaVuSans-20" x="400.935547"/>
      <use xlink:href="#DejaVuSans-74" x="432.722656"/>
      <use xlink:href="#DejaVuSans-68" x="471.931641"/>
      <use xlink:href="#DejaVuSans-65" x="535.310547"/>
      <use xlink:href="#DejaVuSans-20" x="596.833984"/>
      <use xlink:href="#DejaVuSans-72" x="628.621094"/>
      <use xlink:href="#DejaVuSans-65" x="667.484375"/>
      <use xlink:href="#DejaVuSans-73" x="729.007812"/>
      <use xlink:href="#DejaVuSans-69" x="781.107422"/>
      <use xlink:href="#DejaVuSans-64" x="808.890625"/>
      <use xlink:href="#DejaVuSans-75" x="872.367188"/>
      <use xlink:href="#DejaVuSans-61" x="935.746094"/>
      <use xlink:href="#DejaVuSans-6c" x="997.025391"/>
      <use xlink:href="#DejaVuSans-73" x="1024.808594"/>
     </g>
    </g>
   </g>
   <g id="line2d_13">
    <path d="M 92.290909 113.522552 
L 96.349091 113.522584 
L 100.407273 113.78339 
L 104.465455 113.822294 
L 108.523636 113.833333 
L 112.581818 113.915047 
L 116.64 114.330816 
L 120.698182 114.473859 
L 124.756364 114.481936 
L 128.814545 114.652027 
L 132.872727 114.979734 
L 136.930909 114.993813 
L 140.989091 115.196015 
L 145.047273 115.244616 
L 149.105455 115.534836 
L 153.163636 115.736912 
L 157.221818 115.745421 
L 161.28 115.966546 
L 165.338182 116.132351 
L 169.396364 116.651537 
L 173.454545 116.750249 
L 177.512727 116.750259 
L 181.570909 116.760302 
L 185.629091 116.802971 
L 189.687273 116.973908 
L 193.745455 116.981955 
L 197.803636 116.988829 
L 201.861818 117.052163 
L 205.92 117.054389 
L 209.978182 117.326992 
L 214.036364 117.691867 
L 218.094545 117.698561 
L 222.152727 117.699091 
L 226.210909 117.889701 
L 230.269091 117.899631 
L 234.327273 118.70856 
L 238.385455 118.82457 
L 242.443636 118.824854 
L 246.501818 119.023091 
L 250.56 119.16209 
L 254.618182 119.68388 
L 258.676364 119.799783 
L 262.734545 120.074979 
L 266.792727 120.521351 
L 270.850909 120.989376 
L 274.909091 121.015142 
L 278.967273 121.241244 
L 283.025455 121.297296 
L 287.083636 121.349604 
L 291.141818 121.478219 
L 295.2 121.505074 
L 299.258182 121.505611 
L 303.316364 121.963397 
L 307.374545 122.043078 
L 311.432727 122.672272 
L 315.490909 122.858584 
L 319.549091 123.059806 
L 323.607273 123.105378 
L 327.665455 123.755222 
L 331.723636 123.762528 
L 335.781818 125.135371 
L 339.84 125.278077 
L 343.898182 125.427735 
L 347.956364 125.495937 
L 352.014545 125.496455 
L 356.072727 125.711944 
L 360.130909 125.754639 
L 364.189091 126.055968 
L 368.247273 126.055973 
L 372.305455 126.440602 
L 376.363636 126.798706 
L 380.421818 127.369414 
L 384.48 127.674311 
L 388.538182 128.047897 
L 392.596364 128.691947 
L 396.654545 128.732013 
L 400.712727 128.735098 
L 404.770909 128.943527 
L 408.829091 129.492424 
L 412.887273 129.526301 
L 416.945455 130.640669 
L 421.003636 130.76197 
L 425.061818 130.842066 
L 429.12 131.151373 
L 433.178182 134.780482 
L 437.236364 134.804252 
L 441.294545 134.890239 
L 445.352727 135.659385 
L 449.410909 136.74661 
L 453.469091 137.388323 
L 457.527273 137.389186 
L 461.585455 137.44554 
L 465.643636 137.481843 
L 469.701818 137.504307 
L 473.76 137.706062 
L 477.818182 137.706143 
L 481.876364 141.697207 
L 485.934545 143.648214 
L 489.992727 144.805311 
L 494.050909 145.085269 
L 498.109091 344.826177 
" clip-path="url(#p8ad088f397)" style="fill: none; stroke: #1f77b4; stroke-width: 1.5; stroke-linecap: square"/>
   </g>
   <g id="line2d_14">
    <path d="M 92.290909 113.522552 
L 96.349091 118.856309 
L 100.407273 121.423478 
L 104.465455 123.409702 
L 108.523636 125.393421 
L 112.581818 127.635222 
L 116.64 129.454416 
L 120.698182 130.541653 
L 124.756364 131.27122 
L 128.814545 131.736945 
L 132.872727 132.69853 
L 136.930909 133.489204 
L 140.989091 134.128258 
L 145.047273 134.881187 
L 149.105455 135.303084 
L 153.163636 135.789063 
L 157.221818 136.431045 
L 161.28 137.291652 
L 165.338182 138.208727 
L 169.396364 138.685647 
L 173.454545 139.32569 
L 177.512727 139.951639 
L 181.570909 140.37508 
L 185.629091 140.748257 
L 189.687273 141.172861 
L 193.745455 141.614427 
L 197.803636 142.158888 
L 201.861818 142.65844 
L 205.92 143.107894 
L 209.978182 143.526916 
L 214.036364 144.19502 
L 218.094545 145.049313 
L 222.152727 146.02743 
L 226.210909 146.525211 
L 230.269091 147.089614 
L 234.327273 147.591732 
L 238.385455 147.953313 
L 242.443636 148.40091 
L 246.501818 148.780096 
L 250.56 149.336501 
L 254.618182 149.72228 
L 258.676364 150.131523 
L 262.734545 150.439739 
L 266.792727 150.720792 
L 270.850909 150.99194 
L 274.909091 151.206073 
L 278.967273 151.475979 
L 283.025455 151.757944 
L 287.083636 152.002919 
L 291.141818 152.21812 
L 295.2 152.469251 
L 299.258182 152.687136 
L 303.316364 153.034125 
L 307.374545 153.25246 
L 311.432727 153.514624 
L 315.490909 153.762729 
L 319.549091 153.977851 
L 323.607273 154.095522 
L 327.665455 154.372336 
L 331.723636 154.565903 
L 335.781818 154.766972 
L 339.84 155.040173 
L 343.898182 155.434688 
L 347.956364 155.676619 
L 352.014545 155.961017 
L 356.072727 156.503414 
L 360.130909 157.422427 
L 364.189091 158.297396 
L 368.247273 159.308203 
L 372.305455 160.045068 
L 376.363636 161.45088 
L 380.421818 162.205483 
L 384.48 162.503652 
L 388.538182 163.298405 
L 392.596364 163.586095 
L 396.654545 164.035813 
L 400.712727 164.316347 
L 404.770909 164.577579 
L 408.829091 164.731605 
L 412.887273 164.982387 
L 416.945455 165.423179 
L 421.003636 165.799392 
L 425.061818 166.272201 
L 429.12 166.747937 
L 433.178182 166.982119 
L 437.236364 167.313978 
L 441.294545 168.173489 
L 445.352727 168.836623 
L 449.410909 169.991173 
L 453.469091 170.472303 
L 457.527273 171.047296 
L 461.585455 171.724691 
L 465.643636 172.068693 
L 469.701818 172.321186 
L 473.76 172.780741 
L 477.818182 173.333868 
L 481.876364 173.445316 
L 485.934545 173.667596 
L 489.992727 174.212682 
L 494.050909 174.482844 
L 498.109091 363.843705 
" clip-path="url(#p8ad088f397)" style="fill: none; stroke: #ff7f0e; stroke-width: 1.5; stroke-linecap: square"/>
   </g>
   <g id="line2d_15">
    <path d="M 92.290909 113.522552 
L 96.349091 113.627116 
L 100.407273 113.629568 
L 104.465455 113.681468 
L 108.523636 113.7341 
L 112.581818 113.912471 
L 116.64 113.919595 
L 120.698182 114.094942 
L 124.756364 114.284345 
L 128.814545 114.517435 
L 132.872727 114.517986 
L 136.930909 114.52084 
L 140.989091 114.521757 
L 145.047273 114.748807 
L 149.105455 114.748927 
L 153.163636 114.756589 
L 157.221818 115.285144 
L 161.28 115.526512 
L 165.338182 115.5739 
L 169.396364 115.647014 
L 173.454545 115.649522 
L 177.512727 115.702373 
L 181.570909 115.856447 
L 185.629091 116.072671 
L 189.687273 116.322766 
L 193.745455 116.333843 
L 197.803636 116.756854 
L 201.861818 116.91158 
L 205.92 116.920257 
L 209.978182 116.951621 
L 214.036364 116.963014 
L 218.094545 116.989182 
L 222.152727 117.013374 
L 226.210909 117.075016 
L 230.269091 117.288157 
L 234.327273 117.437466 
L 238.385455 117.484759 
L 242.443636 117.486166 
L 246.501818 117.756651 
L 250.56 118.167481 
L 254.618182 118.170723 
L 258.676364 118.236604 
L 262.734545 118.2907 
L 266.792727 118.301825 
L 270.850909 118.30183 
L 274.909091 118.59067 
L 278.967273 118.845077 
L 283.025455 118.849131 
L 287.083636 119.377545 
L 291.141818 119.513079 
L 295.2 120.436212 
L 299.258182 120.43767 
L 303.316364 120.441135 
L 307.374545 120.645274 
L 311.432727 120.733553 
L 315.490909 120.73692 
L 319.549091 120.848288 
L 323.607273 120.867608 
L 327.665455 120.921346 
L 331.723636 120.932952 
L 335.781818 121.902693 
L 339.84 121.971171 
L 343.898182 122.011156 
L 347.956364 122.086274 
L 352.014545 122.217675 
L 356.072727 122.252109 
L 360.130909 122.666061 
L 364.189091 122.74114 
L 368.247273 123.017023 
L 372.305455 123.245433 
L 376.363636 123.670713 
L 380.421818 123.670929 
L 384.48 125.01979 
L 388.538182 125.265271 
L 392.596364 125.394522 
L 396.654545 126.544672 
L 400.712727 126.550458 
L 404.770909 126.607687 
L 408.829091 126.668661 
L 412.887273 127.441918 
L 416.945455 128.237521 
L 421.003636 129.889874 
L 425.061818 130.15072 
L 429.12 130.294321 
L 433.178182 130.334195 
L 437.236364 130.750053 
L 441.294545 131.376023 
L 445.352727 131.377247 
L 449.410909 131.48194 
L 453.469091 133.883578 
L 457.527273 138.951528 
L 461.585455 139.506897 
L 465.643636 140.147335 
L 469.701818 140.187664 
L 473.76 141.308883 
L 477.818182 141.358861 
L 481.876364 144.228169 
L 485.934545 151.128329 
L 489.992727 151.297386 
L 494.050909 151.828412 
L 498.109091 346.220039 
" clip-path="url(#p8ad088f397)" style="fill: none; stroke: #2ca02c; stroke-width: 1.5; stroke-linecap: square"/>
   </g>
   <g id="line2d_16">
    <path d="M 92.290909 113.522552 
L 96.349091 100.103244 
L 100.407273 108.942478 
L 104.465455 109.444418 
L 108.523636 108.411473 
L 112.581818 110.236889 
L 116.64 109.489813 
L 120.698182 71.9126 
L 124.756364 66.96 
L 128.814545 100.380248 
L 132.872727 97.27901 
L 136.930909 99.000872 
L 140.989091 101.878248 
L 145.047273 103.907389 
L 149.105455 89.342487 
L 153.163636 106.796605 
L 157.221818 101.743885 
L 161.28 101.499605 
L 165.338182 102.684198 
L 169.396364 101.890854 
L 173.454545 93.579925 
L 177.512727 102.704272 
L 181.570909 104.399192 
L 185.629091 99.27132 
L 189.687273 100.146383 
L 193.745455 106.100778 
L 197.803636 84.35328 
L 201.861818 84.30942 
L 205.92 75.438714 
L 209.978182 104.200447 
L 214.036364 102.415671 
L 218.094545 105.369309 
L 222.152727 102.784257 
L 226.210909 102.850119 
L 230.269091 101.43027 
L 234.327273 102.640509 
L 238.385455 74.575533 
L 242.443636 105.548894 
L 246.501818 102.598981 
L 250.56 102.652185 
L 254.618182 88.428787 
L 258.676364 99.141065 
L 262.734545 90.967147 
L 266.792727 104.564321 
L 270.850909 100.69647 
L 274.909091 86.123134 
L 278.967273 94.722412 
L 283.025455 87.284252 
L 287.083636 97.593843 
L 291.141818 97.234865 
L 295.2 99.186702 
L 299.258182 76.869293 
L 303.316364 81.473387 
L 307.374545 105.721704 
L 311.432727 109.257706 
L 315.490909 88.244221 
L 319.549091 108.928435 
L 323.607273 111.143297 
L 327.665455 107.192175 
L 331.723636 103.260869 
L 335.781818 103.333905 
L 339.84 104.958361 
L 343.898182 106.580559 
L 347.956364 105.676077 
L 352.014545 106.600537 
L 356.072727 107.641887 
L 360.130909 100.785857 
L 364.189091 105.236715 
L 368.247273 114.835064 
L 372.305455 114.550948 
L 376.363636 112.559459 
L 380.421818 113.405009 
L 384.48 115.966241 
L 388.538182 106.771194 
L 392.596364 119.156162 
L 396.654545 118.860767 
L 400.712727 116.791176 
L 404.770909 118.497698 
L 408.829091 117.26875 
L 412.887273 117.552696 
L 416.945455 95.888131 
L 421.003636 109.909535 
L 425.061818 115.315161 
L 429.12 115.532332 
L 433.178182 111.293371 
L 437.236364 108.986358 
L 441.294545 116.445369 
L 445.352727 115.501687 
L 449.410909 114.756599 
L 453.469091 123.459155 
L 457.527273 119.581495 
L 461.585455 114.154713 
L 465.643636 121.11752 
L 469.701818 123.058583 
L 473.76 102.689839 
L 477.818182 126.540095 
L 481.876364 93.816483 
L 485.934545 135.201776 
L 489.992727 135.439889 
L 494.050909 136.013093 
L 498.109091 361.052768 
" clip-path="url(#p8ad088f397)" style="fill: none; stroke: #d62728; stroke-width: 1.5; stroke-linecap: square"/>
   </g>
   <g id="line2d_17">
    <path d="M 92.290909 113.522552 
L 96.349091 93.383007 
L 100.407273 117.481189 
L 104.465455 121.767954 
L 108.523636 115.95724 
L 112.581818 119.163653 
L 116.64 122.652202 
L 120.698182 125.715592 
L 124.756364 119.007467 
L 128.814545 125.150164 
L 132.872727 116.775807 
L 136.930909 121.222396 
L 140.989091 128.980213 
L 145.047273 126.719025 
L 149.105455 132.129522 
L 153.163636 125.683502 
L 157.221818 120.590818 
L 161.28 128.444659 
L 165.338182 124.295936 
L 169.396364 123.920831 
L 173.454545 124.644128 
L 177.512727 123.292687 
L 181.570909 116.905 
L 185.629091 106.939129 
L 189.687273 119.886707 
L 193.745455 124.853903 
L 197.803636 124.884543 
L 201.861818 125.922389 
L 205.92 131.431404 
L 209.978182 134.76926 
L 214.036364 133.021216 
L 218.094545 130.314322 
L 222.152727 135.452956 
L 226.210909 127.282667 
L 230.269091 130.397147 
L 234.327273 123.679153 
L 238.385455 127.639544 
L 242.443636 132.116173 
L 246.501818 128.196908 
L 250.56 131.146617 
L 254.618182 136.577204 
L 258.676364 120.906878 
L 262.734545 131.380118 
L 266.792727 139.714719 
L 270.850909 139.424424 
L 274.909091 139.470726 
L 278.967273 139.590226 
L 283.025455 142.086252 
L 287.083636 142.605129 
L 291.141818 132.208968 
L 295.2 138.93705 
L 299.258182 138.802968 
L 303.316364 138.782872 
L 307.374545 137.988251 
L 311.432727 142.993573 
L 315.490909 139.712994 
L 319.549091 140.386829 
L 323.607273 133.255741 
L 327.665455 119.056668 
L 331.723636 137.954131 
L 335.781818 134.655801 
L 339.84 138.92633 
L 343.898182 135.185562 
L 347.956364 136.186207 
L 352.014545 135.853478 
L 356.072727 135.03669 
L 360.130909 101.436835 
L 364.189091 139.624782 
L 368.247273 126.144964 
L 372.305455 146.348793 
L 376.363636 137.696739 
L 380.421818 137.74284 
L 384.48 143.893133 
L 388.538182 150.728928 
L 392.596364 128.607173 
L 396.654545 145.887432 
L 400.712727 147.796768 
L 404.770909 145.43256 
L 408.829091 148.314307 
L 412.887273 151.804628 
L 416.945455 140.829952 
L 421.003636 141.833656 
L 425.061818 145.327703 
L 429.12 142.315776 
L 433.178182 148.935327 
L 437.236364 147.068075 
L 441.294545 149.436603 
L 445.352727 153.978497 
L 449.410909 149.084426 
L 453.469091 152.096904 
L 457.527273 128.992294 
L 461.585455 146.36974 
L 465.643636 145.202877 
L 469.701818 147.153701 
L 473.76 150.523737 
L 477.818182 149.652008 
L 481.876364 144.838383 
L 485.934545 144.750674 
L 489.992727 155.194169 
L 494.050909 155.108653 
L 498.109091 369.36 
" clip-path="url(#p8ad088f397)" style="fill: none; stroke: #9467bd; stroke-width: 1.5; stroke-linecap: square"/>
   </g>
   <g id="line2d_18">
    <path d="M 92.290909 113.522552 
L 96.349091 100.54827 
L 100.407273 86.854059 
L 104.465455 98.062971 
L 108.523636 98.16655 
L 112.581818 102.753272 
L 116.64 91.049391 
L 120.698182 102.874605 
L 124.756364 103.339498 
L 128.814545 104.311206 
L 132.872727 82.275525 
L 136.930909 88.301842 
L 140.989091 84.142592 
L 145.047273 104.449395 
L 149.105455 76.946709 
L 153.163636 92.152185 
L 157.221818 107.932757 
L 161.28 105.444024 
L 165.338182 99.624492 
L 169.396364 101.273281 
L 173.454545 88.95783 
L 177.512727 100.149872 
L 181.570909 104.172928 
L 185.629091 105.599647 
L 189.687273 106.366066 
L 193.745455 95.078403 
L 197.803636 108.640163 
L 201.861818 105.243189 
L 205.92 94.771474 
L 209.978182 99.498447 
L 214.036364 95.810244 
L 218.094545 98.87513 
L 222.152727 98.61281 
L 226.210909 102.081763 
L 230.269091 106.764078 
L 234.327273 105.641224 
L 238.385455 101.528039 
L 242.443636 88.677184 
L 246.501818 108.076974 
L 250.56 109.949724 
L 254.618182 92.418773 
L 258.676364 103.484903 
L 262.734545 102.822878 
L 266.792727 97.062291 
L 270.850909 69.120823 
L 274.909091 109.14243 
L 278.967273 108.948859 
L 283.025455 93.914976 
L 287.083636 112.024252 
L 291.141818 107.369109 
L 295.2 114.935656 
L 299.258182 91.758199 
L 303.316364 94.931741 
L 307.374545 109.967578 
L 311.432727 107.042677 
L 315.490909 95.123174 
L 319.549091 107.996977 
L 323.607273 101.645594 
L 327.665455 105.429467 
L 331.723636 99.847935 
L 335.781818 116.560258 
L 339.84 107.359774 
L 343.898182 105.443255 
L 347.956364 107.810579 
L 352.014545 109.962323 
L 356.072727 105.139471 
L 360.130909 114.47451 
L 364.189091 108.463584 
L 368.247273 113.407052 
L 372.305455 112.967237 
L 376.363636 115.572499 
L 380.421818 87.995064 
L 384.48 120.706532 
L 388.538182 115.242644 
L 392.596364 113.079811 
L 396.654545 121.74136 
L 400.712727 102.919076 
L 404.770909 111.34458 
L 408.829091 111.635856 
L 412.887273 121.364454 
L 416.945455 122.253642 
L 421.003636 126.178581 
L 425.061818 120.34288 
L 429.12 118.358137 
L 433.178182 113.756145 
L 437.236364 122.574387 
L 441.294545 124.595834 
L 445.352727 102.057705 
L 449.410909 118.407537 
L 453.469091 131.201809 
L 457.527273 137.894363 
L 461.585455 132.322697 
L 465.643636 133.443818 
L 469.701818 123.650921 
L 473.76 136.425972 
L 477.818182 125.603088 
L 481.876364 141.992093 
L 485.934545 150.524288 
L 489.992727 139.946348 
L 494.050909 144.491903 
L 498.109091 367.525116 
" clip-path="url(#p8ad088f397)" style="fill: none; stroke: #8c564b; stroke-width: 1.5; stroke-linecap: square"/>
   </g>
   <g id="patch_3">
    <path d="M 72 384.48 
L 72 51.84 
" style="fill: none; stroke: #000000; stroke-width: 0.8; stroke-linejoin: miter; stroke-linecap: square"/>
   </g>
   <g id="patch_4">
    <path d="M 518.4 384.48 
L 518.4 51.84 
" style="fill: none; stroke: #000000; stroke-width: 0.8; stroke-linejoin: miter; stroke-linecap: square"/>
   </g>
   <g id="patch_5">
    <path d="M 72 384.48 
L 518.4 384.48 
" style="fill: none; stroke: #000000; stroke-width: 0.8; stroke-linejoin: miter; stroke-linecap: square"/>
   </g>
   <g id="patch_6">
    <path d="M 72 51.84 
L 518.4 51.84 
" style="fill: none; stroke: #000000; stroke-width: 0.8; stroke-linejoin: miter; stroke-linecap: square"/>
   </g>
   <g id="legend_1">
    <g id="patch_7">
     <path d="M 79 379.48 
L 180.740625 379.48 
Q 182.740625 379.48 182.740625 377.48 
L 182.740625 288.7425 
Q 182.740625 286.7425 180.740625 286.7425 
L 79 286.7425 
Q 77 286.7425 77 288.7425 
L 77 377.48 
Q 77 379.48 79 379.48 
z
" style="fill: #ffffff; opacity: 0.8; stroke: #cccccc; stroke-linejoin: miter"/>
    </g>
    <g id="line2d_19">
     <path d="M 81 294.840937 
L 91 294.840937 
L 101 294.840937 
" style="fill: none; stroke: #1f77b4; stroke-width: 1.5; stroke-linecap: square"/>
    </g>
    <g id="text_15">
     <!-- rand_minres -->
     <g transform="translate(109 298.340937)scale(0.1 -0.1)">
      <defs>
       <path id="DejaVuSans-5f" d="M 3263 -1063 
L 3263 -1509 
L -63 -1509 
L -63 -1063 
L 3263 -1063 
z
" transform="scale(0.015625)"/>
      </defs>
      <use xlink:href="#DejaVuSans-72"/>
      <use xlink:href="#DejaVuSans-61" x="41.113281"/>
      <use xlink:href="#DejaVuSans-6e" x="102.392578"/>
      <use xlink:href="#DejaVuSans-64" x="165.771484"/>
      <use xlink:href="#DejaVuSans-5f" x="229.248047"/>
      <use xlink:href="#DejaVuSans-6d" x="279.248047"/>
      <use xlink:href="#DejaVuSans-69" x="376.660156"/>
      <use xlink:href="#DejaVuSans-6e" x="404.443359"/>
      <use xlink:href="#DejaVuSans-72" x="467.822266"/>
      <use xlink:href="#DejaVuSans-65" x="506.685547"/>
      <use xlink:href="#DejaVuSans-73" x="568.208984"/>
     </g>
    </g>
    <g id="line2d_20">
     <path d="M 81 309.797188 
L 91 309.797188 
L 101 309.797188 
" style="fill: none; stroke: #ff7f0e; stroke-width: 1.5; stroke-linecap: square"/>
    </g>
    <g id="text_16">
     <!-- grad_minres -->
     <g transform="translate(109 313.297188)scale(0.1 -0.1)">
      <defs>
       <path id="DejaVuSans-67" d="M 2906 1791 
Q 2906 2416 2648 2759 
Q 2391 3103 1925 3103 
Q 1463 3103 1205 2759 
Q 947 2416 947 1791 
Q 947 1169 1205 825 
Q 1463 481 1925 481 
Q 2391 481 2648 825 
Q 2906 1169 2906 1791 
z
M 3481 434 
Q 3481 -459 3084 -895 
Q 2688 -1331 1869 -1331 
Q 1566 -1331 1297 -1286 
Q 1028 -1241 775 -1147 
L 775 -588 
Q 1028 -725 1275 -790 
Q 1522 -856 1778 -856 
Q 2344 -856 2625 -561 
Q 2906 -266 2906 331 
L 2906 616 
Q 2728 306 2450 153 
Q 2172 0 1784 0 
Q 1141 0 747 490 
Q 353 981 353 1791 
Q 353 2603 747 3093 
Q 1141 3584 1784 3584 
Q 2172 3584 2450 3431 
Q 2728 3278 2906 2969 
L 2906 3500 
L 3481 3500 
L 3481 434 
z
" transform="scale(0.015625)"/>
      </defs>
      <use xlink:href="#DejaVuSans-67"/>
      <use xlink:href="#DejaVuSans-72" x="63.476562"/>
      <use xlink:href="#DejaVuSans-61" x="104.589844"/>
      <use xlink:href="#DejaVuSans-64" x="165.869141"/>
      <use xlink:href="#DejaVuSans-5f" x="229.345703"/>
      <use xlink:href="#DejaVuSans-6d" x="279.345703"/>
      <use xlink:href="#DejaVuSans-69" x="376.757812"/>
      <use xlink:href="#DejaVuSans-6e" x="404.541016"/>
      <use xlink:href="#DejaVuSans-72" x="467.919922"/>
      <use xlink:href="#DejaVuSans-65" x="506.783203"/>
      <use xlink:href="#DejaVuSans-73" x="568.306641"/>
     </g>
    </g>
    <g id="line2d_21">
     <path d="M 81 324.753438 
L 91 324.753438 
L 101 324.753438 
" style="fill: none; stroke: #2ca02c; stroke-width: 1.5; stroke-linecap: square"/>
    </g>
    <g id="text_17">
     <!-- krylov_minres -->
     <g transform="translate(109 328.253438)scale(0.1 -0.1)">
      <defs>
       <path id="DejaVuSans-6b" d="M 581 4863 
L 1159 4863 
L 1159 1991 
L 2875 3500 
L 3609 3500 
L 1753 1863 
L 3688 0 
L 2938 0 
L 1159 1709 
L 1159 0 
L 581 0 
L 581 4863 
z
" transform="scale(0.015625)"/>
       <path id="DejaVuSans-79" d="M 2059 -325 
Q 1816 -950 1584 -1140 
Q 1353 -1331 966 -1331 
L 506 -1331 
L 506 -850 
L 844 -850 
Q 1081 -850 1212 -737 
Q 1344 -625 1503 -206 
L 1606 56 
L 191 3500 
L 800 3500 
L 1894 763 
L 2988 3500 
L 3597 3500 
L 2059 -325 
z
" transform="scale(0.015625)"/>
       <path id="DejaVuSans-76" d="M 191 3500 
L 800 3500 
L 1894 563 
L 2988 3500 
L 3597 3500 
L 2284 0 
L 1503 0 
L 191 3500 
z
" transform="scale(0.015625)"/>
      </defs>
      <use xlink:href="#DejaVuSans-6b"/>
      <use xlink:href="#DejaVuSans-72" x="57.910156"/>
      <use xlink:href="#DejaVuSans-79" x="99.023438"/>
      <use xlink:href="#DejaVuSans-6c" x="158.203125"/>
      <use xlink:href="#DejaVuSans-6f" x="185.986328"/>
      <use xlink:href="#DejaVuSans-76" x="247.167969"/>
      <use xlink:href="#DejaVuSans-5f" x="306.347656"/>
      <use xlink:href="#DejaVuSans-6d" x="356.347656"/>
      <use xlink:href="#DejaVuSans-69" x="453.759766"/>
      <use xlink:href="#DejaVuSans-6e" x="481.542969"/>
      <use xlink:href="#DejaVuSans-72" x="544.921875"/>
      <use xlink:href="#DejaVuSans-65" x="583.785156"/>
      <use xlink:href="#DejaVuSans-73" x="645.308594"/>
     </g>
    </g>
    <g id="line2d_22">
     <path d="M 81 339.709687 
L 91 339.709687 
L 101 339.709687 
" style="fill: none; stroke: #d62728; stroke-width: 1.5; stroke-linecap: square"/>
    </g>
    <g id="text_18">
     <!-- rand_fom -->
     <g transform="translate(109 343.209687)scale(0.1 -0.1)">
      <use xlink:href="#DejaVuSans-72"/>
      <use xlink:href="#DejaVuSans-61" x="41.113281"/>
      <use xlink:href="#DejaVuSans-6e" x="102.392578"/>
      <use xlink:href="#DejaVuSans-64" x="165.771484"/>
      <use xlink:href="#DejaVuSans-5f" x="229.248047"/>
      <use xlink:href="#DejaVuSans-66" x="279.248047"/>
      <use xlink:href="#DejaVuSans-6f" x="314.453125"/>
      <use xlink:href="#DejaVuSans-6d" x="375.634766"/>
     </g>
    </g>
    <g id="line2d_23">
     <path d="M 81 354.665937 
L 91 354.665937 
L 101 354.665937 
" style="fill: none; stroke: #9467bd; stroke-width: 1.5; stroke-linecap: square"/>
    </g>
    <g id="text_19">
     <!-- grad_fom -->
     <g transform="translate(109 358.165937)scale(0.1 -0.1)">
      <use xlink:href="#DejaVuSans-67"/>
      <use xlink:href="#DejaVuSans-72" x="63.476562"/>
      <use xlink:href="#DejaVuSans-61" x="104.589844"/>
      <use xlink:href="#DejaVuSans-64" x="165.869141"/>
      <use xlink:href="#DejaVuSans-5f" x="229.345703"/>
      <use xlink:href="#DejaVuSans-66" x="279.345703"/>
      <use xlink:href="#DejaVuSans-6f" x="314.550781"/>
      <use xlink:href="#DejaVuSans-6d" x="375.732422"/>
     </g>
    </g>
    <g id="line2d_24">
     <path d="M 81 369.622187 
L 91 369.622187 
L 101 369.622187 
" style="fill: none; stroke: #8c564b; stroke-width: 1.5; stroke-linecap: square"/>
    </g>
    <g id="text_20">
     <!-- krylov_fom -->
     <g transform="translate(109 373.122187)scale(0.1 -0.1)">
      <use xlink:href="#DejaVuSans-6b"/>
      <use xlink:href="#DejaVuSans-72" x="57.910156"/>
      <use xlink:href="#DejaVuSans-79" x="99.023438"/>
      <use xlink:href="#DejaVuSans-6c" x="158.203125"/>
      <use xlink:href="#DejaVuSans-6f" x="185.986328"/>
      <use xlink:href="#DejaVuSans-76" x="247.167969"/>
      <use xlink:href="#DejaVuSans-5f" x="306.347656"/>
      <use xlink:href="#DejaVuSans-66" x="356.347656"/>
      <use xlink:href="#DejaVuSans-6f" x="391.552734"/>
      <use xlink:href="#DejaVuSans-6d" x="452.734375"/>
     </g>
    </g>
   </g>
  </g>
 </g>
 <defs>
  <clipPath id="p8ad088f397">
   <rect x="72" y="51.84" width="446.4" height="332.64"/>
  </clipPath>
 </defs>
</svg>
