<?xml version="1.0" encoding="utf-8" standalone="no"?>
<!DOCTYPE svg PUBLIC "-//W3C//DTD SVG 1.1//EN"
  "http://www.w3.org/Graphics/SVG/1.1/DTD/svg11.dtd">
<svg xmlns:xlink="http://www.w3.org/1999/xlink" width="576pt" height="432pt" viewBox="0 0 576 432" xmlns="http://www.w3.org/2000/svg" version="1.1">
 <metadata>
  <rdf:RDF xmlns:dc="http://purl.org/dc/elements/1.1/" xmlns:cc="http://creativecommons.org/ns#" xmlns:rdf="http://www.w3.org/1999/02/22-rdf-syntax-ns#">
   <cc:Work>
    <dc:type rdf:resource="http://purl.org/dc/dcmitype/StillImage"/>
    <dc:date>2022-06-10T02:10:41.102076</dc:date>
    <dc:format>image/svg+xml</dc:format>
    <dc:creator>
     <cc:Agent>
      <dc:title>Matplotlib v3.5.2, https://matplotlib.org/</dc:title>
     </cc:Agent>
    </dc:creator>
   </cc:Work>
  </rdf:RDF>
 </metadata>
 <defs>
  <style type="text/css">*{stroke-linejoin: round; stroke-linecap: butt}</style>
 </defs>
 <g id="figure_1">
  <g id="patch_1">
   <path d="M 0 432 
L 576 432 
L 576 0 
L 0 0 
z
" style="fill: #ffffff"/>
  </g>
  <g id="axes_1">
   <g id="patch_2">
    <path d="M 72 384.48 
L 518.4 384.48 
L 518.4 51.84 
L 72 51.84 
z
" style="fill: #ffffff"/>
   </g>
   <g id="matplotlib.axis_1">
    <g id="xtick_1">
     <g id="line2d_1">
      <defs>
       <path id="m55d36c8e8e" d="M 0 0 
L 0 3.5 
" style="stroke: #000000; stroke-width: 0.8"/>
      </defs>
      <g>
       <use xlink:href="#m55d36c8e8e" x="92.290909" y="384.48" style="stroke: #000000; stroke-width: 0.8"/>
      </g>
     </g>
     <g id="text_1">
      <!-- 0 -->
      <g transform="translate(89.109659 399.078438)scale(0.1 -0.1)">
       <defs>
        <path id="DejaVuSans-30" d="M 2034 4250 
Q 1547 4250 1301 3770 
Q 1056 3291 1056 2328 
Q 1056 1369 1301 889 
Q 1547 409 2034 409 
Q 2525 409 2770 889 
Q 3016 1369 3016 2328 
Q 3016 3291 2770 3770 
Q 2525 4250 2034 4250 
z
M 2034 4750 
Q 2819 4750 3233 4129 
Q 3647 3509 3647 2328 
Q 3647 1150 3233 529 
Q 2819 -91 2034 -91 
Q 1250 -91 836 529 
Q 422 1150 422 2328 
Q 422 3509 836 4129 
Q 1250 4750 2034 4750 
z
" transform="scale(0.015625)"/>
       </defs>
       <use xlink:href="#DejaVuSans-30"/>
      </g>
     </g>
    </g>
    <g id="xtick_2">
     <g id="line2d_2">
      <g>
       <use xlink:href="#m55d36c8e8e" x="173.454545" y="384.48" style="stroke: #000000; stroke-width: 0.8"/>
      </g>
     </g>
     <g id="text_2">
      <!-- 20 -->
      <g transform="translate(167.092045 399.078438)scale(0.1 -0.1)">
       <defs>
        <path id="DejaVuSans-32" d="M 1228 531 
L 3431 531 
L 3431 0 
L 469 0 
L 469 531 
Q 828 903 1448 1529 
Q 2069 2156 2228 2338 
Q 2531 2678 2651 2914 
Q 2772 3150 2772 3378 
Q 2772 3750 2511 3984 
Q 2250 4219 1831 4219 
Q 1534 4219 1204 4116 
Q 875 4013 500 3803 
L 500 4441 
Q 881 4594 1212 4672 
Q 1544 4750 1819 4750 
Q 2544 4750 2975 4387 
Q 3406 4025 3406 3419 
Q 3406 3131 3298 2873 
Q 3191 2616 2906 2266 
Q 2828 2175 2409 1742 
Q 1991 1309 1228 531 
z
" transform="scale(0.015625)"/>
       </defs>
       <use xlink:href="#DejaVuSans-32"/>
       <use xlink:href="#DejaVuSans-30" x="63.623047"/>
      </g>
     </g>
    </g>
    <g id="xtick_3">
     <g id="line2d_3">
      <g>
       <use xlink:href="#m55d36c8e8e" x="254.618182" y="384.48" style="stroke: #000000; stroke-width: 0.8"/>
      </g>
     </g>
     <g id="text_3">
      <!-- 40 -->
      <g transform="translate(248.255682 399.078438)scale(0.1 -0.1)">
       <defs>
        <path id="DejaVuSans-34" d="M 2419 4116 
L 825 1625 
L 2419 1625 
L 2419 4116 
z
M 2253 4666 
L 3047 4666 
L 3047 1625 
L 3713 1625 
L 3713 1100 
L 3047 1100 
L 3047 0 
L 2419 0 
L 2419 1100 
L 313 1100 
L 313 1709 
L 2253 4666 
z
" transform="scale(0.015625)"/>
       </defs>
       <use xlink:href="#DejaVuSans-34"/>
       <use xlink:href="#DejaVuSans-30" x="63.623047"/>
      </g>
     </g>
    </g>
    <g id="xtick_4">
     <g id="line2d_4">
      <g>
       <use xlink:href="#m55d36c8e8e" x="335.781818" y="384.48" style="stroke: #000000; stroke-width: 0.8"/>
      </g>
     </g>
     <g id="text_4">
      <!-- 60 -->
      <g transform="translate(329.419318 399.078438)scale(0.1 -0.1)">
       <defs>
        <path id="DejaVuSans-36" d="M 2113 2584 
Q 1688 2584 1439 2293 
Q 1191 2003 1191 1497 
Q 1191 994 1439 701 
Q 1688 409 2113 409 
Q 2538 409 2786 701 
Q 3034 994 3034 1497 
Q 3034 2003 2786 2293 
Q 2538 2584 2113 2584 
z
M 3366 4563 
L 3366 3988 
Q 3128 4100 2886 4159 
Q 2644 4219 2406 4219 
Q 1781 4219 1451 3797 
Q 1122 3375 1075 2522 
Q 1259 2794 1537 2939 
Q 1816 3084 2150 3084 
Q 2853 3084 3261 2657 
Q 3669 2231 3669 1497 
Q 3669 778 3244 343 
Q 2819 -91 2113 -91 
Q 1303 -91 875 529 
Q 447 1150 447 2328 
Q 447 3434 972 4092 
Q 1497 4750 2381 4750 
Q 2619 4750 2861 4703 
Q 3103 4656 3366 4563 
z
" transform="scale(0.015625)"/>
       </defs>
       <use xlink:href="#DejaVuSans-36"/>
       <use xlink:href="#DejaVuSans-30" x="63.623047"/>
      </g>
     </g>
    </g>
    <g id="xtick_5">
     <g id="line2d_5">
      <g>
       <use xlink:href="#m55d36c8e8e" x="416.945455" y="384.48" style="stroke: #000000; stroke-width: 0.8"/>
      </g>
     </g>
     <g id="text_5">
      <!-- 80 -->
      <g transform="translate(410.582955 399.078438)scale(0.1 -0.1)">
       <defs>
        <path id="DejaVuSans-38" d="M 2034 2216 
Q 1584 2216 1326 1975 
Q 1069 1734 1069 1313 
Q 1069 891 1326 650 
Q 1584 409 2034 409 
Q 2484 409 2743 651 
Q 3003 894 3003 1313 
Q 3003 1734 2745 1975 
Q 2488 2216 2034 2216 
z
M 1403 2484 
Q 997 2584 770 2862 
Q 544 3141 544 3541 
Q 544 4100 942 4425 
Q 1341 4750 2034 4750 
Q 2731 4750 3128 4425 
Q 3525 4100 3525 3541 
Q 3525 3141 3298 2862 
Q 3072 2584 2669 2484 
Q 3125 2378 3379 2068 
Q 3634 1759 3634 1313 
Q 3634 634 3220 271 
Q 2806 -91 2034 -91 
Q 1263 -91 848 271 
Q 434 634 434 1313 
Q 434 1759 690 2068 
Q 947 2378 1403 2484 
z
M 1172 3481 
Q 1172 3119 1398 2916 
Q 1625 2713 2034 2713 
Q 2441 2713 2670 2916 
Q 2900 3119 2900 3481 
Q 2900 3844 2670 4047 
Q 2441 4250 2034 4250 
Q 1625 4250 1398 4047 
Q 1172 3844 1172 3481 
z
" transform="scale(0.015625)"/>
       </defs>
       <use xlink:href="#DejaVuSans-38"/>
       <use xlink:href="#DejaVuSans-30" x="63.623047"/>
      </g>
     </g>
    </g>
    <g id="xtick_6">
     <g id="line2d_6">
      <g>
       <use xlink:href="#m55d36c8e8e" x="498.109091" y="384.48" style="stroke: #000000; stroke-width: 0.8"/>
      </g>
     </g>
     <g id="text_6">
      <!-- 100 -->
      <g transform="translate(488.565341 399.078438)scale(0.1 -0.1)">
       <defs>
        <path id="DejaVuSans-31" d="M 794 531 
L 1825 531 
L 1825 4091 
L 703 3866 
L 703 4441 
L 1819 4666 
L 2450 4666 
L 2450 531 
L 3481 531 
L 3481 0 
L 794 0 
L 794 531 
z
" transform="scale(0.015625)"/>
       </defs>
       <use xlink:href="#DejaVuSans-31"/>
       <use xlink:href="#DejaVuSans-30" x="63.623047"/>
       <use xlink:href="#DejaVuSans-30" x="127.246094"/>
      </g>
     </g>
    </g>
    <g id="text_7">
     <!-- Number of iterations -->
     <g transform="translate(243.389062 412.756563)scale(0.1 -0.1)">
      <defs>
       <path id="DejaVuSans-4e" d="M 628 4666 
L 1478 4666 
L 3547 763 
L 3547 4666 
L 4159 4666 
L 4159 0 
L 3309 0 
L 1241 3903 
L 1241 0 
L 628 0 
L 628 4666 
z
" transform="scale(0.015625)"/>
       <path id="DejaVuSans-75" d="M 544 1381 
L 544 3500 
L 1119 3500 
L 1119 1403 
Q 1119 906 1312 657 
Q 1506 409 1894 409 
Q 2359 409 2629 706 
Q 2900 1003 2900 1516 
L 2900 3500 
L 3475 3500 
L 3475 0 
L 2900 0 
L 2900 538 
Q 2691 219 2414 64 
Q 2138 -91 1772 -91 
Q 1169 -91 856 284 
Q 544 659 544 1381 
z
M 1991 3584 
L 1991 3584 
z
" transform="scale(0.015625)"/>
       <path id="DejaVuSans-6d" d="M 3328 2828 
Q 3544 3216 3844 3400 
Q 4144 3584 4550 3584 
Q 5097 3584 5394 3201 
Q 5691 2819 5691 2113 
L 5691 0 
L 5113 0 
L 5113 2094 
Q 5113 2597 4934 2840 
Q 4756 3084 4391 3084 
Q 3944 3084 3684 2787 
Q 3425 2491 3425 1978 
L 3425 0 
L 2847 0 
L 2847 2094 
Q 2847 2600 2669 2842 
Q 2491 3084 2119 3084 
Q 1678 3084 1418 2786 
Q 1159 2488 1159 1978 
L 1159 0 
L 581 0 
L 581 3500 
L 1159 3500 
L 1159 2956 
Q 1356 3278 1631 3431 
Q 1906 3584 2284 3584 
Q 2666 3584 2933 3390 
Q 3200 3197 3328 2828 
z
" transform="scale(0.015625)"/>
       <path id="DejaVuSans-62" d="M 3116 1747 
Q 3116 2381 2855 2742 
Q 2594 3103 2138 3103 
Q 1681 3103 1420 2742 
Q 1159 2381 1159 1747 
Q 1159 1113 1420 752 
Q 1681 391 2138 391 
Q 2594 391 2855 752 
Q 3116 1113 3116 1747 
z
M 1159 2969 
Q 1341 3281 1617 3432 
Q 1894 3584 2278 3584 
Q 2916 3584 3314 3078 
Q 3713 2572 3713 1747 
Q 3713 922 3314 415 
Q 2916 -91 2278 -91 
Q 1894 -91 1617 61 
Q 1341 213 1159 525 
L 1159 0 
L 581 0 
L 581 4863 
L 1159 4863 
L 1159 2969 
z
" transform="scale(0.015625)"/>
       <path id="DejaVuSans-65" d="M 3597 1894 
L 3597 1613 
L 953 1613 
Q 991 1019 1311 708 
Q 1631 397 2203 397 
Q 2534 397 2845 478 
Q 3156 559 3463 722 
L 3463 178 
Q 3153 47 2828 -22 
Q 2503 -91 2169 -91 
Q 1331 -91 842 396 
Q 353 884 353 1716 
Q 353 2575 817 3079 
Q 1281 3584 2069 3584 
Q 2775 3584 3186 3129 
Q 3597 2675 3597 1894 
z
M 3022 2063 
Q 3016 2534 2758 2815 
Q 2500 3097 2075 3097 
Q 1594 3097 1305 2825 
Q 1016 2553 972 2059 
L 3022 2063 
z
" transform="scale(0.015625)"/>
       <path id="DejaVuSans-72" d="M 2631 2963 
Q 2534 3019 2420 3045 
Q 2306 3072 2169 3072 
Q 1681 3072 1420 2755 
Q 1159 2438 1159 1844 
L 1159 0 
L 581 0 
L 581 3500 
L 1159 3500 
L 1159 2956 
Q 1341 3275 1631 3429 
Q 1922 3584 2338 3584 
Q 2397 3584 2469 3576 
Q 2541 3569 2628 3553 
L 2631 2963 
z
" transform="scale(0.015625)"/>
       <path id="DejaVuSans-20" transform="scale(0.015625)"/>
       <path id="DejaVuSans-6f" d="M 1959 3097 
Q 1497 3097 1228 2736 
Q 959 2375 959 1747 
Q 959 1119 1226 758 
Q 1494 397 1959 397 
Q 2419 397 2687 759 
Q 2956 1122 2956 1747 
Q 2956 2369 2687 2733 
Q 2419 3097 1959 3097 
z
M 1959 3584 
Q 2709 3584 3137 3096 
Q 3566 2609 3566 1747 
Q 3566 888 3137 398 
Q 2709 -91 1959 -91 
Q 1206 -91 779 398 
Q 353 888 353 1747 
Q 353 2609 779 3096 
Q 1206 3584 1959 3584 
z
" transform="scale(0.015625)"/>
       <path id="DejaVuSans-66" d="M 2375 4863 
L 2375 4384 
L 1825 4384 
Q 1516 4384 1395 4259 
Q 1275 4134 1275 3809 
L 1275 3500 
L 2222 3500 
L 2222 3053 
L 1275 3053 
L 1275 0 
L 697 0 
L 697 3053 
L 147 3053 
L 147 3500 
L 697 3500 
L 697 3744 
Q 697 4328 969 4595 
Q 1241 4863 1831 4863 
L 2375 4863 
z
" transform="scale(0.015625)"/>
       <path id="DejaVuSans-69" d="M 603 3500 
L 1178 3500 
L 1178 0 
L 603 0 
L 603 3500 
z
M 603 4863 
L 1178 4863 
L 1178 4134 
L 603 4134 
L 603 4863 
z
" transform="scale(0.015625)"/>
       <path id="DejaVuSans-74" d="M 1172 4494 
L 1172 3500 
L 2356 3500 
L 2356 3053 
L 1172 3053 
L 1172 1153 
Q 1172 725 1289 603 
Q 1406 481 1766 481 
L 2356 481 
L 2356 0 
L 1766 0 
Q 1100 0 847 248 
Q 594 497 594 1153 
L 594 3053 
L 172 3053 
L 172 3500 
L 594 3500 
L 594 4494 
L 1172 4494 
z
" transform="scale(0.015625)"/>
       <path id="DejaVuSans-61" d="M 2194 1759 
Q 1497 1759 1228 1600 
Q 959 1441 959 1056 
Q 959 750 1161 570 
Q 1363 391 1709 391 
Q 2188 391 2477 730 
Q 2766 1069 2766 1631 
L 2766 1759 
L 2194 1759 
z
M 3341 1997 
L 3341 0 
L 2766 0 
L 2766 531 
Q 2569 213 2275 61 
Q 1981 -91 1556 -91 
Q 1019 -91 701 211 
Q 384 513 384 1019 
Q 384 1609 779 1909 
Q 1175 2209 1959 2209 
L 2766 2209 
L 2766 2266 
Q 2766 2663 2505 2880 
Q 2244 3097 1772 3097 
Q 1472 3097 1187 3025 
Q 903 2953 641 2809 
L 641 3341 
Q 956 3463 1253 3523 
Q 1550 3584 1831 3584 
Q 2591 3584 2966 3190 
Q 3341 2797 3341 1997 
z
" transform="scale(0.015625)"/>
       <path id="DejaVuSans-6e" d="M 3513 2113 
L 3513 0 
L 2938 0 
L 2938 2094 
Q 2938 2591 2744 2837 
Q 2550 3084 2163 3084 
Q 1697 3084 1428 2787 
Q 1159 2491 1159 1978 
L 1159 0 
L 581 0 
L 581 3500 
L 1159 3500 
L 1159 2956 
Q 1366 3272 1645 3428 
Q 1925 3584 2291 3584 
Q 2894 3584 3203 3211 
Q 3513 2838 3513 2113 
z
" transform="scale(0.015625)"/>
       <path id="DejaVuSans-73" d="M 2834 3397 
L 2834 2853 
Q 2591 2978 2328 3040 
Q 2066 3103 1784 3103 
Q 1356 3103 1142 2972 
Q 928 2841 928 2578 
Q 928 2378 1081 2264 
Q 1234 2150 1697 2047 
L 1894 2003 
Q 2506 1872 2764 1633 
Q 3022 1394 3022 966 
Q 3022 478 2636 193 
Q 2250 -91 1575 -91 
Q 1294 -91 989 -36 
Q 684 19 347 128 
L 347 722 
Q 666 556 975 473 
Q 1284 391 1588 391 
Q 1994 391 2212 530 
Q 2431 669 2431 922 
Q 2431 1156 2273 1281 
Q 2116 1406 1581 1522 
L 1381 1569 
Q 847 1681 609 1914 
Q 372 2147 372 2553 
Q 372 3047 722 3315 
Q 1072 3584 1716 3584 
Q 2034 3584 2315 3537 
Q 2597 3491 2834 3397 
z
" transform="scale(0.015625)"/>
      </defs>
      <use xlink:href="#DejaVuSans-4e"/>
      <use xlink:href="#DejaVuSans-75" x="74.804688"/>
      <use xlink:href="#DejaVuSans-6d" x="138.183594"/>
      <use xlink:href="#DejaVuSans-62" x="235.595703"/>
      <use xlink:href="#DejaVuSans-65" x="299.072266"/>
      <use xlink:href="#DejaVuSans-72" x="360.595703"/>
      <use xlink:href="#DejaVuSans-20" x="401.708984"/>
      <use xlink:href="#DejaVuSans-6f" x="433.496094"/>
      <use xlink:href="#DejaVuSans-66" x="494.677734"/>
      <use xlink:href="#DejaVuSans-20" x="529.882812"/>
      <use xlink:href="#DejaVuSans-69" x="561.669922"/>
      <use xlink:href="#DejaVuSans-74" x="589.453125"/>
      <use xlink:href="#DejaVuSans-65" x="628.662109"/>
      <use xlink:href="#DejaVuSans-72" x="690.185547"/>
      <use xlink:href="#DejaVuSans-61" x="731.298828"/>
      <use xlink:href="#DejaVuSans-74" x="792.578125"/>
      <use xlink:href="#DejaVuSans-69" x="831.787109"/>
      <use xlink:href="#DejaVuSans-6f" x="859.570312"/>
      <use xlink:href="#DejaVuSans-6e" x="920.751953"/>
      <use xlink:href="#DejaVuSans-73" x="984.130859"/>
     </g>
    </g>
   </g>
   <g id="matplotlib.axis_2">
    <g id="ytick_1">
     <g id="line2d_7">
      <defs>
       <path id="me3655d37a7" d="M 0 0 
L -3.5 0 
" style="stroke: #000000; stroke-width: 0.8"/>
      </defs>
      <g>
       <use xlink:href="#me3655d37a7" x="72" y="354.47604" style="stroke: #000000; stroke-width: 0.8"/>
      </g>
     </g>
     <g id="text_8">
      <!-- $\mathdefault{10^{-11}}$ -->
      <g transform="translate(37.1 358.275259)scale(0.1 -0.1)">
       <defs>
        <path id="DejaVuSans-2212" d="M 678 2272 
L 4684 2272 
L 4684 1741 
L 678 1741 
L 678 2272 
z
" transform="scale(0.015625)"/>
       </defs>
       <use xlink:href="#DejaVuSans-31" transform="translate(0 0.684375)"/>
       <use xlink:href="#DejaVuSans-30" transform="translate(63.623047 0.684375)"/>
       <use xlink:href="#DejaVuSans-2212" transform="translate(128.203125 38.965625)scale(0.7)"/>
       <use xlink:href="#DejaVuSans-31" transform="translate(186.855469 38.965625)scale(0.7)"/>
       <use xlink:href="#DejaVuSans-31" transform="translate(231.391602 38.965625)scale(0.7)"/>
      </g>
     </g>
    </g>
    <g id="ytick_2">
     <g id="line2d_8">
      <g>
       <use xlink:href="#me3655d37a7" x="72" y="314.142533" style="stroke: #000000; stroke-width: 0.8"/>
      </g>
     </g>
     <g id="text_9">
      <!-- $\mathdefault{10^{-9}}$ -->
      <g transform="translate(41.5 317.941752)scale(0.1 -0.1)">
       <defs>
        <path id="DejaVuSans-39" d="M 703 97 
L 703 672 
Q 941 559 1184 500 
Q 1428 441 1663 441 
Q 2288 441 2617 861 
Q 2947 1281 2994 2138 
Q 2813 1869 2534 1725 
Q 2256 1581 1919 1581 
Q 1219 1581 811 2004 
Q 403 2428 403 3163 
Q 403 3881 828 4315 
Q 1253 4750 1959 4750 
Q 2769 4750 3195 4129 
Q 3622 3509 3622 2328 
Q 3622 1225 3098 567 
Q 2575 -91 1691 -91 
Q 1453 -91 1209 -44 
Q 966 3 703 97 
z
M 1959 2075 
Q 2384 2075 2632 2365 
Q 2881 2656 2881 3163 
Q 2881 3666 2632 3958 
Q 2384 4250 1959 4250 
Q 1534 4250 1286 3958 
Q 1038 3666 1038 3163 
Q 1038 2656 1286 2365 
Q 1534 2075 1959 2075 
z
" transform="scale(0.015625)"/>
       </defs>
       <use xlink:href="#DejaVuSans-31" transform="translate(0 0.765625)"/>
       <use xlink:href="#DejaVuSans-30" transform="translate(63.623047 0.765625)"/>
       <use xlink:href="#DejaVuSans-2212" transform="translate(128.203125 39.046875)scale(0.7)"/>
       <use xlink:href="#DejaVuSans-39" transform="translate(186.855469 39.046875)scale(0.7)"/>
      </g>
     </g>
    </g>
    <g id="ytick_3">
     <g id="line2d_9">
      <g>
       <use xlink:href="#me3655d37a7" x="72" y="273.809026" style="stroke: #000000; stroke-width: 0.8"/>
      </g>
     </g>
     <g id="text_10">
      <!-- $\mathdefault{10^{-7}}$ -->
      <g transform="translate(41.5 277.608245)scale(0.1 -0.1)">
       <defs>
        <path id="DejaVuSans-37" d="M 525 4666 
L 3525 4666 
L 3525 4397 
L 1831 0 
L 1172 0 
L 2766 4134 
L 525 4134 
L 525 4666 
z
" transform="scale(0.015625)"/>
       </defs>
       <use xlink:href="#DejaVuSans-31" transform="translate(0 0.684375)"/>
       <use xlink:href="#DejaVuSans-30" transform="translate(63.623047 0.684375)"/>
       <use xlink:href="#DejaVuSans-2212" transform="translate(128.203125 38.965625)scale(0.7)"/>
       <use xlink:href="#DejaVuSans-37" transform="translate(186.855469 38.965625)scale(0.7)"/>
      </g>
     </g>
    </g>
    <g id="ytick_4">
     <g id="line2d_10">
      <g>
       <use xlink:href="#me3655d37a7" x="72" y="233.475519" style="stroke: #000000; stroke-width: 0.8"/>
      </g>
     </g>
     <g id="text_11">
      <!-- $\mathdefault{10^{-5}}$ -->
      <g transform="translate(41.5 237.274738)scale(0.1 -0.1)">
       <defs>
        <path id="DejaVuSans-35" d="M 691 4666 
L 3169 4666 
L 3169 4134 
L 1269 4134 
L 1269 2991 
Q 1406 3038 1543 3061 
Q 1681 3084 1819 3084 
Q 2600 3084 3056 2656 
Q 3513 2228 3513 1497 
Q 3513 744 3044 326 
Q 2575 -91 1722 -91 
Q 1428 -91 1123 -41 
Q 819 9 494 109 
L 494 744 
Q 775 591 1075 516 
Q 1375 441 1709 441 
Q 2250 441 2565 725 
Q 2881 1009 2881 1497 
Q 2881 1984 2565 2268 
Q 2250 2553 1709 2553 
Q 1456 2553 1204 2497 
Q 953 2441 691 2322 
L 691 4666 
z
" transform="scale(0.015625)"/>
       </defs>
       <use xlink:href="#DejaVuSans-31" transform="translate(0 0.684375)"/>
       <use xlink:href="#DejaVuSans-30" transform="translate(63.623047 0.684375)"/>
       <use xlink:href="#DejaVuSans-2212" transform="translate(128.203125 38.965625)scale(0.7)"/>
       <use xlink:href="#DejaVuSans-35" transform="translate(186.855469 38.965625)scale(0.7)"/>
      </g>
     </g>
    </g>
    <g id="ytick_5">
     <g id="line2d_11">
      <g>
       <use xlink:href="#me3655d37a7" x="72" y="193.142012" style="stroke: #000000; stroke-width: 0.8"/>
      </g>
     </g>
     <g id="text_12">
      <!-- $\mathdefault{10^{-3}}$ -->
      <g transform="translate(41.5 196.941231)scale(0.1 -0.1)">
       <defs>
        <path id="DejaVuSans-33" d="M 2597 2516 
Q 3050 2419 3304 2112 
Q 3559 1806 3559 1356 
Q 3559 666 3084 287 
Q 2609 -91 1734 -91 
Q 1441 -91 1130 -33 
Q 819 25 488 141 
L 488 750 
Q 750 597 1062 519 
Q 1375 441 1716 441 
Q 2309 441 2620 675 
Q 2931 909 2931 1356 
Q 2931 1769 2642 2001 
Q 2353 2234 1838 2234 
L 1294 2234 
L 1294 2753 
L 1863 2753 
Q 2328 2753 2575 2939 
Q 2822 3125 2822 3475 
Q 2822 3834 2567 4026 
Q 2313 4219 1838 4219 
Q 1578 4219 1281 4162 
Q 984 4106 628 3988 
L 628 4550 
Q 988 4650 1302 4700 
Q 1616 4750 1894 4750 
Q 2613 4750 3031 4423 
Q 3450 4097 3450 3541 
Q 3450 3153 3228 2886 
Q 3006 2619 2597 2516 
z
" transform="scale(0.015625)"/>
       </defs>
       <use xlink:href="#DejaVuSans-31" transform="translate(0 0.765625)"/>
       <use xlink:href="#DejaVuSans-30" transform="translate(63.623047 0.765625)"/>
       <use xlink:href="#DejaVuSans-2212" transform="translate(128.203125 39.046875)scale(0.7)"/>
       <use xlink:href="#DejaVuSans-33" transform="translate(186.855469 39.046875)scale(0.7)"/>
      </g>
     </g>
    </g>
    <g id="ytick_6">
     <g id="line2d_12">
      <g>
       <use xlink:href="#me3655d37a7" x="72" y="152.808505" style="stroke: #000000; stroke-width: 0.8"/>
      </g>
     </g>
     <g id="text_13">
      <!-- $\mathdefault{10^{-1}}$ -->
      <g transform="translate(41.5 156.607724)scale(0.1 -0.1)">
       <use xlink:href="#DejaVuSans-31" transform="translate(0 0.684375)"/>
       <use xlink:href="#DejaVuSans-30" transform="translate(63.623047 0.684375)"/>
       <use xlink:href="#DejaVuSans-2212" transform="translate(128.203125 38.965625)scale(0.7)"/>
       <use xlink:href="#DejaVuSans-31" transform="translate(186.855469 38.965625)scale(0.7)"/>
      </g>
     </g>
    </g>
    <g id="ytick_7">
     <g id="line2d_13">
      <g>
       <use xlink:href="#me3655d37a7" x="72" y="112.474998" style="stroke: #000000; stroke-width: 0.8"/>
      </g>
     </g>
     <g id="text_14">
      <!-- $\mathdefault{10^{1}}$ -->
      <g transform="translate(47.4 116.274217)scale(0.1 -0.1)">
       <use xlink:href="#DejaVuSans-31" transform="translate(0 0.684375)"/>
       <use xlink:href="#DejaVuSans-30" transform="translate(63.623047 0.684375)"/>
       <use xlink:href="#DejaVuSans-31" transform="translate(128.203125 38.965625)scale(0.7)"/>
      </g>
     </g>
    </g>
    <g id="ytick_8">
     <g id="line2d_14">
      <g>
       <use xlink:href="#me3655d37a7" x="72" y="72.141491" style="stroke: #000000; stroke-width: 0.8"/>
      </g>
     </g>
     <g id="text_15">
      <!-- $\mathdefault{10^{3}}$ -->
      <g transform="translate(47.4 75.94071)scale(0.1 -0.1)">
       <use xlink:href="#DejaVuSans-31" transform="translate(0 0.765625)"/>
       <use xlink:href="#DejaVuSans-30" transform="translate(63.623047 0.765625)"/>
       <use xlink:href="#DejaVuSans-33" transform="translate(128.203125 39.046875)scale(0.7)"/>
      </g>
     </g>
    </g>
    <g id="text_16">
     <!-- Norm of the residuals -->
     <g transform="translate(31.020312 272.004531)rotate(-90)scale(0.1 -0.1)">
      <defs>
       <path id="DejaVuSans-68" d="M 3513 2113 
L 3513 0 
L 2938 0 
L 2938 2094 
Q 2938 2591 2744 2837 
Q 2550 3084 2163 3084 
Q 1697 3084 1428 2787 
Q 1159 2491 1159 1978 
L 1159 0 
L 581 0 
L 581 4863 
L 1159 4863 
L 1159 2956 
Q 1366 3272 1645 3428 
Q 1925 3584 2291 3584 
Q 2894 3584 3203 3211 
Q 3513 2838 3513 2113 
z
" transform="scale(0.015625)"/>
       <path id="DejaVuSans-64" d="M 2906 2969 
L 2906 4863 
L 3481 4863 
L 3481 0 
L 2906 0 
L 2906 525 
Q 2725 213 2448 61 
Q 2172 -91 1784 -91 
Q 1150 -91 751 415 
Q 353 922 353 1747 
Q 353 2572 751 3078 
Q 1150 3584 1784 3584 
Q 2172 3584 2448 3432 
Q 2725 3281 2906 2969 
z
M 947 1747 
Q 947 1113 1208 752 
Q 1469 391 1925 391 
Q 2381 391 2643 752 
Q 2906 1113 2906 1747 
Q 2906 2381 2643 2742 
Q 2381 3103 1925 3103 
Q 1469 3103 1208 2742 
Q 947 2381 947 1747 
z
" transform="scale(0.015625)"/>
       <path id="DejaVuSans-6c" d="M 603 4863 
L 1178 4863 
L 1178 0 
L 603 0 
L 603 4863 
z
" transform="scale(0.015625)"/>
      </defs>
      <use xlink:href="#DejaVuSans-4e"/>
      <use xlink:href="#DejaVuSans-6f" x="74.804688"/>
      <use xlink:href="#DejaVuSans-72" x="135.986328"/>
      <use xlink:href="#DejaVuSans-6d" x="175.349609"/>
      <use xlink:href="#DejaVuSans-20" x="272.761719"/>
      <use xlink:href="#DejaVuSans-6f" x="304.548828"/>
      <use xlink:href="#DejaVuSans-66" x="365.730469"/>
      <use xlink:href="#DejaVuSans-20" x="400.935547"/>
      <use xlink:href="#DejaVuSans-74" x="432.722656"/>
      <use xlink:href="#DejaVuSans-68" x="471.931641"/>
      <use xlink:href="#DejaVuSans-65" x="535.310547"/>
      <use xlink:href="#DejaVuSans-20" x="596.833984"/>
      <use xlink:href="#DejaVuSans-72" x="628.621094"/>
      <use xlink:href="#DejaVuSans-65" x="667.484375"/>
      <use xlink:href="#DejaVuSans-73" x="729.007812"/>
      <use xlink:href="#DejaVuSans-69" x="781.107422"/>
      <use xlink:href="#DejaVuSans-64" x="808.890625"/>
      <use xlink:href="#DejaVuSans-75" x="872.367188"/>
      <use xlink:href="#DejaVuSans-61" x="935.746094"/>
      <use xlink:href="#DejaVuSans-6c" x="997.025391"/>
      <use xlink:href="#DejaVuSans-73" x="1024.808594"/>
     </g>
    </g>
   </g>
   <g id="line2d_15">
    <path d="M 92.290909 66.96 
L 96.349091 76.805507 
L 100.407273 82.478431 
L 104.465455 86.621446 
L 108.523636 89.225327 
L 112.581818 91.685939 
L 116.64 94.281113 
L 120.698182 94.950162 
L 124.756364 96.660025 
L 128.814545 99.096617 
L 132.872727 101.407601 
L 136.930909 104.470117 
L 140.989091 107.000417 
L 145.047273 107.635014 
L 149.105455 110.379393 
L 153.163636 112.098116 
L 157.221818 115.038361 
L 161.28 115.96194 
L 165.338182 116.807851 
L 169.396364 118.291749 
L 173.454545 119.482427 
L 177.512727 121.817839 
L 181.570909 122.583933 
L 185.629091 124.455681 
L 189.687273 126.15219 
L 193.745455 128.254378 
L 197.803636 128.405618 
L 201.861818 130.048738 
L 205.92 130.822665 
L 209.978182 131.24669 
L 214.036364 132.180685 
L 218.094545 132.714782 
L 222.152727 136.224019 
L 226.210909 137.089878 
L 230.269091 140.521484 
L 234.327273 140.667573 
L 238.385455 142.728583 
L 242.443636 144.040377 
L 246.501818 145.361828 
L 250.56 147.512943 
L 254.618182 147.414808 
L 258.676364 149.771639 
L 262.734545 153.825966 
L 266.792727 156.230469 
L 270.850909 156.64865 
L 274.909091 157.440206 
L 278.967273 158.928731 
L 283.025455 161.846062 
L 287.083636 164.09197 
L 291.141818 165.105344 
L 295.2 164.52037 
L 299.258182 169.131288 
L 303.316364 171.780251 
L 307.374545 174.712684 
L 311.432727 173.309211 
L 315.490909 173.658759 
L 319.549091 172.333835 
L 323.607273 177.414254 
L 327.665455 178.450362 
L 331.723636 178.251612 
L 335.781818 178.448348 
L 339.84 184.95055 
L 343.898182 186.49157 
L 347.956364 187.891878 
L 352.014545 192.131289 
L 356.072727 189.721138 
L 360.130909 192.275165 
L 364.189091 193.874347 
L 368.247273 196.054919 
L 372.305455 195.554456 
L 376.363636 198.688171 
L 380.421818 198.541797 
L 384.48 204.050026 
L 388.538182 205.538285 
L 392.596364 208.259333 
L 396.654545 204.435478 
L 400.712727 213.080291 
L 404.770909 209.948637 
L 408.829091 215.989781 
L 412.887273 219.773206 
L 416.945455 217.135488 
L 421.003636 222.629772 
L 425.061818 223.015265 
L 429.12 224.321959 
L 433.178182 227.773342 
L 437.236364 227.628445 
L 441.294545 227.286227 
L 445.352727 228.310119 
L 449.410909 229.455754 
L 453.469091 229.615869 
L 457.527273 231.33792 
L 461.585455 233.537197 
L 465.643636 239.086746 
L 469.701818 243.133656 
L 473.76 241.593131 
L 477.818182 244.153253 
L 481.876364 242.750508 
L 485.934545 248.509344 
L 489.992727 246.989361 
L 494.050909 249.226914 
L 498.109091 247.79479 
" clip-path="url(#p9d9a0a5b81)" style="fill: none; stroke: #1f77b4; stroke-width: 1.5; stroke-linecap: square"/>
    <defs>
     <path id="maec5781fd8" d="M -0 3 
L 3 -3 
L -3 -3 
z
" style="stroke: #1f77b4; stroke-linejoin: miter"/>
    </defs>
    <g clip-path="url(#p9d9a0a5b81)">
     <use xlink:href="#maec5781fd8" x="92.290909" y="66.96" style="fill: #1f77b4; stroke: #1f77b4; stroke-linejoin: miter"/>
     <use xlink:href="#maec5781fd8" x="96.349091" y="76.805507" style="fill: #1f77b4; stroke: #1f77b4; stroke-linejoin: miter"/>
     <use xlink:href="#maec5781fd8" x="100.407273" y="82.478431" style="fill: #1f77b4; stroke: #1f77b4; stroke-linejoin: miter"/>
     <use xlink:href="#maec5781fd8" x="104.465455" y="86.621446" style="fill: #1f77b4; stroke: #1f77b4; stroke-linejoin: miter"/>
     <use xlink:href="#maec5781fd8" x="108.523636" y="89.225327" style="fill: #1f77b4; stroke: #1f77b4; stroke-linejoin: miter"/>
     <use xlink:href="#maec5781fd8" x="112.581818" y="91.685939" style="fill: #1f77b4; stroke: #1f77b4; stroke-linejoin: miter"/>
     <use xlink:href="#maec5781fd8" x="116.64" y="94.281113" style="fill: #1f77b4; stroke: #1f77b4; stroke-linejoin: miter"/>
     <use xlink:href="#maec5781fd8" x="120.698182" y="94.950162" style="fill: #1f77b4; stroke: #1f77b4; stroke-linejoin: miter"/>
     <use xlink:href="#maec5781fd8" x="124.756364" y="96.660025" style="fill: #1f77b4; stroke: #1f77b4; stroke-linejoin: miter"/>
     <use xlink:href="#maec5781fd8" x="128.814545" y="99.096617" style="fill: #1f77b4; stroke: #1f77b4; stroke-linejoin: miter"/>
     <use xlink:href="#maec5781fd8" x="132.872727" y="101.407601" style="fill: #1f77b4; stroke: #1f77b4; stroke-linejoin: miter"/>
     <use xlink:href="#maec5781fd8" x="136.930909" y="104.470117" style="fill: #1f77b4; stroke: #1f77b4; stroke-linejoin: miter"/>
     <use xlink:href="#maec5781fd8" x="140.989091" y="107.000417" style="fill: #1f77b4; stroke: #1f77b4; stroke-linejoin: miter"/>
     <use xlink:href="#maec5781fd8" x="145.047273" y="107.635014" style="fill: #1f77b4; stroke: #1f77b4; stroke-linejoin: miter"/>
     <use xlink:href="#maec5781fd8" x="149.105455" y="110.379393" style="fill: #1f77b4; stroke: #1f77b4; stroke-linejoin: miter"/>
     <use xlink:href="#maec5781fd8" x="153.163636" y="112.098116" style="fill: #1f77b4; stroke: #1f77b4; stroke-linejoin: miter"/>
     <use xlink:href="#maec5781fd8" x="157.221818" y="115.038361" style="fill: #1f77b4; stroke: #1f77b4; stroke-linejoin: miter"/>
     <use xlink:href="#maec5781fd8" x="161.28" y="115.96194" style="fill: #1f77b4; stroke: #1f77b4; stroke-linejoin: miter"/>
     <use xlink:href="#maec5781fd8" x="165.338182" y="116.807851" style="fill: #1f77b4; stroke: #1f77b4; stroke-linejoin: miter"/>
     <use xlink:href="#maec5781fd8" x="169.396364" y="118.291749" style="fill: #1f77b4; stroke: #1f77b4; stroke-linejoin: miter"/>
     <use xlink:href="#maec5781fd8" x="173.454545" y="119.482427" style="fill: #1f77b4; stroke: #1f77b4; stroke-linejoin: miter"/>
     <use xlink:href="#maec5781fd8" x="177.512727" y="121.817839" style="fill: #1f77b4; stroke: #1f77b4; stroke-linejoin: miter"/>
     <use xlink:href="#maec5781fd8" x="181.570909" y="122.583933" style="fill: #1f77b4; stroke: #1f77b4; stroke-linejoin: miter"/>
     <use xlink:href="#maec5781fd8" x="185.629091" y="124.455681" style="fill: #1f77b4; stroke: #1f77b4; stroke-linejoin: miter"/>
     <use xlink:href="#maec5781fd8" x="189.687273" y="126.15219" style="fill: #1f77b4; stroke: #1f77b4; stroke-linejoin: miter"/>
     <use xlink:href="#maec5781fd8" x="193.745455" y="128.254378" style="fill: #1f77b4; stroke: #1f77b4; stroke-linejoin: miter"/>
     <use xlink:href="#maec5781fd8" x="197.803636" y="128.405618" style="fill: #1f77b4; stroke: #1f77b4; stroke-linejoin: miter"/>
     <use xlink:href="#maec5781fd8" x="201.861818" y="130.048738" style="fill: #1f77b4; stroke: #1f77b4; stroke-linejoin: miter"/>
     <use xlink:href="#maec5781fd8" x="205.92" y="130.822665" style="fill: #1f77b4; stroke: #1f77b4; stroke-linejoin: miter"/>
     <use xlink:href="#maec5781fd8" x="209.978182" y="131.24669" style="fill: #1f77b4; stroke: #1f77b4; stroke-linejoin: miter"/>
     <use xlink:href="#maec5781fd8" x="214.036364" y="132.180685" style="fill: #1f77b4; stroke: #1f77b4; stroke-linejoin: miter"/>
     <use xlink:href="#maec5781fd8" x="218.094545" y="132.714782" style="fill: #1f77b4; stroke: #1f77b4; stroke-linejoin: miter"/>
     <use xlink:href="#maec5781fd8" x="222.152727" y="136.224019" style="fill: #1f77b4; stroke: #1f77b4; stroke-linejoin: miter"/>
     <use xlink:href="#maec5781fd8" x="226.210909" y="137.089878" style="fill: #1f77b4; stroke: #1f77b4; stroke-linejoin: miter"/>
     <use xlink:href="#maec5781fd8" x="230.269091" y="140.521484" style="fill: #1f77b4; stroke: #1f77b4; stroke-linejoin: miter"/>
     <use xlink:href="#maec5781fd8" x="234.327273" y="140.667573" style="fill: #1f77b4; stroke: #1f77b4; stroke-linejoin: miter"/>
     <use xlink:href="#maec5781fd8" x="238.385455" y="142.728583" style="fill: #1f77b4; stroke: #1f77b4; stroke-linejoin: miter"/>
     <use xlink:href="#maec5781fd8" x="242.443636" y="144.040377" style="fill: #1f77b4; stroke: #1f77b4; stroke-linejoin: miter"/>
     <use xlink:href="#maec5781fd8" x="246.501818" y="145.361828" style="fill: #1f77b4; stroke: #1f77b4; stroke-linejoin: miter"/>
     <use xlink:href="#maec5781fd8" x="250.56" y="147.512943" style="fill: #1f77b4; stroke: #1f77b4; stroke-linejoin: miter"/>
     <use xlink:href="#maec5781fd8" x="254.618182" y="147.414808" style="fill: #1f77b4; stroke: #1f77b4; stroke-linejoin: miter"/>
     <use xlink:href="#maec5781fd8" x="258.676364" y="149.771639" style="fill: #1f77b4; stroke: #1f77b4; stroke-linejoin: miter"/>
     <use xlink:href="#maec5781fd8" x="262.734545" y="153.825966" style="fill: #1f77b4; stroke: #1f77b4; stroke-linejoin: miter"/>
     <use xlink:href="#maec5781fd8" x="266.792727" y="156.230469" style="fill: #1f77b4; stroke: #1f77b4; stroke-linejoin: miter"/>
     <use xlink:href="#maec5781fd8" x="270.850909" y="156.64865" style="fill: #1f77b4; stroke: #1f77b4; stroke-linejoin: miter"/>
     <use xlink:href="#maec5781fd8" x="274.909091" y="157.440206" style="fill: #1f77b4; stroke: #1f77b4; stroke-linejoin: miter"/>
     <use xlink:href="#maec5781fd8" x="278.967273" y="158.928731" style="fill: #1f77b4; stroke: #1f77b4; stroke-linejoin: miter"/>
     <use xlink:href="#maec5781fd8" x="283.025455" y="161.846062" style="fill: #1f77b4; stroke: #1f77b4; stroke-linejoin: miter"/>
     <use xlink:href="#maec5781fd8" x="287.083636" y="164.09197" style="fill: #1f77b4; stroke: #1f77b4; stroke-linejoin: miter"/>
     <use xlink:href="#maec5781fd8" x="291.141818" y="165.105344" style="fill: #1f77b4; stroke: #1f77b4; stroke-linejoin: miter"/>
     <use xlink:href="#maec5781fd8" x="295.2" y="164.52037" style="fill: #1f77b4; stroke: #1f77b4; stroke-linejoin: miter"/>
     <use xlink:href="#maec5781fd8" x="299.258182" y="169.131288" style="fill: #1f77b4; stroke: #1f77b4; stroke-linejoin: miter"/>
     <use xlink:href="#maec5781fd8" x="303.316364" y="171.780251" style="fill: #1f77b4; stroke: #1f77b4; stroke-linejoin: miter"/>
     <use xlink:href="#maec5781fd8" x="307.374545" y="174.712684" style="fill: #1f77b4; stroke: #1f77b4; stroke-linejoin: miter"/>
     <use xlink:href="#maec5781fd8" x="311.432727" y="173.309211" style="fill: #1f77b4; stroke: #1f77b4; stroke-linejoin: miter"/>
     <use xlink:href="#maec5781fd8" x="315.490909" y="173.658759" style="fill: #1f77b4; stroke: #1f77b4; stroke-linejoin: miter"/>
     <use xlink:href="#maec5781fd8" x="319.549091" y="172.333835" style="fill: #1f77b4; stroke: #1f77b4; stroke-linejoin: miter"/>
     <use xlink:href="#maec5781fd8" x="323.607273" y="177.414254" style="fill: #1f77b4; stroke: #1f77b4; stroke-linejoin: miter"/>
     <use xlink:href="#maec5781fd8" x="327.665455" y="178.450362" style="fill: #1f77b4; stroke: #1f77b4; stroke-linejoin: miter"/>
     <use xlink:href="#maec5781fd8" x="331.723636" y="178.251612" style="fill: #1f77b4; stroke: #1f77b4; stroke-linejoin: miter"/>
     <use xlink:href="#maec5781fd8" x="335.781818" y="178.448348" style="fill: #1f77b4; stroke: #1f77b4; stroke-linejoin: miter"/>
     <use xlink:href="#maec5781fd8" x="339.84" y="184.95055" style="fill: #1f77b4; stroke: #1f77b4; stroke-linejoin: miter"/>
     <use xlink:href="#maec5781fd8" x="343.898182" y="186.49157" style="fill: #1f77b4; stroke: #1f77b4; stroke-linejoin: miter"/>
     <use xlink:href="#maec5781fd8" x="347.956364" y="187.891878" style="fill: #1f77b4; stroke: #1f77b4; stroke-linejoin: miter"/>
     <use xlink:href="#maec5781fd8" x="352.014545" y="192.131289" style="fill: #1f77b4; stroke: #1f77b4; stroke-linejoin: miter"/>
     <use xlink:href="#maec5781fd8" x="356.072727" y="189.721138" style="fill: #1f77b4; stroke: #1f77b4; stroke-linejoin: miter"/>
     <use xlink:href="#maec5781fd8" x="360.130909" y="192.275165" style="fill: #1f77b4; stroke: #1f77b4; stroke-linejoin: miter"/>
     <use xlink:href="#maec5781fd8" x="364.189091" y="193.874347" style="fill: #1f77b4; stroke: #1f77b4; stroke-linejoin: miter"/>
     <use xlink:href="#maec5781fd8" x="368.247273" y="196.054919" style="fill: #1f77b4; stroke: #1f77b4; stroke-linejoin: miter"/>
     <use xlink:href="#maec5781fd8" x="372.305455" y="195.554456" style="fill: #1f77b4; stroke: #1f77b4; stroke-linejoin: miter"/>
     <use xlink:href="#maec5781fd8" x="376.363636" y="198.688171" style="fill: #1f77b4; stroke: #1f77b4; stroke-linejoin: miter"/>
     <use xlink:href="#maec5781fd8" x="380.421818" y="198.541797" style="fill: #1f77b4; stroke: #1f77b4; stroke-linejoin: miter"/>
     <use xlink:href="#maec5781fd8" x="384.48" y="204.050026" style="fill: #1f77b4; stroke: #1f77b4; stroke-linejoin: miter"/>
     <use xlink:href="#maec5781fd8" x="388.538182" y="205.538285" style="fill: #1f77b4; stroke: #1f77b4; stroke-linejoin: miter"/>
     <use xlink:href="#maec5781fd8" x="392.596364" y="208.259333" style="fill: #1f77b4; stroke: #1f77b4; stroke-linejoin: miter"/>
     <use xlink:href="#maec5781fd8" x="396.654545" y="204.435478" style="fill: #1f77b4; stroke: #1f77b4; stroke-linejoin: miter"/>
     <use xlink:href="#maec5781fd8" x="400.712727" y="213.080291" style="fill: #1f77b4; stroke: #1f77b4; stroke-linejoin: miter"/>
     <use xlink:href="#maec5781fd8" x="404.770909" y="209.948637" style="fill: #1f77b4; stroke: #1f77b4; stroke-linejoin: miter"/>
     <use xlink:href="#maec5781fd8" x="408.829091" y="215.989781" style="fill: #1f77b4; stroke: #1f77b4; stroke-linejoin: miter"/>
     <use xlink:href="#maec5781fd8" x="412.887273" y="219.773206" style="fill: #1f77b4; stroke: #1f77b4; stroke-linejoin: miter"/>
     <use xlink:href="#maec5781fd8" x="416.945455" y="217.135488" style="fill: #1f77b4; stroke: #1f77b4; stroke-linejoin: miter"/>
     <use xlink:href="#maec5781fd8" x="421.003636" y="222.629772" style="fill: #1f77b4; stroke: #1f77b4; stroke-linejoin: miter"/>
     <use xlink:href="#maec5781fd8" x="425.061818" y="223.015265" style="fill: #1f77b4; stroke: #1f77b4; stroke-linejoin: miter"/>
     <use xlink:href="#maec5781fd8" x="429.12" y="224.321959" style="fill: #1f77b4; stroke: #1f77b4; stroke-linejoin: miter"/>
     <use xlink:href="#maec5781fd8" x="433.178182" y="227.773342" style="fill: #1f77b4; stroke: #1f77b4; stroke-linejoin: miter"/>
     <use xlink:href="#maec5781fd8" x="437.236364" y="227.628445" style="fill: #1f77b4; stroke: #1f77b4; stroke-linejoin: miter"/>
     <use xlink:href="#maec5781fd8" x="441.294545" y="227.286227" style="fill: #1f77b4; stroke: #1f77b4; stroke-linejoin: miter"/>
     <use xlink:href="#maec5781fd8" x="445.352727" y="228.310119" style="fill: #1f77b4; stroke: #1f77b4; stroke-linejoin: miter"/>
     <use xlink:href="#maec5781fd8" x="449.410909" y="229.455754" style="fill: #1f77b4; stroke: #1f77b4; stroke-linejoin: miter"/>
     <use xlink:href="#maec5781fd8" x="453.469091" y="229.615869" style="fill: #1f77b4; stroke: #1f77b4; stroke-linejoin: miter"/>
     <use xlink:href="#maec5781fd8" x="457.527273" y="231.33792" style="fill: #1f77b4; stroke: #1f77b4; stroke-linejoin: miter"/>
     <use xlink:href="#maec5781fd8" x="461.585455" y="233.537197" style="fill: #1f77b4; stroke: #1f77b4; stroke-linejoin: miter"/>
     <use xlink:href="#maec5781fd8" x="465.643636" y="239.086746" style="fill: #1f77b4; stroke: #1f77b4; stroke-linejoin: miter"/>
     <use xlink:href="#maec5781fd8" x="469.701818" y="243.133656" style="fill: #1f77b4; stroke: #1f77b4; stroke-linejoin: miter"/>
     <use xlink:href="#maec5781fd8" x="473.76" y="241.593131" style="fill: #1f77b4; stroke: #1f77b4; stroke-linejoin: miter"/>
     <use xlink:href="#maec5781fd8" x="477.818182" y="244.153253" style="fill: #1f77b4; stroke: #1f77b4; stroke-linejoin: miter"/>
     <use xlink:href="#maec5781fd8" x="481.876364" y="242.750508" style="fill: #1f77b4; stroke: #1f77b4; stroke-linejoin: miter"/>
     <use xlink:href="#maec5781fd8" x="485.934545" y="248.509344" style="fill: #1f77b4; stroke: #1f77b4; stroke-linejoin: miter"/>
     <use xlink:href="#maec5781fd8" x="489.992727" y="246.989361" style="fill: #1f77b4; stroke: #1f77b4; stroke-linejoin: miter"/>
     <use xlink:href="#maec5781fd8" x="494.050909" y="249.226914" style="fill: #1f77b4; stroke: #1f77b4; stroke-linejoin: miter"/>
     <use xlink:href="#maec5781fd8" x="498.109091" y="247.79479" style="fill: #1f77b4; stroke: #1f77b4; stroke-linejoin: miter"/>
    </g>
   </g>
   <g id="line2d_16">
    <path d="M 92.290909 66.96 
L 96.349091 77.245052 
L 100.407273 83.636397 
L 104.465455 88.413888 
L 108.523636 91.873774 
L 112.581818 94.816263 
L 116.64 97.592256 
L 120.698182 99.502915 
L 124.756364 101.343624 
L 128.814545 103.398087 
L 132.872727 105.550376 
L 136.930909 108.078871 
L 140.989091 110.608158 
L 145.047273 112.404603 
L 149.105455 114.543442 
L 153.163636 116.524689 
L 157.221818 118.879683 
L 161.28 120.694849 
L 165.338182 122.204562 
L 169.396364 123.706763 
L 173.454545 125.120763 
L 177.512727 126.808986 
L 181.570909 128.222788 
L 185.629091 129.767802 
L 189.687273 131.358404 
L 193.745455 133.111242 
L 197.803636 134.397627 
L 201.861818 135.777609 
L 205.92 137.001867 
L 209.978182 138.044017 
L 214.036364 139.063484 
L 218.094545 139.986477 
L 222.152727 141.532873 
L 226.210909 142.887617 
L 230.269091 144.89785 
L 234.327273 146.310211 
L 238.385455 147.911191 
L 242.443636 149.42563 
L 246.501818 150.88452 
L 250.56 152.550898 
L 254.618182 153.731665 
L 258.676364 155.220261 
L 262.734545 157.614897 
L 266.792727 160.040632 
L 270.850909 161.918523 
L 274.909091 163.919629 
L 278.967273 165.793947 
L 283.025455 167.847828 
L 287.083636 169.853984 
L 291.141818 171.828284 
L 295.2 174.380691 
L 299.258182 176.685424 
L 303.316364 178.409694 
L 307.374545 180.060417 
L 311.432727 181.153148 
L 315.490909 182.655391 
L 319.549091 184.350055 
L 323.607273 185.612867 
L 327.665455 187.952364 
L 331.723636 190.808911 
L 335.781818 192.571485 
L 339.84 195.097018 
L 343.898182 197.200702 
L 347.956364 198.911528 
L 352.014545 201.323363 
L 356.072727 203.785527 
L 360.130909 207.169019 
L 364.189091 209.948711 
L 368.247273 211.740808 
L 372.305455 214.697487 
L 376.363636 217.411498 
L 380.421818 220.496147 
L 384.48 223.79718 
L 388.538182 226.335684 
L 392.596364 229.374534 
L 396.654545 232.093994 
L 400.712727 234.381948 
L 404.770909 235.952587 
L 408.829091 237.645324 
L 412.887273 240.689583 
L 416.945455 245.319475 
L 421.003636 248.686214 
L 425.061818 252.516572 
L 429.12 254.115818 
L 433.178182 257.553185 
L 437.236364 262.790344 
L 441.294545 266.507861 
L 445.352727 269.739137 
L 449.410909 272.684795 
L 453.469091 275.301457 
L 457.527273 281.078174 
L 461.585455 285.529599 
L 465.643636 289.050294 
L 469.701818 294.38462 
L 473.76 300.877779 
L 477.818182 303.999168 
L 481.876364 309.189582 
L 485.934545 319.369907 
L 489.992727 329.845512 
L 494.050909 356.332158 
L 498.109091 359.056021 
" clip-path="url(#p9d9a0a5b81)" style="fill: none; stroke: #ff7f0e; stroke-width: 1.5; stroke-linecap: square"/>
   </g>
   <g id="line2d_17">
    <path d="M 92.290909 66.96 
L 96.349091 73.871591 
L 100.407273 77.474052 
L 104.465455 80.023094 
L 108.523636 81.966079 
L 112.581818 83.704886 
L 116.64 85.253924 
L 120.698182 86.222366 
L 124.756364 87.192651 
L 128.814545 88.057458 
L 132.872727 88.805084 
L 136.930909 89.754096 
L 140.989091 90.808833 
L 145.047273 91.657717 
L 149.105455 92.4737 
L 153.163636 93.221448 
L 157.221818 93.889418 
L 161.28 94.440351 
L 165.338182 94.937127 
L 169.396364 95.24165 
L 173.454545 95.489484 
L 177.512727 95.839976 
L 181.570909 96.18822 
L 185.629091 96.507824 
L 189.687273 97.00005 
L 193.745455 97.36278 
L 197.803636 97.691982 
L 201.861818 98.086395 
L 205.92 98.610248 
L 209.978182 98.824256 
L 214.036364 99.184516 
L 218.094545 99.56489 
L 222.152727 99.954339 
L 226.210909 100.260063 
L 230.269091 100.908793 
L 234.327273 101.525482 
L 238.385455 101.981872 
L 242.443636 102.683876 
L 246.501818 103.27604 
L 250.56 103.719093 
L 254.618182 104.363189 
L 258.676364 105.273241 
L 262.734545 105.746738 
L 266.792727 106.477747 
L 270.850909 107.148536 
L 274.909091 107.993797 
L 278.967273 108.722391 
L 283.025455 109.098623 
L 287.083636 109.796986 
L 291.141818 110.700764 
L 295.2 111.430612 
L 299.258182 112.674226 
L 303.316364 113.336788 
L 307.374545 113.855792 
L 311.432727 114.351365 
L 315.490909 114.659834 
L 319.549091 115.106255 
L 323.607273 115.680782 
L 327.665455 116.272089 
L 331.723636 116.532788 
L 335.781818 117.419957 
L 339.84 118.123206 
L 343.898182 118.637918 
L 347.956364 119.292736 
L 352.014545 120.37209 
L 356.072727 121.623904 
L 360.130909 122.515613 
L 364.189091 123.342454 
L 368.247273 123.693154 
L 372.305455 124.140487 
L 376.363636 124.669083 
L 380.421818 125.103705 
L 384.48 125.787957 
L 388.538182 126.603653 
L 392.596364 127.399338 
L 396.654545 127.925377 
L 400.712727 128.655196 
L 404.770909 129.384775 
L 408.829091 130.244865 
L 412.887273 131.189482 
L 416.945455 132.783345 
L 421.003636 133.103446 
L 425.061818 133.668716 
L 429.12 134.535256 
L 433.178182 135.585005 
L 437.236364 137.422163 
L 441.294545 140.971093 
L 445.352727 144.143171 
L 449.410909 149.289618 
L 453.469091 152.508559 
L 457.527273 157.059152 
L 461.585455 161.155202 
L 465.643636 166.901877 
L 469.701818 174.655283 
L 473.76 182.374324 
L 477.818182 190.949967 
L 481.876364 199.070734 
L 485.934545 214.335437 
L 489.992727 229.773728 
L 494.050909 260.901022 
L 498.109091 366.083758 
" clip-path="url(#p9d9a0a5b81)" style="fill: none; stroke: #2ca02c; stroke-width: 1.5; stroke-linecap: square"/>
   </g>
   <g id="line2d_18">
    <path d="M 92.290909 66.96 
L 96.349091 76.805507 
L 100.407273 82.478431 
L 104.465455 86.621446 
L 108.523636 89.225327 
L 112.581818 91.685939 
L 116.64 94.281113 
L 120.698182 94.950162 
L 124.756364 96.660025 
L 128.814545 99.096617 
L 132.872727 101.407601 
L 136.930909 104.470117 
L 140.989091 107.000417 
L 145.047273 107.635014 
L 149.105455 110.379393 
L 153.163636 112.098116 
L 157.221818 115.038361 
L 161.28 115.96194 
L 165.338182 116.807851 
L 169.396364 118.291749 
L 173.454545 119.482427 
L 177.512727 121.817839 
L 181.570909 122.583933 
L 185.629091 124.455681 
L 189.687273 126.15219 
L 193.745455 128.254378 
L 197.803636 128.405618 
L 201.861818 130.048738 
L 205.92 130.822665 
L 209.978182 131.24669 
L 214.036364 132.180685 
L 218.094545 132.714782 
L 222.152727 136.224019 
L 226.210909 137.089878 
L 230.269091 140.521484 
L 234.327273 140.667573 
L 238.385455 142.728583 
L 242.443636 144.040377 
L 246.501818 145.361828 
L 250.56 147.512944 
L 254.618182 147.414819 
L 258.676364 149.771819 
L 262.734545 153.828639 
L 266.792727 156.296751 
L 270.850909 157.30522 
L 274.909091 159.527552 
L 278.967273 161.173964 
L 283.025455 163.545384 
L 287.083636 165.470612 
L 291.141818 167.38954 
L 295.2 170.802349 
L 299.258182 172.772543 
L 303.316364 173.494209 
L 307.374545 174.988464 
L 311.432727 174.539101 
L 315.490909 177.240479 
L 319.549091 179.372569 
L 323.607273 179.551081 
L 327.665455 184.08919 
L 331.723636 187.587043 
L 335.781818 187.734334 
L 339.84 191.484469 
L 343.898182 192.98024 
L 347.956364 193.968051 
L 352.014545 197.560629 
L 356.072727 200.09039 
L 360.130909 204.456069 
L 364.189091 206.641744 
L 368.247273 206.962633 
L 372.305455 211.581928 
L 376.363636 214.029244 
L 380.421818 217.50945 
L 384.48 221.012219 
L 388.538182 222.739705 
L 392.596364 226.342583 
L 396.654545 228.718078 
L 400.712727 230.444729 
L 404.770909 230.700445 
L 408.829091 232.66376 
L 412.887273 237.663026 
L 416.945455 243.450442 
L 421.003636 245.958838 
L 425.061818 250.153755 
L 429.12 248.929276 
L 433.178182 254.885939 
L 437.236364 261.213227 
L 441.294545 264.062514 
L 445.352727 266.891229 
L 449.410909 269.557783 
L 453.469091 271.803002 
L 457.527273 279.71578 
L 461.585455 283.562521 
L 465.643636 286.451825 
L 469.701818 292.849465 
L 473.76 299.750854 
L 477.818182 301.047944 
L 481.876364 307.592206 
L 485.934545 318.91973 
L 489.992727 329.422291 
L 494.050909 359.203745 
L 498.109091 367.98953 
" clip-path="url(#p9d9a0a5b81)" style="fill: none; stroke-dasharray: 5.55,2.4; stroke-dashoffset: 0; stroke: #d62728; stroke-width: 1.5"/>
   </g>
   <g id="line2d_19">
    <path d="M 92.290909 66.96 
L 96.349091 73.755861 
L 100.407273 77.11112 
L 104.465455 79.440788 
L 108.523636 81.282032 
L 112.581818 82.979382 
L 116.64 84.562588 
L 120.698182 85.039046 
L 124.756364 86.032334 
L 128.814545 86.597864 
L 132.872727 87.283633 
L 136.930909 88.391287 
L 140.989091 89.830618 
L 145.047273 90.467372 
L 149.105455 91.353622 
L 153.163636 92.23114 
L 157.221818 92.904678 
L 161.28 93.349606 
L 165.338182 93.901467 
L 169.396364 93.74275 
L 173.454545 93.564825 
L 177.512727 93.854862 
L 181.570909 94.217192 
L 185.629091 94.238245 
L 189.687273 95.051948 
L 193.745455 95.259938 
L 197.803636 95.671489 
L 201.861818 95.975828 
L 205.92 96.874931 
L 209.978182 96.450082 
L 214.036364 96.551132 
L 218.094545 97.135061 
L 222.152727 97.483551 
L 226.210909 97.321016 
L 230.269091 98.690954 
L 234.327273 99.548572 
L 238.385455 99.617664 
L 242.443636 100.592178 
L 246.501818 101.234987 
L 250.56 101.558128 
L 254.618182 102.44129 
L 258.676364 103.669664 
L 262.734545 103.921284 
L 266.792727 104.860973 
L 270.850909 105.058447 
L 274.909091 106.622561 
L 278.967273 107.341674 
L 283.025455 107.143419 
L 287.083636 108.173766 
L 291.141818 108.966039 
L 295.2 109.865733 
L 299.258182 111.715984 
L 303.316364 112.336365 
L 307.374545 112.548771 
L 311.432727 112.750924 
L 315.490909 112.77591 
L 319.549091 112.878013 
L 323.607273 114.027113 
L 327.665455 114.74354 
L 331.723636 113.704261 
L 335.781818 115.207144 
L 339.84 116.258615 
L 343.898182 116.607542 
L 347.956364 117.233407 
L 352.014545 118.639 
L 356.072727 120.549944 
L 360.130909 121.567228 
L 364.189091 122.38227 
L 368.247273 122.273316 
L 372.305455 122.689789 
L 376.363636 123.033646 
L 380.421818 122.811421 
L 384.48 124.015474 
L 388.538182 125.037218 
L 392.596364 125.847727 
L 396.654545 126.44423 
L 400.712727 127.125993 
L 404.770909 128.079168 
L 408.829091 128.58196 
L 412.887273 129.232235 
L 416.945455 131.840743 
L 421.003636 131.503036 
L 425.061818 131.414239 
L 429.12 132.431496 
L 433.178182 133.400075 
L 437.236364 135.903607 
L 441.294545 140.112359 
L 445.352727 143.508363 
L 449.410909 148.90157 
L 453.469091 152.16586 
L 457.527273 156.420726 
L 461.585455 160.870695 
L 465.643636 166.505075 
L 469.701818 174.375914 
L 473.76 182.222885 
L 477.818182 190.811064 
L 481.876364 198.888912 
L 485.934545 214.305405 
L 489.992727 229.74464 
L 494.050909 260.90005 
L 498.109091 369.36 
" clip-path="url(#p9d9a0a5b81)" style="fill: none; stroke-dasharray: 5.55,2.4; stroke-dashoffset: 0; stroke: #9467bd; stroke-width: 1.5"/>
   </g>
   <g id="line2d_20">
    <path d="M 92.290909 66.96 
L 96.349091 76.805507 
L 100.407273 82.478431 
L 104.465455 86.621446 
L 108.523636 89.225327 
L 112.581818 91.685939 
L 116.64 94.281113 
L 120.698182 94.950162 
L 124.756364 96.660025 
L 128.814545 99.096617 
L 132.872727 101.407601 
L 136.930909 104.470117 
L 140.989091 107.000417 
L 145.047273 107.635014 
L 149.105455 110.379393 
L 153.163636 112.098116 
L 157.221818 115.038361 
L 161.28 115.96194 
L 165.338182 116.807851 
L 169.396364 118.291749 
L 173.454545 119.482427 
L 177.512727 121.817839 
L 181.570909 122.583933 
L 185.629091 124.455681 
L 189.687273 126.15219 
L 193.745455 128.254378 
L 197.803636 128.405618 
L 201.861818 130.048738 
L 205.92 130.822665 
L 209.978182 131.24669 
L 214.036364 132.180685 
L 218.094545 132.714782 
L 222.152727 136.224019 
L 226.210909 137.089878 
L 230.269091 140.521484 
L 234.327273 140.667573 
L 238.385455 142.728583 
L 242.443636 144.040377 
L 246.501818 145.361828 
L 250.56 147.512944 
L 254.618182 147.414819 
L 258.676364 149.771812 
L 262.734545 153.828544 
L 266.792727 156.294524 
L 270.850909 157.279382 
L 274.909091 159.275141 
L 278.967273 158.159262 
L 283.025455 161.15935 
L 287.083636 163.845551 
L 291.141818 163.373707 
L 295.2 165.599488 
L 299.258182 169.316696 
L 303.316364 171.789746 
L 307.374545 174.712674 
L 311.432727 173.306664 
L 315.490909 173.664478 
L 319.549091 172.354512 
L 323.607273 177.400322 
L 327.665455 178.186712 
L 331.723636 176.982065 
L 335.781818 178.142394 
L 339.84 185.287353 
L 343.898182 186.50102 
L 347.956364 187.894288 
L 352.014545 192.24506 
L 356.072727 190.276611 
L 360.130909 191.872399 
L 364.189091 193.873356 
L 368.247273 197.218849 
L 372.305455 199.67754 
L 376.363636 199.623743 
L 380.421818 202.637154 
L 384.48 205.394836 
L 388.538182 208.418376 
L 392.596364 204.414539 
L 396.654545 211.442905 
L 400.712727 209.67359 
L 404.770909 215.556463 
L 408.829091 219.87765 
L 412.887273 218.49604 
L 416.945455 221.380279 
L 421.003636 223.880959 
L 425.061818 223.39146 
L 429.12 226.634012 
L 433.178182 228.58333 
L 437.236364 225.827969 
L 441.294545 230.685757 
L 445.352727 231.556065 
L 449.410909 229.166054 
L 453.469091 237.114537 
L 457.527273 240.034961 
L 461.585455 241.406479 
L 465.643636 240.921735 
L 469.701818 243.871947 
L 473.76 247.033211 
L 477.818182 246.438333 
L 481.876364 248.237263 
L 485.934545 247.506072 
L 489.992727 250.424164 
L 494.050909 254.158364 
L 498.109091 261.397577 
" clip-path="url(#p9d9a0a5b81)" style="fill: none; stroke: #8c564b; stroke-width: 1.5; stroke-linecap: square"/>
    <defs>
     <path id="mdc7614c879" d="M -3 3 
L 3 -3 
M -3 -3 
L 3 3 
" style="stroke: #8c564b"/>
    </defs>
    <g clip-path="url(#p9d9a0a5b81)">
     <use xlink:href="#mdc7614c879" x="92.290909" y="66.96" style="fill: #8c564b; stroke: #8c564b"/>
     <use xlink:href="#mdc7614c879" x="96.349091" y="76.805507" style="fill: #8c564b; stroke: #8c564b"/>
     <use xlink:href="#mdc7614c879" x="100.407273" y="82.478431" style="fill: #8c564b; stroke: #8c564b"/>
     <use xlink:href="#mdc7614c879" x="104.465455" y="86.621446" style="fill: #8c564b; stroke: #8c564b"/>
     <use xlink:href="#mdc7614c879" x="108.523636" y="89.225327" style="fill: #8c564b; stroke: #8c564b"/>
     <use xlink:href="#mdc7614c879" x="112.581818" y="91.685939" style="fill: #8c564b; stroke: #8c564b"/>
     <use xlink:href="#mdc7614c879" x="116.64" y="94.281113" style="fill: #8c564b; stroke: #8c564b"/>
     <use xlink:href="#mdc7614c879" x="120.698182" y="94.950162" style="fill: #8c564b; stroke: #8c564b"/>
     <use xlink:href="#mdc7614c879" x="124.756364" y="96.660025" style="fill: #8c564b; stroke: #8c564b"/>
     <use xlink:href="#mdc7614c879" x="128.814545" y="99.096617" style="fill: #8c564b; stroke: #8c564b"/>
     <use xlink:href="#mdc7614c879" x="132.872727" y="101.407601" style="fill: #8c564b; stroke: #8c564b"/>
     <use xlink:href="#mdc7614c879" x="136.930909" y="104.470117" style="fill: #8c564b; stroke: #8c564b"/>
     <use xlink:href="#mdc7614c879" x="140.989091" y="107.000417" style="fill: #8c564b; stroke: #8c564b"/>
     <use xlink:href="#mdc7614c879" x="145.047273" y="107.635014" style="fill: #8c564b; stroke: #8c564b"/>
     <use xlink:href="#mdc7614c879" x="149.105455" y="110.379393" style="fill: #8c564b; stroke: #8c564b"/>
     <use xlink:href="#mdc7614c879" x="153.163636" y="112.098116" style="fill: #8c564b; stroke: #8c564b"/>
     <use xlink:href="#mdc7614c879" x="157.221818" y="115.038361" style="fill: #8c564b; stroke: #8c564b"/>
     <use xlink:href="#mdc7614c879" x="161.28" y="115.96194" style="fill: #8c564b; stroke: #8c564b"/>
     <use xlink:href="#mdc7614c879" x="165.338182" y="116.807851" style="fill: #8c564b; stroke: #8c564b"/>
     <use xlink:href="#mdc7614c879" x="169.396364" y="118.291749" style="fill: #8c564b; stroke: #8c564b"/>
     <use xlink:href="#mdc7614c879" x="173.454545" y="119.482427" style="fill: #8c564b; stroke: #8c564b"/>
     <use xlink:href="#mdc7614c879" x="177.512727" y="121.817839" style="fill: #8c564b; stroke: #8c564b"/>
     <use xlink:href="#mdc7614c879" x="181.570909" y="122.583933" style="fill: #8c564b; stroke: #8c564b"/>
     <use xlink:href="#mdc7614c879" x="185.629091" y="124.455681" style="fill: #8c564b; stroke: #8c564b"/>
     <use xlink:href="#mdc7614c879" x="189.687273" y="126.15219" style="fill: #8c564b; stroke: #8c564b"/>
     <use xlink:href="#mdc7614c879" x="193.745455" y="128.254378" style="fill: #8c564b; stroke: #8c564b"/>
     <use xlink:href="#mdc7614c879" x="197.803636" y="128.405618" style="fill: #8c564b; stroke: #8c564b"/>
     <use xlink:href="#mdc7614c879" x="201.861818" y="130.048738" style="fill: #8c564b; stroke: #8c564b"/>
     <use xlink:href="#mdc7614c879" x="205.92" y="130.822665" style="fill: #8c564b; stroke: #8c564b"/>
     <use xlink:href="#mdc7614c879" x="209.978182" y="131.24669" style="fill: #8c564b; stroke: #8c564b"/>
     <use xlink:href="#mdc7614c879" x="214.036364" y="132.180685" style="fill: #8c564b; stroke: #8c564b"/>
     <use xlink:href="#mdc7614c879" x="218.094545" y="132.714782" style="fill: #8c564b; stroke: #8c564b"/>
     <use xlink:href="#mdc7614c879" x="222.152727" y="136.224019" style="fill: #8c564b; stroke: #8c564b"/>
     <use xlink:href="#mdc7614c879" x="226.210909" y="137.089878" style="fill: #8c564b; stroke: #8c564b"/>
     <use xlink:href="#mdc7614c879" x="230.269091" y="140.521484" style="fill: #8c564b; stroke: #8c564b"/>
     <use xlink:href="#mdc7614c879" x="234.327273" y="140.667573" style="fill: #8c564b; stroke: #8c564b"/>
     <use xlink:href="#mdc7614c879" x="238.385455" y="142.728583" style="fill: #8c564b; stroke: #8c564b"/>
     <use xlink:href="#mdc7614c879" x="242.443636" y="144.040377" style="fill: #8c564b; stroke: #8c564b"/>
     <use xlink:href="#mdc7614c879" x="246.501818" y="145.361828" style="fill: #8c564b; stroke: #8c564b"/>
     <use xlink:href="#mdc7614c879" x="250.56" y="147.512944" style="fill: #8c564b; stroke: #8c564b"/>
     <use xlink:href="#mdc7614c879" x="254.618182" y="147.414819" style="fill: #8c564b; stroke: #8c564b"/>
     <use xlink:href="#mdc7614c879" x="258.676364" y="149.771812" style="fill: #8c564b; stroke: #8c564b"/>
     <use xlink:href="#mdc7614c879" x="262.734545" y="153.828544" style="fill: #8c564b; stroke: #8c564b"/>
     <use xlink:href="#mdc7614c879" x="266.792727" y="156.294524" style="fill: #8c564b; stroke: #8c564b"/>
     <use xlink:href="#mdc7614c879" x="270.850909" y="157.279382" style="fill: #8c564b; stroke: #8c564b"/>
     <use xlink:href="#mdc7614c879" x="274.909091" y="159.275141" style="fill: #8c564b; stroke: #8c564b"/>
     <use xlink:href="#mdc7614c879" x="278.967273" y="158.159262" style="fill: #8c564b; stroke: #8c564b"/>
     <use xlink:href="#mdc7614c879" x="283.025455" y="161.15935" style="fill: #8c564b; stroke: #8c564b"/>
     <use xlink:href="#mdc7614c879" x="287.083636" y="163.845551" style="fill: #8c564b; stroke: #8c564b"/>
     <use xlink:href="#mdc7614c879" x="291.141818" y="163.373707" style="fill: #8c564b; stroke: #8c564b"/>
     <use xlink:href="#mdc7614c879" x="295.2" y="165.599488" style="fill: #8c564b; stroke: #8c564b"/>
     <use xlink:href="#mdc7614c879" x="299.258182" y="169.316696" style="fill: #8c564b; stroke: #8c564b"/>
     <use xlink:href="#mdc7614c879" x="303.316364" y="171.789746" style="fill: #8c564b; stroke: #8c564b"/>
     <use xlink:href="#mdc7614c879" x="307.374545" y="174.712674" style="fill: #8c564b; stroke: #8c564b"/>
     <use xlink:href="#mdc7614c879" x="311.432727" y="173.306664" style="fill: #8c564b; stroke: #8c564b"/>
     <use xlink:href="#mdc7614c879" x="315.490909" y="173.664478" style="fill: #8c564b; stroke: #8c564b"/>
     <use xlink:href="#mdc7614c879" x="319.549091" y="172.354512" style="fill: #8c564b; stroke: #8c564b"/>
     <use xlink:href="#mdc7614c879" x="323.607273" y="177.400322" style="fill: #8c564b; stroke: #8c564b"/>
     <use xlink:href="#mdc7614c879" x="327.665455" y="178.186712" style="fill: #8c564b; stroke: #8c564b"/>
     <use xlink:href="#mdc7614c879" x="331.723636" y="176.982065" style="fill: #8c564b; stroke: #8c564b"/>
     <use xlink:href="#mdc7614c879" x="335.781818" y="178.142394" style="fill: #8c564b; stroke: #8c564b"/>
     <use xlink:href="#mdc7614c879" x="339.84" y="185.287353" style="fill: #8c564b; stroke: #8c564b"/>
     <use xlink:href="#mdc7614c879" x="343.898182" y="186.50102" style="fill: #8c564b; stroke: #8c564b"/>
     <use xlink:href="#mdc7614c879" x="347.956364" y="187.894288" style="fill: #8c564b; stroke: #8c564b"/>
     <use xlink:href="#mdc7614c879" x="352.014545" y="192.24506" style="fill: #8c564b; stroke: #8c564b"/>
     <use xlink:href="#mdc7614c879" x="356.072727" y="190.276611" style="fill: #8c564b; stroke: #8c564b"/>
     <use xlink:href="#mdc7614c879" x="360.130909" y="191.872399" style="fill: #8c564b; stroke: #8c564b"/>
     <use xlink:href="#mdc7614c879" x="364.189091" y="193.873356" style="fill: #8c564b; stroke: #8c564b"/>
     <use xlink:href="#mdc7614c879" x="368.247273" y="197.218849" style="fill: #8c564b; stroke: #8c564b"/>
     <use xlink:href="#mdc7614c879" x="372.305455" y="199.67754" style="fill: #8c564b; stroke: #8c564b"/>
     <use xlink:href="#mdc7614c879" x="376.363636" y="199.623743" style="fill: #8c564b; stroke: #8c564b"/>
     <use xlink:href="#mdc7614c879" x="380.421818" y="202.637154" style="fill: #8c564b; stroke: #8c564b"/>
     <use xlink:href="#mdc7614c879" x="384.48" y="205.394836" style="fill: #8c564b; stroke: #8c564b"/>
     <use xlink:href="#mdc7614c879" x="388.538182" y="208.418376" style="fill: #8c564b; stroke: #8c564b"/>
     <use xlink:href="#mdc7614c879" x="392.596364" y="204.414539" style="fill: #8c564b; stroke: #8c564b"/>
     <use xlink:href="#mdc7614c879" x="396.654545" y="211.442905" style="fill: #8c564b; stroke: #8c564b"/>
     <use xlink:href="#mdc7614c879" x="400.712727" y="209.67359" style="fill: #8c564b; stroke: #8c564b"/>
     <use xlink:href="#mdc7614c879" x="404.770909" y="215.556463" style="fill: #8c564b; stroke: #8c564b"/>
     <use xlink:href="#mdc7614c879" x="408.829091" y="219.87765" style="fill: #8c564b; stroke: #8c564b"/>
     <use xlink:href="#mdc7614c879" x="412.887273" y="218.49604" style="fill: #8c564b; stroke: #8c564b"/>
     <use xlink:href="#mdc7614c879" x="416.945455" y="221.380279" style="fill: #8c564b; stroke: #8c564b"/>
     <use xlink:href="#mdc7614c879" x="421.003636" y="223.880959" style="fill: #8c564b; stroke: #8c564b"/>
     <use xlink:href="#mdc7614c879" x="425.061818" y="223.39146" style="fill: #8c564b; stroke: #8c564b"/>
     <use xlink:href="#mdc7614c879" x="429.12" y="226.634012" style="fill: #8c564b; stroke: #8c564b"/>
     <use xlink:href="#mdc7614c879" x="433.178182" y="228.58333" style="fill: #8c564b; stroke: #8c564b"/>
     <use xlink:href="#mdc7614c879" x="437.236364" y="225.827969" style="fill: #8c564b; stroke: #8c564b"/>
     <use xlink:href="#mdc7614c879" x="441.294545" y="230.685757" style="fill: #8c564b; stroke: #8c564b"/>
     <use xlink:href="#mdc7614c879" x="445.352727" y="231.556065" style="fill: #8c564b; stroke: #8c564b"/>
     <use xlink:href="#mdc7614c879" x="449.410909" y="229.166054" style="fill: #8c564b; stroke: #8c564b"/>
     <use xlink:href="#mdc7614c879" x="453.469091" y="237.114537" style="fill: #8c564b; stroke: #8c564b"/>
     <use xlink:href="#mdc7614c879" x="457.527273" y="240.034961" style="fill: #8c564b; stroke: #8c564b"/>
     <use xlink:href="#mdc7614c879" x="461.585455" y="241.406479" style="fill: #8c564b; stroke: #8c564b"/>
     <use xlink:href="#mdc7614c879" x="465.643636" y="240.921735" style="fill: #8c564b; stroke: #8c564b"/>
     <use xlink:href="#mdc7614c879" x="469.701818" y="243.871947" style="fill: #8c564b; stroke: #8c564b"/>
     <use xlink:href="#mdc7614c879" x="473.76" y="247.033211" style="fill: #8c564b; stroke: #8c564b"/>
     <use xlink:href="#mdc7614c879" x="477.818182" y="246.438333" style="fill: #8c564b; stroke: #8c564b"/>
     <use xlink:href="#mdc7614c879" x="481.876364" y="248.237263" style="fill: #8c564b; stroke: #8c564b"/>
     <use xlink:href="#mdc7614c879" x="485.934545" y="247.506072" style="fill: #8c564b; stroke: #8c564b"/>
     <use xlink:href="#mdc7614c879" x="489.992727" y="250.424164" style="fill: #8c564b; stroke: #8c564b"/>
     <use xlink:href="#mdc7614c879" x="494.050909" y="254.158364" style="fill: #8c564b; stroke: #8c564b"/>
     <use xlink:href="#mdc7614c879" x="498.109091" y="261.397577" style="fill: #8c564b; stroke: #8c564b"/>
    </g>
   </g>
   <g id="patch_3">
    <path d="M 72 384.48 
L 72 51.84 
" style="fill: none; stroke: #000000; stroke-width: 0.8; stroke-linejoin: miter; stroke-linecap: square"/>
   </g>
   <g id="patch_4">
    <path d="M 518.4 384.48 
L 518.4 51.84 
" style="fill: none; stroke: #000000; stroke-width: 0.8; stroke-linejoin: miter; stroke-linecap: square"/>
   </g>
   <g id="patch_5">
    <path d="M 72 384.48 
L 518.4 384.48 
" style="fill: none; stroke: #000000; stroke-width: 0.8; stroke-linejoin: miter; stroke-linecap: square"/>
   </g>
   <g id="patch_6">
    <path d="M 72 51.84 
L 518.4 51.84 
" style="fill: none; stroke: #000000; stroke-width: 0.8; stroke-linejoin: miter; stroke-linecap: square"/>
   </g>
   <g id="legend_1">
    <g id="patch_7">
     <path d="M 79 379.48 
L 215.382812 379.48 
Q 217.382812 379.48 217.382812 377.48 
L 217.382812 290.41125 
Q 217.382812 288.41125 215.382812 288.41125 
L 79 288.41125 
Q 77 288.41125 77 290.41125 
L 77 377.48 
Q 77 379.48 79 379.48 
z
" style="fill: #ffffff; opacity: 0.8; stroke: #cccccc; stroke-linejoin: miter"/>
    </g>
    <g id="line2d_21">
     <path d="M 81 296.509688 
L 91 296.509688 
L 101 296.509688 
" style="fill: none; stroke: #1f77b4; stroke-width: 1.5; stroke-linecap: square"/>
     <g>
      <use xlink:href="#maec5781fd8" x="91" y="296.509688" style="fill: #1f77b4; stroke: #1f77b4; stroke-linejoin: miter"/>
     </g>
    </g>
    <g id="text_17">
     <!-- CG -->
     <g transform="translate(109 300.009688)scale(0.1 -0.1)">
      <defs>
       <path id="DejaVuSans-43" d="M 4122 4306 
L 4122 3641 
Q 3803 3938 3442 4084 
Q 3081 4231 2675 4231 
Q 1875 4231 1450 3742 
Q 1025 3253 1025 2328 
Q 1025 1406 1450 917 
Q 1875 428 2675 428 
Q 3081 428 3442 575 
Q 3803 722 4122 1019 
L 4122 359 
Q 3791 134 3420 21 
Q 3050 -91 2638 -91 
Q 1578 -91 968 557 
Q 359 1206 359 2328 
Q 359 3453 968 4101 
Q 1578 4750 2638 4750 
Q 3056 4750 3426 4639 
Q 3797 4528 4122 4306 
z
" transform="scale(0.015625)"/>
       <path id="DejaVuSans-47" d="M 3809 666 
L 3809 1919 
L 2778 1919 
L 2778 2438 
L 4434 2438 
L 4434 434 
Q 4069 175 3628 42 
Q 3188 -91 2688 -91 
Q 1594 -91 976 548 
Q 359 1188 359 2328 
Q 359 3472 976 4111 
Q 1594 4750 2688 4750 
Q 3144 4750 3555 4637 
Q 3966 4525 4313 4306 
L 4313 3634 
Q 3963 3931 3569 4081 
Q 3175 4231 2741 4231 
Q 1884 4231 1454 3753 
Q 1025 3275 1025 2328 
Q 1025 1384 1454 906 
Q 1884 428 2741 428 
Q 3075 428 3337 486 
Q 3600 544 3809 666 
z
" transform="scale(0.015625)"/>
      </defs>
      <use xlink:href="#DejaVuSans-43"/>
      <use xlink:href="#DejaVuSans-47" x="69.824219"/>
     </g>
    </g>
    <g id="line2d_22">
     <path d="M 81 311.187813 
L 91 311.187813 
L 101 311.187813 
" style="fill: none; stroke: #ff7f0e; stroke-width: 1.5; stroke-linecap: square"/>
    </g>
    <g id="text_18">
     <!-- GMRES (krylov) -->
     <g transform="translate(109 314.687813)scale(0.1 -0.1)">
      <defs>
       <path id="DejaVuSans-4d" d="M 628 4666 
L 1569 4666 
L 2759 1491 
L 3956 4666 
L 4897 4666 
L 4897 0 
L 4281 0 
L 4281 4097 
L 3078 897 
L 2444 897 
L 1241 4097 
L 1241 0 
L 628 0 
L 628 4666 
z
" transform="scale(0.015625)"/>
       <path id="DejaVuSans-52" d="M 2841 2188 
Q 3044 2119 3236 1894 
Q 3428 1669 3622 1275 
L 4263 0 
L 3584 0 
L 2988 1197 
Q 2756 1666 2539 1819 
Q 2322 1972 1947 1972 
L 1259 1972 
L 1259 0 
L 628 0 
L 628 4666 
L 2053 4666 
Q 2853 4666 3247 4331 
Q 3641 3997 3641 3322 
Q 3641 2881 3436 2590 
Q 3231 2300 2841 2188 
z
M 1259 4147 
L 1259 2491 
L 2053 2491 
Q 2509 2491 2742 2702 
Q 2975 2913 2975 3322 
Q 2975 3731 2742 3939 
Q 2509 4147 2053 4147 
L 1259 4147 
z
" transform="scale(0.015625)"/>
       <path id="DejaVuSans-45" d="M 628 4666 
L 3578 4666 
L 3578 4134 
L 1259 4134 
L 1259 2753 
L 3481 2753 
L 3481 2222 
L 1259 2222 
L 1259 531 
L 3634 531 
L 3634 0 
L 628 0 
L 628 4666 
z
" transform="scale(0.015625)"/>
       <path id="DejaVuSans-53" d="M 3425 4513 
L 3425 3897 
Q 3066 4069 2747 4153 
Q 2428 4238 2131 4238 
Q 1616 4238 1336 4038 
Q 1056 3838 1056 3469 
Q 1056 3159 1242 3001 
Q 1428 2844 1947 2747 
L 2328 2669 
Q 3034 2534 3370 2195 
Q 3706 1856 3706 1288 
Q 3706 609 3251 259 
Q 2797 -91 1919 -91 
Q 1588 -91 1214 -16 
Q 841 59 441 206 
L 441 856 
Q 825 641 1194 531 
Q 1563 422 1919 422 
Q 2459 422 2753 634 
Q 3047 847 3047 1241 
Q 3047 1584 2836 1778 
Q 2625 1972 2144 2069 
L 1759 2144 
Q 1053 2284 737 2584 
Q 422 2884 422 3419 
Q 422 4038 858 4394 
Q 1294 4750 2059 4750 
Q 2388 4750 2728 4690 
Q 3069 4631 3425 4513 
z
" transform="scale(0.015625)"/>
       <path id="DejaVuSans-28" d="M 1984 4856 
Q 1566 4138 1362 3434 
Q 1159 2731 1159 2009 
Q 1159 1288 1364 580 
Q 1569 -128 1984 -844 
L 1484 -844 
Q 1016 -109 783 600 
Q 550 1309 550 2009 
Q 550 2706 781 3412 
Q 1013 4119 1484 4856 
L 1984 4856 
z
" transform="scale(0.015625)"/>
       <path id="DejaVuSans-6b" d="M 581 4863 
L 1159 4863 
L 1159 1991 
L 2875 3500 
L 3609 3500 
L 1753 1863 
L 3688 0 
L 2938 0 
L 1159 1709 
L 1159 0 
L 581 0 
L 581 4863 
z
" transform="scale(0.015625)"/>
       <path id="DejaVuSans-79" d="M 2059 -325 
Q 1816 -950 1584 -1140 
Q 1353 -1331 966 -1331 
L 506 -1331 
L 506 -850 
L 844 -850 
Q 1081 -850 1212 -737 
Q 1344 -625 1503 -206 
L 1606 56 
L 191 3500 
L 800 3500 
L 1894 763 
L 2988 3500 
L 3597 3500 
L 2059 -325 
z
" transform="scale(0.015625)"/>
       <path id="DejaVuSans-76" d="M 191 3500 
L 800 3500 
L 1894 563 
L 2988 3500 
L 3597 3500 
L 2284 0 
L 1503 0 
L 191 3500 
z
" transform="scale(0.015625)"/>
       <path id="DejaVuSans-29" d="M 513 4856 
L 1013 4856 
Q 1481 4119 1714 3412 
Q 1947 2706 1947 2009 
Q 1947 1309 1714 600 
Q 1481 -109 1013 -844 
L 513 -844 
Q 928 -128 1133 580 
Q 1338 1288 1338 2009 
Q 1338 2731 1133 3434 
Q 928 4138 513 4856 
z
" transform="scale(0.015625)"/>
      </defs>
      <use xlink:href="#DejaVuSans-47"/>
      <use xlink:href="#DejaVuSans-4d" x="77.490234"/>
      <use xlink:href="#DejaVuSans-52" x="163.769531"/>
      <use xlink:href="#DejaVuSans-45" x="233.251953"/>
      <use xlink:href="#DejaVuSans-53" x="296.435547"/>
      <use xlink:href="#DejaVuSans-20" x="359.912109"/>
      <use xlink:href="#DejaVuSans-28" x="391.699219"/>
      <use xlink:href="#DejaVuSans-6b" x="430.712891"/>
      <use xlink:href="#DejaVuSans-72" x="488.623047"/>
      <use xlink:href="#DejaVuSans-79" x="529.736328"/>
      <use xlink:href="#DejaVuSans-6c" x="588.916016"/>
      <use xlink:href="#DejaVuSans-6f" x="616.699219"/>
      <use xlink:href="#DejaVuSans-76" x="677.880859"/>
      <use xlink:href="#DejaVuSans-29" x="737.060547"/>
     </g>
    </g>
    <g id="line2d_23">
     <path d="M 81 325.865938 
L 91 325.865938 
L 101 325.865938 
" style="fill: none; stroke: #2ca02c; stroke-width: 1.5; stroke-linecap: square"/>
    </g>
    <g id="text_19">
     <!-- GMRES (grad) -->
     <g transform="translate(109 329.365938)scale(0.1 -0.1)">
      <defs>
       <path id="DejaVuSans-67" d="M 2906 1791 
Q 2906 2416 2648 2759 
Q 2391 3103 1925 3103 
Q 1463 3103 1205 2759 
Q 947 2416 947 1791 
Q 947 1169 1205 825 
Q 1463 481 1925 481 
Q 2391 481 2648 825 
Q 2906 1169 2906 1791 
z
M 3481 434 
Q 3481 -459 3084 -895 
Q 2688 -1331 1869 -1331 
Q 1566 -1331 1297 -1286 
Q 1028 -1241 775 -1147 
L 775 -588 
Q 1028 -725 1275 -790 
Q 1522 -856 1778 -856 
Q 2344 -856 2625 -561 
Q 2906 -266 2906 331 
L 2906 616 
Q 2728 306 2450 153 
Q 2172 0 1784 0 
Q 1141 0 747 490 
Q 353 981 353 1791 
Q 353 2603 747 3093 
Q 1141 3584 1784 3584 
Q 2172 3584 2450 3431 
Q 2728 3278 2906 2969 
L 2906 3500 
L 3481 3500 
L 3481 434 
z
" transform="scale(0.015625)"/>
      </defs>
      <use xlink:href="#DejaVuSans-47"/>
      <use xlink:href="#DejaVuSans-4d" x="77.490234"/>
      <use xlink:href="#DejaVuSans-52" x="163.769531"/>
      <use xlink:href="#DejaVuSans-45" x="233.251953"/>
      <use xlink:href="#DejaVuSans-53" x="296.435547"/>
      <use xlink:href="#DejaVuSans-20" x="359.912109"/>
      <use xlink:href="#DejaVuSans-28" x="391.699219"/>
      <use xlink:href="#DejaVuSans-67" x="430.712891"/>
      <use xlink:href="#DejaVuSans-72" x="494.189453"/>
      <use xlink:href="#DejaVuSans-61" x="535.302734"/>
      <use xlink:href="#DejaVuSans-64" x="596.582031"/>
      <use xlink:href="#DejaVuSans-29" x="660.058594"/>
     </g>
    </g>
    <g id="line2d_24">
     <path d="M 81 340.544062 
L 91 340.544062 
L 101 340.544062 
" style="fill: none; stroke-dasharray: 5.55,2.4; stroke-dashoffset: 0; stroke: #d62728; stroke-width: 1.5"/>
    </g>
    <g id="text_20">
     <!-- FOM (krylov) -->
     <g transform="translate(109 344.044062)scale(0.1 -0.1)">
      <defs>
       <path id="DejaVuSans-46" d="M 628 4666 
L 3309 4666 
L 3309 4134 
L 1259 4134 
L 1259 2759 
L 3109 2759 
L 3109 2228 
L 1259 2228 
L 1259 0 
L 628 0 
L 628 4666 
z
" transform="scale(0.015625)"/>
       <path id="DejaVuSans-4f" d="M 2522 4238 
Q 1834 4238 1429 3725 
Q 1025 3213 1025 2328 
Q 1025 1447 1429 934 
Q 1834 422 2522 422 
Q 3209 422 3611 934 
Q 4013 1447 4013 2328 
Q 4013 3213 3611 3725 
Q 3209 4238 2522 4238 
z
M 2522 4750 
Q 3503 4750 4090 4092 
Q 4678 3434 4678 2328 
Q 4678 1225 4090 567 
Q 3503 -91 2522 -91 
Q 1538 -91 948 565 
Q 359 1222 359 2328 
Q 359 3434 948 4092 
Q 1538 4750 2522 4750 
z
" transform="scale(0.015625)"/>
      </defs>
      <use xlink:href="#DejaVuSans-46"/>
      <use xlink:href="#DejaVuSans-4f" x="57.519531"/>
      <use xlink:href="#DejaVuSans-4d" x="136.230469"/>
      <use xlink:href="#DejaVuSans-20" x="222.509766"/>
      <use xlink:href="#DejaVuSans-28" x="254.296875"/>
      <use xlink:href="#DejaVuSans-6b" x="293.310547"/>
      <use xlink:href="#DejaVuSans-72" x="351.220703"/>
      <use xlink:href="#DejaVuSans-79" x="392.333984"/>
      <use xlink:href="#DejaVuSans-6c" x="451.513672"/>
      <use xlink:href="#DejaVuSans-6f" x="479.296875"/>
      <use xlink:href="#DejaVuSans-76" x="540.478516"/>
      <use xlink:href="#DejaVuSans-29" x="599.658203"/>
     </g>
    </g>
    <g id="line2d_25">
     <path d="M 81 355.222188 
L 91 355.222188 
L 101 355.222188 
" style="fill: none; stroke-dasharray: 5.55,2.4; stroke-dashoffset: 0; stroke: #9467bd; stroke-width: 1.5"/>
    </g>
    <g id="text_21">
     <!-- FOM (grad) -->
     <g transform="translate(109 358.722188)scale(0.1 -0.1)">
      <use xlink:href="#DejaVuSans-46"/>
      <use xlink:href="#DejaVuSans-4f" x="57.519531"/>
      <use xlink:href="#DejaVuSans-4d" x="136.230469"/>
      <use xlink:href="#DejaVuSans-20" x="222.509766"/>
      <use xlink:href="#DejaVuSans-28" x="254.296875"/>
      <use xlink:href="#DejaVuSans-67" x="293.310547"/>
      <use xlink:href="#DejaVuSans-72" x="356.787109"/>
      <use xlink:href="#DejaVuSans-61" x="397.900391"/>
      <use xlink:href="#DejaVuSans-64" x="459.179688"/>
      <use xlink:href="#DejaVuSans-29" x="522.65625"/>
     </g>
    </g>
    <g id="line2d_26">
     <path d="M 81 369.900313 
L 91 369.900313 
L 101 369.900313 
" style="fill: none; stroke: #8c564b; stroke-width: 1.5; stroke-linecap: square"/>
     <g>
      <use xlink:href="#mdc7614c879" x="91" y="369.900313" style="fill: #8c564b; stroke: #8c564b"/>
     </g>
    </g>
    <g id="text_22">
     <!-- CG (IterativeSolvers) -->
     <g transform="translate(109 373.400313)scale(0.1 -0.1)">
      <defs>
       <path id="DejaVuSans-49" d="M 628 4666 
L 1259 4666 
L 1259 0 
L 628 0 
L 628 4666 
z
" transform="scale(0.015625)"/>
      </defs>
      <use xlink:href="#DejaVuSans-43"/>
      <use xlink:href="#DejaVuSans-47" x="69.824219"/>
      <use xlink:href="#DejaVuSans-20" x="147.314453"/>
      <use xlink:href="#DejaVuSans-28" x="179.101562"/>
      <use xlink:href="#DejaVuSans-49" x="218.115234"/>
      <use xlink:href="#DejaVuSans-74" x="247.607422"/>
      <use xlink:href="#DejaVuSans-65" x="286.816406"/>
      <use xlink:href="#DejaVuSans-72" x="348.339844"/>
      <use xlink:href="#DejaVuSans-61" x="389.453125"/>
      <use xlink:href="#DejaVuSans-74" x="450.732422"/>
      <use xlink:href="#DejaVuSans-69" x="489.941406"/>
      <use xlink:href="#DejaVuSans-76" x="517.724609"/>
      <use xlink:href="#DejaVuSans-65" x="576.904297"/>
      <use xlink:href="#DejaVuSans-53" x="638.427734"/>
      <use xlink:href="#DejaVuSans-6f" x="701.904297"/>
      <use xlink:href="#DejaVuSans-6c" x="763.085938"/>
      <use xlink:href="#DejaVuSans-76" x="790.869141"/>
      <use xlink:href="#DejaVuSans-65" x="850.048828"/>
      <use xlink:href="#DejaVuSans-72" x="911.572266"/>
      <use xlink:href="#DejaVuSans-73" x="952.685547"/>
      <use xlink:href="#DejaVuSans-29" x="1004.785156"/>
     </g>
    </g>
   </g>
  </g>
 </g>
 <defs>
  <clipPath id="p9d9a0a5b81">
   <rect x="72" y="51.84" width="446.4" height="332.64"/>
  </clipPath>
 </defs>
</svg>
