<?xml version="1.0" encoding="utf-8" standalone="no"?>
<!DOCTYPE svg PUBLIC "-//W3C//DTD SVG 1.1//EN"
  "http://www.w3.org/Graphics/SVG/1.1/DTD/svg11.dtd">
<svg xmlns:xlink="http://www.w3.org/1999/xlink" width="576pt" height="432pt" viewBox="0 0 576 432" xmlns="http://www.w3.org/2000/svg" version="1.1">
 <metadata>
  <rdf:RDF xmlns:dc="http://purl.org/dc/elements/1.1/" xmlns:cc="http://creativecommons.org/ns#" xmlns:rdf="http://www.w3.org/1999/02/22-rdf-syntax-ns#">
   <cc:Work>
    <dc:type rdf:resource="http://purl.org/dc/dcmitype/StillImage"/>
    <dc:date>2022-06-10T01:52:24.751638</dc:date>
    <dc:format>image/svg+xml</dc:format>
    <dc:creator>
     <cc:Agent>
      <dc:title>Matplotlib v3.5.2, https://matplotlib.org/</dc:title>
     </cc:Agent>
    </dc:creator>
   </cc:Work>
  </rdf:RDF>
 </metadata>
 <defs>
  <style type="text/css">*{stroke-linejoin: round; stroke-linecap: butt}</style>
 </defs>
 <g id="figure_1">
  <g id="patch_1">
   <path d="M 0 432 
L 576 432 
L 576 0 
L 0 0 
z
" style="fill: #ffffff"/>
  </g>
  <g id="axes_1">
   <g id="patch_2">
    <path d="M 72 384.48 
L 518.4 384.48 
L 518.4 51.84 
L 72 51.84 
z
" style="fill: #ffffff"/>
   </g>
   <g id="matplotlib.axis_1">
    <g id="xtick_1">
     <g id="line2d_1">
      <defs>
       <path id="m24754fb698" d="M 0 0 
L 0 3.5 
" style="stroke: #000000; stroke-width: 0.8"/>
      </defs>
      <g>
       <use xlink:href="#m24754fb698" x="92.290909" y="384.48" style="stroke: #000000; stroke-width: 0.8"/>
      </g>
     </g>
     <g id="text_1">
      <!-- 0 -->
      <g transform="translate(89.109659 399.078438)scale(0.1 -0.1)">
       <defs>
        <path id="DejaVuSans-30" d="M 2034 4250 
Q 1547 4250 1301 3770 
Q 1056 3291 1056 2328 
Q 1056 1369 1301 889 
Q 1547 409 2034 409 
Q 2525 409 2770 889 
Q 3016 1369 3016 2328 
Q 3016 3291 2770 3770 
Q 2525 4250 2034 4250 
z
M 2034 4750 
Q 2819 4750 3233 4129 
Q 3647 3509 3647 2328 
Q 3647 1150 3233 529 
Q 2819 -91 2034 -91 
Q 1250 -91 836 529 
Q 422 1150 422 2328 
Q 422 3509 836 4129 
Q 1250 4750 2034 4750 
z
" transform="scale(0.015625)"/>
       </defs>
       <use xlink:href="#DejaVuSans-30"/>
      </g>
     </g>
    </g>
    <g id="xtick_2">
     <g id="line2d_2">
      <g>
       <use xlink:href="#m24754fb698" x="173.454545" y="384.48" style="stroke: #000000; stroke-width: 0.8"/>
      </g>
     </g>
     <g id="text_2">
      <!-- 20 -->
      <g transform="translate(167.092045 399.078438)scale(0.1 -0.1)">
       <defs>
        <path id="DejaVuSans-32" d="M 1228 531 
L 3431 531 
L 3431 0 
L 469 0 
L 469 531 
Q 828 903 1448 1529 
Q 2069 2156 2228 2338 
Q 2531 2678 2651 2914 
Q 2772 3150 2772 3378 
Q 2772 3750 2511 3984 
Q 2250 4219 1831 4219 
Q 1534 4219 1204 4116 
Q 875 4013 500 3803 
L 500 4441 
Q 881 4594 1212 4672 
Q 1544 4750 1819 4750 
Q 2544 4750 2975 4387 
Q 3406 4025 3406 3419 
Q 3406 3131 3298 2873 
Q 3191 2616 2906 2266 
Q 2828 2175 2409 1742 
Q 1991 1309 1228 531 
z
" transform="scale(0.015625)"/>
       </defs>
       <use xlink:href="#DejaVuSans-32"/>
       <use xlink:href="#DejaVuSans-30" x="63.623047"/>
      </g>
     </g>
    </g>
    <g id="xtick_3">
     <g id="line2d_3">
      <g>
       <use xlink:href="#m24754fb698" x="254.618182" y="384.48" style="stroke: #000000; stroke-width: 0.8"/>
      </g>
     </g>
     <g id="text_3">
      <!-- 40 -->
      <g transform="translate(248.255682 399.078438)scale(0.1 -0.1)">
       <defs>
        <path id="DejaVuSans-34" d="M 2419 4116 
L 825 1625 
L 2419 1625 
L 2419 4116 
z
M 2253 4666 
L 3047 4666 
L 3047 1625 
L 3713 1625 
L 3713 1100 
L 3047 1100 
L 3047 0 
L 2419 0 
L 2419 1100 
L 313 1100 
L 313 1709 
L 2253 4666 
z
" transform="scale(0.015625)"/>
       </defs>
       <use xlink:href="#DejaVuSans-34"/>
       <use xlink:href="#DejaVuSans-30" x="63.623047"/>
      </g>
     </g>
    </g>
    <g id="xtick_4">
     <g id="line2d_4">
      <g>
       <use xlink:href="#m24754fb698" x="335.781818" y="384.48" style="stroke: #000000; stroke-width: 0.8"/>
      </g>
     </g>
     <g id="text_4">
      <!-- 60 -->
      <g transform="translate(329.419318 399.078438)scale(0.1 -0.1)">
       <defs>
        <path id="DejaVuSans-36" d="M 2113 2584 
Q 1688 2584 1439 2293 
Q 1191 2003 1191 1497 
Q 1191 994 1439 701 
Q 1688 409 2113 409 
Q 2538 409 2786 701 
Q 3034 994 3034 1497 
Q 3034 2003 2786 2293 
Q 2538 2584 2113 2584 
z
M 3366 4563 
L 3366 3988 
Q 3128 4100 2886 4159 
Q 2644 4219 2406 4219 
Q 1781 4219 1451 3797 
Q 1122 3375 1075 2522 
Q 1259 2794 1537 2939 
Q 1816 3084 2150 3084 
Q 2853 3084 3261 2657 
Q 3669 2231 3669 1497 
Q 3669 778 3244 343 
Q 2819 -91 2113 -91 
Q 1303 -91 875 529 
Q 447 1150 447 2328 
Q 447 3434 972 4092 
Q 1497 4750 2381 4750 
Q 2619 4750 2861 4703 
Q 3103 4656 3366 4563 
z
" transform="scale(0.015625)"/>
       </defs>
       <use xlink:href="#DejaVuSans-36"/>
       <use xlink:href="#DejaVuSans-30" x="63.623047"/>
      </g>
     </g>
    </g>
    <g id="xtick_5">
     <g id="line2d_5">
      <g>
       <use xlink:href="#m24754fb698" x="416.945455" y="384.48" style="stroke: #000000; stroke-width: 0.8"/>
      </g>
     </g>
     <g id="text_5">
      <!-- 80 -->
      <g transform="translate(410.582955 399.078438)scale(0.1 -0.1)">
       <defs>
        <path id="DejaVuSans-38" d="M 2034 2216 
Q 1584 2216 1326 1975 
Q 1069 1734 1069 1313 
Q 1069 891 1326 650 
Q 1584 409 2034 409 
Q 2484 409 2743 651 
Q 3003 894 3003 1313 
Q 3003 1734 2745 1975 
Q 2488 2216 2034 2216 
z
M 1403 2484 
Q 997 2584 770 2862 
Q 544 3141 544 3541 
Q 544 4100 942 4425 
Q 1341 4750 2034 4750 
Q 2731 4750 3128 4425 
Q 3525 4100 3525 3541 
Q 3525 3141 3298 2862 
Q 3072 2584 2669 2484 
Q 3125 2378 3379 2068 
Q 3634 1759 3634 1313 
Q 3634 634 3220 271 
Q 2806 -91 2034 -91 
Q 1263 -91 848 271 
Q 434 634 434 1313 
Q 434 1759 690 2068 
Q 947 2378 1403 2484 
z
M 1172 3481 
Q 1172 3119 1398 2916 
Q 1625 2713 2034 2713 
Q 2441 2713 2670 2916 
Q 2900 3119 2900 3481 
Q 2900 3844 2670 4047 
Q 2441 4250 2034 4250 
Q 1625 4250 1398 4047 
Q 1172 3844 1172 3481 
z
" transform="scale(0.015625)"/>
       </defs>
       <use xlink:href="#DejaVuSans-38"/>
       <use xlink:href="#DejaVuSans-30" x="63.623047"/>
      </g>
     </g>
    </g>
    <g id="xtick_6">
     <g id="line2d_6">
      <g>
       <use xlink:href="#m24754fb698" x="498.109091" y="384.48" style="stroke: #000000; stroke-width: 0.8"/>
      </g>
     </g>
     <g id="text_6">
      <!-- 100 -->
      <g transform="translate(488.565341 399.078438)scale(0.1 -0.1)">
       <defs>
        <path id="DejaVuSans-31" d="M 794 531 
L 1825 531 
L 1825 4091 
L 703 3866 
L 703 4441 
L 1819 4666 
L 2450 4666 
L 2450 531 
L 3481 531 
L 3481 0 
L 794 0 
L 794 531 
z
" transform="scale(0.015625)"/>
       </defs>
       <use xlink:href="#DejaVuSans-31"/>
       <use xlink:href="#DejaVuSans-30" x="63.623047"/>
       <use xlink:href="#DejaVuSans-30" x="127.246094"/>
      </g>
     </g>
    </g>
    <g id="text_7">
     <!-- Number of iterations -->
     <g transform="translate(243.389062 412.756563)scale(0.1 -0.1)">
      <defs>
       <path id="DejaVuSans-4e" d="M 628 4666 
L 1478 4666 
L 3547 763 
L 3547 4666 
L 4159 4666 
L 4159 0 
L 3309 0 
L 1241 3903 
L 1241 0 
L 628 0 
L 628 4666 
z
" transform="scale(0.015625)"/>
       <path id="DejaVuSans-75" d="M 544 1381 
L 544 3500 
L 1119 3500 
L 1119 1403 
Q 1119 906 1312 657 
Q 1506 409 1894 409 
Q 2359 409 2629 706 
Q 2900 1003 2900 1516 
L 2900 3500 
L 3475 3500 
L 3475 0 
L 2900 0 
L 2900 538 
Q 2691 219 2414 64 
Q 2138 -91 1772 -91 
Q 1169 -91 856 284 
Q 544 659 544 1381 
z
M 1991 3584 
L 1991 3584 
z
" transform="scale(0.015625)"/>
       <path id="DejaVuSans-6d" d="M 3328 2828 
Q 3544 3216 3844 3400 
Q 4144 3584 4550 3584 
Q 5097 3584 5394 3201 
Q 5691 2819 5691 2113 
L 5691 0 
L 5113 0 
L 5113 2094 
Q 5113 2597 4934 2840 
Q 4756 3084 4391 3084 
Q 3944 3084 3684 2787 
Q 3425 2491 3425 1978 
L 3425 0 
L 2847 0 
L 2847 2094 
Q 2847 2600 2669 2842 
Q 2491 3084 2119 3084 
Q 1678 3084 1418 2786 
Q 1159 2488 1159 1978 
L 1159 0 
L 581 0 
L 581 3500 
L 1159 3500 
L 1159 2956 
Q 1356 3278 1631 3431 
Q 1906 3584 2284 3584 
Q 2666 3584 2933 3390 
Q 3200 3197 3328 2828 
z
" transform="scale(0.015625)"/>
       <path id="DejaVuSans-62" d="M 3116 1747 
Q 3116 2381 2855 2742 
Q 2594 3103 2138 3103 
Q 1681 3103 1420 2742 
Q 1159 2381 1159 1747 
Q 1159 1113 1420 752 
Q 1681 391 2138 391 
Q 2594 391 2855 752 
Q 3116 1113 3116 1747 
z
M 1159 2969 
Q 1341 3281 1617 3432 
Q 1894 3584 2278 3584 
Q 2916 3584 3314 3078 
Q 3713 2572 3713 1747 
Q 3713 922 3314 415 
Q 2916 -91 2278 -91 
Q 1894 -91 1617 61 
Q 1341 213 1159 525 
L 1159 0 
L 581 0 
L 581 4863 
L 1159 4863 
L 1159 2969 
z
" transform="scale(0.015625)"/>
       <path id="DejaVuSans-65" d="M 3597 1894 
L 3597 1613 
L 953 1613 
Q 991 1019 1311 708 
Q 1631 397 2203 397 
Q 2534 397 2845 478 
Q 3156 559 3463 722 
L 3463 178 
Q 3153 47 2828 -22 
Q 2503 -91 2169 -91 
Q 1331 -91 842 396 
Q 353 884 353 1716 
Q 353 2575 817 3079 
Q 1281 3584 2069 3584 
Q 2775 3584 3186 3129 
Q 3597 2675 3597 1894 
z
M 3022 2063 
Q 3016 2534 2758 2815 
Q 2500 3097 2075 3097 
Q 1594 3097 1305 2825 
Q 1016 2553 972 2059 
L 3022 2063 
z
" transform="scale(0.015625)"/>
       <path id="DejaVuSans-72" d="M 2631 2963 
Q 2534 3019 2420 3045 
Q 2306 3072 2169 3072 
Q 1681 3072 1420 2755 
Q 1159 2438 1159 1844 
L 1159 0 
L 581 0 
L 581 3500 
L 1159 3500 
L 1159 2956 
Q 1341 3275 1631 3429 
Q 1922 3584 2338 3584 
Q 2397 3584 2469 3576 
Q 2541 3569 2628 3553 
L 2631 2963 
z
" transform="scale(0.015625)"/>
       <path id="DejaVuSans-20" transform="scale(0.015625)"/>
       <path id="DejaVuSans-6f" d="M 1959 3097 
Q 1497 3097 1228 2736 
Q 959 2375 959 1747 
Q 959 1119 1226 758 
Q 1494 397 1959 397 
Q 2419 397 2687 759 
Q 2956 1122 2956 1747 
Q 2956 2369 2687 2733 
Q 2419 3097 1959 3097 
z
M 1959 3584 
Q 2709 3584 3137 3096 
Q 3566 2609 3566 1747 
Q 3566 888 3137 398 
Q 2709 -91 1959 -91 
Q 1206 -91 779 398 
Q 353 888 353 1747 
Q 353 2609 779 3096 
Q 1206 3584 1959 3584 
z
" transform="scale(0.015625)"/>
       <path id="DejaVuSans-66" d="M 2375 4863 
L 2375 4384 
L 1825 4384 
Q 1516 4384 1395 4259 
Q 1275 4134 1275 3809 
L 1275 3500 
L 2222 3500 
L 2222 3053 
L 1275 3053 
L 1275 0 
L 697 0 
L 697 3053 
L 147 3053 
L 147 3500 
L 697 3500 
L 697 3744 
Q 697 4328 969 4595 
Q 1241 4863 1831 4863 
L 2375 4863 
z
" transform="scale(0.015625)"/>
       <path id="DejaVuSans-69" d="M 603 3500 
L 1178 3500 
L 1178 0 
L 603 0 
L 603 3500 
z
M 603 4863 
L 1178 4863 
L 1178 4134 
L 603 4134 
L 603 4863 
z
" transform="scale(0.015625)"/>
       <path id="DejaVuSans-74" d="M 1172 4494 
L 1172 3500 
L 2356 3500 
L 2356 3053 
L 1172 3053 
L 1172 1153 
Q 1172 725 1289 603 
Q 1406 481 1766 481 
L 2356 481 
L 2356 0 
L 1766 0 
Q 1100 0 847 248 
Q 594 497 594 1153 
L 594 3053 
L 172 3053 
L 172 3500 
L 594 3500 
L 594 4494 
L 1172 4494 
z
" transform="scale(0.015625)"/>
       <path id="DejaVuSans-61" d="M 2194 1759 
Q 1497 1759 1228 1600 
Q 959 1441 959 1056 
Q 959 750 1161 570 
Q 1363 391 1709 391 
Q 2188 391 2477 730 
Q 2766 1069 2766 1631 
L 2766 1759 
L 2194 1759 
z
M 3341 1997 
L 3341 0 
L 2766 0 
L 2766 531 
Q 2569 213 2275 61 
Q 1981 -91 1556 -91 
Q 1019 -91 701 211 
Q 384 513 384 1019 
Q 384 1609 779 1909 
Q 1175 2209 1959 2209 
L 2766 2209 
L 2766 2266 
Q 2766 2663 2505 2880 
Q 2244 3097 1772 3097 
Q 1472 3097 1187 3025 
Q 903 2953 641 2809 
L 641 3341 
Q 956 3463 1253 3523 
Q 1550 3584 1831 3584 
Q 2591 3584 2966 3190 
Q 3341 2797 3341 1997 
z
" transform="scale(0.015625)"/>
       <path id="DejaVuSans-6e" d="M 3513 2113 
L 3513 0 
L 2938 0 
L 2938 2094 
Q 2938 2591 2744 2837 
Q 2550 3084 2163 3084 
Q 1697 3084 1428 2787 
Q 1159 2491 1159 1978 
L 1159 0 
L 581 0 
L 581 3500 
L 1159 3500 
L 1159 2956 
Q 1366 3272 1645 3428 
Q 1925 3584 2291 3584 
Q 2894 3584 3203 3211 
Q 3513 2838 3513 2113 
z
" transform="scale(0.015625)"/>
       <path id="DejaVuSans-73" d="M 2834 3397 
L 2834 2853 
Q 2591 2978 2328 3040 
Q 2066 3103 1784 3103 
Q 1356 3103 1142 2972 
Q 928 2841 928 2578 
Q 928 2378 1081 2264 
Q 1234 2150 1697 2047 
L 1894 2003 
Q 2506 1872 2764 1633 
Q 3022 1394 3022 966 
Q 3022 478 2636 193 
Q 2250 -91 1575 -91 
Q 1294 -91 989 -36 
Q 684 19 347 128 
L 347 722 
Q 666 556 975 473 
Q 1284 391 1588 391 
Q 1994 391 2212 530 
Q 2431 669 2431 922 
Q 2431 1156 2273 1281 
Q 2116 1406 1581 1522 
L 1381 1569 
Q 847 1681 609 1914 
Q 372 2147 372 2553 
Q 372 3047 722 3315 
Q 1072 3584 1716 3584 
Q 2034 3584 2315 3537 
Q 2597 3491 2834 3397 
z
" transform="scale(0.015625)"/>
      </defs>
      <use xlink:href="#DejaVuSans-4e"/>
      <use xlink:href="#DejaVuSans-75" x="74.804688"/>
      <use xlink:href="#DejaVuSans-6d" x="138.183594"/>
      <use xlink:href="#DejaVuSans-62" x="235.595703"/>
      <use xlink:href="#DejaVuSans-65" x="299.072266"/>
      <use xlink:href="#DejaVuSans-72" x="360.595703"/>
      <use xlink:href="#DejaVuSans-20" x="401.708984"/>
      <use xlink:href="#DejaVuSans-6f" x="433.496094"/>
      <use xlink:href="#DejaVuSans-66" x="494.677734"/>
      <use xlink:href="#DejaVuSans-20" x="529.882812"/>
      <use xlink:href="#DejaVuSans-69" x="561.669922"/>
      <use xlink:href="#DejaVuSans-74" x="589.453125"/>
      <use xlink:href="#DejaVuSans-65" x="628.662109"/>
      <use xlink:href="#DejaVuSans-72" x="690.185547"/>
      <use xlink:href="#DejaVuSans-61" x="731.298828"/>
      <use xlink:href="#DejaVuSans-74" x="792.578125"/>
      <use xlink:href="#DejaVuSans-69" x="831.787109"/>
      <use xlink:href="#DejaVuSans-6f" x="859.570312"/>
      <use xlink:href="#DejaVuSans-6e" x="920.751953"/>
      <use xlink:href="#DejaVuSans-73" x="984.130859"/>
     </g>
    </g>
   </g>
   <g id="matplotlib.axis_2">
    <g id="ytick_1">
     <g id="line2d_7">
      <defs>
       <path id="me4a3468f4f" d="M 0 0 
L -3.5 0 
" style="stroke: #000000; stroke-width: 0.8"/>
      </defs>
      <g>
       <use xlink:href="#me4a3468f4f" x="72" y="359.422372" style="stroke: #000000; stroke-width: 0.8"/>
      </g>
     </g>
     <g id="text_8">
      <!-- $\mathdefault{10^{-4}}$ -->
      <g transform="translate(41.5 363.221591)scale(0.1 -0.1)">
       <defs>
        <path id="DejaVuSans-2212" d="M 678 2272 
L 4684 2272 
L 4684 1741 
L 678 1741 
L 678 2272 
z
" transform="scale(0.015625)"/>
       </defs>
       <use xlink:href="#DejaVuSans-31" transform="translate(0 0.684375)"/>
       <use xlink:href="#DejaVuSans-30" transform="translate(63.623047 0.684375)"/>
       <use xlink:href="#DejaVuSans-2212" transform="translate(128.203125 38.965625)scale(0.7)"/>
       <use xlink:href="#DejaVuSans-34" transform="translate(186.855469 38.965625)scale(0.7)"/>
      </g>
     </g>
    </g>
    <g id="ytick_2">
     <g id="line2d_8">
      <g>
       <use xlink:href="#me4a3468f4f" x="72" y="319.472893" style="stroke: #000000; stroke-width: 0.8"/>
      </g>
     </g>
     <g id="text_9">
      <!-- $\mathdefault{10^{-2}}$ -->
      <g transform="translate(41.5 323.272112)scale(0.1 -0.1)">
       <use xlink:href="#DejaVuSans-31" transform="translate(0 0.765625)"/>
       <use xlink:href="#DejaVuSans-30" transform="translate(63.623047 0.765625)"/>
       <use xlink:href="#DejaVuSans-2212" transform="translate(128.203125 39.046875)scale(0.7)"/>
       <use xlink:href="#DejaVuSans-32" transform="translate(186.855469 39.046875)scale(0.7)"/>
      </g>
     </g>
    </g>
    <g id="ytick_3">
     <g id="line2d_9">
      <g>
       <use xlink:href="#me4a3468f4f" x="72" y="279.523414" style="stroke: #000000; stroke-width: 0.8"/>
      </g>
     </g>
     <g id="text_10">
      <!-- $\mathdefault{10^{0}}$ -->
      <g transform="translate(47.4 283.322633)scale(0.1 -0.1)">
       <use xlink:href="#DejaVuSans-31" transform="translate(0 0.765625)"/>
       <use xlink:href="#DejaVuSans-30" transform="translate(63.623047 0.765625)"/>
       <use xlink:href="#DejaVuSans-30" transform="translate(128.203125 39.046875)scale(0.7)"/>
      </g>
     </g>
    </g>
    <g id="ytick_4">
     <g id="line2d_10">
      <g>
       <use xlink:href="#me4a3468f4f" x="72" y="239.573935" style="stroke: #000000; stroke-width: 0.8"/>
      </g>
     </g>
     <g id="text_11">
      <!-- $\mathdefault{10^{2}}$ -->
      <g transform="translate(47.4 243.373153)scale(0.1 -0.1)">
       <use xlink:href="#DejaVuSans-31" transform="translate(0 0.765625)"/>
       <use xlink:href="#DejaVuSans-30" transform="translate(63.623047 0.765625)"/>
       <use xlink:href="#DejaVuSans-32" transform="translate(128.203125 39.046875)scale(0.7)"/>
      </g>
     </g>
    </g>
    <g id="ytick_5">
     <g id="line2d_11">
      <g>
       <use xlink:href="#me4a3468f4f" x="72" y="199.624456" style="stroke: #000000; stroke-width: 0.8"/>
      </g>
     </g>
     <g id="text_12">
      <!-- $\mathdefault{10^{4}}$ -->
      <g transform="translate(47.4 203.423674)scale(0.1 -0.1)">
       <use xlink:href="#DejaVuSans-31" transform="translate(0 0.684375)"/>
       <use xlink:href="#DejaVuSans-30" transform="translate(63.623047 0.684375)"/>
       <use xlink:href="#DejaVuSans-34" transform="translate(128.203125 38.965625)scale(0.7)"/>
      </g>
     </g>
    </g>
    <g id="ytick_6">
     <g id="line2d_12">
      <g>
       <use xlink:href="#me4a3468f4f" x="72" y="159.674976" style="stroke: #000000; stroke-width: 0.8"/>
      </g>
     </g>
     <g id="text_13">
      <!-- $\mathdefault{10^{6}}$ -->
      <g transform="translate(47.4 163.474195)scale(0.1 -0.1)">
       <use xlink:href="#DejaVuSans-31" transform="translate(0 0.765625)"/>
       <use xlink:href="#DejaVuSans-30" transform="translate(63.623047 0.765625)"/>
       <use xlink:href="#DejaVuSans-36" transform="translate(128.203125 39.046875)scale(0.7)"/>
      </g>
     </g>
    </g>
    <g id="ytick_7">
     <g id="line2d_13">
      <g>
       <use xlink:href="#me4a3468f4f" x="72" y="119.725497" style="stroke: #000000; stroke-width: 0.8"/>
      </g>
     </g>
     <g id="text_14">
      <!-- $\mathdefault{10^{8}}$ -->
      <g transform="translate(47.4 123.524716)scale(0.1 -0.1)">
       <use xlink:href="#DejaVuSans-31" transform="translate(0 0.765625)"/>
       <use xlink:href="#DejaVuSans-30" transform="translate(63.623047 0.765625)"/>
       <use xlink:href="#DejaVuSans-38" transform="translate(128.203125 39.046875)scale(0.7)"/>
      </g>
     </g>
    </g>
    <g id="ytick_8">
     <g id="line2d_14">
      <g>
       <use xlink:href="#me4a3468f4f" x="72" y="79.776018" style="stroke: #000000; stroke-width: 0.8"/>
      </g>
     </g>
     <g id="text_15">
      <!-- $\mathdefault{10^{10}}$ -->
      <g transform="translate(42.9 83.575237)scale(0.1 -0.1)">
       <use xlink:href="#DejaVuSans-31" transform="translate(0 0.765625)"/>
       <use xlink:href="#DejaVuSans-30" transform="translate(63.623047 0.765625)"/>
       <use xlink:href="#DejaVuSans-31" transform="translate(128.203125 39.046875)scale(0.7)"/>
       <use xlink:href="#DejaVuSans-30" transform="translate(172.739258 39.046875)scale(0.7)"/>
      </g>
     </g>
    </g>
    <g id="text_16">
     <!-- Norm of the residuals -->
     <g transform="translate(35.420312 272.004531)rotate(-90)scale(0.1 -0.1)">
      <defs>
       <path id="DejaVuSans-68" d="M 3513 2113 
L 3513 0 
L 2938 0 
L 2938 2094 
Q 2938 2591 2744 2837 
Q 2550 3084 2163 3084 
Q 1697 3084 1428 2787 
Q 1159 2491 1159 1978 
L 1159 0 
L 581 0 
L 581 4863 
L 1159 4863 
L 1159 2956 
Q 1366 3272 1645 3428 
Q 1925 3584 2291 3584 
Q 2894 3584 3203 3211 
Q 3513 2838 3513 2113 
z
" transform="scale(0.015625)"/>
       <path id="DejaVuSans-64" d="M 2906 2969 
L 2906 4863 
L 3481 4863 
L 3481 0 
L 2906 0 
L 2906 525 
Q 2725 213 2448 61 
Q 2172 -91 1784 -91 
Q 1150 -91 751 415 
Q 353 922 353 1747 
Q 353 2572 751 3078 
Q 1150 3584 1784 3584 
Q 2172 3584 2448 3432 
Q 2725 3281 2906 2969 
z
M 947 1747 
Q 947 1113 1208 752 
Q 1469 391 1925 391 
Q 2381 391 2643 752 
Q 2906 1113 2906 1747 
Q 2906 2381 2643 2742 
Q 2381 3103 1925 3103 
Q 1469 3103 1208 2742 
Q 947 2381 947 1747 
z
" transform="scale(0.015625)"/>
       <path id="DejaVuSans-6c" d="M 603 4863 
L 1178 4863 
L 1178 0 
L 603 0 
L 603 4863 
z
" transform="scale(0.015625)"/>
      </defs>
      <use xlink:href="#DejaVuSans-4e"/>
      <use xlink:href="#DejaVuSans-6f" x="74.804688"/>
      <use xlink:href="#DejaVuSans-72" x="135.986328"/>
      <use xlink:href="#DejaVuSans-6d" x="175.349609"/>
      <use xlink:href="#DejaVuSans-20" x="272.761719"/>
      <use xlink:href="#DejaVuSans-6f" x="304.548828"/>
      <use xlink:href="#DejaVuSans-66" x="365.730469"/>
      <use xlink:href="#DejaVuSans-20" x="400.935547"/>
      <use xlink:href="#DejaVuSans-74" x="432.722656"/>
      <use xlink:href="#DejaVuSans-68" x="471.931641"/>
      <use xlink:href="#DejaVuSans-65" x="535.310547"/>
      <use xlink:href="#DejaVuSans-20" x="596.833984"/>
      <use xlink:href="#DejaVuSans-72" x="628.621094"/>
      <use xlink:href="#DejaVuSans-65" x="667.484375"/>
      <use xlink:href="#DejaVuSans-73" x="729.007812"/>
      <use xlink:href="#DejaVuSans-69" x="781.107422"/>
      <use xlink:href="#DejaVuSans-64" x="808.890625"/>
      <use xlink:href="#DejaVuSans-75" x="872.367188"/>
      <use xlink:href="#DejaVuSans-61" x="935.746094"/>
      <use xlink:href="#DejaVuSans-6c" x="997.025391"/>
      <use xlink:href="#DejaVuSans-73" x="1024.808594"/>
     </g>
    </g>
   </g>
   <g id="line2d_15">
    <path d="M 92.290909 66.96 
L 96.349091 78.229874 
L 100.407273 82.397707 
L 104.465455 86.908589 
L 108.523636 90.777457 
L 112.581818 90.547329 
L 116.64 93.227913 
L 120.698182 95.597755 
L 124.756364 96.854303 
L 128.814545 100.057788 
L 132.872727 99.343247 
L 136.930909 103.025867 
L 140.989091 105.688864 
L 145.047273 105.905341 
L 149.105455 105.916491 
L 153.163636 108.118188 
L 157.221818 109.932843 
L 161.28 112.636374 
L 165.338182 113.845418 
L 169.396364 113.379702 
L 173.454545 117.05608 
L 177.512727 116.841415 
L 181.570909 117.336154 
L 185.629091 111.809078 
L 189.687273 121.025982 
L 193.745455 119.094821 
L 197.803636 113.45524 
L 201.861818 120.372955 
L 205.92 121.974871 
L 209.978182 114.200622 
L 214.036364 124.976727 
L 218.094545 123.407036 
L 222.152727 123.629873 
L 226.210909 125.106165 
L 230.269091 121.363706 
L 234.327273 121.446592 
L 238.385455 128.256919 
L 242.443636 117.626401 
L 246.501818 130.28413 
L 250.56 123.824658 
L 254.618182 129.594985 
L 258.676364 128.501172 
L 262.734545 123.621099 
L 266.792727 118.691529 
L 270.850909 132.144338 
L 274.909091 131.333471 
L 278.967273 120.460058 
L 283.025455 123.126023 
L 287.083636 133.977344 
L 291.141818 125.535882 
L 295.2 126.699742 
L 299.258182 124.41913 
L 303.316364 120.532905 
L 307.374545 132.918787 
L 311.432727 134.700301 
L 315.490909 125.142676 
L 319.549091 137.377767 
L 323.607273 127.973046 
L 327.665455 128.282693 
L 331.723636 123.036526 
L 335.781818 134.072151 
L 339.84 134.433521 
L 343.898182 124.149131 
L 347.956364 126.69728 
L 352.014545 138.412879 
L 356.072727 132.211432 
L 360.130909 127.576377 
L 364.189091 129.010524 
L 368.247273 141.935825 
L 372.305455 140.761073 
L 376.363636 137.190098 
L 380.421818 129.103878 
L 384.48 132.806484 
L 388.538182 128.542998 
L 392.596364 138.690205 
L 396.654545 143.975179 
L 400.712727 136.131507 
L 404.770909 141.78924 
L 408.829091 140.513409 
L 412.887273 144.212227 
L 416.945455 136.234038 
L 421.003636 142.953985 
L 425.061818 137.31234 
L 429.12 143.695796 
L 433.178182 132.579509 
L 437.236364 132.612171 
L 441.294545 138.579613 
L 445.352727 142.282897 
L 449.410909 144.294751 
L 453.469091 148.738278 
L 457.527273 132.086294 
L 461.585455 141.361385 
L 465.643636 137.442358 
L 469.701818 146.515094 
L 473.76 142.323026 
L 477.818182 133.43259 
L 481.876364 135.098887 
L 485.934545 137.333811 
L 489.992727 140.768343 
L 494.050909 142.866735 
L 498.109091 147.344149 
" clip-path="url(#pd192dfc38f)" style="fill: none; stroke: #1f77b4; stroke-width: 1.5; stroke-linecap: square"/>
    <defs>
     <path id="m51e60ff713" d="M -0 3 
L 3 -3 
L -3 -3 
z
" style="stroke: #1f77b4; stroke-linejoin: miter"/>
    </defs>
    <g clip-path="url(#pd192dfc38f)">
     <use xlink:href="#m51e60ff713" x="92.290909" y="66.96" style="fill: #1f77b4; stroke: #1f77b4; stroke-linejoin: miter"/>
     <use xlink:href="#m51e60ff713" x="96.349091" y="78.229874" style="fill: #1f77b4; stroke: #1f77b4; stroke-linejoin: miter"/>
     <use xlink:href="#m51e60ff713" x="100.407273" y="82.397707" style="fill: #1f77b4; stroke: #1f77b4; stroke-linejoin: miter"/>
     <use xlink:href="#m51e60ff713" x="104.465455" y="86.908589" style="fill: #1f77b4; stroke: #1f77b4; stroke-linejoin: miter"/>
     <use xlink:href="#m51e60ff713" x="108.523636" y="90.777457" style="fill: #1f77b4; stroke: #1f77b4; stroke-linejoin: miter"/>
     <use xlink:href="#m51e60ff713" x="112.581818" y="90.547329" style="fill: #1f77b4; stroke: #1f77b4; stroke-linejoin: miter"/>
     <use xlink:href="#m51e60ff713" x="116.64" y="93.227913" style="fill: #1f77b4; stroke: #1f77b4; stroke-linejoin: miter"/>
     <use xlink:href="#m51e60ff713" x="120.698182" y="95.597755" style="fill: #1f77b4; stroke: #1f77b4; stroke-linejoin: miter"/>
     <use xlink:href="#m51e60ff713" x="124.756364" y="96.854303" style="fill: #1f77b4; stroke: #1f77b4; stroke-linejoin: miter"/>
     <use xlink:href="#m51e60ff713" x="128.814545" y="100.057788" style="fill: #1f77b4; stroke: #1f77b4; stroke-linejoin: miter"/>
     <use xlink:href="#m51e60ff713" x="132.872727" y="99.343247" style="fill: #1f77b4; stroke: #1f77b4; stroke-linejoin: miter"/>
     <use xlink:href="#m51e60ff713" x="136.930909" y="103.025867" style="fill: #1f77b4; stroke: #1f77b4; stroke-linejoin: miter"/>
     <use xlink:href="#m51e60ff713" x="140.989091" y="105.688864" style="fill: #1f77b4; stroke: #1f77b4; stroke-linejoin: miter"/>
     <use xlink:href="#m51e60ff713" x="145.047273" y="105.905341" style="fill: #1f77b4; stroke: #1f77b4; stroke-linejoin: miter"/>
     <use xlink:href="#m51e60ff713" x="149.105455" y="105.916491" style="fill: #1f77b4; stroke: #1f77b4; stroke-linejoin: miter"/>
     <use xlink:href="#m51e60ff713" x="153.163636" y="108.118188" style="fill: #1f77b4; stroke: #1f77b4; stroke-linejoin: miter"/>
     <use xlink:href="#m51e60ff713" x="157.221818" y="109.932843" style="fill: #1f77b4; stroke: #1f77b4; stroke-linejoin: miter"/>
     <use xlink:href="#m51e60ff713" x="161.28" y="112.636374" style="fill: #1f77b4; stroke: #1f77b4; stroke-linejoin: miter"/>
     <use xlink:href="#m51e60ff713" x="165.338182" y="113.845418" style="fill: #1f77b4; stroke: #1f77b4; stroke-linejoin: miter"/>
     <use xlink:href="#m51e60ff713" x="169.396364" y="113.379702" style="fill: #1f77b4; stroke: #1f77b4; stroke-linejoin: miter"/>
     <use xlink:href="#m51e60ff713" x="173.454545" y="117.05608" style="fill: #1f77b4; stroke: #1f77b4; stroke-linejoin: miter"/>
     <use xlink:href="#m51e60ff713" x="177.512727" y="116.841415" style="fill: #1f77b4; stroke: #1f77b4; stroke-linejoin: miter"/>
     <use xlink:href="#m51e60ff713" x="181.570909" y="117.336154" style="fill: #1f77b4; stroke: #1f77b4; stroke-linejoin: miter"/>
     <use xlink:href="#m51e60ff713" x="185.629091" y="111.809078" style="fill: #1f77b4; stroke: #1f77b4; stroke-linejoin: miter"/>
     <use xlink:href="#m51e60ff713" x="189.687273" y="121.025982" style="fill: #1f77b4; stroke: #1f77b4; stroke-linejoin: miter"/>
     <use xlink:href="#m51e60ff713" x="193.745455" y="119.094821" style="fill: #1f77b4; stroke: #1f77b4; stroke-linejoin: miter"/>
     <use xlink:href="#m51e60ff713" x="197.803636" y="113.45524" style="fill: #1f77b4; stroke: #1f77b4; stroke-linejoin: miter"/>
     <use xlink:href="#m51e60ff713" x="201.861818" y="120.372955" style="fill: #1f77b4; stroke: #1f77b4; stroke-linejoin: miter"/>
     <use xlink:href="#m51e60ff713" x="205.92" y="121.974871" style="fill: #1f77b4; stroke: #1f77b4; stroke-linejoin: miter"/>
     <use xlink:href="#m51e60ff713" x="209.978182" y="114.200622" style="fill: #1f77b4; stroke: #1f77b4; stroke-linejoin: miter"/>
     <use xlink:href="#m51e60ff713" x="214.036364" y="124.976727" style="fill: #1f77b4; stroke: #1f77b4; stroke-linejoin: miter"/>
     <use xlink:href="#m51e60ff713" x="218.094545" y="123.407036" style="fill: #1f77b4; stroke: #1f77b4; stroke-linejoin: miter"/>
     <use xlink:href="#m51e60ff713" x="222.152727" y="123.629873" style="fill: #1f77b4; stroke: #1f77b4; stroke-linejoin: miter"/>
     <use xlink:href="#m51e60ff713" x="226.210909" y="125.106165" style="fill: #1f77b4; stroke: #1f77b4; stroke-linejoin: miter"/>
     <use xlink:href="#m51e60ff713" x="230.269091" y="121.363706" style="fill: #1f77b4; stroke: #1f77b4; stroke-linejoin: miter"/>
     <use xlink:href="#m51e60ff713" x="234.327273" y="121.446592" style="fill: #1f77b4; stroke: #1f77b4; stroke-linejoin: miter"/>
     <use xlink:href="#m51e60ff713" x="238.385455" y="128.256919" style="fill: #1f77b4; stroke: #1f77b4; stroke-linejoin: miter"/>
     <use xlink:href="#m51e60ff713" x="242.443636" y="117.626401" style="fill: #1f77b4; stroke: #1f77b4; stroke-linejoin: miter"/>
     <use xlink:href="#m51e60ff713" x="246.501818" y="130.28413" style="fill: #1f77b4; stroke: #1f77b4; stroke-linejoin: miter"/>
     <use xlink:href="#m51e60ff713" x="250.56" y="123.824658" style="fill: #1f77b4; stroke: #1f77b4; stroke-linejoin: miter"/>
     <use xlink:href="#m51e60ff713" x="254.618182" y="129.594985" style="fill: #1f77b4; stroke: #1f77b4; stroke-linejoin: miter"/>
     <use xlink:href="#m51e60ff713" x="258.676364" y="128.501172" style="fill: #1f77b4; stroke: #1f77b4; stroke-linejoin: miter"/>
     <use xlink:href="#m51e60ff713" x="262.734545" y="123.621099" style="fill: #1f77b4; stroke: #1f77b4; stroke-linejoin: miter"/>
     <use xlink:href="#m51e60ff713" x="266.792727" y="118.691529" style="fill: #1f77b4; stroke: #1f77b4; stroke-linejoin: miter"/>
     <use xlink:href="#m51e60ff713" x="270.850909" y="132.144338" style="fill: #1f77b4; stroke: #1f77b4; stroke-linejoin: miter"/>
     <use xlink:href="#m51e60ff713" x="274.909091" y="131.333471" style="fill: #1f77b4; stroke: #1f77b4; stroke-linejoin: miter"/>
     <use xlink:href="#m51e60ff713" x="278.967273" y="120.460058" style="fill: #1f77b4; stroke: #1f77b4; stroke-linejoin: miter"/>
     <use xlink:href="#m51e60ff713" x="283.025455" y="123.126023" style="fill: #1f77b4; stroke: #1f77b4; stroke-linejoin: miter"/>
     <use xlink:href="#m51e60ff713" x="287.083636" y="133.977344" style="fill: #1f77b4; stroke: #1f77b4; stroke-linejoin: miter"/>
     <use xlink:href="#m51e60ff713" x="291.141818" y="125.535882" style="fill: #1f77b4; stroke: #1f77b4; stroke-linejoin: miter"/>
     <use xlink:href="#m51e60ff713" x="295.2" y="126.699742" style="fill: #1f77b4; stroke: #1f77b4; stroke-linejoin: miter"/>
     <use xlink:href="#m51e60ff713" x="299.258182" y="124.41913" style="fill: #1f77b4; stroke: #1f77b4; stroke-linejoin: miter"/>
     <use xlink:href="#m51e60ff713" x="303.316364" y="120.532905" style="fill: #1f77b4; stroke: #1f77b4; stroke-linejoin: miter"/>
     <use xlink:href="#m51e60ff713" x="307.374545" y="132.918787" style="fill: #1f77b4; stroke: #1f77b4; stroke-linejoin: miter"/>
     <use xlink:href="#m51e60ff713" x="311.432727" y="134.700301" style="fill: #1f77b4; stroke: #1f77b4; stroke-linejoin: miter"/>
     <use xlink:href="#m51e60ff713" x="315.490909" y="125.142676" style="fill: #1f77b4; stroke: #1f77b4; stroke-linejoin: miter"/>
     <use xlink:href="#m51e60ff713" x="319.549091" y="137.377767" style="fill: #1f77b4; stroke: #1f77b4; stroke-linejoin: miter"/>
     <use xlink:href="#m51e60ff713" x="323.607273" y="127.973046" style="fill: #1f77b4; stroke: #1f77b4; stroke-linejoin: miter"/>
     <use xlink:href="#m51e60ff713" x="327.665455" y="128.282693" style="fill: #1f77b4; stroke: #1f77b4; stroke-linejoin: miter"/>
     <use xlink:href="#m51e60ff713" x="331.723636" y="123.036526" style="fill: #1f77b4; stroke: #1f77b4; stroke-linejoin: miter"/>
     <use xlink:href="#m51e60ff713" x="335.781818" y="134.072151" style="fill: #1f77b4; stroke: #1f77b4; stroke-linejoin: miter"/>
     <use xlink:href="#m51e60ff713" x="339.84" y="134.433521" style="fill: #1f77b4; stroke: #1f77b4; stroke-linejoin: miter"/>
     <use xlink:href="#m51e60ff713" x="343.898182" y="124.149131" style="fill: #1f77b4; stroke: #1f77b4; stroke-linejoin: miter"/>
     <use xlink:href="#m51e60ff713" x="347.956364" y="126.69728" style="fill: #1f77b4; stroke: #1f77b4; stroke-linejoin: miter"/>
     <use xlink:href="#m51e60ff713" x="352.014545" y="138.412879" style="fill: #1f77b4; stroke: #1f77b4; stroke-linejoin: miter"/>
     <use xlink:href="#m51e60ff713" x="356.072727" y="132.211432" style="fill: #1f77b4; stroke: #1f77b4; stroke-linejoin: miter"/>
     <use xlink:href="#m51e60ff713" x="360.130909" y="127.576377" style="fill: #1f77b4; stroke: #1f77b4; stroke-linejoin: miter"/>
     <use xlink:href="#m51e60ff713" x="364.189091" y="129.010524" style="fill: #1f77b4; stroke: #1f77b4; stroke-linejoin: miter"/>
     <use xlink:href="#m51e60ff713" x="368.247273" y="141.935825" style="fill: #1f77b4; stroke: #1f77b4; stroke-linejoin: miter"/>
     <use xlink:href="#m51e60ff713" x="372.305455" y="140.761073" style="fill: #1f77b4; stroke: #1f77b4; stroke-linejoin: miter"/>
     <use xlink:href="#m51e60ff713" x="376.363636" y="137.190098" style="fill: #1f77b4; stroke: #1f77b4; stroke-linejoin: miter"/>
     <use xlink:href="#m51e60ff713" x="380.421818" y="129.103878" style="fill: #1f77b4; stroke: #1f77b4; stroke-linejoin: miter"/>
     <use xlink:href="#m51e60ff713" x="384.48" y="132.806484" style="fill: #1f77b4; stroke: #1f77b4; stroke-linejoin: miter"/>
     <use xlink:href="#m51e60ff713" x="388.538182" y="128.542998" style="fill: #1f77b4; stroke: #1f77b4; stroke-linejoin: miter"/>
     <use xlink:href="#m51e60ff713" x="392.596364" y="138.690205" style="fill: #1f77b4; stroke: #1f77b4; stroke-linejoin: miter"/>
     <use xlink:href="#m51e60ff713" x="396.654545" y="143.975179" style="fill: #1f77b4; stroke: #1f77b4; stroke-linejoin: miter"/>
     <use xlink:href="#m51e60ff713" x="400.712727" y="136.131507" style="fill: #1f77b4; stroke: #1f77b4; stroke-linejoin: miter"/>
     <use xlink:href="#m51e60ff713" x="404.770909" y="141.78924" style="fill: #1f77b4; stroke: #1f77b4; stroke-linejoin: miter"/>
     <use xlink:href="#m51e60ff713" x="408.829091" y="140.513409" style="fill: #1f77b4; stroke: #1f77b4; stroke-linejoin: miter"/>
     <use xlink:href="#m51e60ff713" x="412.887273" y="144.212227" style="fill: #1f77b4; stroke: #1f77b4; stroke-linejoin: miter"/>
     <use xlink:href="#m51e60ff713" x="416.945455" y="136.234038" style="fill: #1f77b4; stroke: #1f77b4; stroke-linejoin: miter"/>
     <use xlink:href="#m51e60ff713" x="421.003636" y="142.953985" style="fill: #1f77b4; stroke: #1f77b4; stroke-linejoin: miter"/>
     <use xlink:href="#m51e60ff713" x="425.061818" y="137.31234" style="fill: #1f77b4; stroke: #1f77b4; stroke-linejoin: miter"/>
     <use xlink:href="#m51e60ff713" x="429.12" y="143.695796" style="fill: #1f77b4; stroke: #1f77b4; stroke-linejoin: miter"/>
     <use xlink:href="#m51e60ff713" x="433.178182" y="132.579509" style="fill: #1f77b4; stroke: #1f77b4; stroke-linejoin: miter"/>
     <use xlink:href="#m51e60ff713" x="437.236364" y="132.612171" style="fill: #1f77b4; stroke: #1f77b4; stroke-linejoin: miter"/>
     <use xlink:href="#m51e60ff713" x="441.294545" y="138.579613" style="fill: #1f77b4; stroke: #1f77b4; stroke-linejoin: miter"/>
     <use xlink:href="#m51e60ff713" x="445.352727" y="142.282897" style="fill: #1f77b4; stroke: #1f77b4; stroke-linejoin: miter"/>
     <use xlink:href="#m51e60ff713" x="449.410909" y="144.294751" style="fill: #1f77b4; stroke: #1f77b4; stroke-linejoin: miter"/>
     <use xlink:href="#m51e60ff713" x="453.469091" y="148.738278" style="fill: #1f77b4; stroke: #1f77b4; stroke-linejoin: miter"/>
     <use xlink:href="#m51e60ff713" x="457.527273" y="132.086294" style="fill: #1f77b4; stroke: #1f77b4; stroke-linejoin: miter"/>
     <use xlink:href="#m51e60ff713" x="461.585455" y="141.361385" style="fill: #1f77b4; stroke: #1f77b4; stroke-linejoin: miter"/>
     <use xlink:href="#m51e60ff713" x="465.643636" y="137.442358" style="fill: #1f77b4; stroke: #1f77b4; stroke-linejoin: miter"/>
     <use xlink:href="#m51e60ff713" x="469.701818" y="146.515094" style="fill: #1f77b4; stroke: #1f77b4; stroke-linejoin: miter"/>
     <use xlink:href="#m51e60ff713" x="473.76" y="142.323026" style="fill: #1f77b4; stroke: #1f77b4; stroke-linejoin: miter"/>
     <use xlink:href="#m51e60ff713" x="477.818182" y="133.43259" style="fill: #1f77b4; stroke: #1f77b4; stroke-linejoin: miter"/>
     <use xlink:href="#m51e60ff713" x="481.876364" y="135.098887" style="fill: #1f77b4; stroke: #1f77b4; stroke-linejoin: miter"/>
     <use xlink:href="#m51e60ff713" x="485.934545" y="137.333811" style="fill: #1f77b4; stroke: #1f77b4; stroke-linejoin: miter"/>
     <use xlink:href="#m51e60ff713" x="489.992727" y="140.768343" style="fill: #1f77b4; stroke: #1f77b4; stroke-linejoin: miter"/>
     <use xlink:href="#m51e60ff713" x="494.050909" y="142.866735" style="fill: #1f77b4; stroke: #1f77b4; stroke-linejoin: miter"/>
     <use xlink:href="#m51e60ff713" x="498.109091" y="147.344149" style="fill: #1f77b4; stroke: #1f77b4; stroke-linejoin: miter"/>
    </g>
   </g>
   <g id="line2d_16">
    <path d="M 92.290909 66.96 
L 96.349091 78.541151 
L 100.407273 83.891132 
L 104.465455 88.663628 
L 108.523636 92.854556 
L 112.581818 94.859075 
L 116.64 97.126222 
L 120.698182 99.435467 
L 124.756364 101.340617 
L 128.814545 103.752954 
L 132.872727 105.092402 
L 136.930909 107.187558 
L 140.989091 109.509119 
L 145.047273 111.077708 
L 149.105455 112.229848 
L 153.163636 113.6505 
L 157.221818 115.184846 
L 161.28 117.101645 
L 165.338182 118.778678 
L 169.396364 119.876509 
L 173.454545 121.698112 
L 177.512727 122.923509 
L 181.570909 124.065704 
L 185.629091 125.822605 
L 189.687273 126.728249 
L 193.745455 127.631535 
L 197.803636 128.850629 
L 201.861818 130.209047 
L 205.92 131.58619 
L 209.978182 132.446611 
L 214.036364 133.126633 
L 218.094545 134.264213 
L 222.152727 135.808678 
L 226.210909 136.785302 
L 230.269091 137.705092 
L 234.327273 138.516749 
L 238.385455 139.438697 
L 242.443636 140.507892 
L 246.501818 140.980371 
L 250.56 142.350014 
L 254.618182 143.749009 
L 258.676364 144.533308 
L 262.734545 145.700226 
L 266.792727 148.402039 
L 270.850909 149.830088 
L 274.909091 151.097102 
L 278.967273 152.748625 
L 283.025455 154.65148 
L 287.083636 155.969453 
L 291.141818 157.418129 
L 295.2 158.56086 
L 299.258182 160.187515 
L 303.316364 160.857722 
L 307.374545 162.565936 
L 311.432727 163.495153 
L 315.490909 164.578165 
L 319.549091 166.197024 
L 323.607273 168.300491 
L 327.665455 169.141698 
L 331.723636 170.210722 
L 335.781818 171.607623 
L 339.84 172.866598 
L 343.898182 174.811764 
L 347.956364 177.558655 
L 352.014545 178.662332 
L 356.072727 179.822049 
L 360.130909 180.669357 
L 364.189091 181.919093 
L 368.247273 183.067625 
L 372.305455 184.626861 
L 376.363636 186.053187 
L 380.421818 187.732666 
L 384.48 189.095481 
L 388.538182 189.769158 
L 392.596364 190.732203 
L 396.654545 192.056841 
L 400.712727 192.756069 
L 404.770909 194.157102 
L 408.829091 197.027722 
L 412.887273 201.464268 
L 416.945455 207.186865 
L 421.003636 209.517338 
L 425.061818 210.949133 
L 429.12 215.59625 
L 433.178182 218.348364 
L 437.236364 220.95923 
L 441.294545 227.798639 
L 445.352727 230.403497 
L 449.410909 235.729633 
L 453.469091 247.642196 
L 457.527273 250.173348 
L 461.585455 253.226802 
L 465.643636 255.979023 
L 469.701818 257.954306 
L 473.76 264.914732 
L 477.818182 271.832714 
L 481.876364 283.063491 
L 485.934545 296.075182 
L 489.992727 317.499792 
L 494.050909 328.366514 
L 498.109091 330.559183 
" clip-path="url(#pd192dfc38f)" style="fill: none; stroke: #ff7f0e; stroke-width: 1.5; stroke-linecap: square"/>
   </g>
   <g id="line2d_17">
    <path d="M 92.290909 66.96 
L 96.349091 74.686984 
L 100.407273 77.488505 
L 104.465455 80.982365 
L 108.523636 82.149755 
L 112.581818 83.04739 
L 116.64 85.923188 
L 120.698182 87.904268 
L 124.756364 88.857191 
L 128.814545 90.961919 
L 132.872727 92.596545 
L 136.930909 93.755651 
L 140.989091 95.244936 
L 145.047273 97.073143 
L 149.105455 98.036247 
L 153.163636 98.522614 
L 157.221818 99.620567 
L 161.28 100.853369 
L 165.338182 101.333871 
L 169.396364 102.415651 
L 173.454545 103.333575 
L 177.512727 104.398776 
L 181.570909 105.342619 
L 185.629091 106.808544 
L 189.687273 107.000454 
L 193.745455 107.675616 
L 197.803636 108.871443 
L 201.861818 110.203364 
L 205.92 111.282627 
L 209.978182 112.639958 
L 214.036364 113.523908 
L 218.094545 114.139586 
L 222.152727 116.227282 
L 226.210909 117.590013 
L 230.269091 119.332461 
L 234.327273 121.334164 
L 238.385455 124.039692 
L 242.443636 124.589851 
L 246.501818 125.649199 
L 250.56 127.764121 
L 254.618182 128.738826 
L 258.676364 129.59161 
L 262.734545 130.927168 
L 266.792727 132.627714 
L 270.850909 133.309984 
L 274.909091 134.665137 
L 278.967273 135.205465 
L 283.025455 136.375372 
L 287.083636 136.904173 
L 291.141818 137.863164 
L 295.2 139.0772 
L 299.258182 139.691421 
L 303.316364 140.440247 
L 307.374545 141.263386 
L 311.432727 142.167697 
L 315.490909 143.543335 
L 319.549091 146.547066 
L 323.607273 147.901627 
L 327.665455 150.265515 
L 331.723636 152.821771 
L 335.781818 154.506002 
L 339.84 156.462899 
L 343.898182 157.408823 
L 347.956364 158.156022 
L 352.014545 162.728181 
L 356.072727 164.353943 
L 360.130909 165.238245 
L 364.189091 167.148086 
L 368.247273 170.120127 
L 372.305455 171.675336 
L 376.363636 173.575605 
L 380.421818 175.818654 
L 384.48 176.879004 
L 388.538182 178.191188 
L 392.596364 179.259033 
L 396.654545 181.46687 
L 400.712727 182.420054 
L 404.770909 184.103067 
L 408.829091 187.840261 
L 412.887273 188.507855 
L 416.945455 189.452441 
L 421.003636 190.453703 
L 425.061818 200.78318 
L 429.12 203.167718 
L 433.178182 205.875016 
L 437.236364 208.984501 
L 441.294545 212.67247 
L 445.352727 219.251616 
L 449.410909 229.556264 
L 453.469091 230.145752 
L 457.527273 235.978648 
L 461.585455 244.581975 
L 465.643636 248.359114 
L 469.701818 252.617666 
L 473.76 253.63637 
L 477.818182 259.491541 
L 481.876364 263.83405 
L 485.934545 273.223936 
L 489.992727 293.560803 
L 494.050909 301.432103 
L 498.109091 365.610991 
" clip-path="url(#pd192dfc38f)" style="fill: none; stroke: #2ca02c; stroke-width: 1.5; stroke-linecap: square"/>
   </g>
   <g id="line2d_18">
    <path d="M 92.290909 66.96 
L 96.349091 78.229874 
L 100.407273 82.397707 
L 104.465455 86.908589 
L 108.523636 90.777457 
L 112.581818 90.547329 
L 116.64 93.227913 
L 120.698182 95.597755 
L 124.756364 96.854303 
L 128.814545 100.057788 
L 132.872727 99.343247 
L 136.930909 103.025867 
L 140.989091 105.688864 
L 145.047273 105.905341 
L 149.105455 105.916491 
L 153.163636 108.118188 
L 157.221818 109.932843 
L 161.28 112.636374 
L 165.338182 113.845418 
L 169.396364 113.379702 
L 173.454545 117.056081 
L 177.512727 116.842573 
L 181.570909 117.719499 
L 185.629091 121.05384 
L 189.687273 119.489115 
L 193.745455 120.382234 
L 197.803636 122.750329 
L 201.861818 124.511898 
L 205.92 125.939551 
L 209.978182 125.007136 
L 214.036364 124.754102 
L 218.094545 127.902655 
L 222.152727 130.580426 
L 226.210909 129.839244 
L 230.269091 130.526364 
L 234.327273 130.847807 
L 238.385455 132.269092 
L 242.443636 133.910164 
L 246.501818 131.129908 
L 250.56 136.68324 
L 254.618182 138.160311 
L 258.676364 136.728907 
L 262.734545 139.435091 
L 266.792727 145.067825 
L 270.850909 144.316806 
L 274.909091 145.141215 
L 278.967273 147.760823 
L 283.025455 150.161001 
L 287.083636 150.160383 
L 291.141818 151.957306 
L 295.2 152.216435 
L 299.258182 155.145555 
L 303.316364 152.426914 
L 307.374545 157.698002 
L 311.432727 156.356108 
L 315.490909 158.029509 
L 319.549091 161.13788 
L 323.607273 164.152152 
L 327.665455 161.613561 
L 331.723636 163.612385 
L 335.781818 166.013416 
L 339.84 166.886929 
L 343.898182 170.397079 
L 347.956364 174.276018 
L 352.014545 172.18576 
L 356.072727 173.533505 
L 360.130909 173.169614 
L 364.189091 175.911871 
L 368.247273 176.74239 
L 372.305455 179.432949 
L 376.363636 180.535482 
L 380.421818 182.804585 
L 384.48 183.410265 
L 388.538182 181.359059 
L 392.596364 183.731949 
L 396.654545 186.266488 
L 400.712727 184.494996 
L 404.770909 188.573756 
L 408.829091 193.880951 
L 412.887273 199.531424 
L 416.945455 205.837769 
L 421.003636 205.709641 
L 425.061818 205.445444 
L 429.12 213.7773 
L 433.178182 215.071629 
L 437.236364 217.517357 
L 441.294545 226.794665 
L 445.352727 226.954336 
L 449.410909 234.22637 
L 453.469091 247.354593 
L 457.527273 246.632925 
L 461.585455 250.266758 
L 465.643636 252.702407 
L 469.701818 253.592332 
L 473.76 263.941728 
L 477.818182 270.84898 
L 481.876364 282.725047 
L 485.934545 295.855186 
L 489.992727 317.689488 
L 494.050909 332.241847 
L 498.109091 367.451065 
" clip-path="url(#pd192dfc38f)" style="fill: none; stroke-dasharray: 5.55,2.4; stroke-dashoffset: 0; stroke: #d62728; stroke-width: 1.5"/>
   </g>
   <g id="line2d_19">
    <path d="M 92.290909 66.96 
L 96.349091 74.570916 
L 100.407273 77.083202 
L 104.465455 80.606029 
L 108.523636 81.065417 
L 112.581818 81.776253 
L 116.64 85.438948 
L 120.698182 87.551953 
L 124.756364 87.718616 
L 128.814545 90.348974 
L 132.872727 91.745352 
L 136.930909 92.400129 
L 140.989091 94.448458 
L 145.047273 96.469982 
L 149.105455 97.389932 
L 153.163636 97.183007 
L 157.221818 98.695145 
L 161.28 99.841831 
L 165.338182 99.951082 
L 169.396364 101.035933 
L 173.454545 102.36254 
L 177.512727 103.571842 
L 181.570909 104.485426 
L 185.629091 106.21874 
L 189.687273 105.311177 
L 193.745455 105.787645 
L 197.803636 107.725051 
L 201.861818 109.037238 
L 205.92 109.991118 
L 209.978182 111.962839 
L 214.036364 112.520955 
L 218.094545 111.833218 
L 222.152727 115.285412 
L 226.210909 116.480941 
L 230.269091 118.943416 
L 234.327273 120.532306 
L 238.385455 123.708536 
L 242.443636 123.316546 
L 246.501818 124.498953 
L 250.56 127.161792 
L 254.618182 127.325668 
L 258.676364 128.712946 
L 262.734545 129.744412 
L 266.792727 132.091362 
L 270.850909 132.584738 
L 274.909091 133.842851 
L 278.967273 133.806806 
L 283.025455 135.639644 
L 287.083636 136.11391 
L 291.141818 137.067 
L 295.2 138.215619 
L 299.258182 138.887125 
L 303.316364 138.773914 
L 307.374545 139.499416 
L 311.432727 140.185397 
L 315.490909 142.4421 
L 319.549091 145.998557 
L 323.607273 147.140743 
L 327.665455 149.11516 
L 331.723636 152.42539 
L 335.781818 153.974174 
L 339.84 155.880351 
L 343.898182 156.546019 
L 347.956364 157.209146 
L 352.014545 162.414381 
L 356.072727 164.097506 
L 360.130909 163.900812 
L 364.189091 165.997097 
L 368.247273 169.70495 
L 372.305455 170.314283 
L 376.363636 173.182465 
L 380.421818 175.392376 
L 384.48 176.3456 
L 388.538182 177.250702 
L 392.596364 178.541325 
L 396.654545 181.000426 
L 400.712727 181.576295 
L 404.770909 183.546326 
L 408.829091 187.700045 
L 412.887273 187.802335 
L 416.945455 188.53072 
L 421.003636 188.598855 
L 425.061818 200.694763 
L 429.12 202.896164 
L 433.178182 205.467219 
L 437.236364 208.273624 
L 441.294545 212.526405 
L 445.352727 219.067991 
L 449.410909 229.530607 
L 453.469091 228.903962 
L 457.527273 235.594366 
L 461.585455 244.51537 
L 465.643636 248.096116 
L 469.701818 252.545474 
L 473.76 253.077745 
L 477.818182 259.140744 
L 481.876364 263.383599 
L 485.934545 273.086348 
L 489.992727 293.551104 
L 494.050909 301.288141 
L 498.109091 369.36 
" clip-path="url(#pd192dfc38f)" style="fill: none; stroke-dasharray: 5.55,2.4; stroke-dashoffset: 0; stroke: #9467bd; stroke-width: 1.5"/>
   </g>
   <g id="line2d_20">
    <path d="M 92.290909 66.96 
L 96.349091 78.229874 
L 100.407273 82.397707 
L 104.465455 86.908589 
L 108.523636 90.777457 
L 112.581818 90.547329 
L 116.64 93.227913 
L 120.698182 95.597755 
L 124.756364 96.854303 
L 128.814545 100.057788 
L 132.872727 99.343247 
L 136.930909 103.025867 
L 140.989091 105.688864 
L 145.047273 105.905341 
L 149.105455 105.916491 
L 153.163636 108.118188 
L 157.221818 109.932843 
L 161.28 112.636374 
L 165.338182 113.845418 
L 169.396364 113.379701 
L 173.454545 117.055799 
L 177.512727 116.456145 
L 181.570909 110.438108 
L 185.629091 117.779247 
L 189.687273 121.072973 
L 193.745455 115.803172 
L 197.803636 117.943385 
L 201.861818 120.532263 
L 205.92 122.393549 
L 209.978182 112.190927 
L 214.036364 124.808021 
L 218.094545 117.407799 
L 222.152727 126.016981 
L 226.210909 125.145756 
L 230.269091 123.678361 
L 234.327273 117.385152 
L 238.385455 128.173433 
L 242.443636 119.815683 
L 246.501818 130.643947 
L 250.56 122.394678 
L 254.618182 129.283972 
L 258.676364 129.776076 
L 262.734545 121.086421 
L 266.792727 126.800392 
L 270.850909 130.398783 
L 274.909091 130.252987 
L 278.967273 126.412648 
L 283.025455 131.065293 
L 287.083636 131.463261 
L 291.141818 129.867761 
L 295.2 122.485164 
L 299.258182 130.593249 
L 303.316364 135.559458 
L 307.374545 119.416411 
L 311.432727 124.337091 
L 315.490909 137.938462 
L 319.549091 127.124788 
L 323.607273 134.644106 
L 327.665455 132.936581 
L 331.723636 128.49901 
L 335.781818 132.671723 
L 339.84 138.281056 
L 343.898182 127.758979 
L 347.956364 140.156 
L 352.014545 142.476578 
L 356.072727 137.51773 
L 360.130909 123.317126 
L 364.189091 126.875534 
L 368.247273 142.787245 
L 372.305455 141.470435 
L 376.363636 135.37828 
L 380.421818 145.25008 
L 384.48 138.310643 
L 388.538182 137.046335 
L 392.596364 133.941546 
L 396.654545 146.785975 
L 400.712727 135.699235 
L 404.770909 136.456274 
L 408.829091 133.37311 
L 412.887273 149.248351 
L 416.945455 144.24207 
L 421.003636 139.860363 
L 425.061818 145.664133 
L 429.12 145.430099 
L 433.178182 140.139182 
L 437.236364 135.562001 
L 441.294545 130.448796 
L 445.352727 143.026867 
L 449.410909 151.781145 
L 453.469091 133.955799 
L 457.527273 149.32306 
L 461.585455 151.869352 
L 465.643636 136.79623 
L 469.701818 136.201818 
L 473.76 142.684731 
L 477.818182 143.589704 
L 481.876364 146.359316 
L 485.934545 146.582855 
L 489.992727 152.072952 
L 494.050909 140.388531 
L 498.109091 151.901517 
" clip-path="url(#pd192dfc38f)" style="fill: none; stroke: #8c564b; stroke-width: 1.5; stroke-linecap: square"/>
    <defs>
     <path id="m3a99a79ffe" d="M -3 3 
L 3 -3 
M -3 -3 
L 3 3 
" style="stroke: #8c564b"/>
    </defs>
    <g clip-path="url(#pd192dfc38f)">
     <use xlink:href="#m3a99a79ffe" x="92.290909" y="66.96" style="fill: #8c564b; stroke: #8c564b"/>
     <use xlink:href="#m3a99a79ffe" x="96.349091" y="78.229874" style="fill: #8c564b; stroke: #8c564b"/>
     <use xlink:href="#m3a99a79ffe" x="100.407273" y="82.397707" style="fill: #8c564b; stroke: #8c564b"/>
     <use xlink:href="#m3a99a79ffe" x="104.465455" y="86.908589" style="fill: #8c564b; stroke: #8c564b"/>
     <use xlink:href="#m3a99a79ffe" x="108.523636" y="90.777457" style="fill: #8c564b; stroke: #8c564b"/>
     <use xlink:href="#m3a99a79ffe" x="112.581818" y="90.547329" style="fill: #8c564b; stroke: #8c564b"/>
     <use xlink:href="#m3a99a79ffe" x="116.64" y="93.227913" style="fill: #8c564b; stroke: #8c564b"/>
     <use xlink:href="#m3a99a79ffe" x="120.698182" y="95.597755" style="fill: #8c564b; stroke: #8c564b"/>
     <use xlink:href="#m3a99a79ffe" x="124.756364" y="96.854303" style="fill: #8c564b; stroke: #8c564b"/>
     <use xlink:href="#m3a99a79ffe" x="128.814545" y="100.057788" style="fill: #8c564b; stroke: #8c564b"/>
     <use xlink:href="#m3a99a79ffe" x="132.872727" y="99.343247" style="fill: #8c564b; stroke: #8c564b"/>
     <use xlink:href="#m3a99a79ffe" x="136.930909" y="103.025867" style="fill: #8c564b; stroke: #8c564b"/>
     <use xlink:href="#m3a99a79ffe" x="140.989091" y="105.688864" style="fill: #8c564b; stroke: #8c564b"/>
     <use xlink:href="#m3a99a79ffe" x="145.047273" y="105.905341" style="fill: #8c564b; stroke: #8c564b"/>
     <use xlink:href="#m3a99a79ffe" x="149.105455" y="105.916491" style="fill: #8c564b; stroke: #8c564b"/>
     <use xlink:href="#m3a99a79ffe" x="153.163636" y="108.118188" style="fill: #8c564b; stroke: #8c564b"/>
     <use xlink:href="#m3a99a79ffe" x="157.221818" y="109.932843" style="fill: #8c564b; stroke: #8c564b"/>
     <use xlink:href="#m3a99a79ffe" x="161.28" y="112.636374" style="fill: #8c564b; stroke: #8c564b"/>
     <use xlink:href="#m3a99a79ffe" x="165.338182" y="113.845418" style="fill: #8c564b; stroke: #8c564b"/>
     <use xlink:href="#m3a99a79ffe" x="169.396364" y="113.379701" style="fill: #8c564b; stroke: #8c564b"/>
     <use xlink:href="#m3a99a79ffe" x="173.454545" y="117.055799" style="fill: #8c564b; stroke: #8c564b"/>
     <use xlink:href="#m3a99a79ffe" x="177.512727" y="116.456145" style="fill: #8c564b; stroke: #8c564b"/>
     <use xlink:href="#m3a99a79ffe" x="181.570909" y="110.438108" style="fill: #8c564b; stroke: #8c564b"/>
     <use xlink:href="#m3a99a79ffe" x="185.629091" y="117.779247" style="fill: #8c564b; stroke: #8c564b"/>
     <use xlink:href="#m3a99a79ffe" x="189.687273" y="121.072973" style="fill: #8c564b; stroke: #8c564b"/>
     <use xlink:href="#m3a99a79ffe" x="193.745455" y="115.803172" style="fill: #8c564b; stroke: #8c564b"/>
     <use xlink:href="#m3a99a79ffe" x="197.803636" y="117.943385" style="fill: #8c564b; stroke: #8c564b"/>
     <use xlink:href="#m3a99a79ffe" x="201.861818" y="120.532263" style="fill: #8c564b; stroke: #8c564b"/>
     <use xlink:href="#m3a99a79ffe" x="205.92" y="122.393549" style="fill: #8c564b; stroke: #8c564b"/>
     <use xlink:href="#m3a99a79ffe" x="209.978182" y="112.190927" style="fill: #8c564b; stroke: #8c564b"/>
     <use xlink:href="#m3a99a79ffe" x="214.036364" y="124.808021" style="fill: #8c564b; stroke: #8c564b"/>
     <use xlink:href="#m3a99a79ffe" x="218.094545" y="117.407799" style="fill: #8c564b; stroke: #8c564b"/>
     <use xlink:href="#m3a99a79ffe" x="222.152727" y="126.016981" style="fill: #8c564b; stroke: #8c564b"/>
     <use xlink:href="#m3a99a79ffe" x="226.210909" y="125.145756" style="fill: #8c564b; stroke: #8c564b"/>
     <use xlink:href="#m3a99a79ffe" x="230.269091" y="123.678361" style="fill: #8c564b; stroke: #8c564b"/>
     <use xlink:href="#m3a99a79ffe" x="234.327273" y="117.385152" style="fill: #8c564b; stroke: #8c564b"/>
     <use xlink:href="#m3a99a79ffe" x="238.385455" y="128.173433" style="fill: #8c564b; stroke: #8c564b"/>
     <use xlink:href="#m3a99a79ffe" x="242.443636" y="119.815683" style="fill: #8c564b; stroke: #8c564b"/>
     <use xlink:href="#m3a99a79ffe" x="246.501818" y="130.643947" style="fill: #8c564b; stroke: #8c564b"/>
     <use xlink:href="#m3a99a79ffe" x="250.56" y="122.394678" style="fill: #8c564b; stroke: #8c564b"/>
     <use xlink:href="#m3a99a79ffe" x="254.618182" y="129.283972" style="fill: #8c564b; stroke: #8c564b"/>
     <use xlink:href="#m3a99a79ffe" x="258.676364" y="129.776076" style="fill: #8c564b; stroke: #8c564b"/>
     <use xlink:href="#m3a99a79ffe" x="262.734545" y="121.086421" style="fill: #8c564b; stroke: #8c564b"/>
     <use xlink:href="#m3a99a79ffe" x="266.792727" y="126.800392" style="fill: #8c564b; stroke: #8c564b"/>
     <use xlink:href="#m3a99a79ffe" x="270.850909" y="130.398783" style="fill: #8c564b; stroke: #8c564b"/>
     <use xlink:href="#m3a99a79ffe" x="274.909091" y="130.252987" style="fill: #8c564b; stroke: #8c564b"/>
     <use xlink:href="#m3a99a79ffe" x="278.967273" y="126.412648" style="fill: #8c564b; stroke: #8c564b"/>
     <use xlink:href="#m3a99a79ffe" x="283.025455" y="131.065293" style="fill: #8c564b; stroke: #8c564b"/>
     <use xlink:href="#m3a99a79ffe" x="287.083636" y="131.463261" style="fill: #8c564b; stroke: #8c564b"/>
     <use xlink:href="#m3a99a79ffe" x="291.141818" y="129.867761" style="fill: #8c564b; stroke: #8c564b"/>
     <use xlink:href="#m3a99a79ffe" x="295.2" y="122.485164" style="fill: #8c564b; stroke: #8c564b"/>
     <use xlink:href="#m3a99a79ffe" x="299.258182" y="130.593249" style="fill: #8c564b; stroke: #8c564b"/>
     <use xlink:href="#m3a99a79ffe" x="303.316364" y="135.559458" style="fill: #8c564b; stroke: #8c564b"/>
     <use xlink:href="#m3a99a79ffe" x="307.374545" y="119.416411" style="fill: #8c564b; stroke: #8c564b"/>
     <use xlink:href="#m3a99a79ffe" x="311.432727" y="124.337091" style="fill: #8c564b; stroke: #8c564b"/>
     <use xlink:href="#m3a99a79ffe" x="315.490909" y="137.938462" style="fill: #8c564b; stroke: #8c564b"/>
     <use xlink:href="#m3a99a79ffe" x="319.549091" y="127.124788" style="fill: #8c564b; stroke: #8c564b"/>
     <use xlink:href="#m3a99a79ffe" x="323.607273" y="134.644106" style="fill: #8c564b; stroke: #8c564b"/>
     <use xlink:href="#m3a99a79ffe" x="327.665455" y="132.936581" style="fill: #8c564b; stroke: #8c564b"/>
     <use xlink:href="#m3a99a79ffe" x="331.723636" y="128.49901" style="fill: #8c564b; stroke: #8c564b"/>
     <use xlink:href="#m3a99a79ffe" x="335.781818" y="132.671723" style="fill: #8c564b; stroke: #8c564b"/>
     <use xlink:href="#m3a99a79ffe" x="339.84" y="138.281056" style="fill: #8c564b; stroke: #8c564b"/>
     <use xlink:href="#m3a99a79ffe" x="343.898182" y="127.758979" style="fill: #8c564b; stroke: #8c564b"/>
     <use xlink:href="#m3a99a79ffe" x="347.956364" y="140.156" style="fill: #8c564b; stroke: #8c564b"/>
     <use xlink:href="#m3a99a79ffe" x="352.014545" y="142.476578" style="fill: #8c564b; stroke: #8c564b"/>
     <use xlink:href="#m3a99a79ffe" x="356.072727" y="137.51773" style="fill: #8c564b; stroke: #8c564b"/>
     <use xlink:href="#m3a99a79ffe" x="360.130909" y="123.317126" style="fill: #8c564b; stroke: #8c564b"/>
     <use xlink:href="#m3a99a79ffe" x="364.189091" y="126.875534" style="fill: #8c564b; stroke: #8c564b"/>
     <use xlink:href="#m3a99a79ffe" x="368.247273" y="142.787245" style="fill: #8c564b; stroke: #8c564b"/>
     <use xlink:href="#m3a99a79ffe" x="372.305455" y="141.470435" style="fill: #8c564b; stroke: #8c564b"/>
     <use xlink:href="#m3a99a79ffe" x="376.363636" y="135.37828" style="fill: #8c564b; stroke: #8c564b"/>
     <use xlink:href="#m3a99a79ffe" x="380.421818" y="145.25008" style="fill: #8c564b; stroke: #8c564b"/>
     <use xlink:href="#m3a99a79ffe" x="384.48" y="138.310643" style="fill: #8c564b; stroke: #8c564b"/>
     <use xlink:href="#m3a99a79ffe" x="388.538182" y="137.046335" style="fill: #8c564b; stroke: #8c564b"/>
     <use xlink:href="#m3a99a79ffe" x="392.596364" y="133.941546" style="fill: #8c564b; stroke: #8c564b"/>
     <use xlink:href="#m3a99a79ffe" x="396.654545" y="146.785975" style="fill: #8c564b; stroke: #8c564b"/>
     <use xlink:href="#m3a99a79ffe" x="400.712727" y="135.699235" style="fill: #8c564b; stroke: #8c564b"/>
     <use xlink:href="#m3a99a79ffe" x="404.770909" y="136.456274" style="fill: #8c564b; stroke: #8c564b"/>
     <use xlink:href="#m3a99a79ffe" x="408.829091" y="133.37311" style="fill: #8c564b; stroke: #8c564b"/>
     <use xlink:href="#m3a99a79ffe" x="412.887273" y="149.248351" style="fill: #8c564b; stroke: #8c564b"/>
     <use xlink:href="#m3a99a79ffe" x="416.945455" y="144.24207" style="fill: #8c564b; stroke: #8c564b"/>
     <use xlink:href="#m3a99a79ffe" x="421.003636" y="139.860363" style="fill: #8c564b; stroke: #8c564b"/>
     <use xlink:href="#m3a99a79ffe" x="425.061818" y="145.664133" style="fill: #8c564b; stroke: #8c564b"/>
     <use xlink:href="#m3a99a79ffe" x="429.12" y="145.430099" style="fill: #8c564b; stroke: #8c564b"/>
     <use xlink:href="#m3a99a79ffe" x="433.178182" y="140.139182" style="fill: #8c564b; stroke: #8c564b"/>
     <use xlink:href="#m3a99a79ffe" x="437.236364" y="135.562001" style="fill: #8c564b; stroke: #8c564b"/>
     <use xlink:href="#m3a99a79ffe" x="441.294545" y="130.448796" style="fill: #8c564b; stroke: #8c564b"/>
     <use xlink:href="#m3a99a79ffe" x="445.352727" y="143.026867" style="fill: #8c564b; stroke: #8c564b"/>
     <use xlink:href="#m3a99a79ffe" x="449.410909" y="151.781145" style="fill: #8c564b; stroke: #8c564b"/>
     <use xlink:href="#m3a99a79ffe" x="453.469091" y="133.955799" style="fill: #8c564b; stroke: #8c564b"/>
     <use xlink:href="#m3a99a79ffe" x="457.527273" y="149.32306" style="fill: #8c564b; stroke: #8c564b"/>
     <use xlink:href="#m3a99a79ffe" x="461.585455" y="151.869352" style="fill: #8c564b; stroke: #8c564b"/>
     <use xlink:href="#m3a99a79ffe" x="465.643636" y="136.79623" style="fill: #8c564b; stroke: #8c564b"/>
     <use xlink:href="#m3a99a79ffe" x="469.701818" y="136.201818" style="fill: #8c564b; stroke: #8c564b"/>
     <use xlink:href="#m3a99a79ffe" x="473.76" y="142.684731" style="fill: #8c564b; stroke: #8c564b"/>
     <use xlink:href="#m3a99a79ffe" x="477.818182" y="143.589704" style="fill: #8c564b; stroke: #8c564b"/>
     <use xlink:href="#m3a99a79ffe" x="481.876364" y="146.359316" style="fill: #8c564b; stroke: #8c564b"/>
     <use xlink:href="#m3a99a79ffe" x="485.934545" y="146.582855" style="fill: #8c564b; stroke: #8c564b"/>
     <use xlink:href="#m3a99a79ffe" x="489.992727" y="152.072952" style="fill: #8c564b; stroke: #8c564b"/>
     <use xlink:href="#m3a99a79ffe" x="494.050909" y="140.388531" style="fill: #8c564b; stroke: #8c564b"/>
     <use xlink:href="#m3a99a79ffe" x="498.109091" y="151.901517" style="fill: #8c564b; stroke: #8c564b"/>
    </g>
   </g>
   <g id="patch_3">
    <path d="M 72 384.48 
L 72 51.84 
" style="fill: none; stroke: #000000; stroke-width: 0.8; stroke-linejoin: miter; stroke-linecap: square"/>
   </g>
   <g id="patch_4">
    <path d="M 518.4 384.48 
L 518.4 51.84 
" style="fill: none; stroke: #000000; stroke-width: 0.8; stroke-linejoin: miter; stroke-linecap: square"/>
   </g>
   <g id="patch_5">
    <path d="M 72 384.48 
L 518.4 384.48 
" style="fill: none; stroke: #000000; stroke-width: 0.8; stroke-linejoin: miter; stroke-linecap: square"/>
   </g>
   <g id="patch_6">
    <path d="M 72 51.84 
L 518.4 51.84 
" style="fill: none; stroke: #000000; stroke-width: 0.8; stroke-linejoin: miter; stroke-linecap: square"/>
   </g>
   <g id="legend_1">
    <g id="patch_7">
     <path d="M 79 379.48 
L 215.382812 379.48 
Q 217.382812 379.48 217.382812 377.48 
L 217.382812 290.41125 
Q 217.382812 288.41125 215.382812 288.41125 
L 79 288.41125 
Q 77 288.41125 77 290.41125 
L 77 377.48 
Q 77 379.48 79 379.48 
z
" style="fill: #ffffff; opacity: 0.8; stroke: #cccccc; stroke-linejoin: miter"/>
    </g>
    <g id="line2d_21">
     <path d="M 81 296.509688 
L 91 296.509688 
L 101 296.509688 
" style="fill: none; stroke: #1f77b4; stroke-width: 1.5; stroke-linecap: square"/>
     <g>
      <use xlink:href="#m51e60ff713" x="91" y="296.509688" style="fill: #1f77b4; stroke: #1f77b4; stroke-linejoin: miter"/>
     </g>
    </g>
    <g id="text_17">
     <!-- CG -->
     <g transform="translate(109 300.009688)scale(0.1 -0.1)">
      <defs>
       <path id="DejaVuSans-43" d="M 4122 4306 
L 4122 3641 
Q 3803 3938 3442 4084 
Q 3081 4231 2675 4231 
Q 1875 4231 1450 3742 
Q 1025 3253 1025 2328 
Q 1025 1406 1450 917 
Q 1875 428 2675 428 
Q 3081 428 3442 575 
Q 3803 722 4122 1019 
L 4122 359 
Q 3791 134 3420 21 
Q 3050 -91 2638 -91 
Q 1578 -91 968 557 
Q 359 1206 359 2328 
Q 359 3453 968 4101 
Q 1578 4750 2638 4750 
Q 3056 4750 3426 4639 
Q 3797 4528 4122 4306 
z
" transform="scale(0.015625)"/>
       <path id="DejaVuSans-47" d="M 3809 666 
L 3809 1919 
L 2778 1919 
L 2778 2438 
L 4434 2438 
L 4434 434 
Q 4069 175 3628 42 
Q 3188 -91 2688 -91 
Q 1594 -91 976 548 
Q 359 1188 359 2328 
Q 359 3472 976 4111 
Q 1594 4750 2688 4750 
Q 3144 4750 3555 4637 
Q 3966 4525 4313 4306 
L 4313 3634 
Q 3963 3931 3569 4081 
Q 3175 4231 2741 4231 
Q 1884 4231 1454 3753 
Q 1025 3275 1025 2328 
Q 1025 1384 1454 906 
Q 1884 428 2741 428 
Q 3075 428 3337 486 
Q 3600 544 3809 666 
z
" transform="scale(0.015625)"/>
      </defs>
      <use xlink:href="#DejaVuSans-43"/>
      <use xlink:href="#DejaVuSans-47" x="69.824219"/>
     </g>
    </g>
    <g id="line2d_22">
     <path d="M 81 311.187813 
L 91 311.187813 
L 101 311.187813 
" style="fill: none; stroke: #ff7f0e; stroke-width: 1.5; stroke-linecap: square"/>
    </g>
    <g id="text_18">
     <!-- GMRES (krylov) -->
     <g transform="translate(109 314.687813)scale(0.1 -0.1)">
      <defs>
       <path id="DejaVuSans-4d" d="M 628 4666 
L 1569 4666 
L 2759 1491 
L 3956 4666 
L 4897 4666 
L 4897 0 
L 4281 0 
L 4281 4097 
L 3078 897 
L 2444 897 
L 1241 4097 
L 1241 0 
L 628 0 
L 628 4666 
z
" transform="scale(0.015625)"/>
       <path id="DejaVuSans-52" d="M 2841 2188 
Q 3044 2119 3236 1894 
Q 3428 1669 3622 1275 
L 4263 0 
L 3584 0 
L 2988 1197 
Q 2756 1666 2539 1819 
Q 2322 1972 1947 1972 
L 1259 1972 
L 1259 0 
L 628 0 
L 628 4666 
L 2053 4666 
Q 2853 4666 3247 4331 
Q 3641 3997 3641 3322 
Q 3641 2881 3436 2590 
Q 3231 2300 2841 2188 
z
M 1259 4147 
L 1259 2491 
L 2053 2491 
Q 2509 2491 2742 2702 
Q 2975 2913 2975 3322 
Q 2975 3731 2742 3939 
Q 2509 4147 2053 4147 
L 1259 4147 
z
" transform="scale(0.015625)"/>
       <path id="DejaVuSans-45" d="M 628 4666 
L 3578 4666 
L 3578 4134 
L 1259 4134 
L 1259 2753 
L 3481 2753 
L 3481 2222 
L 1259 2222 
L 1259 531 
L 3634 531 
L 3634 0 
L 628 0 
L 628 4666 
z
" transform="scale(0.015625)"/>
       <path id="DejaVuSans-53" d="M 3425 4513 
L 3425 3897 
Q 3066 4069 2747 4153 
Q 2428 4238 2131 4238 
Q 1616 4238 1336 4038 
Q 1056 3838 1056 3469 
Q 1056 3159 1242 3001 
Q 1428 2844 1947 2747 
L 2328 2669 
Q 3034 2534 3370 2195 
Q 3706 1856 3706 1288 
Q 3706 609 3251 259 
Q 2797 -91 1919 -91 
Q 1588 -91 1214 -16 
Q 841 59 441 206 
L 441 856 
Q 825 641 1194 531 
Q 1563 422 1919 422 
Q 2459 422 2753 634 
Q 3047 847 3047 1241 
Q 3047 1584 2836 1778 
Q 2625 1972 2144 2069 
L 1759 2144 
Q 1053 2284 737 2584 
Q 422 2884 422 3419 
Q 422 4038 858 4394 
Q 1294 4750 2059 4750 
Q 2388 4750 2728 4690 
Q 3069 4631 3425 4513 
z
" transform="scale(0.015625)"/>
       <path id="DejaVuSans-28" d="M 1984 4856 
Q 1566 4138 1362 3434 
Q 1159 2731 1159 2009 
Q 1159 1288 1364 580 
Q 1569 -128 1984 -844 
L 1484 -844 
Q 1016 -109 783 600 
Q 550 1309 550 2009 
Q 550 2706 781 3412 
Q 1013 4119 1484 4856 
L 1984 4856 
z
" transform="scale(0.015625)"/>
       <path id="DejaVuSans-6b" d="M 581 4863 
L 1159 4863 
L 1159 1991 
L 2875 3500 
L 3609 3500 
L 1753 1863 
L 3688 0 
L 2938 0 
L 1159 1709 
L 1159 0 
L 581 0 
L 581 4863 
z
" transform="scale(0.015625)"/>
       <path id="DejaVuSans-79" d="M 2059 -325 
Q 1816 -950 1584 -1140 
Q 1353 -1331 966 -1331 
L 506 -1331 
L 506 -850 
L 844 -850 
Q 1081 -850 1212 -737 
Q 1344 -625 1503 -206 
L 1606 56 
L 191 3500 
L 800 3500 
L 1894 763 
L 2988 3500 
L 3597 3500 
L 2059 -325 
z
" transform="scale(0.015625)"/>
       <path id="DejaVuSans-76" d="M 191 3500 
L 800 3500 
L 1894 563 
L 2988 3500 
L 3597 3500 
L 2284 0 
L 1503 0 
L 191 3500 
z
" transform="scale(0.015625)"/>
       <path id="DejaVuSans-29" d="M 513 4856 
L 1013 4856 
Q 1481 4119 1714 3412 
Q 1947 2706 1947 2009 
Q 1947 1309 1714 600 
Q 1481 -109 1013 -844 
L 513 -844 
Q 928 -128 1133 580 
Q 1338 1288 1338 2009 
Q 1338 2731 1133 3434 
Q 928 4138 513 4856 
z
" transform="scale(0.015625)"/>
      </defs>
      <use xlink:href="#DejaVuSans-47"/>
      <use xlink:href="#DejaVuSans-4d" x="77.490234"/>
      <use xlink:href="#DejaVuSans-52" x="163.769531"/>
      <use xlink:href="#DejaVuSans-45" x="233.251953"/>
      <use xlink:href="#DejaVuSans-53" x="296.435547"/>
      <use xlink:href="#DejaVuSans-20" x="359.912109"/>
      <use xlink:href="#DejaVuSans-28" x="391.699219"/>
      <use xlink:href="#DejaVuSans-6b" x="430.712891"/>
      <use xlink:href="#DejaVuSans-72" x="488.623047"/>
      <use xlink:href="#DejaVuSans-79" x="529.736328"/>
      <use xlink:href="#DejaVuSans-6c" x="588.916016"/>
      <use xlink:href="#DejaVuSans-6f" x="616.699219"/>
      <use xlink:href="#DejaVuSans-76" x="677.880859"/>
      <use xlink:href="#DejaVuSans-29" x="737.060547"/>
     </g>
    </g>
    <g id="line2d_23">
     <path d="M 81 325.865938 
L 91 325.865938 
L 101 325.865938 
" style="fill: none; stroke: #2ca02c; stroke-width: 1.5; stroke-linecap: square"/>
    </g>
    <g id="text_19">
     <!-- GMRES (grad) -->
     <g transform="translate(109 329.365938)scale(0.1 -0.1)">
      <defs>
       <path id="DejaVuSans-67" d="M 2906 1791 
Q 2906 2416 2648 2759 
Q 2391 3103 1925 3103 
Q 1463 3103 1205 2759 
Q 947 2416 947 1791 
Q 947 1169 1205 825 
Q 1463 481 1925 481 
Q 2391 481 2648 825 
Q 2906 1169 2906 1791 
z
M 3481 434 
Q 3481 -459 3084 -895 
Q 2688 -1331 1869 -1331 
Q 1566 -1331 1297 -1286 
Q 1028 -1241 775 -1147 
L 775 -588 
Q 1028 -725 1275 -790 
Q 1522 -856 1778 -856 
Q 2344 -856 2625 -561 
Q 2906 -266 2906 331 
L 2906 616 
Q 2728 306 2450 153 
Q 2172 0 1784 0 
Q 1141 0 747 490 
Q 353 981 353 1791 
Q 353 2603 747 3093 
Q 1141 3584 1784 3584 
Q 2172 3584 2450 3431 
Q 2728 3278 2906 2969 
L 2906 3500 
L 3481 3500 
L 3481 434 
z
" transform="scale(0.015625)"/>
      </defs>
      <use xlink:href="#DejaVuSans-47"/>
      <use xlink:href="#DejaVuSans-4d" x="77.490234"/>
      <use xlink:href="#DejaVuSans-52" x="163.769531"/>
      <use xlink:href="#DejaVuSans-45" x="233.251953"/>
      <use xlink:href="#DejaVuSans-53" x="296.435547"/>
      <use xlink:href="#DejaVuSans-20" x="359.912109"/>
      <use xlink:href="#DejaVuSans-28" x="391.699219"/>
      <use xlink:href="#DejaVuSans-67" x="430.712891"/>
      <use xlink:href="#DejaVuSans-72" x="494.189453"/>
      <use xlink:href="#DejaVuSans-61" x="535.302734"/>
      <use xlink:href="#DejaVuSans-64" x="596.582031"/>
      <use xlink:href="#DejaVuSans-29" x="660.058594"/>
     </g>
    </g>
    <g id="line2d_24">
     <path d="M 81 340.544062 
L 91 340.544062 
L 101 340.544062 
" style="fill: none; stroke-dasharray: 5.55,2.4; stroke-dashoffset: 0; stroke: #d62728; stroke-width: 1.5"/>
    </g>
    <g id="text_20">
     <!-- FOM (krylov) -->
     <g transform="translate(109 344.044062)scale(0.1 -0.1)">
      <defs>
       <path id="DejaVuSans-46" d="M 628 4666 
L 3309 4666 
L 3309 4134 
L 1259 4134 
L 1259 2759 
L 3109 2759 
L 3109 2228 
L 1259 2228 
L 1259 0 
L 628 0 
L 628 4666 
z
" transform="scale(0.015625)"/>
       <path id="DejaVuSans-4f" d="M 2522 4238 
Q 1834 4238 1429 3725 
Q 1025 3213 1025 2328 
Q 1025 1447 1429 934 
Q 1834 422 2522 422 
Q 3209 422 3611 934 
Q 4013 1447 4013 2328 
Q 4013 3213 3611 3725 
Q 3209 4238 2522 4238 
z
M 2522 4750 
Q 3503 4750 4090 4092 
Q 4678 3434 4678 2328 
Q 4678 1225 4090 567 
Q 3503 -91 2522 -91 
Q 1538 -91 948 565 
Q 359 1222 359 2328 
Q 359 3434 948 4092 
Q 1538 4750 2522 4750 
z
" transform="scale(0.015625)"/>
      </defs>
      <use xlink:href="#DejaVuSans-46"/>
      <use xlink:href="#DejaVuSans-4f" x="57.519531"/>
      <use xlink:href="#DejaVuSans-4d" x="136.230469"/>
      <use xlink:href="#DejaVuSans-20" x="222.509766"/>
      <use xlink:href="#DejaVuSans-28" x="254.296875"/>
      <use xlink:href="#DejaVuSans-6b" x="293.310547"/>
      <use xlink:href="#DejaVuSans-72" x="351.220703"/>
      <use xlink:href="#DejaVuSans-79" x="392.333984"/>
      <use xlink:href="#DejaVuSans-6c" x="451.513672"/>
      <use xlink:href="#DejaVuSans-6f" x="479.296875"/>
      <use xlink:href="#DejaVuSans-76" x="540.478516"/>
      <use xlink:href="#DejaVuSans-29" x="599.658203"/>
     </g>
    </g>
    <g id="line2d_25">
     <path d="M 81 355.222188 
L 91 355.222188 
L 101 355.222188 
" style="fill: none; stroke-dasharray: 5.55,2.4; stroke-dashoffset: 0; stroke: #9467bd; stroke-width: 1.5"/>
    </g>
    <g id="text_21">
     <!-- FOM (grad) -->
     <g transform="translate(109 358.722188)scale(0.1 -0.1)">
      <use xlink:href="#DejaVuSans-46"/>
      <use xlink:href="#DejaVuSans-4f" x="57.519531"/>
      <use xlink:href="#DejaVuSans-4d" x="136.230469"/>
      <use xlink:href="#DejaVuSans-20" x="222.509766"/>
      <use xlink:href="#DejaVuSans-28" x="254.296875"/>
      <use xlink:href="#DejaVuSans-67" x="293.310547"/>
      <use xlink:href="#DejaVuSans-72" x="356.787109"/>
      <use xlink:href="#DejaVuSans-61" x="397.900391"/>
      <use xlink:href="#DejaVuSans-64" x="459.179688"/>
      <use xlink:href="#DejaVuSans-29" x="522.65625"/>
     </g>
    </g>
    <g id="line2d_26">
     <path d="M 81 369.900313 
L 91 369.900313 
L 101 369.900313 
" style="fill: none; stroke: #8c564b; stroke-width: 1.5; stroke-linecap: square"/>
     <g>
      <use xlink:href="#m3a99a79ffe" x="91" y="369.900313" style="fill: #8c564b; stroke: #8c564b"/>
     </g>
    </g>
    <g id="text_22">
     <!-- CG (IterativeSolvers) -->
     <g transform="translate(109 373.400313)scale(0.1 -0.1)">
      <defs>
       <path id="DejaVuSans-49" d="M 628 4666 
L 1259 4666 
L 1259 0 
L 628 0 
L 628 4666 
z
" transform="scale(0.015625)"/>
      </defs>
      <use xlink:href="#DejaVuSans-43"/>
      <use xlink:href="#DejaVuSans-47" x="69.824219"/>
      <use xlink:href="#DejaVuSans-20" x="147.314453"/>
      <use xlink:href="#DejaVuSans-28" x="179.101562"/>
      <use xlink:href="#DejaVuSans-49" x="218.115234"/>
      <use xlink:href="#DejaVuSans-74" x="247.607422"/>
      <use xlink:href="#DejaVuSans-65" x="286.816406"/>
      <use xlink:href="#DejaVuSans-72" x="348.339844"/>
      <use xlink:href="#DejaVuSans-61" x="389.453125"/>
      <use xlink:href="#DejaVuSans-74" x="450.732422"/>
      <use xlink:href="#DejaVuSans-69" x="489.941406"/>
      <use xlink:href="#DejaVuSans-76" x="517.724609"/>
      <use xlink:href="#DejaVuSans-65" x="576.904297"/>
      <use xlink:href="#DejaVuSans-53" x="638.427734"/>
      <use xlink:href="#DejaVuSans-6f" x="701.904297"/>
      <use xlink:href="#DejaVuSans-6c" x="763.085938"/>
      <use xlink:href="#DejaVuSans-76" x="790.869141"/>
      <use xlink:href="#DejaVuSans-65" x="850.048828"/>
      <use xlink:href="#DejaVuSans-72" x="911.572266"/>
      <use xlink:href="#DejaVuSans-73" x="952.685547"/>
      <use xlink:href="#DejaVuSans-29" x="1004.785156"/>
     </g>
    </g>
   </g>
  </g>
 </g>
 <defs>
  <clipPath id="pd192dfc38f">
   <rect x="72" y="51.84" width="446.4" height="332.64"/>
  </clipPath>
 </defs>
</svg>
