<?xml version="1.0" encoding="utf-8" standalone="no"?>
<!DOCTYPE svg PUBLIC "-//W3C//DTD SVG 1.1//EN"
  "http://www.w3.org/Graphics/SVG/1.1/DTD/svg11.dtd">
<svg xmlns:xlink="http://www.w3.org/1999/xlink" width="576pt" height="432pt" viewBox="0 0 576 432" xmlns="http://www.w3.org/2000/svg" version="1.1">
 <metadata>
  <rdf:RDF xmlns:dc="http://purl.org/dc/elements/1.1/" xmlns:cc="http://creativecommons.org/ns#" xmlns:rdf="http://www.w3.org/1999/02/22-rdf-syntax-ns#">
   <cc:Work>
    <dc:type rdf:resource="http://purl.org/dc/dcmitype/StillImage"/>
    <dc:date>2022-06-10T02:10:34.564730</dc:date>
    <dc:format>image/svg+xml</dc:format>
    <dc:creator>
     <cc:Agent>
      <dc:title>Matplotlib v3.5.2, https://matplotlib.org/</dc:title>
     </cc:Agent>
    </dc:creator>
   </cc:Work>
  </rdf:RDF>
 </metadata>
 <defs>
  <style type="text/css">*{stroke-linejoin: round; stroke-linecap: butt}</style>
 </defs>
 <g id="figure_1">
  <g id="patch_1">
   <path d="M 0 432 
L 576 432 
L 576 0 
L 0 0 
z
" style="fill: #ffffff"/>
  </g>
  <g id="axes_1">
   <g id="patch_2">
    <path d="M 72 384.48 
L 518.4 384.48 
L 518.4 51.84 
L 72 51.84 
z
" style="fill: #ffffff"/>
   </g>
   <g id="matplotlib.axis_1">
    <g id="xtick_1">
     <g id="line2d_1">
      <defs>
       <path id="m546dff05d6" d="M 0 0 
L 0 3.5 
" style="stroke: #000000; stroke-width: 0.8"/>
      </defs>
      <g>
       <use xlink:href="#m546dff05d6" x="92.290909" y="384.48" style="stroke: #000000; stroke-width: 0.8"/>
      </g>
     </g>
     <g id="text_1">
      <!-- 0 -->
      <g transform="translate(89.109659 399.078438)scale(0.1 -0.1)">
       <defs>
        <path id="DejaVuSans-30" d="M 2034 4250 
Q 1547 4250 1301 3770 
Q 1056 3291 1056 2328 
Q 1056 1369 1301 889 
Q 1547 409 2034 409 
Q 2525 409 2770 889 
Q 3016 1369 3016 2328 
Q 3016 3291 2770 3770 
Q 2525 4250 2034 4250 
z
M 2034 4750 
Q 2819 4750 3233 4129 
Q 3647 3509 3647 2328 
Q 3647 1150 3233 529 
Q 2819 -91 2034 -91 
Q 1250 -91 836 529 
Q 422 1150 422 2328 
Q 422 3509 836 4129 
Q 1250 4750 2034 4750 
z
" transform="scale(0.015625)"/>
       </defs>
       <use xlink:href="#DejaVuSans-30"/>
      </g>
     </g>
    </g>
    <g id="xtick_2">
     <g id="line2d_2">
      <g>
       <use xlink:href="#m546dff05d6" x="173.454545" y="384.48" style="stroke: #000000; stroke-width: 0.8"/>
      </g>
     </g>
     <g id="text_2">
      <!-- 20 -->
      <g transform="translate(167.092045 399.078438)scale(0.1 -0.1)">
       <defs>
        <path id="DejaVuSans-32" d="M 1228 531 
L 3431 531 
L 3431 0 
L 469 0 
L 469 531 
Q 828 903 1448 1529 
Q 2069 2156 2228 2338 
Q 2531 2678 2651 2914 
Q 2772 3150 2772 3378 
Q 2772 3750 2511 3984 
Q 2250 4219 1831 4219 
Q 1534 4219 1204 4116 
Q 875 4013 500 3803 
L 500 4441 
Q 881 4594 1212 4672 
Q 1544 4750 1819 4750 
Q 2544 4750 2975 4387 
Q 3406 4025 3406 3419 
Q 3406 3131 3298 2873 
Q 3191 2616 2906 2266 
Q 2828 2175 2409 1742 
Q 1991 1309 1228 531 
z
" transform="scale(0.015625)"/>
       </defs>
       <use xlink:href="#DejaVuSans-32"/>
       <use xlink:href="#DejaVuSans-30" x="63.623047"/>
      </g>
     </g>
    </g>
    <g id="xtick_3">
     <g id="line2d_3">
      <g>
       <use xlink:href="#m546dff05d6" x="254.618182" y="384.48" style="stroke: #000000; stroke-width: 0.8"/>
      </g>
     </g>
     <g id="text_3">
      <!-- 40 -->
      <g transform="translate(248.255682 399.078438)scale(0.1 -0.1)">
       <defs>
        <path id="DejaVuSans-34" d="M 2419 4116 
L 825 1625 
L 2419 1625 
L 2419 4116 
z
M 2253 4666 
L 3047 4666 
L 3047 1625 
L 3713 1625 
L 3713 1100 
L 3047 1100 
L 3047 0 
L 2419 0 
L 2419 1100 
L 313 1100 
L 313 1709 
L 2253 4666 
z
" transform="scale(0.015625)"/>
       </defs>
       <use xlink:href="#DejaVuSans-34"/>
       <use xlink:href="#DejaVuSans-30" x="63.623047"/>
      </g>
     </g>
    </g>
    <g id="xtick_4">
     <g id="line2d_4">
      <g>
       <use xlink:href="#m546dff05d6" x="335.781818" y="384.48" style="stroke: #000000; stroke-width: 0.8"/>
      </g>
     </g>
     <g id="text_4">
      <!-- 60 -->
      <g transform="translate(329.419318 399.078438)scale(0.1 -0.1)">
       <defs>
        <path id="DejaVuSans-36" d="M 2113 2584 
Q 1688 2584 1439 2293 
Q 1191 2003 1191 1497 
Q 1191 994 1439 701 
Q 1688 409 2113 409 
Q 2538 409 2786 701 
Q 3034 994 3034 1497 
Q 3034 2003 2786 2293 
Q 2538 2584 2113 2584 
z
M 3366 4563 
L 3366 3988 
Q 3128 4100 2886 4159 
Q 2644 4219 2406 4219 
Q 1781 4219 1451 3797 
Q 1122 3375 1075 2522 
Q 1259 2794 1537 2939 
Q 1816 3084 2150 3084 
Q 2853 3084 3261 2657 
Q 3669 2231 3669 1497 
Q 3669 778 3244 343 
Q 2819 -91 2113 -91 
Q 1303 -91 875 529 
Q 447 1150 447 2328 
Q 447 3434 972 4092 
Q 1497 4750 2381 4750 
Q 2619 4750 2861 4703 
Q 3103 4656 3366 4563 
z
" transform="scale(0.015625)"/>
       </defs>
       <use xlink:href="#DejaVuSans-36"/>
       <use xlink:href="#DejaVuSans-30" x="63.623047"/>
      </g>
     </g>
    </g>
    <g id="xtick_5">
     <g id="line2d_5">
      <g>
       <use xlink:href="#m546dff05d6" x="416.945455" y="384.48" style="stroke: #000000; stroke-width: 0.8"/>
      </g>
     </g>
     <g id="text_5">
      <!-- 80 -->
      <g transform="translate(410.582955 399.078438)scale(0.1 -0.1)">
       <defs>
        <path id="DejaVuSans-38" d="M 2034 2216 
Q 1584 2216 1326 1975 
Q 1069 1734 1069 1313 
Q 1069 891 1326 650 
Q 1584 409 2034 409 
Q 2484 409 2743 651 
Q 3003 894 3003 1313 
Q 3003 1734 2745 1975 
Q 2488 2216 2034 2216 
z
M 1403 2484 
Q 997 2584 770 2862 
Q 544 3141 544 3541 
Q 544 4100 942 4425 
Q 1341 4750 2034 4750 
Q 2731 4750 3128 4425 
Q 3525 4100 3525 3541 
Q 3525 3141 3298 2862 
Q 3072 2584 2669 2484 
Q 3125 2378 3379 2068 
Q 3634 1759 3634 1313 
Q 3634 634 3220 271 
Q 2806 -91 2034 -91 
Q 1263 -91 848 271 
Q 434 634 434 1313 
Q 434 1759 690 2068 
Q 947 2378 1403 2484 
z
M 1172 3481 
Q 1172 3119 1398 2916 
Q 1625 2713 2034 2713 
Q 2441 2713 2670 2916 
Q 2900 3119 2900 3481 
Q 2900 3844 2670 4047 
Q 2441 4250 2034 4250 
Q 1625 4250 1398 4047 
Q 1172 3844 1172 3481 
z
" transform="scale(0.015625)"/>
       </defs>
       <use xlink:href="#DejaVuSans-38"/>
       <use xlink:href="#DejaVuSans-30" x="63.623047"/>
      </g>
     </g>
    </g>
    <g id="xtick_6">
     <g id="line2d_6">
      <g>
       <use xlink:href="#m546dff05d6" x="498.109091" y="384.48" style="stroke: #000000; stroke-width: 0.8"/>
      </g>
     </g>
     <g id="text_6">
      <!-- 100 -->
      <g transform="translate(488.565341 399.078438)scale(0.1 -0.1)">
       <defs>
        <path id="DejaVuSans-31" d="M 794 531 
L 1825 531 
L 1825 4091 
L 703 3866 
L 703 4441 
L 1819 4666 
L 2450 4666 
L 2450 531 
L 3481 531 
L 3481 0 
L 794 0 
L 794 531 
z
" transform="scale(0.015625)"/>
       </defs>
       <use xlink:href="#DejaVuSans-31"/>
       <use xlink:href="#DejaVuSans-30" x="63.623047"/>
       <use xlink:href="#DejaVuSans-30" x="127.246094"/>
      </g>
     </g>
    </g>
    <g id="text_7">
     <!-- Number of iterations -->
     <g transform="translate(243.389062 412.756563)scale(0.1 -0.1)">
      <defs>
       <path id="DejaVuSans-4e" d="M 628 4666 
L 1478 4666 
L 3547 763 
L 3547 4666 
L 4159 4666 
L 4159 0 
L 3309 0 
L 1241 3903 
L 1241 0 
L 628 0 
L 628 4666 
z
" transform="scale(0.015625)"/>
       <path id="DejaVuSans-75" d="M 544 1381 
L 544 3500 
L 1119 3500 
L 1119 1403 
Q 1119 906 1312 657 
Q 1506 409 1894 409 
Q 2359 409 2629 706 
Q 2900 1003 2900 1516 
L 2900 3500 
L 3475 3500 
L 3475 0 
L 2900 0 
L 2900 538 
Q 2691 219 2414 64 
Q 2138 -91 1772 -91 
Q 1169 -91 856 284 
Q 544 659 544 1381 
z
M 1991 3584 
L 1991 3584 
z
" transform="scale(0.015625)"/>
       <path id="DejaVuSans-6d" d="M 3328 2828 
Q 3544 3216 3844 3400 
Q 4144 3584 4550 3584 
Q 5097 3584 5394 3201 
Q 5691 2819 5691 2113 
L 5691 0 
L 5113 0 
L 5113 2094 
Q 5113 2597 4934 2840 
Q 4756 3084 4391 3084 
Q 3944 3084 3684 2787 
Q 3425 2491 3425 1978 
L 3425 0 
L 2847 0 
L 2847 2094 
Q 2847 2600 2669 2842 
Q 2491 3084 2119 3084 
Q 1678 3084 1418 2786 
Q 1159 2488 1159 1978 
L 1159 0 
L 581 0 
L 581 3500 
L 1159 3500 
L 1159 2956 
Q 1356 3278 1631 3431 
Q 1906 3584 2284 3584 
Q 2666 3584 2933 3390 
Q 3200 3197 3328 2828 
z
" transform="scale(0.015625)"/>
       <path id="DejaVuSans-62" d="M 3116 1747 
Q 3116 2381 2855 2742 
Q 2594 3103 2138 3103 
Q 1681 3103 1420 2742 
Q 1159 2381 1159 1747 
Q 1159 1113 1420 752 
Q 1681 391 2138 391 
Q 2594 391 2855 752 
Q 3116 1113 3116 1747 
z
M 1159 2969 
Q 1341 3281 1617 3432 
Q 1894 3584 2278 3584 
Q 2916 3584 3314 3078 
Q 3713 2572 3713 1747 
Q 3713 922 3314 415 
Q 2916 -91 2278 -91 
Q 1894 -91 1617 61 
Q 1341 213 1159 525 
L 1159 0 
L 581 0 
L 581 4863 
L 1159 4863 
L 1159 2969 
z
" transform="scale(0.015625)"/>
       <path id="DejaVuSans-65" d="M 3597 1894 
L 3597 1613 
L 953 1613 
Q 991 1019 1311 708 
Q 1631 397 2203 397 
Q 2534 397 2845 478 
Q 3156 559 3463 722 
L 3463 178 
Q 3153 47 2828 -22 
Q 2503 -91 2169 -91 
Q 1331 -91 842 396 
Q 353 884 353 1716 
Q 353 2575 817 3079 
Q 1281 3584 2069 3584 
Q 2775 3584 3186 3129 
Q 3597 2675 3597 1894 
z
M 3022 2063 
Q 3016 2534 2758 2815 
Q 2500 3097 2075 3097 
Q 1594 3097 1305 2825 
Q 1016 2553 972 2059 
L 3022 2063 
z
" transform="scale(0.015625)"/>
       <path id="DejaVuSans-72" d="M 2631 2963 
Q 2534 3019 2420 3045 
Q 2306 3072 2169 3072 
Q 1681 3072 1420 2755 
Q 1159 2438 1159 1844 
L 1159 0 
L 581 0 
L 581 3500 
L 1159 3500 
L 1159 2956 
Q 1341 3275 1631 3429 
Q 1922 3584 2338 3584 
Q 2397 3584 2469 3576 
Q 2541 3569 2628 3553 
L 2631 2963 
z
" transform="scale(0.015625)"/>
       <path id="DejaVuSans-20" transform="scale(0.015625)"/>
       <path id="DejaVuSans-6f" d="M 1959 3097 
Q 1497 3097 1228 2736 
Q 959 2375 959 1747 
Q 959 1119 1226 758 
Q 1494 397 1959 397 
Q 2419 397 2687 759 
Q 2956 1122 2956 1747 
Q 2956 2369 2687 2733 
Q 2419 3097 1959 3097 
z
M 1959 3584 
Q 2709 3584 3137 3096 
Q 3566 2609 3566 1747 
Q 3566 888 3137 398 
Q 2709 -91 1959 -91 
Q 1206 -91 779 398 
Q 353 888 353 1747 
Q 353 2609 779 3096 
Q 1206 3584 1959 3584 
z
" transform="scale(0.015625)"/>
       <path id="DejaVuSans-66" d="M 2375 4863 
L 2375 4384 
L 1825 4384 
Q 1516 4384 1395 4259 
Q 1275 4134 1275 3809 
L 1275 3500 
L 2222 3500 
L 2222 3053 
L 1275 3053 
L 1275 0 
L 697 0 
L 697 3053 
L 147 3053 
L 147 3500 
L 697 3500 
L 697 3744 
Q 697 4328 969 4595 
Q 1241 4863 1831 4863 
L 2375 4863 
z
" transform="scale(0.015625)"/>
       <path id="DejaVuSans-69" d="M 603 3500 
L 1178 3500 
L 1178 0 
L 603 0 
L 603 3500 
z
M 603 4863 
L 1178 4863 
L 1178 4134 
L 603 4134 
L 603 4863 
z
" transform="scale(0.015625)"/>
       <path id="DejaVuSans-74" d="M 1172 4494 
L 1172 3500 
L 2356 3500 
L 2356 3053 
L 1172 3053 
L 1172 1153 
Q 1172 725 1289 603 
Q 1406 481 1766 481 
L 2356 481 
L 2356 0 
L 1766 0 
Q 1100 0 847 248 
Q 594 497 594 1153 
L 594 3053 
L 172 3053 
L 172 3500 
L 594 3500 
L 594 4494 
L 1172 4494 
z
" transform="scale(0.015625)"/>
       <path id="DejaVuSans-61" d="M 2194 1759 
Q 1497 1759 1228 1600 
Q 959 1441 959 1056 
Q 959 750 1161 570 
Q 1363 391 1709 391 
Q 2188 391 2477 730 
Q 2766 1069 2766 1631 
L 2766 1759 
L 2194 1759 
z
M 3341 1997 
L 3341 0 
L 2766 0 
L 2766 531 
Q 2569 213 2275 61 
Q 1981 -91 1556 -91 
Q 1019 -91 701 211 
Q 384 513 384 1019 
Q 384 1609 779 1909 
Q 1175 2209 1959 2209 
L 2766 2209 
L 2766 2266 
Q 2766 2663 2505 2880 
Q 2244 3097 1772 3097 
Q 1472 3097 1187 3025 
Q 903 2953 641 2809 
L 641 3341 
Q 956 3463 1253 3523 
Q 1550 3584 1831 3584 
Q 2591 3584 2966 3190 
Q 3341 2797 3341 1997 
z
" transform="scale(0.015625)"/>
       <path id="DejaVuSans-6e" d="M 3513 2113 
L 3513 0 
L 2938 0 
L 2938 2094 
Q 2938 2591 2744 2837 
Q 2550 3084 2163 3084 
Q 1697 3084 1428 2787 
Q 1159 2491 1159 1978 
L 1159 0 
L 581 0 
L 581 3500 
L 1159 3500 
L 1159 2956 
Q 1366 3272 1645 3428 
Q 1925 3584 2291 3584 
Q 2894 3584 3203 3211 
Q 3513 2838 3513 2113 
z
" transform="scale(0.015625)"/>
       <path id="DejaVuSans-73" d="M 2834 3397 
L 2834 2853 
Q 2591 2978 2328 3040 
Q 2066 3103 1784 3103 
Q 1356 3103 1142 2972 
Q 928 2841 928 2578 
Q 928 2378 1081 2264 
Q 1234 2150 1697 2047 
L 1894 2003 
Q 2506 1872 2764 1633 
Q 3022 1394 3022 966 
Q 3022 478 2636 193 
Q 2250 -91 1575 -91 
Q 1294 -91 989 -36 
Q 684 19 347 128 
L 347 722 
Q 666 556 975 473 
Q 1284 391 1588 391 
Q 1994 391 2212 530 
Q 2431 669 2431 922 
Q 2431 1156 2273 1281 
Q 2116 1406 1581 1522 
L 1381 1569 
Q 847 1681 609 1914 
Q 372 2147 372 2553 
Q 372 3047 722 3315 
Q 1072 3584 1716 3584 
Q 2034 3584 2315 3537 
Q 2597 3491 2834 3397 
z
" transform="scale(0.015625)"/>
      </defs>
      <use xlink:href="#DejaVuSans-4e"/>
      <use xlink:href="#DejaVuSans-75" x="74.804688"/>
      <use xlink:href="#DejaVuSans-6d" x="138.183594"/>
      <use xlink:href="#DejaVuSans-62" x="235.595703"/>
      <use xlink:href="#DejaVuSans-65" x="299.072266"/>
      <use xlink:href="#DejaVuSans-72" x="360.595703"/>
      <use xlink:href="#DejaVuSans-20" x="401.708984"/>
      <use xlink:href="#DejaVuSans-6f" x="433.496094"/>
      <use xlink:href="#DejaVuSans-66" x="494.677734"/>
      <use xlink:href="#DejaVuSans-20" x="529.882812"/>
      <use xlink:href="#DejaVuSans-69" x="561.669922"/>
      <use xlink:href="#DejaVuSans-74" x="589.453125"/>
      <use xlink:href="#DejaVuSans-65" x="628.662109"/>
      <use xlink:href="#DejaVuSans-72" x="690.185547"/>
      <use xlink:href="#DejaVuSans-61" x="731.298828"/>
      <use xlink:href="#DejaVuSans-74" x="792.578125"/>
      <use xlink:href="#DejaVuSans-69" x="831.787109"/>
      <use xlink:href="#DejaVuSans-6f" x="859.570312"/>
      <use xlink:href="#DejaVuSans-6e" x="920.751953"/>
      <use xlink:href="#DejaVuSans-73" x="984.130859"/>
     </g>
    </g>
   </g>
   <g id="matplotlib.axis_2">
    <g id="ytick_1">
     <g id="line2d_7">
      <defs>
       <path id="m32936430ec" d="M 0 0 
L -3.5 0 
" style="stroke: #000000; stroke-width: 0.8"/>
      </defs>
      <g>
       <use xlink:href="#m32936430ec" x="72" y="339.454481" style="stroke: #000000; stroke-width: 0.8"/>
      </g>
     </g>
     <g id="text_8">
      <!-- $\mathdefault{10^{-10}}$ -->
      <g transform="translate(37.1 343.2537)scale(0.1 -0.1)">
       <defs>
        <path id="DejaVuSans-2212" d="M 678 2272 
L 4684 2272 
L 4684 1741 
L 678 1741 
L 678 2272 
z
" transform="scale(0.015625)"/>
       </defs>
       <use xlink:href="#DejaVuSans-31" transform="translate(0 0.765625)"/>
       <use xlink:href="#DejaVuSans-30" transform="translate(63.623047 0.765625)"/>
       <use xlink:href="#DejaVuSans-2212" transform="translate(128.203125 39.046875)scale(0.7)"/>
       <use xlink:href="#DejaVuSans-31" transform="translate(186.855469 39.046875)scale(0.7)"/>
       <use xlink:href="#DejaVuSans-30" transform="translate(231.391602 39.046875)scale(0.7)"/>
      </g>
     </g>
    </g>
    <g id="ytick_2">
     <g id="line2d_8">
      <g>
       <use xlink:href="#m32936430ec" x="72" y="290.513716" style="stroke: #000000; stroke-width: 0.8"/>
      </g>
     </g>
     <g id="text_9">
      <!-- $\mathdefault{10^{-7}}$ -->
      <g transform="translate(41.5 294.312934)scale(0.1 -0.1)">
       <defs>
        <path id="DejaVuSans-37" d="M 525 4666 
L 3525 4666 
L 3525 4397 
L 1831 0 
L 1172 0 
L 2766 4134 
L 525 4134 
L 525 4666 
z
" transform="scale(0.015625)"/>
       </defs>
       <use xlink:href="#DejaVuSans-31" transform="translate(0 0.684375)"/>
       <use xlink:href="#DejaVuSans-30" transform="translate(63.623047 0.684375)"/>
       <use xlink:href="#DejaVuSans-2212" transform="translate(128.203125 38.965625)scale(0.7)"/>
       <use xlink:href="#DejaVuSans-37" transform="translate(186.855469 38.965625)scale(0.7)"/>
      </g>
     </g>
    </g>
    <g id="ytick_3">
     <g id="line2d_9">
      <g>
       <use xlink:href="#m32936430ec" x="72" y="241.572951" style="stroke: #000000; stroke-width: 0.8"/>
      </g>
     </g>
     <g id="text_10">
      <!-- $\mathdefault{10^{-4}}$ -->
      <g transform="translate(41.5 245.372169)scale(0.1 -0.1)">
       <use xlink:href="#DejaVuSans-31" transform="translate(0 0.684375)"/>
       <use xlink:href="#DejaVuSans-30" transform="translate(63.623047 0.684375)"/>
       <use xlink:href="#DejaVuSans-2212" transform="translate(128.203125 38.965625)scale(0.7)"/>
       <use xlink:href="#DejaVuSans-34" transform="translate(186.855469 38.965625)scale(0.7)"/>
      </g>
     </g>
    </g>
    <g id="ytick_4">
     <g id="line2d_10">
      <g>
       <use xlink:href="#m32936430ec" x="72" y="192.632185" style="stroke: #000000; stroke-width: 0.8"/>
      </g>
     </g>
     <g id="text_11">
      <!-- $\mathdefault{10^{-1}}$ -->
      <g transform="translate(41.5 196.431404)scale(0.1 -0.1)">
       <use xlink:href="#DejaVuSans-31" transform="translate(0 0.684375)"/>
       <use xlink:href="#DejaVuSans-30" transform="translate(63.623047 0.684375)"/>
       <use xlink:href="#DejaVuSans-2212" transform="translate(128.203125 38.965625)scale(0.7)"/>
       <use xlink:href="#DejaVuSans-31" transform="translate(186.855469 38.965625)scale(0.7)"/>
      </g>
     </g>
    </g>
    <g id="ytick_5">
     <g id="line2d_11">
      <g>
       <use xlink:href="#m32936430ec" x="72" y="143.69142" style="stroke: #000000; stroke-width: 0.8"/>
      </g>
     </g>
     <g id="text_12">
      <!-- $\mathdefault{10^{2}}$ -->
      <g transform="translate(47.4 147.490639)scale(0.1 -0.1)">
       <use xlink:href="#DejaVuSans-31" transform="translate(0 0.765625)"/>
       <use xlink:href="#DejaVuSans-30" transform="translate(63.623047 0.765625)"/>
       <use xlink:href="#DejaVuSans-32" transform="translate(128.203125 39.046875)scale(0.7)"/>
      </g>
     </g>
    </g>
    <g id="ytick_6">
     <g id="line2d_12">
      <g>
       <use xlink:href="#m32936430ec" x="72" y="94.750655" style="stroke: #000000; stroke-width: 0.8"/>
      </g>
     </g>
     <g id="text_13">
      <!-- $\mathdefault{10^{5}}$ -->
      <g transform="translate(47.4 98.549874)scale(0.1 -0.1)">
       <defs>
        <path id="DejaVuSans-35" d="M 691 4666 
L 3169 4666 
L 3169 4134 
L 1269 4134 
L 1269 2991 
Q 1406 3038 1543 3061 
Q 1681 3084 1819 3084 
Q 2600 3084 3056 2656 
Q 3513 2228 3513 1497 
Q 3513 744 3044 326 
Q 2575 -91 1722 -91 
Q 1428 -91 1123 -41 
Q 819 9 494 109 
L 494 744 
Q 775 591 1075 516 
Q 1375 441 1709 441 
Q 2250 441 2565 725 
Q 2881 1009 2881 1497 
Q 2881 1984 2565 2268 
Q 2250 2553 1709 2553 
Q 1456 2553 1204 2497 
Q 953 2441 691 2322 
L 691 4666 
z
" transform="scale(0.015625)"/>
       </defs>
       <use xlink:href="#DejaVuSans-31" transform="translate(0 0.684375)"/>
       <use xlink:href="#DejaVuSans-30" transform="translate(63.623047 0.684375)"/>
       <use xlink:href="#DejaVuSans-35" transform="translate(128.203125 38.965625)scale(0.7)"/>
      </g>
     </g>
    </g>
    <g id="text_14">
     <!-- Norm of the residuals -->
     <g transform="translate(31.020312 272.004531)rotate(-90)scale(0.1 -0.1)">
      <defs>
       <path id="DejaVuSans-68" d="M 3513 2113 
L 3513 0 
L 2938 0 
L 2938 2094 
Q 2938 2591 2744 2837 
Q 2550 3084 2163 3084 
Q 1697 3084 1428 2787 
Q 1159 2491 1159 1978 
L 1159 0 
L 581 0 
L 581 4863 
L 1159 4863 
L 1159 2956 
Q 1366 3272 1645 3428 
Q 1925 3584 2291 3584 
Q 2894 3584 3203 3211 
Q 3513 2838 3513 2113 
z
" transform="scale(0.015625)"/>
       <path id="DejaVuSans-64" d="M 2906 2969 
L 2906 4863 
L 3481 4863 
L 3481 0 
L 2906 0 
L 2906 525 
Q 2725 213 2448 61 
Q 2172 -91 1784 -91 
Q 1150 -91 751 415 
Q 353 922 353 1747 
Q 353 2572 751 3078 
Q 1150 3584 1784 3584 
Q 2172 3584 2448 3432 
Q 2725 3281 2906 2969 
z
M 947 1747 
Q 947 1113 1208 752 
Q 1469 391 1925 391 
Q 2381 391 2643 752 
Q 2906 1113 2906 1747 
Q 2906 2381 2643 2742 
Q 2381 3103 1925 3103 
Q 1469 3103 1208 2742 
Q 947 2381 947 1747 
z
" transform="scale(0.015625)"/>
       <path id="DejaVuSans-6c" d="M 603 4863 
L 1178 4863 
L 1178 0 
L 603 0 
L 603 4863 
z
" transform="scale(0.015625)"/>
      </defs>
      <use xlink:href="#DejaVuSans-4e"/>
      <use xlink:href="#DejaVuSans-6f" x="74.804688"/>
      <use xlink:href="#DejaVuSans-72" x="135.986328"/>
      <use xlink:href="#DejaVuSans-6d" x="175.349609"/>
      <use xlink:href="#DejaVuSans-20" x="272.761719"/>
      <use xlink:href="#DejaVuSans-6f" x="304.548828"/>
      <use xlink:href="#DejaVuSans-66" x="365.730469"/>
      <use xlink:href="#DejaVuSans-20" x="400.935547"/>
      <use xlink:href="#DejaVuSans-74" x="432.722656"/>
      <use xlink:href="#DejaVuSans-68" x="471.931641"/>
      <use xlink:href="#DejaVuSans-65" x="535.310547"/>
      <use xlink:href="#DejaVuSans-20" x="596.833984"/>
      <use xlink:href="#DejaVuSans-72" x="628.621094"/>
      <use xlink:href="#DejaVuSans-65" x="667.484375"/>
      <use xlink:href="#DejaVuSans-73" x="729.007812"/>
      <use xlink:href="#DejaVuSans-69" x="781.107422"/>
      <use xlink:href="#DejaVuSans-64" x="808.890625"/>
      <use xlink:href="#DejaVuSans-75" x="872.367188"/>
      <use xlink:href="#DejaVuSans-61" x="935.746094"/>
      <use xlink:href="#DejaVuSans-6c" x="997.025391"/>
      <use xlink:href="#DejaVuSans-73" x="1024.808594"/>
     </g>
    </g>
   </g>
   <g id="line2d_13">
    <path d="M 92.290909 125.667949 
L 96.349091 125.668117 
L 100.407273 125.689374 
L 104.465455 125.689652 
L 108.523636 125.934407 
L 112.581818 125.9487 
L 116.64 125.963406 
L 120.698182 125.980113 
L 124.756364 125.980583 
L 128.814545 126.275927 
L 132.872727 126.276216 
L 136.930909 126.423231 
L 140.989091 126.428333 
L 145.047273 126.573794 
L 149.105455 126.61658 
L 153.163636 126.643296 
L 157.221818 126.667963 
L 161.28 126.775238 
L 165.338182 126.858194 
L 169.396364 127.001415 
L 173.454545 127.092043 
L 177.512727 127.092913 
L 181.570909 127.160216 
L 185.629091 127.282247 
L 189.687273 127.319374 
L 193.745455 127.376254 
L 197.803636 127.410276 
L 201.861818 127.436575 
L 205.92 127.454953 
L 209.978182 127.455157 
L 214.036364 127.666356 
L 218.094545 128.541855 
L 222.152727 129.360822 
L 226.210909 129.402729 
L 230.269091 129.558427 
L 234.327273 129.559161 
L 238.385455 129.753517 
L 242.443636 129.764961 
L 246.501818 129.764993 
L 250.56 129.790526 
L 254.618182 130.022687 
L 258.676364 130.045099 
L 262.734545 130.050537 
L 266.792727 130.292873 
L 270.850909 130.552203 
L 274.909091 130.831928 
L 278.967273 131.159177 
L 283.025455 131.195176 
L 287.083636 131.902816 
L 291.141818 131.914723 
L 295.2 131.993678 
L 299.258182 132.793853 
L 303.316364 132.885261 
L 307.374545 133.697714 
L 311.432727 133.743729 
L 315.490909 133.837626 
L 319.549091 134.072551 
L 323.607273 134.301027 
L 327.665455 134.302985 
L 331.723636 134.303294 
L 335.781818 134.326709 
L 339.84 134.409721 
L 343.898182 134.782593 
L 347.956364 134.918649 
L 352.014545 134.967882 
L 356.072727 134.968413 
L 360.130909 135.050796 
L 364.189091 135.078719 
L 368.247273 135.139988 
L 372.305455 135.15604 
L 376.363636 135.754989 
L 380.421818 135.900139 
L 384.48 135.936864 
L 388.538182 136.088886 
L 392.596364 136.109658 
L 396.654545 137.093465 
L 400.712727 137.341754 
L 404.770909 137.342782 
L 408.829091 137.381645 
L 412.887273 137.516624 
L 416.945455 137.932735 
L 421.003636 138.51056 
L 425.061818 139.004913 
L 429.12 139.00575 
L 433.178182 141.00219 
L 437.236364 141.047754 
L 441.294545 146.063576 
L 445.352727 146.068572 
L 449.410909 146.353844 
L 453.469091 146.353871 
L 457.527273 149.899598 
L 461.585455 151.770934 
L 465.643636 152.103968 
L 469.701818 152.135792 
L 473.76 152.178189 
L 477.818182 157.755777 
L 481.876364 157.898504 
L 485.934545 158.416301 
L 489.992727 160.073153 
L 494.050909 167.635627 
L 498.109091 358.339939 
" clip-path="url(#p83a6af0ddc)" style="fill: none; stroke: #1f77b4; stroke-width: 1.5; stroke-linecap: square"/>
   </g>
   <g id="line2d_14">
    <path d="M 92.290909 125.667949 
L 96.349091 130.826114 
L 100.407273 133.308771 
L 104.465455 135.229607 
L 108.523636 137.14802 
L 112.581818 139.316019 
L 116.64 141.075324 
L 120.698182 142.126769 
L 124.756364 142.832318 
L 128.814545 143.28271 
L 132.872727 144.212639 
L 136.930909 144.977284 
L 140.989091 145.5953 
L 145.047273 146.323442 
L 149.105455 146.73145 
L 153.163636 147.201429 
L 157.221818 147.822277 
L 161.28 148.654553 
L 165.338182 149.541437 
L 169.396364 150.002655 
L 173.454545 150.621628 
L 177.512727 151.22697 
L 181.570909 151.636472 
L 185.629091 151.997363 
L 189.687273 152.407989 
L 193.745455 152.835019 
L 197.803636 153.361555 
L 201.861818 153.844662 
L 205.92 154.279319 
L 209.978182 154.684546 
L 214.036364 155.330656 
L 218.094545 156.156825 
L 222.152727 157.102742 
L 226.210909 157.584135 
L 230.269091 158.129958 
L 234.327273 158.615546 
L 238.385455 158.965224 
L 242.443636 159.398085 
L 246.501818 159.764788 
L 250.56 160.302876 
L 254.618182 160.675955 
L 258.676364 161.071725 
L 262.734545 161.369794 
L 266.792727 161.641595 
L 270.850909 161.903817 
L 274.909091 162.1109 
L 278.967273 162.371921 
L 283.025455 162.644603 
L 287.083636 162.881514 
L 291.141818 163.08963 
L 295.2 163.332493 
L 299.258182 163.543206 
L 303.316364 163.878772 
L 307.374545 164.089919 
L 311.432727 164.343452 
L 315.490909 164.583389 
L 319.549091 164.791429 
L 323.607273 164.905226 
L 327.665455 165.172928 
L 331.723636 165.360122 
L 335.781818 165.554572 
L 339.84 165.818779 
L 343.898182 166.200306 
L 347.956364 166.434273 
L 352.014545 166.709308 
L 356.072727 167.233848 
L 360.130909 168.122607 
L 364.189091 168.968772 
L 368.247273 169.946302 
L 372.305455 170.658909 
L 376.363636 172.018441 
L 380.421818 172.748202 
L 384.48 173.036555 
L 388.538182 173.805144 
L 392.596364 174.083362 
L 396.654545 174.518276 
L 400.712727 174.789575 
L 404.770909 175.042206 
L 408.829091 175.191162 
L 412.887273 175.433688 
L 416.945455 175.859969 
L 421.003636 176.223797 
L 425.061818 176.68104 
L 429.12 177.141114 
L 433.178182 177.367587 
L 437.236364 177.688521 
L 441.294545 178.519736 
L 445.352727 179.161039 
L 449.410909 180.277581 
L 453.469091 180.742872 
L 457.527273 181.298935 
L 461.585455 181.95403 
L 465.643636 182.286708 
L 469.701818 182.530888 
L 473.76 182.975314 
L 477.818182 183.510232 
L 481.876364 183.618011 
L 485.934545 183.832973 
L 489.992727 184.360115 
L 494.050909 184.621382 
L 498.109091 366.357053 
" clip-path="url(#p83a6af0ddc)" style="fill: none; stroke: #ff7f0e; stroke-width: 1.5; stroke-linecap: square"/>
   </g>
   <g id="line2d_15">
    <path d="M 92.290909 125.667949 
L 96.349091 125.76907 
L 100.407273 125.771441 
L 104.465455 125.821633 
L 108.523636 125.872532 
L 112.581818 126.045031 
L 116.64 126.051921 
L 120.698182 126.221495 
L 124.756364 126.404663 
L 128.814545 126.63008 
L 132.872727 126.630613 
L 136.930909 126.633373 
L 140.989091 126.634259 
L 145.047273 126.853834 
L 149.105455 126.853951 
L 153.163636 126.86136 
L 157.221818 127.372515 
L 161.28 127.605937 
L 165.338182 127.651764 
L 169.396364 127.722472 
L 173.454545 127.724897 
L 177.512727 127.776008 
L 181.570909 127.92501 
L 185.629091 128.134115 
L 189.687273 128.375977 
L 193.745455 128.38669 
L 197.803636 128.795775 
L 201.861818 128.945408 
L 205.92 128.953799 
L 209.978182 128.98413 
L 214.036364 128.995148 
L 218.094545 129.020454 
L 222.152727 129.04385 
L 226.210909 129.103462 
L 230.269091 129.309587 
L 234.327273 129.453981 
L 238.385455 129.499717 
L 242.443636 129.501078 
L 246.501818 129.762658 
L 250.56 130.159963 
L 254.618182 130.163098 
L 258.676364 130.226811 
L 262.734545 130.279125 
L 266.792727 130.289884 
L 270.850909 130.28989 
L 274.909091 130.569221 
L 278.967273 130.815252 
L 283.025455 130.819172 
L 287.083636 131.330191 
L 291.141818 131.461263 
L 295.2 132.354006 
L 299.258182 132.355416 
L 303.316364 132.358766 
L 307.374545 132.556185 
L 311.432727 132.641558 
L 315.490909 132.644814 
L 319.549091 132.752516 
L 323.607273 132.7712 
L 327.665455 132.823169 
L 331.723636 132.834393 
L 335.781818 133.772209 
L 339.84 133.838432 
L 343.898182 133.877101 
L 347.956364 133.949746 
L 352.014545 134.076822 
L 356.072727 134.110122 
L 360.130909 134.510446 
L 364.189091 134.583054 
L 368.247273 134.849854 
L 372.305455 135.070745 
L 376.363636 135.482025 
L 380.421818 135.482233 
L 384.48 136.786689 
L 388.538182 137.024088 
L 392.596364 137.149085 
L 396.654545 138.26137 
L 400.712727 138.266967 
L 404.770909 138.322312 
L 408.829091 138.381278 
L 412.887273 139.129078 
L 416.945455 139.898489 
L 421.003636 141.496447 
L 425.061818 141.748705 
L 429.12 141.887579 
L 433.178182 141.92614 
L 437.236364 142.328307 
L 441.294545 142.93367 
L 445.352727 142.934854 
L 449.410909 143.0361 
L 453.469091 145.358674 
L 457.527273 150.259784 
L 461.585455 150.796869 
L 465.643636 151.416224 
L 469.701818 151.455225 
L 473.76 152.539533 
L 477.818182 152.587865 
L 481.876364 155.362714 
L 485.934545 162.035716 
L 489.992727 162.199207 
L 494.050909 162.712751 
L 498.109091 357.779792 
" clip-path="url(#p83a6af0ddc)" style="fill: none; stroke: #2ca02c; stroke-width: 1.5; stroke-linecap: square"/>
   </g>
   <g id="line2d_16">
    <path d="M 92.290909 125.667949 
L 96.349091 117.448521 
L 100.407273 121.301559 
L 104.465455 122.807615 
L 108.523636 118.698768 
L 112.581818 121.688698 
L 116.64 115.122839 
L 120.698182 113.374446 
L 124.756364 111.484157 
L 128.814545 111.889059 
L 132.872727 66.96 
L 136.930909 106.179878 
L 140.989091 112.924079 
L 145.047273 106.8403 
L 149.105455 108.210076 
L 153.163636 116.152877 
L 157.221818 119.628998 
L 161.28 118.488811 
L 165.338182 114.723931 
L 169.396364 106.108173 
L 173.454545 106.276918 
L 177.512727 98.615402 
L 181.570909 102.873368 
L 185.629091 109.961876 
L 189.687273 111.744989 
L 193.745455 112.08562 
L 197.803636 117.675829 
L 201.861818 116.528202 
L 205.92 109.682158 
L 209.978182 100.961569 
L 214.036364 102.082615 
L 218.094545 110.860518 
L 222.152727 112.153293 
L 226.210909 116.836653 
L 230.269091 109.074304 
L 234.327273 97.699549 
L 238.385455 115.693478 
L 242.443636 120.915317 
L 246.501818 115.446696 
L 250.56 102.930685 
L 254.618182 121.570843 
L 258.676364 124.459601 
L 262.734545 121.459348 
L 266.792727 103.249988 
L 270.850909 114.547985 
L 274.909091 114.482445 
L 278.967273 119.592872 
L 283.025455 118.984097 
L 287.083636 119.921679 
L 291.141818 99.106708 
L 295.2 119.548608 
L 299.258182 120.278135 
L 303.316364 120.741443 
L 307.374545 113.831384 
L 311.432727 120.077644 
L 315.490909 119.179965 
L 319.549091 115.437828 
L 323.607273 123.108436 
L 327.665455 123.292489 
L 331.723636 124.621814 
L 335.781818 112.480694 
L 339.84 124.330982 
L 343.898182 121.979296 
L 347.956364 124.260048 
L 352.014545 115.971432 
L 356.072727 123.528693 
L 360.130909 128.33571 
L 364.189091 122.828198 
L 368.247273 116.536576 
L 372.305455 123.761345 
L 376.363636 123.440411 
L 380.421818 103.715575 
L 384.48 123.133154 
L 388.538182 123.503188 
L 392.596364 117.562725 
L 396.654545 116.250389 
L 400.712727 107.161111 
L 404.770909 123.078723 
L 408.829091 120.790528 
L 412.887273 106.118244 
L 416.945455 104.966883 
L 421.003636 116.3255 
L 425.061818 120.058927 
L 429.12 128.605655 
L 433.178182 128.792296 
L 437.236364 107.875966 
L 441.294545 122.392128 
L 445.352727 116.803871 
L 449.410909 106.199545 
L 453.469091 121.621932 
L 457.527273 123.359999 
L 461.585455 125.260691 
L 465.643636 122.119805 
L 469.701818 120.91135 
L 473.76 124.902407 
L 477.818182 133.282214 
L 481.876364 132.948261 
L 485.934545 119.785044 
L 489.992727 136.548995 
L 494.050909 150.098847 
L 498.109091 366.449345 
" clip-path="url(#p83a6af0ddc)" style="fill: none; stroke: #d62728; stroke-width: 1.5; stroke-linecap: square"/>
   </g>
   <g id="line2d_17">
    <path d="M 92.290909 125.667949 
L 96.349091 106.191412 
L 100.407273 129.496265 
L 104.465455 133.641905 
L 108.523636 128.022485 
L 112.581818 131.12334 
L 116.64 134.497044 
L 120.698182 137.459584 
L 124.756364 130.972296 
L 128.814545 136.912771 
L 132.872727 128.814104 
L 136.930909 133.114308 
L 140.989091 140.616732 
L 145.047273 138.429984 
L 149.105455 143.662363 
L 153.163636 137.428551 
L 157.221818 132.503522 
L 161.28 140.098809 
L 165.338182 136.086665 
L 169.396364 135.723908 
L 173.454545 136.423394 
L 177.512727 135.116444 
L 181.570909 128.939044 
L 185.629091 119.301257 
L 189.687273 131.822591 
L 193.745455 136.626263 
L 197.803636 136.655894 
L 201.861818 137.659574 
L 205.92 142.987228 
L 209.978182 146.215199 
L 214.036364 144.524702 
L 218.094545 141.906921 
L 222.152727 146.876387 
L 226.210909 138.975071 
L 230.269091 141.98702 
L 234.327273 135.490187 
L 238.385455 139.320198 
L 242.443636 143.649454 
L 246.501818 139.859214 
L 250.56 142.711816 
L 254.618182 147.963624 
L 258.676364 132.809177 
L 262.734545 142.93763 
L 266.792727 150.99785 
L 270.850909 150.717112 
L 274.909091 150.76189 
L 278.967273 150.877455 
L 283.025455 153.29131 
L 287.083636 153.793106 
L 291.141818 143.739194 
L 295.2 150.245783 
L 299.258182 150.116115 
L 303.316364 150.09668 
L 307.374545 149.328218 
L 311.432727 154.168761 
L 315.490909 150.996182 
L 319.549091 151.647834 
L 323.607273 144.751506 
L 327.665455 131.019877 
L 331.723636 149.295222 
L 335.781818 146.105476 
L 339.84 150.235416 
L 343.898182 146.617796 
L 347.956364 147.585499 
L 352.014545 147.263724 
L 356.072727 146.473825 
L 360.130909 113.980102 
L 364.189091 150.910874 
L 368.247273 137.874821 
L 372.305455 157.413526 
L 376.363636 149.046304 
L 380.421818 149.090887 
L 384.48 155.038707 
L 388.538182 161.649464 
L 392.596364 140.255973 
L 396.654545 156.967353 
L 400.712727 158.813832 
L 404.770909 156.527456 
L 408.829091 159.314333 
L 412.887273 162.68975 
L 416.945455 152.076369 
L 421.003636 153.04703 
L 425.061818 156.42605 
L 429.12 153.513279 
L 433.178182 159.914909 
L 437.236364 158.109129 
L 441.294545 160.399682 
L 445.352727 164.792054 
L 449.410909 160.059099 
L 453.469091 162.972404 
L 457.527273 140.628416 
L 461.585455 157.433783 
L 465.643636 156.305334 
L 469.701818 158.191936 
L 473.76 161.451027 
L 477.818182 160.607996 
L 481.876364 155.952839 
L 485.934545 155.868018 
L 489.992727 165.967705 
L 494.050909 165.885004 
L 498.109091 369.029574 
" clip-path="url(#p83a6af0ddc)" style="fill: none; stroke: #9467bd; stroke-width: 1.5; stroke-linecap: square"/>
   </g>
   <g id="line2d_18">
    <path d="M 92.290909 125.667949 
L 96.349091 113.120789 
L 100.407273 99.877402 
L 104.465455 110.717308 
L 108.523636 110.817477 
L 112.581818 115.253201 
L 116.64 103.934621 
L 120.698182 115.37054 
L 124.756364 115.820129 
L 128.814545 116.759847 
L 132.872727 95.449597 
L 136.930909 101.277523 
L 140.989091 97.255199 
L 145.047273 116.893487 
L 149.105455 90.29621 
L 153.163636 105.00111 
L 157.221818 120.262174 
L 161.28 117.855371 
L 165.338182 112.227423 
L 169.396364 113.821932 
L 173.454545 101.911916 
L 177.512727 112.735507 
L 181.570909 116.626121 
L 185.629091 118.005871 
L 189.687273 118.747059 
L 193.745455 107.830994 
L 197.803636 120.946291 
L 201.861818 117.661148 
L 205.92 107.53417 
L 209.978182 112.105527 
L 214.036364 108.538743 
L 218.094545 111.502731 
L 222.152727 111.249046 
L 226.210909 114.603799 
L 230.269091 119.131969 
L 234.327273 118.046079 
L 238.385455 114.068304 
L 242.443636 101.640508 
L 246.501818 120.401643 
L 250.56 122.212741 
L 254.618182 105.258922 
L 258.676364 115.960747 
L 262.734545 115.320516 
L 266.792727 109.749572 
L 270.850909 82.727958 
L 274.909091 121.432023 
L 278.967273 121.244825 
L 283.025455 106.705868 
L 287.083636 124.218974 
L 291.141818 119.717082 
L 295.2 127.034532 
L 299.258182 104.620094 
L 303.316364 107.689161 
L 307.374545 122.230007 
L 311.432727 119.401395 
L 315.490909 107.874291 
L 319.549091 120.324279 
L 323.607273 114.181989 
L 327.665455 117.841294 
L 331.723636 112.44351 
L 335.781818 128.605652 
L 339.84 119.708054 
L 343.898182 117.854628 
L 347.956364 120.144017 
L 352.014545 122.224925 
L 356.072727 117.560844 
L 360.130909 126.588568 
L 364.189091 120.775526 
L 368.247273 125.556251 
L 372.305455 125.130915 
L 376.363636 127.65041 
L 380.421818 100.980845 
L 384.48 132.615427 
L 388.538182 127.331414 
L 392.596364 125.239783 
L 396.654545 133.616187 
L 400.712727 115.413547 
L 404.770909 123.561677 
L 408.829091 123.843364 
L 412.887273 133.251689 
L 416.945455 134.111604 
L 421.003636 137.907332 
L 425.061818 132.263746 
L 429.12 130.344343 
L 433.178182 125.893851 
L 437.236364 134.421791 
L 441.294545 136.37669 
L 445.352727 114.580532 
L 449.410909 130.392116 
L 453.469091 142.765191 
L 457.527273 149.237422 
L 461.585455 143.849179 
L 465.643636 144.933392 
L 469.701818 135.462884 
L 473.76 147.817371 
L 477.818182 137.350785 
L 481.876364 153.200251 
L 485.934545 161.45156 
L 489.992727 151.221853 
L 494.050909 155.617766 
L 498.109091 369.36 
" clip-path="url(#p83a6af0ddc)" style="fill: none; stroke: #8c564b; stroke-width: 1.5; stroke-linecap: square"/>
   </g>
   <g id="patch_3">
    <path d="M 72 384.48 
L 72 51.84 
" style="fill: none; stroke: #000000; stroke-width: 0.8; stroke-linejoin: miter; stroke-linecap: square"/>
   </g>
   <g id="patch_4">
    <path d="M 518.4 384.48 
L 518.4 51.84 
" style="fill: none; stroke: #000000; stroke-width: 0.8; stroke-linejoin: miter; stroke-linecap: square"/>
   </g>
   <g id="patch_5">
    <path d="M 72 384.48 
L 518.4 384.48 
" style="fill: none; stroke: #000000; stroke-width: 0.8; stroke-linejoin: miter; stroke-linecap: square"/>
   </g>
   <g id="patch_6">
    <path d="M 72 51.84 
L 518.4 51.84 
" style="fill: none; stroke: #000000; stroke-width: 0.8; stroke-linejoin: miter; stroke-linecap: square"/>
   </g>
   <g id="legend_1">
    <g id="patch_7">
     <path d="M 79 379.48 
L 180.740625 379.48 
Q 182.740625 379.48 182.740625 377.48 
L 182.740625 288.7425 
Q 182.740625 286.7425 180.740625 286.7425 
L 79 286.7425 
Q 77 286.7425 77 288.7425 
L 77 377.48 
Q 77 379.48 79 379.48 
z
" style="fill: #ffffff; opacity: 0.8; stroke: #cccccc; stroke-linejoin: miter"/>
    </g>
    <g id="line2d_19">
     <path d="M 81 294.840937 
L 91 294.840937 
L 101 294.840937 
" style="fill: none; stroke: #1f77b4; stroke-width: 1.5; stroke-linecap: square"/>
    </g>
    <g id="text_15">
     <!-- rand_minres -->
     <g transform="translate(109 298.340937)scale(0.1 -0.1)">
      <defs>
       <path id="DejaVuSans-5f" d="M 3263 -1063 
L 3263 -1509 
L -63 -1509 
L -63 -1063 
L 3263 -1063 
z
" transform="scale(0.015625)"/>
      </defs>
      <use xlink:href="#DejaVuSans-72"/>
      <use xlink:href="#DejaVuSans-61" x="41.113281"/>
      <use xlink:href="#DejaVuSans-6e" x="102.392578"/>
      <use xlink:href="#DejaVuSans-64" x="165.771484"/>
      <use xlink:href="#DejaVuSans-5f" x="229.248047"/>
      <use xlink:href="#DejaVuSans-6d" x="279.248047"/>
      <use xlink:href="#DejaVuSans-69" x="376.660156"/>
      <use xlink:href="#DejaVuSans-6e" x="404.443359"/>
      <use xlink:href="#DejaVuSans-72" x="467.822266"/>
      <use xlink:href="#DejaVuSans-65" x="506.685547"/>
      <use xlink:href="#DejaVuSans-73" x="568.208984"/>
     </g>
    </g>
    <g id="line2d_20">
     <path d="M 81 309.797188 
L 91 309.797188 
L 101 309.797188 
" style="fill: none; stroke: #ff7f0e; stroke-width: 1.5; stroke-linecap: square"/>
    </g>
    <g id="text_16">
     <!-- grad_minres -->
     <g transform="translate(109 313.297188)scale(0.1 -0.1)">
      <defs>
       <path id="DejaVuSans-67" d="M 2906 1791 
Q 2906 2416 2648 2759 
Q 2391 3103 1925 3103 
Q 1463 3103 1205 2759 
Q 947 2416 947 1791 
Q 947 1169 1205 825 
Q 1463 481 1925 481 
Q 2391 481 2648 825 
Q 2906 1169 2906 1791 
z
M 3481 434 
Q 3481 -459 3084 -895 
Q 2688 -1331 1869 -1331 
Q 1566 -1331 1297 -1286 
Q 1028 -1241 775 -1147 
L 775 -588 
Q 1028 -725 1275 -790 
Q 1522 -856 1778 -856 
Q 2344 -856 2625 -561 
Q 2906 -266 2906 331 
L 2906 616 
Q 2728 306 2450 153 
Q 2172 0 1784 0 
Q 1141 0 747 490 
Q 353 981 353 1791 
Q 353 2603 747 3093 
Q 1141 3584 1784 3584 
Q 2172 3584 2450 3431 
Q 2728 3278 2906 2969 
L 2906 3500 
L 3481 3500 
L 3481 434 
z
" transform="scale(0.015625)"/>
      </defs>
      <use xlink:href="#DejaVuSans-67"/>
      <use xlink:href="#DejaVuSans-72" x="63.476562"/>
      <use xlink:href="#DejaVuSans-61" x="104.589844"/>
      <use xlink:href="#DejaVuSans-64" x="165.869141"/>
      <use xlink:href="#DejaVuSans-5f" x="229.345703"/>
      <use xlink:href="#DejaVuSans-6d" x="279.345703"/>
      <use xlink:href="#DejaVuSans-69" x="376.757812"/>
      <use xlink:href="#DejaVuSans-6e" x="404.541016"/>
      <use xlink:href="#DejaVuSans-72" x="467.919922"/>
      <use xlink:href="#DejaVuSans-65" x="506.783203"/>
      <use xlink:href="#DejaVuSans-73" x="568.306641"/>
     </g>
    </g>
    <g id="line2d_21">
     <path d="M 81 324.753438 
L 91 324.753438 
L 101 324.753438 
" style="fill: none; stroke: #2ca02c; stroke-width: 1.5; stroke-linecap: square"/>
    </g>
    <g id="text_17">
     <!-- krylov_minres -->
     <g transform="translate(109 328.253438)scale(0.1 -0.1)">
      <defs>
       <path id="DejaVuSans-6b" d="M 581 4863 
L 1159 4863 
L 1159 1991 
L 2875 3500 
L 3609 3500 
L 1753 1863 
L 3688 0 
L 2938 0 
L 1159 1709 
L 1159 0 
L 581 0 
L 581 4863 
z
" transform="scale(0.015625)"/>
       <path id="DejaVuSans-79" d="M 2059 -325 
Q 1816 -950 1584 -1140 
Q 1353 -1331 966 -1331 
L 506 -1331 
L 506 -850 
L 844 -850 
Q 1081 -850 1212 -737 
Q 1344 -625 1503 -206 
L 1606 56 
L 191 3500 
L 800 3500 
L 1894 763 
L 2988 3500 
L 3597 3500 
L 2059 -325 
z
" transform="scale(0.015625)"/>
       <path id="DejaVuSans-76" d="M 191 3500 
L 800 3500 
L 1894 563 
L 2988 3500 
L 3597 3500 
L 2284 0 
L 1503 0 
L 191 3500 
z
" transform="scale(0.015625)"/>
      </defs>
      <use xlink:href="#DejaVuSans-6b"/>
      <use xlink:href="#DejaVuSans-72" x="57.910156"/>
      <use xlink:href="#DejaVuSans-79" x="99.023438"/>
      <use xlink:href="#DejaVuSans-6c" x="158.203125"/>
      <use xlink:href="#DejaVuSans-6f" x="185.986328"/>
      <use xlink:href="#DejaVuSans-76" x="247.167969"/>
      <use xlink:href="#DejaVuSans-5f" x="306.347656"/>
      <use xlink:href="#DejaVuSans-6d" x="356.347656"/>
      <use xlink:href="#DejaVuSans-69" x="453.759766"/>
      <use xlink:href="#DejaVuSans-6e" x="481.542969"/>
      <use xlink:href="#DejaVuSans-72" x="544.921875"/>
      <use xlink:href="#DejaVuSans-65" x="583.785156"/>
      <use xlink:href="#DejaVuSans-73" x="645.308594"/>
     </g>
    </g>
    <g id="line2d_22">
     <path d="M 81 339.709687 
L 91 339.709687 
L 101 339.709687 
" style="fill: none; stroke: #d62728; stroke-width: 1.5; stroke-linecap: square"/>
    </g>
    <g id="text_18">
     <!-- rand_fom -->
     <g transform="translate(109 343.209687)scale(0.1 -0.1)">
      <use xlink:href="#DejaVuSans-72"/>
      <use xlink:href="#DejaVuSans-61" x="41.113281"/>
      <use xlink:href="#DejaVuSans-6e" x="102.392578"/>
      <use xlink:href="#DejaVuSans-64" x="165.771484"/>
      <use xlink:href="#DejaVuSans-5f" x="229.248047"/>
      <use xlink:href="#DejaVuSans-66" x="279.248047"/>
      <use xlink:href="#DejaVuSans-6f" x="314.453125"/>
      <use xlink:href="#DejaVuSans-6d" x="375.634766"/>
     </g>
    </g>
    <g id="line2d_23">
     <path d="M 81 354.665937 
L 91 354.665937 
L 101 354.665937 
" style="fill: none; stroke: #9467bd; stroke-width: 1.5; stroke-linecap: square"/>
    </g>
    <g id="text_19">
     <!-- grad_fom -->
     <g transform="translate(109 358.165937)scale(0.1 -0.1)">
      <use xlink:href="#DejaVuSans-67"/>
      <use xlink:href="#DejaVuSans-72" x="63.476562"/>
      <use xlink:href="#DejaVuSans-61" x="104.589844"/>
      <use xlink:href="#DejaVuSans-64" x="165.869141"/>
      <use xlink:href="#DejaVuSans-5f" x="229.345703"/>
      <use xlink:href="#DejaVuSans-66" x="279.345703"/>
      <use xlink:href="#DejaVuSans-6f" x="314.550781"/>
      <use xlink:href="#DejaVuSans-6d" x="375.732422"/>
     </g>
    </g>
    <g id="line2d_24">
     <path d="M 81 369.622187 
L 91 369.622187 
L 101 369.622187 
" style="fill: none; stroke: #8c564b; stroke-width: 1.5; stroke-linecap: square"/>
    </g>
    <g id="text_20">
     <!-- krylov_fom -->
     <g transform="translate(109 373.122187)scale(0.1 -0.1)">
      <use xlink:href="#DejaVuSans-6b"/>
      <use xlink:href="#DejaVuSans-72" x="57.910156"/>
      <use xlink:href="#DejaVuSans-79" x="99.023438"/>
      <use xlink:href="#DejaVuSans-6c" x="158.203125"/>
      <use xlink:href="#DejaVuSans-6f" x="185.986328"/>
      <use xlink:href="#DejaVuSans-76" x="247.167969"/>
      <use xlink:href="#DejaVuSans-5f" x="306.347656"/>
      <use xlink:href="#DejaVuSans-66" x="356.347656"/>
      <use xlink:href="#DejaVuSans-6f" x="391.552734"/>
      <use xlink:href="#DejaVuSans-6d" x="452.734375"/>
     </g>
    </g>
   </g>
  </g>
 </g>
 <defs>
  <clipPath id="p83a6af0ddc">
   <rect x="72" y="51.84" width="446.4" height="332.64"/>
  </clipPath>
 </defs>
</svg>
