<?xml version="1.0" encoding="utf-8" standalone="no"?>
<!DOCTYPE svg PUBLIC "-//W3C//DTD SVG 1.1//EN"
  "http://www.w3.org/Graphics/SVG/1.1/DTD/svg11.dtd">
<svg xmlns:xlink="http://www.w3.org/1999/xlink" width="460.8pt" height="345.6pt" viewBox="0 0 460.8 345.6" xmlns="http://www.w3.org/2000/svg" version="1.1">
 <metadata>
  <rdf:RDF xmlns:dc="http://purl.org/dc/elements/1.1/" xmlns:cc="http://creativecommons.org/ns#" xmlns:rdf="http://www.w3.org/1999/02/22-rdf-syntax-ns#">
   <cc:Work>
    <dc:type rdf:resource="http://purl.org/dc/dcmitype/StillImage"/>
    <dc:date>2023-08-16T21:00:12.408150</dc:date>
    <dc:format>image/svg+xml</dc:format>
    <dc:creator>
     <cc:Agent>
      <dc:title>Matplotlib v3.7.2, https://matplotlib.org/</dc:title>
     </cc:Agent>
    </dc:creator>
   </cc:Work>
  </rdf:RDF>
 </metadata>
 <defs>
  <style type="text/css">*{stroke-linejoin: round; stroke-linecap: butt}</style>
 </defs>
 <g id="figure_1">
  <g id="patch_1">
   <path d="M 0 345.6 
L 460.8 345.6 
L 460.8 0 
L 0 0 
z
" style="fill: #ffffff"/>
  </g>
  <g id="axes_1">
   <g id="patch_2">
    <path d="M 57.6 307.584 
L 414.72 307.584 
L 414.72 41.472 
L 57.6 41.472 
z
" style="fill: #ffffff"/>
   </g>
   <g id="patch_3">
    <path d="M 115.200224 174.528075 
L 127.296232 171.504073 
L 127.296232 174.467595 
L 236.160299 174.467595 
L 236.160299 174.588555 
L 127.296232 174.588555 
L 127.296232 177.552077 
z
" clip-path="url(#pf34180592d)" style="fill: #008000; stroke: #008000; stroke-width: 2.5; stroke-linejoin: miter"/>
   </g>
   <g id="patch_4">
    <path d="M 115.200224 174.528075 
L 127.296232 171.504073 
L 127.296232 174.467595 
L 236.160299 174.467595 
L 236.160299 174.588555 
L 127.296232 174.588555 
L 127.296232 177.552077 
z
" clip-path="url(#pf34180592d)" style="fill: #008000; stroke: #008000; stroke-width: 2.5; stroke-linejoin: miter"/>
   </g>
   <g id="patch_5">
    <path d="M 236.160299 53.568 
L 239.184301 65.664007 
L 236.220779 65.664007 
L 236.220779 174.528075 
L 236.099819 174.528075 
L 236.099819 65.664007 
L 233.136297 65.664007 
z
" clip-path="url(#pf34180592d)" style="fill: #3584e4; stroke-dasharray: 9.25,4; stroke-dashoffset: 0; stroke: #3584e4; stroke-width: 2.5; stroke-linejoin: miter"/>
   </g>
   <g id="patch_6">
    <path d="M 115.200224 174.527036 
L 127.296258 171.503138 
L 127.296232 174.46666 
L 236.1603 174.467595 
L 236.160299 174.588555 
L 127.296231 174.58762 
L 127.296206 177.551141 
z
" clip-path="url(#pf34180592d)" style="fill: #f5c211; stroke-dasharray: 16,4,2.5,4; stroke-dashoffset: 0; stroke: #f5c211; stroke-width: 2.5; stroke-linejoin: miter"/>
   </g>
   <g id="matplotlib.axis_1">
    <g id="xtick_1">
     <g id="line2d_1">
      <defs>
       <path id="m52b06f498b" d="M 0 0 
L 0 3.5 
" style="stroke: #000000; stroke-width: 0.8"/>
      </defs>
      <g>
       <use xlink:href="#m52b06f498b" x="115.200224" y="307.584" style="stroke: #000000; stroke-width: 0.8"/>
      </g>
     </g>
     <g id="text_1">
      <!-- $\mathdefault{−1.0}$ -->
      <g transform="translate(104.960813 321.502498) scale(0.1 -0.1)">
       <defs>
        <path id="CMSY10-0" d="M 4218 1472 
C 4326 1472 4442 1472 4442 1600 
C 4442 1728 4326 1728 4218 1728 
L 755 1728 
C 646 1728 531 1728 531 1600 
C 531 1472 646 1472 755 1472 
L 4218 1472 
z
" transform="scale(0.015625)"/>
        <path id="CMR17-31" d="M 1702 4058 
C 1702 4192 1696 4192 1606 4192 
C 1357 3916 979 3827 621 3827 
C 602 3827 570 3827 563 3808 
C 557 3795 557 3782 557 3648 
C 755 3648 1088 3686 1344 3839 
L 1344 461 
C 1344 236 1331 160 781 160 
L 589 160 
L 589 0 
C 896 0 1216 0 1523 0 
C 1830 0 2150 0 2458 0 
L 2458 160 
L 2266 160 
C 1715 160 1702 230 1702 458 
L 1702 4058 
z
" transform="scale(0.015625)"/>
        <path id="CMMI12-3a" d="M 1178 307 
C 1178 492 1024 619 870 619 
C 685 619 557 466 557 313 
C 557 128 710 0 864 0 
C 1050 0 1178 153 1178 307 
z
" transform="scale(0.015625)"/>
        <path id="CMR17-30" d="M 2688 2025 
C 2688 2416 2682 3080 2413 3591 
C 2176 4039 1798 4198 1466 4198 
C 1158 4198 768 4058 525 3597 
C 269 3118 243 2524 243 2025 
C 243 1661 250 1106 448 619 
C 723 -39 1216 -128 1466 -128 
C 1760 -128 2208 -7 2470 600 
C 2662 1042 2688 1559 2688 2025 
z
M 1466 -26 
C 1056 -26 813 325 723 812 
C 653 1188 653 1738 653 2096 
C 653 2588 653 2997 736 3387 
C 858 3929 1216 4096 1466 4096 
C 1728 4096 2067 3923 2189 3400 
C 2272 3036 2278 2607 2278 2096 
C 2278 1680 2278 1169 2202 792 
C 2067 95 1690 -26 1466 -26 
z
" transform="scale(0.015625)"/>
       </defs>
       <use xlink:href="#CMSY10-0" transform="scale(0.996264)"/>
       <use xlink:href="#CMR17-31" transform="translate(77.487468 0) scale(0.996264)"/>
       <use xlink:href="#CMMI12-3a" transform="translate(123.177945 0) scale(0.996264)"/>
       <use xlink:href="#CMR17-30" transform="translate(150.275122 0) scale(0.996264)"/>
      </g>
     </g>
    </g>
    <g id="xtick_2">
     <g id="line2d_2">
      <g>
       <use xlink:href="#m52b06f498b" x="175.680262" y="307.584" style="stroke: #000000; stroke-width: 0.8"/>
      </g>
     </g>
     <g id="text_2">
      <!-- $\mathdefault{−0.5}$ -->
      <g transform="translate(165.44085 321.502498) scale(0.1 -0.1)">
       <defs>
        <path id="CMR17-35" d="M 730 3692 
C 794 3666 1056 3584 1325 3584 
C 1920 3584 2246 3911 2432 4100 
C 2432 4157 2432 4192 2394 4192 
C 2387 4192 2374 4192 2323 4163 
C 2099 4058 1837 3973 1517 3973 
C 1325 3973 1037 3999 723 4139 
C 653 4171 640 4171 634 4171 
C 602 4171 595 4164 595 4037 
L 595 2203 
C 595 2089 595 2057 659 2057 
C 691 2057 704 2070 736 2114 
C 941 2401 1222 2522 1542 2522 
C 1766 2522 2246 2382 2246 1289 
C 2246 1085 2246 715 2054 421 
C 1894 159 1645 25 1370 25 
C 947 25 518 320 403 814 
C 429 807 480 795 506 795 
C 589 795 749 840 749 1038 
C 749 1210 627 1280 506 1280 
C 358 1280 262 1190 262 1011 
C 262 454 704 -128 1382 -128 
C 2042 -128 2669 440 2669 1264 
C 2669 2030 2170 2624 1549 2624 
C 1222 2624 947 2503 730 2274 
L 730 3692 
z
" transform="scale(0.015625)"/>
       </defs>
       <use xlink:href="#CMSY10-0" transform="scale(0.996264)"/>
       <use xlink:href="#CMR17-30" transform="translate(77.487468 0) scale(0.996264)"/>
       <use xlink:href="#CMMI12-3a" transform="translate(123.177945 0) scale(0.996264)"/>
       <use xlink:href="#CMR17-35" transform="translate(150.275122 0) scale(0.996264)"/>
      </g>
     </g>
    </g>
    <g id="xtick_3">
     <g id="line2d_3">
      <g>
       <use xlink:href="#m52b06f498b" x="236.160299" y="307.584" style="stroke: #000000; stroke-width: 0.8"/>
      </g>
     </g>
     <g id="text_3">
      <!-- $\mathdefault{0.0}$ -->
      <g transform="translate(229.79526 321.502498) scale(0.1 -0.1)">
       <use xlink:href="#CMR17-30" transform="scale(0.996264)"/>
       <use xlink:href="#CMMI12-3a" transform="translate(45.690477 0) scale(0.996264)"/>
       <use xlink:href="#CMR17-30" transform="translate(72.787654 0) scale(0.996264)"/>
      </g>
     </g>
    </g>
    <g id="xtick_4">
     <g id="line2d_4">
      <g>
       <use xlink:href="#m52b06f498b" x="296.640336" y="307.584" style="stroke: #000000; stroke-width: 0.8"/>
      </g>
     </g>
     <g id="text_4">
      <!-- $\mathdefault{0.5}$ -->
      <g transform="translate(290.275297 321.502498) scale(0.1 -0.1)">
       <use xlink:href="#CMR17-30" transform="scale(0.996264)"/>
       <use xlink:href="#CMMI12-3a" transform="translate(45.690477 0) scale(0.996264)"/>
       <use xlink:href="#CMR17-35" transform="translate(72.787654 0) scale(0.996264)"/>
      </g>
     </g>
    </g>
    <g id="xtick_5">
     <g id="line2d_5">
      <g>
       <use xlink:href="#m52b06f498b" x="357.120374" y="307.584" style="stroke: #000000; stroke-width: 0.8"/>
      </g>
     </g>
     <g id="text_5">
      <!-- $\mathdefault{1.0}$ -->
      <g transform="translate(350.755334 321.502498) scale(0.1 -0.1)">
       <use xlink:href="#CMR17-31" transform="scale(0.996264)"/>
       <use xlink:href="#CMMI12-3a" transform="translate(45.690477 0) scale(0.996264)"/>
       <use xlink:href="#CMR17-30" transform="translate(72.787654 0) scale(0.996264)"/>
      </g>
     </g>
    </g>
    <g id="text_6">
     <!-- x -->
     <g transform="translate(232.590097 338.509265) scale(0.16 -0.16)">
      <defs>
       <path id="CMSS17-78" d="M 1587 1414 
L 2656 2739 
L 2099 2739 
L 1363 1777 
L 602 2739 
L 32 2739 
L 1139 1414 
L 0 0 
L 563 0 
L 1363 1121 
L 2195 0 
L 2758 0 
L 1587 1414 
z
" transform="scale(0.015625)"/>
      </defs>
      <use xlink:href="#CMSS17-78" transform="scale(0.996264)"/>
     </g>
    </g>
   </g>
   <g id="matplotlib.axis_2">
    <g id="ytick_1">
     <g id="line2d_6">
      <defs>
       <path id="m621b7377d9" d="M 0 0 
L -3.5 0 
" style="stroke: #000000; stroke-width: 0.8"/>
      </defs>
      <g>
       <use xlink:href="#m621b7377d9" x="57.6" y="295.48815" style="stroke: #000000; stroke-width: 0.8"/>
      </g>
     </g>
     <g id="text_7">
      <!-- $\mathdefault{−1.00}$ -->
      <g transform="translate(25.139842 298.947399) scale(0.1 -0.1)">
       <use xlink:href="#CMSY10-0" transform="scale(0.996264)"/>
       <use xlink:href="#CMR17-31" transform="translate(77.487468 0) scale(0.996264)"/>
       <use xlink:href="#CMMI12-3a" transform="translate(123.177945 0) scale(0.996264)"/>
       <use xlink:href="#CMR17-30" transform="translate(150.275122 0) scale(0.996264)"/>
       <use xlink:href="#CMR17-30" transform="translate(195.965599 0) scale(0.996264)"/>
      </g>
     </g>
    </g>
    <g id="ytick_2">
     <g id="line2d_7">
      <g>
       <use xlink:href="#m621b7377d9" x="57.6" y="265.248131" style="stroke: #000000; stroke-width: 0.8"/>
      </g>
     </g>
     <g id="text_8">
      <!-- $\mathdefault{−0.75}$ -->
      <g transform="translate(25.139842 268.70738) scale(0.1 -0.1)">
       <defs>
        <path id="CMR17-37" d="M 2886 3941 
L 2886 4081 
L 1382 4081 
C 634 4081 621 4165 595 4288 
L 480 4288 
L 294 3094 
L 410 3094 
C 429 3215 474 3540 550 3661 
C 589 3712 1062 3712 1171 3712 
L 2579 3712 
L 1869 2661 
C 1395 1954 1069 999 1069 165 
C 1069 89 1069 -128 1299 -128 
C 1530 -128 1530 89 1530 171 
L 1530 465 
C 1530 1508 1709 2196 2003 2636 
L 2886 3941 
z
" transform="scale(0.015625)"/>
       </defs>
       <use xlink:href="#CMSY10-0" transform="scale(0.996264)"/>
       <use xlink:href="#CMR17-30" transform="translate(77.487468 0) scale(0.996264)"/>
       <use xlink:href="#CMMI12-3a" transform="translate(123.177945 0) scale(0.996264)"/>
       <use xlink:href="#CMR17-37" transform="translate(150.275122 0) scale(0.996264)"/>
       <use xlink:href="#CMR17-35" transform="translate(195.965599 0) scale(0.996264)"/>
      </g>
     </g>
    </g>
    <g id="ytick_3">
     <g id="line2d_8">
      <g>
       <use xlink:href="#m621b7377d9" x="57.6" y="235.008112" style="stroke: #000000; stroke-width: 0.8"/>
      </g>
     </g>
     <g id="text_9">
      <!-- $\mathdefault{−0.50}$ -->
      <g transform="translate(25.139842 238.467361) scale(0.1 -0.1)">
       <use xlink:href="#CMSY10-0" transform="scale(0.996264)"/>
       <use xlink:href="#CMR17-30" transform="translate(77.487468 0) scale(0.996264)"/>
       <use xlink:href="#CMMI12-3a" transform="translate(123.177945 0) scale(0.996264)"/>
       <use xlink:href="#CMR17-35" transform="translate(150.275122 0) scale(0.996264)"/>
       <use xlink:href="#CMR17-30" transform="translate(195.965599 0) scale(0.996264)"/>
      </g>
     </g>
    </g>
    <g id="ytick_4">
     <g id="line2d_9">
      <g>
       <use xlink:href="#m621b7377d9" x="57.6" y="204.768093" style="stroke: #000000; stroke-width: 0.8"/>
      </g>
     </g>
     <g id="text_10">
      <!-- $\mathdefault{−0.25}$ -->
      <g transform="translate(25.139842 208.227343) scale(0.1 -0.1)">
       <defs>
        <path id="CMR17-32" d="M 2669 989 
L 2554 989 
C 2490 536 2438 459 2413 420 
C 2381 369 1920 369 1830 369 
L 602 369 
C 832 619 1280 1072 1824 1597 
C 2214 1967 2669 2402 2669 3035 
C 2669 3790 2067 4224 1395 4224 
C 691 4224 262 3604 262 3030 
C 262 2780 448 2748 525 2748 
C 589 2748 781 2787 781 3010 
C 781 3207 614 3264 525 3264 
C 486 3264 448 3258 422 3245 
C 544 3790 915 4058 1306 4058 
C 1862 4058 2227 3617 2227 3035 
C 2227 2479 1901 2000 1536 1584 
L 262 146 
L 262 0 
L 2515 0 
L 2669 989 
z
" transform="scale(0.015625)"/>
       </defs>
       <use xlink:href="#CMSY10-0" transform="scale(0.996264)"/>
       <use xlink:href="#CMR17-30" transform="translate(77.487468 0) scale(0.996264)"/>
       <use xlink:href="#CMMI12-3a" transform="translate(123.177945 0) scale(0.996264)"/>
       <use xlink:href="#CMR17-32" transform="translate(150.275122 0) scale(0.996264)"/>
       <use xlink:href="#CMR17-35" transform="translate(195.965599 0) scale(0.996264)"/>
      </g>
     </g>
    </g>
    <g id="ytick_5">
     <g id="line2d_10">
      <g>
       <use xlink:href="#m621b7377d9" x="57.6" y="174.528075" style="stroke: #000000; stroke-width: 0.8"/>
      </g>
     </g>
     <g id="text_11">
      <!-- $\mathdefault{0.00}$ -->
      <g transform="translate(32.888586 177.987324) scale(0.1 -0.1)">
       <use xlink:href="#CMR17-30" transform="scale(0.996264)"/>
       <use xlink:href="#CMMI12-3a" transform="translate(45.690477 0) scale(0.996264)"/>
       <use xlink:href="#CMR17-30" transform="translate(72.787654 0) scale(0.996264)"/>
       <use xlink:href="#CMR17-30" transform="translate(118.478131 0) scale(0.996264)"/>
      </g>
     </g>
    </g>
    <g id="ytick_6">
     <g id="line2d_11">
      <g>
       <use xlink:href="#m621b7377d9" x="57.6" y="144.288056" style="stroke: #000000; stroke-width: 0.8"/>
      </g>
     </g>
     <g id="text_12">
      <!-- $\mathdefault{0.25}$ -->
      <g transform="translate(32.888586 147.747305) scale(0.1 -0.1)">
       <use xlink:href="#CMR17-30" transform="scale(0.996264)"/>
       <use xlink:href="#CMMI12-3a" transform="translate(45.690477 0) scale(0.996264)"/>
       <use xlink:href="#CMR17-32" transform="translate(72.787654 0) scale(0.996264)"/>
       <use xlink:href="#CMR17-35" transform="translate(118.478131 0) scale(0.996264)"/>
      </g>
     </g>
    </g>
    <g id="ytick_7">
     <g id="line2d_12">
      <g>
       <use xlink:href="#m621b7377d9" x="57.6" y="114.048037" style="stroke: #000000; stroke-width: 0.8"/>
      </g>
     </g>
     <g id="text_13">
      <!-- $\mathdefault{0.50}$ -->
      <g transform="translate(32.888586 117.507287) scale(0.1 -0.1)">
       <use xlink:href="#CMR17-30" transform="scale(0.996264)"/>
       <use xlink:href="#CMMI12-3a" transform="translate(45.690477 0) scale(0.996264)"/>
       <use xlink:href="#CMR17-35" transform="translate(72.787654 0) scale(0.996264)"/>
       <use xlink:href="#CMR17-30" transform="translate(118.478131 0) scale(0.996264)"/>
      </g>
     </g>
    </g>
    <g id="ytick_8">
     <g id="line2d_13">
      <g>
       <use xlink:href="#m621b7377d9" x="57.6" y="83.808019" style="stroke: #000000; stroke-width: 0.8"/>
      </g>
     </g>
     <g id="text_14">
      <!-- $\mathdefault{0.75}$ -->
      <g transform="translate(32.888586 87.267268) scale(0.1 -0.1)">
       <use xlink:href="#CMR17-30" transform="scale(0.996264)"/>
       <use xlink:href="#CMMI12-3a" transform="translate(45.690477 0) scale(0.996264)"/>
       <use xlink:href="#CMR17-37" transform="translate(72.787654 0) scale(0.996264)"/>
       <use xlink:href="#CMR17-35" transform="translate(118.478131 0) scale(0.996264)"/>
      </g>
     </g>
    </g>
    <g id="ytick_9">
     <g id="line2d_14">
      <g>
       <use xlink:href="#m621b7377d9" x="57.6" y="53.568" style="stroke: #000000; stroke-width: 0.8"/>
      </g>
     </g>
     <g id="text_15">
      <!-- $\mathdefault{1.00}$ -->
      <g transform="translate(32.888586 57.027249) scale(0.1 -0.1)">
       <use xlink:href="#CMR17-31" transform="scale(0.996264)"/>
       <use xlink:href="#CMMI12-3a" transform="translate(45.690477 0) scale(0.996264)"/>
       <use xlink:href="#CMR17-30" transform="translate(72.787654 0) scale(0.996264)"/>
       <use xlink:href="#CMR17-30" transform="translate(118.478131 0) scale(0.996264)"/>
      </g>
     </g>
    </g>
    <g id="text_16">
     <!-- y -->
     <g transform="translate(18.040366 178.097903) rotate(-90) scale(0.16 -0.16)">
      <defs>
       <path id="CMSS17-79" d="M 2675 2752 
L 2176 2752 
C 1632 1294 1446 702 1434 383 
L 1427 383 
C 1408 696 1126 1460 902 2007 
L 602 2752 
L 83 2752 
L 1216 13 
C 1146 -178 1043 -465 1011 -529 
C 870 -885 774 -885 672 -885 
C 646 -885 442 -885 211 -809 
L 250 -1229 
C 410 -1261 570 -1280 685 -1280 
C 845 -1280 1165 -1280 1459 -497 
L 2675 2752 
z
" transform="scale(0.015625)"/>
      </defs>
      <use xlink:href="#CMSS17-79" transform="scale(0.996264)"/>
     </g>
    </g>
   </g>
   <g id="line2d_15">
    <path d="M 115.200224 174.528075 
L 115.317435 179.851782 
L 115.668839 185.165172 
L 116.253757 190.457947 
L 117.071054 195.71985 
L 118.119146 200.940683 
L 119.396002 206.110328 
L 120.899149 211.218767 
L 122.625671 216.256099 
L 124.572225 221.212562 
L 126.735036 226.078551 
L 129.109914 230.844634 
L 131.692257 235.501576 
L 134.477058 240.04035 
L 137.458923 244.452162 
L 140.63207 248.72846 
L 143.990352 252.860958 
L 147.52726 256.841647 
L 151.235939 260.662811 
L 155.109202 264.317046 
L 159.139542 267.797269 
L 163.319148 271.096737 
L 167.639921 274.209053 
L 172.093487 277.128188 
L 176.671215 279.848484 
L 181.364232 282.364668 
L 186.163445 284.671864 
L 191.059552 286.765601 
L 196.043064 288.641821 
L 201.104323 290.296889 
L 206.233521 291.727596 
L 211.420718 292.931169 
L 216.65586 293.905277 
L 221.928801 294.648032 
L 227.229323 295.157994 
L 232.547154 295.434174 
L 237.871986 295.476038 
L 243.193502 295.283504 
L 248.501387 294.856946 
L 253.785355 294.19719 
L 259.035166 293.305514 
L 264.240645 292.183648 
L 269.391704 290.833764 
L 274.47836 289.25848 
L 279.490756 287.460847 
L 284.419178 285.444351 
L 289.254073 283.212898 
L 293.986073 280.770814 
L 298.606006 278.12283 
L 303.104919 275.27408 
L 307.474093 272.230084 
L 311.70506 268.99674 
L 315.789622 265.580316 
L 319.719861 261.987432 
L 323.488162 258.225052 
L 327.087221 254.300467 
L 330.510063 250.221282 
L 333.750056 245.995404 
L 336.800918 241.631022 
L 339.656739 237.136593 
L 342.311983 232.52083 
L 344.761505 227.792676 
L 347.000557 222.961295 
L 349.024801 218.03605 
L 350.830312 213.026487 
L 352.413593 207.942314 
L 353.771574 202.793383 
L 354.901624 197.589675 
L 355.801553 192.341273 
L 356.469617 187.058349 
L 356.90452 181.751141 
L 357.105421 176.429935 
L 357.07193 171.105043 
L 356.804112 165.786785 
L 356.302485 160.485467 
L 355.568022 155.211364 
L 354.602147 149.974697 
L 353.406731 144.785615 
L 351.984091 139.654174 
L 350.336983 134.590318 
L 348.468601 129.603862 
L 346.382565 124.704469 
L 344.082918 119.901635 
L 341.574116 115.204666 
L 338.861022 110.622667 
L 335.948894 106.164517 
L 332.843375 101.838856 
L 329.550483 97.654066 
L 326.076601 93.618259 
L 322.428461 89.739255 
L 318.613133 86.024573 
L 314.638011 82.48141 
L 310.510798 79.116635 
L 306.239495 75.936767 
L 301.832377 72.947969 
L 297.297987 70.156034 
L 292.645111 67.566373 
L 287.882768 65.184004 
L 283.020186 63.013544 
L 278.06679 61.059199 
L 273.032179 59.324758 
L 267.92611 57.813581 
L 262.758479 56.528598 
L 257.5393 55.472298 
L 252.278689 54.646728 
L 246.98684 54.053489 
L 241.674009 53.693731 
L 236.350493 53.56815 
L 231.026608 53.676989 
L 225.712672 54.020039 
L 220.418984 54.596633 
L 215.155803 55.405655 
L 209.933328 56.445537 
L 204.761681 57.714264 
L 199.650885 59.209376 
L 194.610844 60.927976 
L 189.651327 62.866733 
L 184.781944 65.021891 
L 180.012132 67.389272 
L 175.351136 69.964289 
L 170.807988 72.74195 
L 166.391493 75.716874 
L 162.110211 78.883294 
L 157.972438 82.235074 
L 153.986193 85.765718 
L 150.159202 89.468384 
L 146.498881 93.335896 
L 143.012325 97.360759 
L 139.70629 101.535173 
L 136.587183 105.851047 
L 133.661049 110.300017 
L 130.933559 114.873461 
L 128.409999 119.562517 
L 126.09526 124.358096 
L 123.993827 129.250904 
L 122.109773 134.23146 
L 120.446749 139.290111 
L 119.007979 144.417053 
L 117.796251 149.602351 
L 116.813912 154.835955 
L 116.062867 160.107722 
L 115.544572 165.407435 
L 115.26003 170.724825 
L 115.200224 174.528075 
L 115.200224 174.528075 
" clip-path="url(#pf34180592d)" style="fill: none; stroke: #000000; stroke-width: 1.5; stroke-linecap: square"/>
   </g>
   <g id="patch_7">
    <path d="M 57.6 307.584 
L 57.6 41.472 
" style="fill: none; stroke: #000000; stroke-width: 0.8; stroke-linejoin: miter; stroke-linecap: square"/>
   </g>
   <g id="patch_8">
    <path d="M 414.72 307.584 
L 414.72 41.472 
" style="fill: none; stroke: #000000; stroke-width: 0.8; stroke-linejoin: miter; stroke-linecap: square"/>
   </g>
   <g id="patch_9">
    <path d="M 57.6 307.584 
L 414.72 307.584 
" style="fill: none; stroke: #000000; stroke-width: 0.8; stroke-linejoin: miter; stroke-linecap: square"/>
   </g>
   <g id="patch_10">
    <path d="M 57.6 41.472 
L 414.72 41.472 
" style="fill: none; stroke: #000000; stroke-width: 0.8; stroke-linejoin: miter; stroke-linecap: square"/>
   </g>
   <g id="legend_1">
    <g id="patch_11">
     <path d="M 285.71865 121.170429 
L 403.52 121.170429 
Q 406.72 121.170429 406.72 117.970429 
L 406.72 52.672 
Q 406.72 49.472 403.52 49.472 
L 285.71865 49.472 
Q 282.51865 49.472 282.51865 52.672 
L 282.51865 117.970429 
Q 282.51865 121.170429 285.71865 121.170429 
z
" style="fill: #ffffff; opacity: 0.8; stroke: #cccccc; stroke-linejoin: miter"/>
    </g>
    <g id="line2d_16">
     <path d="M 288.91865 61.472 
L 304.91865 61.472 
L 320.91865 61.472 
" style="fill: none; stroke: #000000; stroke-width: 1.5; stroke-linecap: square"/>
    </g>
    <g id="text_17">
     <!-- Unit circle -->
     <g transform="translate(333.71865 67.072) scale(0.16 -0.16)">
      <defs>
       <path id="CMSS17-55" d="M 3552 4384 
L 3066 4384 
L 3066 1449 
C 3066 604 2547 229 2074 229 
C 1587 229 1101 623 1101 1443 
L 1101 4384 
L 563 4384 
L 563 1454 
C 563 539 1274 -128 2067 -128 
C 2861 -128 3552 539 3552 1454 
L 3552 4384 
z
" transform="scale(0.015625)"/>
       <path id="CMSS17-6e" d="M 2618 1877 
C 2618 2283 2522 2816 1798 2816 
C 1389 2816 1120 2606 941 2389 
L 941 2758 
L 474 2758 
L 474 0 
L 960 0 
L 960 1559 
C 960 1964 1114 2428 1549 2428 
C 2112 2428 2131 2048 2131 1829 
L 2131 0 
L 2618 0 
L 2618 1877 
z
" transform="scale(0.015625)"/>
       <path id="CMSS17-69" d="M 979 4183 
L 442 4183 
L 442 3648 
L 979 3648 
L 979 4183 
z
M 947 2739 
L 474 2739 
L 474 0 
L 947 0 
L 947 2739 
z
" transform="scale(0.015625)"/>
       <path id="CMSS17-74" d="M 1069 2368 
L 1901 2368 
L 1901 2737 
L 1069 2737 
L 1069 3520 
L 614 3520 
L 614 2737 
L 109 2737 
L 109 2368 
L 602 2368 
L 602 749 
C 602 384 685 -64 1107 -64 
C 1427 -64 1722 25 2003 172 
L 1901 548 
C 1747 414 1562 337 1363 337 
C 1082 337 1069 696 1069 856 
L 1069 2368 
z
" transform="scale(0.015625)"/>
       <path id="CMSS17-63" d="M 2464 2541 
C 2464 2585 2170 2714 2093 2739 
C 1882 2816 1613 2816 1542 2816 
C 710 2816 211 2093 211 1363 
C 211 595 768 -64 1517 -64 
C 1946 -64 2253 76 2502 242 
L 2464 664 
C 2189 453 1869 337 1523 337 
C 1024 337 698 774 698 1369 
C 698 1831 909 2414 1549 2414 
C 1901 2414 2099 2343 2394 2145 
L 2464 2541 
z
" transform="scale(0.015625)"/>
       <path id="CMSS17-72" d="M 954 1363 
C 954 1965 1395 2368 1958 2368 
L 1958 2789 
C 1549 2789 1165 2585 934 2253 
L 934 2758 
L 480 2758 
L 480 0 
L 954 0 
L 954 1363 
z
" transform="scale(0.015625)"/>
       <path id="CMSS17-6c" d="M 947 4416 
L 474 4416 
L 474 0 
L 947 0 
L 947 4416 
z
" transform="scale(0.015625)"/>
       <path id="CMSS17-65" d="M 2502 1377 
C 2502 1590 2490 2003 2285 2345 
C 2061 2713 1696 2816 1421 2816 
C 755 2816 192 2188 192 1375 
C 192 582 774 -64 1510 -64 
C 1798 -64 2150 19 2470 248 
C 2470 274 2458 414 2451 420 
C 2451 433 2432 630 2432 656 
C 2125 407 1773 325 1517 325 
C 1107 325 666 667 646 1377 
L 2502 1377 
z
M 698 1728 
C 781 2084 1062 2421 1421 2421 
C 1517 2421 1965 2421 2080 1728 
L 698 1728 
z
" transform="scale(0.015625)"/>
      </defs>
      <use xlink:href="#CMSS17-55" transform="scale(0.996264)"/>
      <use xlink:href="#CMSS17-6e" transform="translate(64.13974 0) scale(0.996264)"/>
      <use xlink:href="#CMSS17-69" transform="translate(112.344683 0) scale(0.996264)"/>
      <use xlink:href="#CMSS17-74" transform="translate(134.525406 0) scale(0.996264)"/>
      <use xlink:href="#CMSS17-63" transform="translate(199.586086 0) scale(0.996264)"/>
      <use xlink:href="#CMSS17-69" transform="translate(241.224908 0) scale(0.996264)"/>
      <use xlink:href="#CMSS17-72" transform="translate(263.405631 0) scale(0.996264)"/>
      <use xlink:href="#CMSS17-63" transform="translate(295.315404 0) scale(0.996264)"/>
      <use xlink:href="#CMSS17-6c" transform="translate(336.954226 0) scale(0.996264)"/>
      <use xlink:href="#CMSS17-65" transform="translate(359.134949 0) scale(0.996264)"/>
     </g>
    </g>
    <g id="patch_12">
     <path d="M 288.91865 89.371476 
L 320.91865 89.371476 
L 320.91865 78.171476 
L 288.91865 78.171476 
z
" style="fill: #3584e4; stroke-dasharray: 9.25,4; stroke-dashoffset: 0; stroke: #3584e4; stroke-width: 2.5; stroke-linejoin: miter"/>
    </g>
    <g id="text_18">
     <!-- $\theta^0$ -->
     <g transform="translate(333.71865 89.371476) scale(0.16 -0.16)">
      <defs>
       <path id="CMMI12-12" d="M 2835 3200 
C 2835 3850 2630 4480 2106 4480 
C 1210 4480 256 2615 256 1216 
C 256 923 320 -64 992 -64 
C 1862 -64 2835 1756 2835 3200 
z
M 896 2304 
C 992 2679 1126 3214 1382 3665 
C 1594 4047 1818 4352 2099 4352 
C 2310 4352 2451 4174 2451 3564 
C 2451 3334 2432 3017 2246 2304 
L 896 2304 
z
M 2202 2113 
C 2042 1490 1907 1088 1677 687 
C 1491 363 1267 64 998 64 
C 800 64 640 217 640 846 
C 640 1260 742 1693 845 2113 
L 2202 2113 
z
" transform="scale(0.015625)"/>
      </defs>
      <use xlink:href="#CMMI12-12" transform="scale(0.996264)"/>
      <use xlink:href="#CMR17-30" transform="translate(48.169508 36.153639) scale(0.697382)"/>
     </g>
    </g>
    <g id="patch_13">
     <path d="M 288.91865 111.670952 
L 320.91865 111.670952 
L 320.91865 100.470952 
L 288.91865 100.470952 
z
" style="fill: #f5c211; stroke-dasharray: 16,4,2.5,4; stroke-dashoffset: 0; stroke: #f5c211; stroke-width: 2.5; stroke-linejoin: miter"/>
    </g>
    <g id="text_19">
     <!-- $\bar{\theta}$ -->
     <g transform="translate(333.71865 111.670952) scale(0.16 -0.16)">
      <defs>
       <path id="CMR17-16" d="M 2554 3520 
L 2554 3666 
L 378 3666 
L 378 3520 
L 2554 3520 
z
" transform="scale(0.015625)"/>
      </defs>
      <use xlink:href="#CMR17-16" transform="translate(9.368676 26.296621) scale(0.996264)"/>
      <use xlink:href="#CMMI12-12" transform="scale(0.996264)"/>
     </g>
    </g>
   </g>
  </g>
 </g>
 <defs>
  <clipPath id="pf34180592d">
   <rect x="57.6" y="41.472" width="357.12" height="266.112"/>
  </clipPath>
 </defs>
</svg>
